M48
; DRILL file {KiCad 5.1.10} date Wed Jul 28 13:21:44 2021
; FORMAT={-:-/ absolute / inch / decimal}
; #@! TF.CreationDate,2021-07-28T13:21:44+02:00
; #@! TF.GenerationSoftware,Kicad,Pcbnew,5.1.10
FMAT,2
INCH
T1C0.0157
T2C0.0256
T3C0.0295
T4C0.0354
T5C0.0394
T6C0.0472
T7C0.0528
T8C0.0866
T9C0.1102
T10C0.0689
T11C0.1181
T12C0.1575
%
G90
G05
T1
X-0.33Y-3.325
X-0.325Y0.34
X-0.325Y-1.725
X-0.325Y-1.975
X0.2648Y0.0671
X0.2805Y0.0947
X0.2963Y0.0671
X0.312Y0.0947
X0.3278Y0.0671
X0.3435Y0.0947
X0.3593Y0.0671
X0.3907Y0.0671
X0.3936Y-0.04
X0.4065Y0.0947
X0.42Y-0.08
X0.4222Y0.0671
X0.438Y0.0947
X0.45Y-0.155
X0.4537Y0.0671
X0.4695Y0.0947
X0.4852Y0.0671
X0.5Y-0.155
X0.5Y-2.55
X0.5Y-3.105
X0.5894Y0.055
X0.6Y-0.45
X0.6Y-0.5
X0.615Y0.225
X0.625Y-0.925
X0.65Y-1.5
X0.695Y-1.09
X0.715Y-1.84
X0.85Y-1.2
X0.875Y-1.15
X1.0Y-2.25
X1.04Y-0.175
X1.135Y-2.275
X1.145Y-2.625
X1.15Y0.325
X1.16Y-0.115
X1.16Y-0.175
X1.168Y-2.515
X1.2012Y-2.4897
X1.235Y-2.51
X1.345Y-1.935
X1.365Y-1.97
X1.39Y-2.005
X1.41Y-2.045
X1.425Y-0.365
X1.43Y-2.085
X1.45Y-2.125
X1.475Y-1.09
X1.5Y-0.725
X1.5Y-3.0
X1.52Y-0.925
X1.66Y-1.84
X1.705Y-1.675
X2.045Y-2.49
X2.075Y-2.19
X2.17Y-0.365
X2.22Y-2.695
X2.235Y-1.09
X2.345Y-3.105
X2.4Y-1.3
X2.4Y-1.5
X2.42Y-1.84
X2.42Y-1.935
X2.45Y-1.21
X2.5Y-1.305
X2.5Y-3.0065
X2.5226Y-3.0387
X2.595Y-1.27
X2.625Y0.325
X2.665Y-3.33
X2.715Y-2.185
X2.74Y-3.095
X2.775Y-2.175
X2.88Y-2.99
X2.9192Y-0.3392
X2.93Y-2.18
X2.93Y-2.825
X2.94Y-1.865
X2.96Y-3.33
X2.975Y-1.09
X2.9765Y-2.9644
X2.9795Y-3.0105
X2.98Y-3.05
X2.98Y-3.09
X2.995Y-2.755
X3.0Y-0.725
X3.065Y-1.925
X3.1Y-3.0184
X3.1087Y-2.9755
X3.1379Y-3.0945
X3.1481Y-2.9714
X3.175Y-1.15
X3.175Y-1.84
X3.185Y-2.765
X3.185Y-3.09
X3.1861Y-2.9224
X3.1906Y-2.726
X3.2195Y-2.9015
X3.25Y-2.58
X3.256Y-2.8856
X3.2898Y-2.7548
X3.295Y-2.88
X3.32Y-2.725
X3.445Y-3.05
X3.46Y-2.655
X3.48Y-2.16
X3.5352Y-2.9898
X3.55Y-1.15
X3.55Y-1.95
X3.57Y-3.11
X3.5715Y-2.9714
X3.6Y-1.9
X3.625Y-1.09
X3.645Y-2.58
X3.655Y-2.655
X3.6742Y-0.3392
X3.685Y-3.115
X3.77Y-0.5
X3.8547Y-2.9699
X3.8922Y-2.9822
X3.92Y-3.01
X3.925Y-1.5
X3.925Y-1.84
X3.955Y-3.0314
X4.0098Y-3.0852
X4.045Y-1.84
X4.045Y-2.005
X4.065Y-1.74
X4.125Y0.325
X4.135Y-3.18
X4.174Y-3.1714
X4.1985Y-3.1406
X4.235Y-2.195
X4.235Y-3.12
X4.26Y-2.0
X4.275Y-2.45
X4.345Y-2.595
X4.35Y-1.84
X4.35Y-2.0
X4.36Y-1.745
X4.425Y-0.355
X4.425Y-2.64
X4.48Y-2.63
X4.485Y-1.09
X4.505Y-1.715
X4.6Y-1.125
X5.02Y-2.12
X5.14Y-2.0
X5.175Y-0.365
X5.185Y-2.54
X5.185Y-2.8
X5.24Y-1.09
X5.3Y-1.84
X5.425Y-1.5
X5.475Y-1.15
X5.475Y-1.9
X5.525Y-1.2
X5.525Y-1.95
X5.625Y0.325
X5.725Y-3.33
X5.77Y-2.12
X5.79Y-2.965
X5.8Y-3.105
X5.825Y-2.25
X5.845Y-3.33
X5.89Y-2.0
X5.93Y-0.34
X5.995Y-1.09
X6.0Y-0.725
X6.05Y-1.84
X6.305Y-2.7
X6.305Y-3.05
X6.305Y-3.09
X6.535Y-2.11
X6.61Y-3.33
X6.675Y-0.345
X6.725Y-1.09
X6.7394Y-3.0651
X6.805Y-1.84
X6.885Y-3.33
X6.95Y-1.5
X7.075Y-2.615
X7.11Y-2.645
X7.125Y0.325
X7.125Y-3.175
X7.14Y-2.81
X7.145Y-2.665
X7.17Y-2.7
X7.17Y-2.78
X7.285Y-2.11
X7.325Y-2.25
X7.425Y-0.345
X7.485Y-1.09
X7.5Y-0.725
X7.52Y-2.745
X7.555Y-1.84
X7.585Y-2.795
X8.035Y-2.115
X8.175Y-0.345
X8.235Y-1.09
X8.31Y-1.84
X8.45Y-1.5
X8.625Y0.325
X8.735Y-1.84
X8.735Y-2.11
X8.8Y-2.225
X8.9044Y-2.085
X8.91Y-1.96
X8.91Y-2.67
X8.925Y-0.34
X8.93Y-1.92
X8.94Y-2.64
X8.95Y-1.88
X8.965Y-2.605
X8.97Y-1.09
X9.0Y-0.725
X9.0Y-3.0
X9.04Y-2.575
X9.055Y-1.84
X9.145Y-1.09
X9.175Y-1.25
X9.245Y-0.24
X9.34Y-0.34
X9.425Y-0.18
X9.73Y-1.09
X9.735Y-3.16
X9.81Y-1.84
X9.825Y-1.1
X9.875Y-1.125
X9.97Y-0.24
X9.97Y-0.335
X10.075Y-2.36
X10.1Y-0.185
X10.125Y0.325
X10.185Y-0.29
X10.505Y-0.995
X10.58Y-0.45
X10.625Y-1.775
X10.825Y-0.475
X10.825Y-0.85
X10.825Y-1.425
X10.825Y-1.975
X10.83Y-3.325
X10.835Y0.345
T2
X4.225Y-2.95
X4.275Y-2.95
X4.325Y-2.95
X4.375Y-2.95
T3
X4.53Y-0.525
X4.53Y-0.6037
T4
X8.015Y-3.21
X8.115Y-3.21
T5
X10.4Y0.2709
X10.4Y-0.3
X10.4984Y-0.3
X10.5969Y0.2709
X10.5969Y-0.3
T6
X0.795Y-1.3543
X0.795Y-1.5
X0.795Y-1.6457
T7
X0.2069Y0.2986
X0.2069Y0.1124
X0.5431Y0.2986
X0.5431Y0.1124
T8
X-0.235Y-1.855
X0.63Y-0.73
X4.685Y-1.495
X7.14Y-2.985
X9.875Y-0.73
X10.73Y-1.855
T9
X10.278Y-0.0047
X10.7189Y-0.0047
T10
X-0.1062Y-3.0
X-0.0125Y-0.75
X0.0Y0.2
X0.0Y-0.2
X0.0813Y-1.5
X0.2687Y-2.25
X0.2938Y-3.0
X0.3875Y-0.75
X0.4813Y-1.5
X0.6687Y-2.25
X0.75Y0.2
X0.75Y-0.2
X0.8312Y-3.0
X0.925Y-0.75
X1.1125Y-1.5
X1.2312Y-3.0
X1.3Y0.0
X1.325Y-0.75
X1.4875Y-2.25
X1.5125Y-1.5
X1.675Y-0.75
X1.7Y0.0
X1.7688Y-3.0
X1.8625Y-1.5
X1.8875Y-2.25
X2.05Y0.0
X2.075Y-0.75
X2.1687Y-3.0
X2.2375Y-2.25
X2.2625Y-1.5
X2.425Y-0.75
X2.45Y0.0
X2.6125Y-1.5
X2.6375Y-2.25
X2.8Y0.0
X2.825Y-0.75
X2.9875Y-2.25
X3.0125Y-1.5
X3.175Y-0.75
X3.2Y0.0
X3.3625Y-1.5
X3.3875Y-2.25
X3.55Y0.0
X3.575Y-0.75
X3.7375Y-2.25
X3.7625Y-1.5
X3.925Y-0.75
X3.95Y0.0
X4.1125Y-1.5
X4.1375Y-2.25
X4.3Y0.0
X4.325Y-0.75
X4.4875Y-2.25
X4.5125Y-1.5
X4.5812Y-3.0
X4.675Y-0.75
X4.7Y0.0
X4.8625Y-1.5
X4.8875Y-2.25
X4.9813Y-3.0
X5.05Y0.0
X5.075Y-0.75
X5.2375Y-2.25
X5.2625Y-1.5
X5.425Y-0.75
X5.45Y0.0
X5.6125Y-1.5
X5.6375Y-2.25
X5.8Y0.0
X5.825Y-0.75
X5.9875Y-2.25
X6.0125Y-1.5
X6.175Y-0.75
X6.2Y0.0
X6.3625Y-1.5
X6.3875Y-2.25
X6.55Y0.0
X6.575Y-0.75
X6.7375Y-2.25
X6.7625Y-1.5
X6.925Y-0.75
X6.95Y0.0
X7.1125Y-1.5
X7.1375Y-2.25
X7.3Y0.0
X7.325Y-0.75
X7.3937Y-3.0
X7.4875Y-2.25
X7.5125Y-1.5
X7.675Y-0.75
X7.7Y0.0
X7.7938Y-3.0
X7.8625Y-1.5
X7.8875Y-2.25
X8.05Y0.0
X8.075Y-0.75
X8.2375Y-2.25
X8.2625Y-1.5
X8.3312Y-3.0
X8.425Y-0.75
X8.45Y0.0
X8.6125Y-1.5
X8.6375Y-2.25
X8.7312Y-3.0
X8.8Y0.0
X8.825Y-0.75
X9.0125Y-1.5
X9.175Y-0.75
X9.2Y0.0
X9.2687Y-3.0
X9.3625Y-1.5
X9.55Y0.0
X9.575Y-0.75
X9.6437Y-2.25
X9.6687Y-3.0
X9.7625Y-1.5
X9.95Y0.0
X10.0437Y-2.25
X10.2062Y-1.125
X10.2062Y-3.0
X10.6062Y-1.125
X10.6062Y-3.0
T11
X-0.2Y0.1
X-0.1Y-0.15
X-0.0563Y-2.9
X0.0Y-2.525
X0.0375Y-0.65
X0.1812Y-1.7
X0.1938Y-2.8
X0.2875Y-0.55
X0.3687Y-2.45
X0.4312Y-1.6
X0.6188Y-2.35
X0.85Y0.15
X0.8812Y-2.9
X0.935Y-2.525
X0.95Y-0.1
X1.025Y-0.95
X1.1312Y-2.8
X1.2125Y-1.7
X1.275Y-0.85
X1.4Y-0.2
X1.4625Y-1.6
X1.5875Y-2.45
X1.65Y-0.1
X1.775Y-0.95
X1.8187Y-2.9
X1.8375Y-2.35
X1.9625Y-1.7
X2.025Y-0.85
X2.0688Y-2.8
X2.15Y-0.2
X2.2125Y-1.6
X2.3375Y-2.45
X2.4Y-0.1
X2.525Y-0.95
X2.5875Y-2.35
X2.7125Y-1.7
X2.775Y-0.85
X2.813Y-3.275
X2.9Y-0.2
X2.9625Y-1.6
X3.0875Y-2.45
X3.15Y-0.1
X3.275Y-0.95
X3.3375Y-2.35
X3.4625Y-1.7
X3.525Y-0.85
X3.65Y-0.2
X3.7125Y-1.6
X3.8375Y-2.45
X3.9Y-0.1
X4.025Y-0.95
X4.0875Y-2.35
X4.1625Y-1.4
X4.275Y-0.85
X4.4Y-0.2
X4.4125Y-1.3
X4.5875Y-2.45
X4.6312Y-2.9
X4.65Y-0.1
X4.775Y-0.95
X4.8375Y-2.35
X4.8812Y-2.8
X4.9625Y-1.7
X5.025Y-0.85
X5.15Y-0.2
X5.2125Y-1.6
X5.3375Y-2.45
X5.4Y-0.1
X5.525Y-0.95
X5.5875Y-2.35
X5.7125Y-1.7
X5.775Y-0.85
X5.9Y-0.2
X5.9625Y-1.6
X6.0875Y-2.45
X6.15Y-0.1
X6.275Y-0.95
X6.3375Y-2.35
X6.4625Y-1.7
X6.525Y-0.85
X6.65Y-0.2
X6.7125Y-1.6
X6.75Y-3.275
X6.8375Y-2.45
X6.9Y-0.1
X7.025Y-0.95
X7.0875Y-2.35
X7.2125Y-1.7
X7.275Y-0.85
X7.4Y-0.2
X7.4437Y-2.9
X7.4625Y-1.6
X7.5875Y-2.45
X7.65Y-0.1
X7.6937Y-2.8
X7.775Y-0.95
X7.8375Y-2.35
X7.9625Y-1.7
X8.025Y-0.85
X8.15Y-0.2
X8.2125Y-1.6
X8.3375Y-2.45
X8.3812Y-2.9
X8.4Y-0.1
X8.525Y-0.95
X8.5875Y-2.35
X8.6312Y-2.8
X8.7125Y-1.7
X8.775Y-0.85
X8.9Y-0.2
X8.9625Y-1.6
X9.15Y-0.1
X9.275Y-0.95
X9.3187Y-2.9
X9.375Y-2.525
X9.4625Y-1.7
X9.525Y-0.85
X9.5687Y-2.8
X9.65Y-0.2
X9.6937Y-2.15
X9.7125Y-1.6
X9.9Y-0.1
X9.9437Y-2.05
X10.131Y-0.657
X10.131Y-1.593
X10.2562Y-2.9
X10.3063Y-1.325
X10.312Y-2.525
X10.5062Y-2.8
X10.5563Y-1.225
T12
X0.0Y0.0
X0.001Y-1.926
X0.0938Y-3.0
X0.1875Y-0.75
X0.2812Y-1.5
X0.4688Y-2.25
X0.75Y0.0
X0.937Y-1.926
X1.0312Y-3.0
X1.125Y-0.75
X1.3125Y-1.5
X1.5Y0.0
X1.6875Y-2.25
X1.875Y-0.75
X1.9688Y-3.0
X2.0625Y-1.5
X2.25Y0.0
X2.4375Y-2.25
X2.625Y-0.75
X2.8125Y-1.5
X2.813Y-2.676
X3.0Y0.0
X3.1875Y-2.25
X3.375Y-0.75
X3.5625Y-1.5
X3.75Y0.0
X3.9375Y-2.25
X4.125Y-0.75
X4.3125Y-1.5
X4.5Y0.0
X4.6875Y-2.25
X4.7812Y-3.0
X4.875Y-0.75
X5.0625Y-1.5
X5.25Y0.0
X5.4375Y-2.25
X5.625Y-0.75
X5.8125Y-1.5
X6.0Y0.0
X6.1875Y-2.25
X6.375Y-0.75
X6.5625Y-1.5
X6.75Y0.0
X6.75Y-2.676
X6.9375Y-2.25
X7.125Y-0.75
X7.3125Y-1.5
X7.5Y0.0
X7.5938Y-3.0
X7.6875Y-2.25
X7.875Y-0.75
X8.0625Y-1.5
X8.25Y0.0
X8.4375Y-2.25
X8.5312Y-3.0
X8.625Y-0.75
X8.8125Y-1.5
X9.0Y0.0
X9.375Y-0.75
X9.376Y-1.926
X9.4688Y-3.0
X9.5625Y-1.5
X9.75Y0.0
X9.8438Y-2.25
X10.313Y-1.926
X10.4062Y-1.125
X10.4062Y-3.0
X10.731Y-0.656
X10.731Y-1.594
T0
M30
