%TF.GenerationSoftware,KiCad,Pcbnew,5.1.10*%
%TF.CreationDate,2021-07-28T13:13:53+02:00*%
%TF.ProjectId,msp430_Keyboard,6d737034-3330-45f4-9b65-79626f617264,rev?*%
%TF.SameCoordinates,Original*%
%TF.FileFunction,Soldermask,Top*%
%TF.FilePolarity,Negative*%
%FSLAX46Y46*%
G04 Gerber Fmt 4.6, Leading zero omitted, Abs format (unit mm)*
G04 Created by KiCad (PCBNEW 5.1.10) date 2021-07-28 13:13:53*
%MOMM*%
%LPD*%
G01*
G04 APERTURE LIST*
%ADD10C,2.000000*%
%ADD11C,1.800000*%
%ADD12R,1.800000X1.800000*%
%ADD13C,0.650000*%
%ADD14C,2.012000*%
%ADD15O,1.750000X1.200000*%
%ADD16R,1.400000X1.200000*%
%ADD17R,2.000000X2.000000*%
%ADD18C,3.500000*%
%ADD19O,1.000000X1.000000*%
%ADD20R,1.000000X1.000000*%
%ADD21C,1.750000*%
%ADD22C,4.000000*%
%ADD23C,3.000000*%
%ADD24C,4.400000*%
%ADD25C,2.600000*%
G04 APERTURE END LIST*
%TO.C,R7*%
G36*
G01*
X8973000Y4047500D02*
X8973000Y3572500D01*
G75*
G02*
X8735500Y3335000I-237500J0D01*
G01*
X8235500Y3335000D01*
G75*
G02*
X7998000Y3572500I0J237500D01*
G01*
X7998000Y4047500D01*
G75*
G02*
X8235500Y4285000I237500J0D01*
G01*
X8735500Y4285000D01*
G75*
G02*
X8973000Y4047500I0J-237500D01*
G01*
G37*
G36*
G01*
X10798000Y4047500D02*
X10798000Y3572500D01*
G75*
G02*
X10560500Y3335000I-237500J0D01*
G01*
X10060500Y3335000D01*
G75*
G02*
X9823000Y3572500I0J237500D01*
G01*
X9823000Y4047500D01*
G75*
G02*
X10060500Y4285000I237500J0D01*
G01*
X10560500Y4285000D01*
G75*
G02*
X10798000Y4047500I0J-237500D01*
G01*
G37*
%TD*%
%TO.C,C4*%
G36*
G01*
X76129000Y-71009500D02*
X76129000Y-71484500D01*
G75*
G02*
X75891500Y-71722000I-237500J0D01*
G01*
X75291500Y-71722000D01*
G75*
G02*
X75054000Y-71484500I0J237500D01*
G01*
X75054000Y-71009500D01*
G75*
G02*
X75291500Y-70772000I237500J0D01*
G01*
X75891500Y-70772000D01*
G75*
G02*
X76129000Y-71009500I0J-237500D01*
G01*
G37*
G36*
G01*
X77854000Y-71009500D02*
X77854000Y-71484500D01*
G75*
G02*
X77616500Y-71722000I-237500J0D01*
G01*
X77016500Y-71722000D01*
G75*
G02*
X76779000Y-71484500I0J237500D01*
G01*
X76779000Y-71009500D01*
G75*
G02*
X77016500Y-70772000I237500J0D01*
G01*
X77616500Y-70772000D01*
G75*
G02*
X77854000Y-71009500I0J-237500D01*
G01*
G37*
%TD*%
%TO.C,C3*%
G36*
G01*
X81390500Y-66731000D02*
X80915500Y-66731000D01*
G75*
G02*
X80678000Y-66493500I0J237500D01*
G01*
X80678000Y-65893500D01*
G75*
G02*
X80915500Y-65656000I237500J0D01*
G01*
X81390500Y-65656000D01*
G75*
G02*
X81628000Y-65893500I0J-237500D01*
G01*
X81628000Y-66493500D01*
G75*
G02*
X81390500Y-66731000I-237500J0D01*
G01*
G37*
G36*
G01*
X81390500Y-68456000D02*
X80915500Y-68456000D01*
G75*
G02*
X80678000Y-68218500I0J237500D01*
G01*
X80678000Y-67618500D01*
G75*
G02*
X80915500Y-67381000I237500J0D01*
G01*
X81390500Y-67381000D01*
G75*
G02*
X81628000Y-67618500I0J-237500D01*
G01*
X81628000Y-68218500D01*
G75*
G02*
X81390500Y-68456000I-237500J0D01*
G01*
G37*
%TD*%
D10*
%TO.C,SW65*%
X20193000Y-41800000D03*
X20193000Y-38100000D03*
X20193000Y-34400000D03*
%TD*%
D11*
%TO.C,D55*%
X206121000Y-81534000D03*
D12*
X203581000Y-81534000D03*
%TD*%
D13*
%TO.C,J2*%
X6725000Y1705000D03*
X7125000Y2405000D03*
X7925000Y2405000D03*
X8325000Y1705000D03*
X8725000Y2405000D03*
X9125000Y1705000D03*
X9925000Y1705000D03*
X10325000Y2405000D03*
X10725000Y1705000D03*
X11125000Y2405000D03*
X11925000Y2405000D03*
X12325000Y1705000D03*
D14*
X5255000Y7585000D03*
X13795000Y7585000D03*
X5255000Y2855000D03*
X13795000Y2855000D03*
D13*
X7525000Y1705000D03*
X11525000Y1705000D03*
%TD*%
%TO.C,R10*%
G36*
G01*
X9100000Y6841500D02*
X9100000Y6366500D01*
G75*
G02*
X8862500Y6129000I-237500J0D01*
G01*
X8362500Y6129000D01*
G75*
G02*
X8125000Y6366500I0J237500D01*
G01*
X8125000Y6841500D01*
G75*
G02*
X8362500Y7079000I237500J0D01*
G01*
X8862500Y7079000D01*
G75*
G02*
X9100000Y6841500I0J-237500D01*
G01*
G37*
G36*
G01*
X10925000Y6841500D02*
X10925000Y6366500D01*
G75*
G02*
X10687500Y6129000I-237500J0D01*
G01*
X10187500Y6129000D01*
G75*
G02*
X9950000Y6366500I0J237500D01*
G01*
X9950000Y6841500D01*
G75*
G02*
X10187500Y7079000I237500J0D01*
G01*
X10687500Y7079000D01*
G75*
G02*
X10925000Y6841500I0J-237500D01*
G01*
G37*
%TD*%
D15*
%TO.C,J3*%
X115062000Y-15335000D03*
G36*
G01*
X114436999Y-12735000D02*
X115687001Y-12735000D01*
G75*
G02*
X115937000Y-12984999I0J-249999D01*
G01*
X115937000Y-13685001D01*
G75*
G02*
X115687001Y-13935000I-249999J0D01*
G01*
X114436999Y-13935000D01*
G75*
G02*
X114187000Y-13685001I0J249999D01*
G01*
X114187000Y-12984999D01*
G75*
G02*
X114436999Y-12735000I249999J0D01*
G01*
G37*
%TD*%
%TO.C,D54*%
G36*
G01*
X9875000Y7890500D02*
X9875000Y8365500D01*
G75*
G02*
X10112500Y8603000I237500J0D01*
G01*
X10687500Y8603000D01*
G75*
G02*
X10925000Y8365500I0J-237500D01*
G01*
X10925000Y7890500D01*
G75*
G02*
X10687500Y7653000I-237500J0D01*
G01*
X10112500Y7653000D01*
G75*
G02*
X9875000Y7890500I0J237500D01*
G01*
G37*
G36*
G01*
X8125000Y7890500D02*
X8125000Y8365500D01*
G75*
G02*
X8362500Y8603000I237500J0D01*
G01*
X8937500Y8603000D01*
G75*
G02*
X9175000Y8365500I0J-237500D01*
G01*
X9175000Y7890500D01*
G75*
G02*
X8937500Y7653000I-237500J0D01*
G01*
X8362500Y7653000D01*
G75*
G02*
X8125000Y7890500I0J237500D01*
G01*
G37*
%TD*%
D16*
%TO.C,Y1*%
X79332000Y-68541000D03*
X77132000Y-68541000D03*
X77132000Y-66841000D03*
X79332000Y-66841000D03*
%TD*%
D17*
%TO.C,SW64*%
X264160000Y-7620000D03*
D10*
X266660000Y-7620000D03*
X269160000Y-7620000D03*
D18*
X261060000Y-120000D03*
X272260000Y-120000D03*
D10*
X264160000Y6880000D03*
X269160000Y6880000D03*
%TD*%
D19*
%TO.C,J1*%
X111125000Y-74930000D03*
X109855000Y-74930000D03*
X108585000Y-74930000D03*
D20*
X107315000Y-74930000D03*
%TD*%
%TO.C,U3*%
G36*
G01*
X226425000Y-54898000D02*
X226225000Y-54898000D01*
G75*
G02*
X226125000Y-54798000I0J100000D01*
G01*
X226125000Y-53523000D01*
G75*
G02*
X226225000Y-53423000I100000J0D01*
G01*
X226425000Y-53423000D01*
G75*
G02*
X226525000Y-53523000I0J-100000D01*
G01*
X226525000Y-54798000D01*
G75*
G02*
X226425000Y-54898000I-100000J0D01*
G01*
G37*
G36*
G01*
X227075000Y-54898000D02*
X226875000Y-54898000D01*
G75*
G02*
X226775000Y-54798000I0J100000D01*
G01*
X226775000Y-53523000D01*
G75*
G02*
X226875000Y-53423000I100000J0D01*
G01*
X227075000Y-53423000D01*
G75*
G02*
X227175000Y-53523000I0J-100000D01*
G01*
X227175000Y-54798000D01*
G75*
G02*
X227075000Y-54898000I-100000J0D01*
G01*
G37*
G36*
G01*
X227725000Y-54898000D02*
X227525000Y-54898000D01*
G75*
G02*
X227425000Y-54798000I0J100000D01*
G01*
X227425000Y-53523000D01*
G75*
G02*
X227525000Y-53423000I100000J0D01*
G01*
X227725000Y-53423000D01*
G75*
G02*
X227825000Y-53523000I0J-100000D01*
G01*
X227825000Y-54798000D01*
G75*
G02*
X227725000Y-54898000I-100000J0D01*
G01*
G37*
G36*
G01*
X228375000Y-54898000D02*
X228175000Y-54898000D01*
G75*
G02*
X228075000Y-54798000I0J100000D01*
G01*
X228075000Y-53523000D01*
G75*
G02*
X228175000Y-53423000I100000J0D01*
G01*
X228375000Y-53423000D01*
G75*
G02*
X228475000Y-53523000I0J-100000D01*
G01*
X228475000Y-54798000D01*
G75*
G02*
X228375000Y-54898000I-100000J0D01*
G01*
G37*
G36*
G01*
X229025000Y-54898000D02*
X228825000Y-54898000D01*
G75*
G02*
X228725000Y-54798000I0J100000D01*
G01*
X228725000Y-53523000D01*
G75*
G02*
X228825000Y-53423000I100000J0D01*
G01*
X229025000Y-53423000D01*
G75*
G02*
X229125000Y-53523000I0J-100000D01*
G01*
X229125000Y-54798000D01*
G75*
G02*
X229025000Y-54898000I-100000J0D01*
G01*
G37*
G36*
G01*
X229675000Y-54898000D02*
X229475000Y-54898000D01*
G75*
G02*
X229375000Y-54798000I0J100000D01*
G01*
X229375000Y-53523000D01*
G75*
G02*
X229475000Y-53423000I100000J0D01*
G01*
X229675000Y-53423000D01*
G75*
G02*
X229775000Y-53523000I0J-100000D01*
G01*
X229775000Y-54798000D01*
G75*
G02*
X229675000Y-54898000I-100000J0D01*
G01*
G37*
G36*
G01*
X230325000Y-54898000D02*
X230125000Y-54898000D01*
G75*
G02*
X230025000Y-54798000I0J100000D01*
G01*
X230025000Y-53523000D01*
G75*
G02*
X230125000Y-53423000I100000J0D01*
G01*
X230325000Y-53423000D01*
G75*
G02*
X230425000Y-53523000I0J-100000D01*
G01*
X230425000Y-54798000D01*
G75*
G02*
X230325000Y-54898000I-100000J0D01*
G01*
G37*
G36*
G01*
X230975000Y-54898000D02*
X230775000Y-54898000D01*
G75*
G02*
X230675000Y-54798000I0J100000D01*
G01*
X230675000Y-53523000D01*
G75*
G02*
X230775000Y-53423000I100000J0D01*
G01*
X230975000Y-53423000D01*
G75*
G02*
X231075000Y-53523000I0J-100000D01*
G01*
X231075000Y-54798000D01*
G75*
G02*
X230975000Y-54898000I-100000J0D01*
G01*
G37*
G36*
G01*
X230975000Y-60623000D02*
X230775000Y-60623000D01*
G75*
G02*
X230675000Y-60523000I0J100000D01*
G01*
X230675000Y-59248000D01*
G75*
G02*
X230775000Y-59148000I100000J0D01*
G01*
X230975000Y-59148000D01*
G75*
G02*
X231075000Y-59248000I0J-100000D01*
G01*
X231075000Y-60523000D01*
G75*
G02*
X230975000Y-60623000I-100000J0D01*
G01*
G37*
G36*
G01*
X230325000Y-60623000D02*
X230125000Y-60623000D01*
G75*
G02*
X230025000Y-60523000I0J100000D01*
G01*
X230025000Y-59248000D01*
G75*
G02*
X230125000Y-59148000I100000J0D01*
G01*
X230325000Y-59148000D01*
G75*
G02*
X230425000Y-59248000I0J-100000D01*
G01*
X230425000Y-60523000D01*
G75*
G02*
X230325000Y-60623000I-100000J0D01*
G01*
G37*
G36*
G01*
X229675000Y-60623000D02*
X229475000Y-60623000D01*
G75*
G02*
X229375000Y-60523000I0J100000D01*
G01*
X229375000Y-59248000D01*
G75*
G02*
X229475000Y-59148000I100000J0D01*
G01*
X229675000Y-59148000D01*
G75*
G02*
X229775000Y-59248000I0J-100000D01*
G01*
X229775000Y-60523000D01*
G75*
G02*
X229675000Y-60623000I-100000J0D01*
G01*
G37*
G36*
G01*
X229025000Y-60623000D02*
X228825000Y-60623000D01*
G75*
G02*
X228725000Y-60523000I0J100000D01*
G01*
X228725000Y-59248000D01*
G75*
G02*
X228825000Y-59148000I100000J0D01*
G01*
X229025000Y-59148000D01*
G75*
G02*
X229125000Y-59248000I0J-100000D01*
G01*
X229125000Y-60523000D01*
G75*
G02*
X229025000Y-60623000I-100000J0D01*
G01*
G37*
G36*
G01*
X228375000Y-60623000D02*
X228175000Y-60623000D01*
G75*
G02*
X228075000Y-60523000I0J100000D01*
G01*
X228075000Y-59248000D01*
G75*
G02*
X228175000Y-59148000I100000J0D01*
G01*
X228375000Y-59148000D01*
G75*
G02*
X228475000Y-59248000I0J-100000D01*
G01*
X228475000Y-60523000D01*
G75*
G02*
X228375000Y-60623000I-100000J0D01*
G01*
G37*
G36*
G01*
X227725000Y-60623000D02*
X227525000Y-60623000D01*
G75*
G02*
X227425000Y-60523000I0J100000D01*
G01*
X227425000Y-59248000D01*
G75*
G02*
X227525000Y-59148000I100000J0D01*
G01*
X227725000Y-59148000D01*
G75*
G02*
X227825000Y-59248000I0J-100000D01*
G01*
X227825000Y-60523000D01*
G75*
G02*
X227725000Y-60623000I-100000J0D01*
G01*
G37*
G36*
G01*
X227075000Y-60623000D02*
X226875000Y-60623000D01*
G75*
G02*
X226775000Y-60523000I0J100000D01*
G01*
X226775000Y-59248000D01*
G75*
G02*
X226875000Y-59148000I100000J0D01*
G01*
X227075000Y-59148000D01*
G75*
G02*
X227175000Y-59248000I0J-100000D01*
G01*
X227175000Y-60523000D01*
G75*
G02*
X227075000Y-60623000I-100000J0D01*
G01*
G37*
G36*
G01*
X226425000Y-60623000D02*
X226225000Y-60623000D01*
G75*
G02*
X226125000Y-60523000I0J100000D01*
G01*
X226125000Y-59248000D01*
G75*
G02*
X226225000Y-59148000I100000J0D01*
G01*
X226425000Y-59148000D01*
G75*
G02*
X226525000Y-59248000I0J-100000D01*
G01*
X226525000Y-60523000D01*
G75*
G02*
X226425000Y-60623000I-100000J0D01*
G01*
G37*
%TD*%
%TO.C,U2*%
G36*
G01*
X29194000Y-60232000D02*
X28994000Y-60232000D01*
G75*
G02*
X28894000Y-60132000I0J100000D01*
G01*
X28894000Y-58857000D01*
G75*
G02*
X28994000Y-58757000I100000J0D01*
G01*
X29194000Y-58757000D01*
G75*
G02*
X29294000Y-58857000I0J-100000D01*
G01*
X29294000Y-60132000D01*
G75*
G02*
X29194000Y-60232000I-100000J0D01*
G01*
G37*
G36*
G01*
X29844000Y-60232000D02*
X29644000Y-60232000D01*
G75*
G02*
X29544000Y-60132000I0J100000D01*
G01*
X29544000Y-58857000D01*
G75*
G02*
X29644000Y-58757000I100000J0D01*
G01*
X29844000Y-58757000D01*
G75*
G02*
X29944000Y-58857000I0J-100000D01*
G01*
X29944000Y-60132000D01*
G75*
G02*
X29844000Y-60232000I-100000J0D01*
G01*
G37*
G36*
G01*
X30494000Y-60232000D02*
X30294000Y-60232000D01*
G75*
G02*
X30194000Y-60132000I0J100000D01*
G01*
X30194000Y-58857000D01*
G75*
G02*
X30294000Y-58757000I100000J0D01*
G01*
X30494000Y-58757000D01*
G75*
G02*
X30594000Y-58857000I0J-100000D01*
G01*
X30594000Y-60132000D01*
G75*
G02*
X30494000Y-60232000I-100000J0D01*
G01*
G37*
G36*
G01*
X31144000Y-60232000D02*
X30944000Y-60232000D01*
G75*
G02*
X30844000Y-60132000I0J100000D01*
G01*
X30844000Y-58857000D01*
G75*
G02*
X30944000Y-58757000I100000J0D01*
G01*
X31144000Y-58757000D01*
G75*
G02*
X31244000Y-58857000I0J-100000D01*
G01*
X31244000Y-60132000D01*
G75*
G02*
X31144000Y-60232000I-100000J0D01*
G01*
G37*
G36*
G01*
X31794000Y-60232000D02*
X31594000Y-60232000D01*
G75*
G02*
X31494000Y-60132000I0J100000D01*
G01*
X31494000Y-58857000D01*
G75*
G02*
X31594000Y-58757000I100000J0D01*
G01*
X31794000Y-58757000D01*
G75*
G02*
X31894000Y-58857000I0J-100000D01*
G01*
X31894000Y-60132000D01*
G75*
G02*
X31794000Y-60232000I-100000J0D01*
G01*
G37*
G36*
G01*
X32444000Y-60232000D02*
X32244000Y-60232000D01*
G75*
G02*
X32144000Y-60132000I0J100000D01*
G01*
X32144000Y-58857000D01*
G75*
G02*
X32244000Y-58757000I100000J0D01*
G01*
X32444000Y-58757000D01*
G75*
G02*
X32544000Y-58857000I0J-100000D01*
G01*
X32544000Y-60132000D01*
G75*
G02*
X32444000Y-60232000I-100000J0D01*
G01*
G37*
G36*
G01*
X33094000Y-60232000D02*
X32894000Y-60232000D01*
G75*
G02*
X32794000Y-60132000I0J100000D01*
G01*
X32794000Y-58857000D01*
G75*
G02*
X32894000Y-58757000I100000J0D01*
G01*
X33094000Y-58757000D01*
G75*
G02*
X33194000Y-58857000I0J-100000D01*
G01*
X33194000Y-60132000D01*
G75*
G02*
X33094000Y-60232000I-100000J0D01*
G01*
G37*
G36*
G01*
X33744000Y-60232000D02*
X33544000Y-60232000D01*
G75*
G02*
X33444000Y-60132000I0J100000D01*
G01*
X33444000Y-58857000D01*
G75*
G02*
X33544000Y-58757000I100000J0D01*
G01*
X33744000Y-58757000D01*
G75*
G02*
X33844000Y-58857000I0J-100000D01*
G01*
X33844000Y-60132000D01*
G75*
G02*
X33744000Y-60232000I-100000J0D01*
G01*
G37*
G36*
G01*
X33744000Y-65957000D02*
X33544000Y-65957000D01*
G75*
G02*
X33444000Y-65857000I0J100000D01*
G01*
X33444000Y-64582000D01*
G75*
G02*
X33544000Y-64482000I100000J0D01*
G01*
X33744000Y-64482000D01*
G75*
G02*
X33844000Y-64582000I0J-100000D01*
G01*
X33844000Y-65857000D01*
G75*
G02*
X33744000Y-65957000I-100000J0D01*
G01*
G37*
G36*
G01*
X33094000Y-65957000D02*
X32894000Y-65957000D01*
G75*
G02*
X32794000Y-65857000I0J100000D01*
G01*
X32794000Y-64582000D01*
G75*
G02*
X32894000Y-64482000I100000J0D01*
G01*
X33094000Y-64482000D01*
G75*
G02*
X33194000Y-64582000I0J-100000D01*
G01*
X33194000Y-65857000D01*
G75*
G02*
X33094000Y-65957000I-100000J0D01*
G01*
G37*
G36*
G01*
X32444000Y-65957000D02*
X32244000Y-65957000D01*
G75*
G02*
X32144000Y-65857000I0J100000D01*
G01*
X32144000Y-64582000D01*
G75*
G02*
X32244000Y-64482000I100000J0D01*
G01*
X32444000Y-64482000D01*
G75*
G02*
X32544000Y-64582000I0J-100000D01*
G01*
X32544000Y-65857000D01*
G75*
G02*
X32444000Y-65957000I-100000J0D01*
G01*
G37*
G36*
G01*
X31794000Y-65957000D02*
X31594000Y-65957000D01*
G75*
G02*
X31494000Y-65857000I0J100000D01*
G01*
X31494000Y-64582000D01*
G75*
G02*
X31594000Y-64482000I100000J0D01*
G01*
X31794000Y-64482000D01*
G75*
G02*
X31894000Y-64582000I0J-100000D01*
G01*
X31894000Y-65857000D01*
G75*
G02*
X31794000Y-65957000I-100000J0D01*
G01*
G37*
G36*
G01*
X31144000Y-65957000D02*
X30944000Y-65957000D01*
G75*
G02*
X30844000Y-65857000I0J100000D01*
G01*
X30844000Y-64582000D01*
G75*
G02*
X30944000Y-64482000I100000J0D01*
G01*
X31144000Y-64482000D01*
G75*
G02*
X31244000Y-64582000I0J-100000D01*
G01*
X31244000Y-65857000D01*
G75*
G02*
X31144000Y-65957000I-100000J0D01*
G01*
G37*
G36*
G01*
X30494000Y-65957000D02*
X30294000Y-65957000D01*
G75*
G02*
X30194000Y-65857000I0J100000D01*
G01*
X30194000Y-64582000D01*
G75*
G02*
X30294000Y-64482000I100000J0D01*
G01*
X30494000Y-64482000D01*
G75*
G02*
X30594000Y-64582000I0J-100000D01*
G01*
X30594000Y-65857000D01*
G75*
G02*
X30494000Y-65957000I-100000J0D01*
G01*
G37*
G36*
G01*
X29844000Y-65957000D02*
X29644000Y-65957000D01*
G75*
G02*
X29544000Y-65857000I0J100000D01*
G01*
X29544000Y-64582000D01*
G75*
G02*
X29644000Y-64482000I100000J0D01*
G01*
X29844000Y-64482000D01*
G75*
G02*
X29944000Y-64582000I0J-100000D01*
G01*
X29944000Y-65857000D01*
G75*
G02*
X29844000Y-65957000I-100000J0D01*
G01*
G37*
G36*
G01*
X29194000Y-65957000D02*
X28994000Y-65957000D01*
G75*
G02*
X28894000Y-65857000I0J100000D01*
G01*
X28894000Y-64582000D01*
G75*
G02*
X28994000Y-64482000I100000J0D01*
G01*
X29194000Y-64482000D01*
G75*
G02*
X29294000Y-64582000I0J-100000D01*
G01*
X29294000Y-65857000D01*
G75*
G02*
X29194000Y-65957000I-100000J0D01*
G01*
G37*
%TD*%
D21*
%TO.C,SW61*%
X269398750Y-76200000D03*
X259238750Y-76200000D03*
D22*
X264318750Y-76200000D03*
D23*
X266858750Y-71120000D03*
X260508750Y-73660000D03*
%TD*%
D21*
%TO.C,SW60*%
X221773750Y-76200000D03*
X211613750Y-76200000D03*
D22*
X216693750Y-76200000D03*
D23*
X219233750Y-71120000D03*
X212883750Y-73660000D03*
%TD*%
D21*
%TO.C,SW57*%
X197961250Y-76200000D03*
X187801250Y-76200000D03*
D22*
X192881250Y-76200000D03*
D23*
X195421250Y-71120000D03*
X189071250Y-73660000D03*
%TD*%
D21*
%TO.C,SW53*%
X255111250Y-57150000D03*
X244951250Y-57150000D03*
D22*
X250031250Y-57150000D03*
D23*
X252571250Y-52070000D03*
X246221250Y-54610000D03*
%TD*%
D21*
%TO.C,SW48*%
X245586250Y-76200000D03*
X235426250Y-76200000D03*
D22*
X240506250Y-76200000D03*
D23*
X243046250Y-71120000D03*
X236696250Y-73660000D03*
%TD*%
D21*
%TO.C,SW14*%
X31273750Y-76200000D03*
X21113750Y-76200000D03*
D22*
X26193750Y-76200000D03*
D23*
X28733750Y-71120000D03*
X22383750Y-73660000D03*
%TD*%
D21*
%TO.C,SW9*%
X55086250Y-76200000D03*
X44926250Y-76200000D03*
D22*
X50006250Y-76200000D03*
D23*
X52546250Y-71120000D03*
X46196250Y-73660000D03*
%TD*%
D21*
%TO.C,SW5*%
X6826250Y-57150000D03*
X16986250Y-57150000D03*
D22*
X11906250Y-57150000D03*
D23*
X9366250Y-62230000D03*
X15716250Y-59690000D03*
%TD*%
D21*
%TO.C,SW4*%
X7461250Y-76200000D03*
X-2698750Y-76200000D03*
D22*
X2381250Y-76200000D03*
D23*
X4921250Y-71120000D03*
X-1428750Y-73660000D03*
%TD*%
D22*
%TO.C,REF\u002A\u002A*%
X272567400Y-40487600D03*
%TD*%
%TO.C,REF\u002A\u002A*%
X272567400Y-16662400D03*
%TD*%
%TO.C,REF\u002A\u002A*%
X261950200Y-48920400D03*
%TD*%
%TO.C,REF\u002A\u002A*%
X238150400Y-48920400D03*
%TD*%
%TO.C,REF\u002A\u002A*%
X171450000Y-67970400D03*
%TD*%
%TO.C,REF\u002A\u002A*%
X71450200Y-67970400D03*
%TD*%
%TO.C,REF\u002A\u002A*%
X23799800Y-48920400D03*
%TD*%
%TO.C,REF\u002A\u002A*%
X25400Y-48920400D03*
%TD*%
D23*
%TO.C,REF\u002A\u002A*%
X257327400Y-16687800D03*
%TD*%
%TO.C,REF\u002A\u002A*%
X257327400Y-40462200D03*
%TD*%
%TO.C,REF\u002A\u002A*%
X261924800Y-64135000D03*
%TD*%
%TO.C,REF\u002A\u002A*%
X238125000Y-64135000D03*
%TD*%
%TO.C,REF\u002A\u002A*%
X171450000Y-83185000D03*
%TD*%
%TO.C,REF\u002A\u002A*%
X71450200Y-83185000D03*
%TD*%
%TO.C,REF\u002A\u002A*%
X23749000Y-64135000D03*
%TD*%
%TO.C,REF\u002A\u002A*%
X0Y-64135000D03*
%TD*%
D24*
%TO.C,REF\u002A\u002A*%
X181356000Y-75819000D03*
D25*
X181356000Y-75819000D03*
%TD*%
D24*
%TO.C,REF\u002A\u002A*%
X272542000Y-47117000D03*
D25*
X272542000Y-47117000D03*
%TD*%
D24*
%TO.C,REF\u002A\u002A*%
X-5969000Y-47117000D03*
D25*
X-5969000Y-47117000D03*
%TD*%
D24*
%TO.C,REF\u002A\u002A*%
X118999000Y-37973000D03*
D25*
X118999000Y-37973000D03*
%TD*%
D24*
%TO.C,REF\u002A\u002A*%
X250825000Y-18542000D03*
D25*
X250825000Y-18542000D03*
%TD*%
D24*
%TO.C,REF\u002A\u002A*%
X16002000Y-18542000D03*
D25*
X16002000Y-18542000D03*
%TD*%
%TO.C,U1*%
G36*
G01*
X78507000Y-72446000D02*
X78507000Y-71121000D01*
G75*
G02*
X78582000Y-71046000I75000J0D01*
G01*
X78732000Y-71046000D01*
G75*
G02*
X78807000Y-71121000I0J-75000D01*
G01*
X78807000Y-72446000D01*
G75*
G02*
X78732000Y-72521000I-75000J0D01*
G01*
X78582000Y-72521000D01*
G75*
G02*
X78507000Y-72446000I0J75000D01*
G01*
G37*
G36*
G01*
X79007000Y-72446000D02*
X79007000Y-71121000D01*
G75*
G02*
X79082000Y-71046000I75000J0D01*
G01*
X79232000Y-71046000D01*
G75*
G02*
X79307000Y-71121000I0J-75000D01*
G01*
X79307000Y-72446000D01*
G75*
G02*
X79232000Y-72521000I-75000J0D01*
G01*
X79082000Y-72521000D01*
G75*
G02*
X79007000Y-72446000I0J75000D01*
G01*
G37*
G36*
G01*
X79507000Y-72446000D02*
X79507000Y-71121000D01*
G75*
G02*
X79582000Y-71046000I75000J0D01*
G01*
X79732000Y-71046000D01*
G75*
G02*
X79807000Y-71121000I0J-75000D01*
G01*
X79807000Y-72446000D01*
G75*
G02*
X79732000Y-72521000I-75000J0D01*
G01*
X79582000Y-72521000D01*
G75*
G02*
X79507000Y-72446000I0J75000D01*
G01*
G37*
G36*
G01*
X80007000Y-72446000D02*
X80007000Y-71121000D01*
G75*
G02*
X80082000Y-71046000I75000J0D01*
G01*
X80232000Y-71046000D01*
G75*
G02*
X80307000Y-71121000I0J-75000D01*
G01*
X80307000Y-72446000D01*
G75*
G02*
X80232000Y-72521000I-75000J0D01*
G01*
X80082000Y-72521000D01*
G75*
G02*
X80007000Y-72446000I0J75000D01*
G01*
G37*
G36*
G01*
X80507000Y-72446000D02*
X80507000Y-71121000D01*
G75*
G02*
X80582000Y-71046000I75000J0D01*
G01*
X80732000Y-71046000D01*
G75*
G02*
X80807000Y-71121000I0J-75000D01*
G01*
X80807000Y-72446000D01*
G75*
G02*
X80732000Y-72521000I-75000J0D01*
G01*
X80582000Y-72521000D01*
G75*
G02*
X80507000Y-72446000I0J75000D01*
G01*
G37*
G36*
G01*
X81007000Y-72446000D02*
X81007000Y-71121000D01*
G75*
G02*
X81082000Y-71046000I75000J0D01*
G01*
X81232000Y-71046000D01*
G75*
G02*
X81307000Y-71121000I0J-75000D01*
G01*
X81307000Y-72446000D01*
G75*
G02*
X81232000Y-72521000I-75000J0D01*
G01*
X81082000Y-72521000D01*
G75*
G02*
X81007000Y-72446000I0J75000D01*
G01*
G37*
G36*
G01*
X81507000Y-72446000D02*
X81507000Y-71121000D01*
G75*
G02*
X81582000Y-71046000I75000J0D01*
G01*
X81732000Y-71046000D01*
G75*
G02*
X81807000Y-71121000I0J-75000D01*
G01*
X81807000Y-72446000D01*
G75*
G02*
X81732000Y-72521000I-75000J0D01*
G01*
X81582000Y-72521000D01*
G75*
G02*
X81507000Y-72446000I0J75000D01*
G01*
G37*
G36*
G01*
X82007000Y-72446000D02*
X82007000Y-71121000D01*
G75*
G02*
X82082000Y-71046000I75000J0D01*
G01*
X82232000Y-71046000D01*
G75*
G02*
X82307000Y-71121000I0J-75000D01*
G01*
X82307000Y-72446000D01*
G75*
G02*
X82232000Y-72521000I-75000J0D01*
G01*
X82082000Y-72521000D01*
G75*
G02*
X82007000Y-72446000I0J75000D01*
G01*
G37*
G36*
G01*
X82507000Y-72446000D02*
X82507000Y-71121000D01*
G75*
G02*
X82582000Y-71046000I75000J0D01*
G01*
X82732000Y-71046000D01*
G75*
G02*
X82807000Y-71121000I0J-75000D01*
G01*
X82807000Y-72446000D01*
G75*
G02*
X82732000Y-72521000I-75000J0D01*
G01*
X82582000Y-72521000D01*
G75*
G02*
X82507000Y-72446000I0J75000D01*
G01*
G37*
G36*
G01*
X83007000Y-72446000D02*
X83007000Y-71121000D01*
G75*
G02*
X83082000Y-71046000I75000J0D01*
G01*
X83232000Y-71046000D01*
G75*
G02*
X83307000Y-71121000I0J-75000D01*
G01*
X83307000Y-72446000D01*
G75*
G02*
X83232000Y-72521000I-75000J0D01*
G01*
X83082000Y-72521000D01*
G75*
G02*
X83007000Y-72446000I0J75000D01*
G01*
G37*
G36*
G01*
X83507000Y-72446000D02*
X83507000Y-71121000D01*
G75*
G02*
X83582000Y-71046000I75000J0D01*
G01*
X83732000Y-71046000D01*
G75*
G02*
X83807000Y-71121000I0J-75000D01*
G01*
X83807000Y-72446000D01*
G75*
G02*
X83732000Y-72521000I-75000J0D01*
G01*
X83582000Y-72521000D01*
G75*
G02*
X83507000Y-72446000I0J75000D01*
G01*
G37*
G36*
G01*
X84007000Y-72446000D02*
X84007000Y-71121000D01*
G75*
G02*
X84082000Y-71046000I75000J0D01*
G01*
X84232000Y-71046000D01*
G75*
G02*
X84307000Y-71121000I0J-75000D01*
G01*
X84307000Y-72446000D01*
G75*
G02*
X84232000Y-72521000I-75000J0D01*
G01*
X84082000Y-72521000D01*
G75*
G02*
X84007000Y-72446000I0J75000D01*
G01*
G37*
G36*
G01*
X84832000Y-73271000D02*
X84832000Y-73121000D01*
G75*
G02*
X84907000Y-73046000I75000J0D01*
G01*
X86232000Y-73046000D01*
G75*
G02*
X86307000Y-73121000I0J-75000D01*
G01*
X86307000Y-73271000D01*
G75*
G02*
X86232000Y-73346000I-75000J0D01*
G01*
X84907000Y-73346000D01*
G75*
G02*
X84832000Y-73271000I0J75000D01*
G01*
G37*
G36*
G01*
X84832000Y-73771000D02*
X84832000Y-73621000D01*
G75*
G02*
X84907000Y-73546000I75000J0D01*
G01*
X86232000Y-73546000D01*
G75*
G02*
X86307000Y-73621000I0J-75000D01*
G01*
X86307000Y-73771000D01*
G75*
G02*
X86232000Y-73846000I-75000J0D01*
G01*
X84907000Y-73846000D01*
G75*
G02*
X84832000Y-73771000I0J75000D01*
G01*
G37*
G36*
G01*
X84832000Y-74271000D02*
X84832000Y-74121000D01*
G75*
G02*
X84907000Y-74046000I75000J0D01*
G01*
X86232000Y-74046000D01*
G75*
G02*
X86307000Y-74121000I0J-75000D01*
G01*
X86307000Y-74271000D01*
G75*
G02*
X86232000Y-74346000I-75000J0D01*
G01*
X84907000Y-74346000D01*
G75*
G02*
X84832000Y-74271000I0J75000D01*
G01*
G37*
G36*
G01*
X84832000Y-74771000D02*
X84832000Y-74621000D01*
G75*
G02*
X84907000Y-74546000I75000J0D01*
G01*
X86232000Y-74546000D01*
G75*
G02*
X86307000Y-74621000I0J-75000D01*
G01*
X86307000Y-74771000D01*
G75*
G02*
X86232000Y-74846000I-75000J0D01*
G01*
X84907000Y-74846000D01*
G75*
G02*
X84832000Y-74771000I0J75000D01*
G01*
G37*
G36*
G01*
X84832000Y-75271000D02*
X84832000Y-75121000D01*
G75*
G02*
X84907000Y-75046000I75000J0D01*
G01*
X86232000Y-75046000D01*
G75*
G02*
X86307000Y-75121000I0J-75000D01*
G01*
X86307000Y-75271000D01*
G75*
G02*
X86232000Y-75346000I-75000J0D01*
G01*
X84907000Y-75346000D01*
G75*
G02*
X84832000Y-75271000I0J75000D01*
G01*
G37*
G36*
G01*
X84832000Y-75771000D02*
X84832000Y-75621000D01*
G75*
G02*
X84907000Y-75546000I75000J0D01*
G01*
X86232000Y-75546000D01*
G75*
G02*
X86307000Y-75621000I0J-75000D01*
G01*
X86307000Y-75771000D01*
G75*
G02*
X86232000Y-75846000I-75000J0D01*
G01*
X84907000Y-75846000D01*
G75*
G02*
X84832000Y-75771000I0J75000D01*
G01*
G37*
G36*
G01*
X84832000Y-76271000D02*
X84832000Y-76121000D01*
G75*
G02*
X84907000Y-76046000I75000J0D01*
G01*
X86232000Y-76046000D01*
G75*
G02*
X86307000Y-76121000I0J-75000D01*
G01*
X86307000Y-76271000D01*
G75*
G02*
X86232000Y-76346000I-75000J0D01*
G01*
X84907000Y-76346000D01*
G75*
G02*
X84832000Y-76271000I0J75000D01*
G01*
G37*
G36*
G01*
X84832000Y-76771000D02*
X84832000Y-76621000D01*
G75*
G02*
X84907000Y-76546000I75000J0D01*
G01*
X86232000Y-76546000D01*
G75*
G02*
X86307000Y-76621000I0J-75000D01*
G01*
X86307000Y-76771000D01*
G75*
G02*
X86232000Y-76846000I-75000J0D01*
G01*
X84907000Y-76846000D01*
G75*
G02*
X84832000Y-76771000I0J75000D01*
G01*
G37*
G36*
G01*
X84832000Y-77271000D02*
X84832000Y-77121000D01*
G75*
G02*
X84907000Y-77046000I75000J0D01*
G01*
X86232000Y-77046000D01*
G75*
G02*
X86307000Y-77121000I0J-75000D01*
G01*
X86307000Y-77271000D01*
G75*
G02*
X86232000Y-77346000I-75000J0D01*
G01*
X84907000Y-77346000D01*
G75*
G02*
X84832000Y-77271000I0J75000D01*
G01*
G37*
G36*
G01*
X84832000Y-77771000D02*
X84832000Y-77621000D01*
G75*
G02*
X84907000Y-77546000I75000J0D01*
G01*
X86232000Y-77546000D01*
G75*
G02*
X86307000Y-77621000I0J-75000D01*
G01*
X86307000Y-77771000D01*
G75*
G02*
X86232000Y-77846000I-75000J0D01*
G01*
X84907000Y-77846000D01*
G75*
G02*
X84832000Y-77771000I0J75000D01*
G01*
G37*
G36*
G01*
X84832000Y-78271000D02*
X84832000Y-78121000D01*
G75*
G02*
X84907000Y-78046000I75000J0D01*
G01*
X86232000Y-78046000D01*
G75*
G02*
X86307000Y-78121000I0J-75000D01*
G01*
X86307000Y-78271000D01*
G75*
G02*
X86232000Y-78346000I-75000J0D01*
G01*
X84907000Y-78346000D01*
G75*
G02*
X84832000Y-78271000I0J75000D01*
G01*
G37*
G36*
G01*
X84832000Y-78771000D02*
X84832000Y-78621000D01*
G75*
G02*
X84907000Y-78546000I75000J0D01*
G01*
X86232000Y-78546000D01*
G75*
G02*
X86307000Y-78621000I0J-75000D01*
G01*
X86307000Y-78771000D01*
G75*
G02*
X86232000Y-78846000I-75000J0D01*
G01*
X84907000Y-78846000D01*
G75*
G02*
X84832000Y-78771000I0J75000D01*
G01*
G37*
G36*
G01*
X84007000Y-80771000D02*
X84007000Y-79446000D01*
G75*
G02*
X84082000Y-79371000I75000J0D01*
G01*
X84232000Y-79371000D01*
G75*
G02*
X84307000Y-79446000I0J-75000D01*
G01*
X84307000Y-80771000D01*
G75*
G02*
X84232000Y-80846000I-75000J0D01*
G01*
X84082000Y-80846000D01*
G75*
G02*
X84007000Y-80771000I0J75000D01*
G01*
G37*
G36*
G01*
X83507000Y-80771000D02*
X83507000Y-79446000D01*
G75*
G02*
X83582000Y-79371000I75000J0D01*
G01*
X83732000Y-79371000D01*
G75*
G02*
X83807000Y-79446000I0J-75000D01*
G01*
X83807000Y-80771000D01*
G75*
G02*
X83732000Y-80846000I-75000J0D01*
G01*
X83582000Y-80846000D01*
G75*
G02*
X83507000Y-80771000I0J75000D01*
G01*
G37*
G36*
G01*
X83007000Y-80771000D02*
X83007000Y-79446000D01*
G75*
G02*
X83082000Y-79371000I75000J0D01*
G01*
X83232000Y-79371000D01*
G75*
G02*
X83307000Y-79446000I0J-75000D01*
G01*
X83307000Y-80771000D01*
G75*
G02*
X83232000Y-80846000I-75000J0D01*
G01*
X83082000Y-80846000D01*
G75*
G02*
X83007000Y-80771000I0J75000D01*
G01*
G37*
G36*
G01*
X82507000Y-80771000D02*
X82507000Y-79446000D01*
G75*
G02*
X82582000Y-79371000I75000J0D01*
G01*
X82732000Y-79371000D01*
G75*
G02*
X82807000Y-79446000I0J-75000D01*
G01*
X82807000Y-80771000D01*
G75*
G02*
X82732000Y-80846000I-75000J0D01*
G01*
X82582000Y-80846000D01*
G75*
G02*
X82507000Y-80771000I0J75000D01*
G01*
G37*
G36*
G01*
X82007000Y-80771000D02*
X82007000Y-79446000D01*
G75*
G02*
X82082000Y-79371000I75000J0D01*
G01*
X82232000Y-79371000D01*
G75*
G02*
X82307000Y-79446000I0J-75000D01*
G01*
X82307000Y-80771000D01*
G75*
G02*
X82232000Y-80846000I-75000J0D01*
G01*
X82082000Y-80846000D01*
G75*
G02*
X82007000Y-80771000I0J75000D01*
G01*
G37*
G36*
G01*
X81507000Y-80771000D02*
X81507000Y-79446000D01*
G75*
G02*
X81582000Y-79371000I75000J0D01*
G01*
X81732000Y-79371000D01*
G75*
G02*
X81807000Y-79446000I0J-75000D01*
G01*
X81807000Y-80771000D01*
G75*
G02*
X81732000Y-80846000I-75000J0D01*
G01*
X81582000Y-80846000D01*
G75*
G02*
X81507000Y-80771000I0J75000D01*
G01*
G37*
G36*
G01*
X81007000Y-80771000D02*
X81007000Y-79446000D01*
G75*
G02*
X81082000Y-79371000I75000J0D01*
G01*
X81232000Y-79371000D01*
G75*
G02*
X81307000Y-79446000I0J-75000D01*
G01*
X81307000Y-80771000D01*
G75*
G02*
X81232000Y-80846000I-75000J0D01*
G01*
X81082000Y-80846000D01*
G75*
G02*
X81007000Y-80771000I0J75000D01*
G01*
G37*
G36*
G01*
X80507000Y-80771000D02*
X80507000Y-79446000D01*
G75*
G02*
X80582000Y-79371000I75000J0D01*
G01*
X80732000Y-79371000D01*
G75*
G02*
X80807000Y-79446000I0J-75000D01*
G01*
X80807000Y-80771000D01*
G75*
G02*
X80732000Y-80846000I-75000J0D01*
G01*
X80582000Y-80846000D01*
G75*
G02*
X80507000Y-80771000I0J75000D01*
G01*
G37*
G36*
G01*
X80007000Y-80771000D02*
X80007000Y-79446000D01*
G75*
G02*
X80082000Y-79371000I75000J0D01*
G01*
X80232000Y-79371000D01*
G75*
G02*
X80307000Y-79446000I0J-75000D01*
G01*
X80307000Y-80771000D01*
G75*
G02*
X80232000Y-80846000I-75000J0D01*
G01*
X80082000Y-80846000D01*
G75*
G02*
X80007000Y-80771000I0J75000D01*
G01*
G37*
G36*
G01*
X79507000Y-80771000D02*
X79507000Y-79446000D01*
G75*
G02*
X79582000Y-79371000I75000J0D01*
G01*
X79732000Y-79371000D01*
G75*
G02*
X79807000Y-79446000I0J-75000D01*
G01*
X79807000Y-80771000D01*
G75*
G02*
X79732000Y-80846000I-75000J0D01*
G01*
X79582000Y-80846000D01*
G75*
G02*
X79507000Y-80771000I0J75000D01*
G01*
G37*
G36*
G01*
X79007000Y-80771000D02*
X79007000Y-79446000D01*
G75*
G02*
X79082000Y-79371000I75000J0D01*
G01*
X79232000Y-79371000D01*
G75*
G02*
X79307000Y-79446000I0J-75000D01*
G01*
X79307000Y-80771000D01*
G75*
G02*
X79232000Y-80846000I-75000J0D01*
G01*
X79082000Y-80846000D01*
G75*
G02*
X79007000Y-80771000I0J75000D01*
G01*
G37*
G36*
G01*
X78507000Y-80771000D02*
X78507000Y-79446000D01*
G75*
G02*
X78582000Y-79371000I75000J0D01*
G01*
X78732000Y-79371000D01*
G75*
G02*
X78807000Y-79446000I0J-75000D01*
G01*
X78807000Y-80771000D01*
G75*
G02*
X78732000Y-80846000I-75000J0D01*
G01*
X78582000Y-80846000D01*
G75*
G02*
X78507000Y-80771000I0J75000D01*
G01*
G37*
G36*
G01*
X76507000Y-78771000D02*
X76507000Y-78621000D01*
G75*
G02*
X76582000Y-78546000I75000J0D01*
G01*
X77907000Y-78546000D01*
G75*
G02*
X77982000Y-78621000I0J-75000D01*
G01*
X77982000Y-78771000D01*
G75*
G02*
X77907000Y-78846000I-75000J0D01*
G01*
X76582000Y-78846000D01*
G75*
G02*
X76507000Y-78771000I0J75000D01*
G01*
G37*
G36*
G01*
X76507000Y-78271000D02*
X76507000Y-78121000D01*
G75*
G02*
X76582000Y-78046000I75000J0D01*
G01*
X77907000Y-78046000D01*
G75*
G02*
X77982000Y-78121000I0J-75000D01*
G01*
X77982000Y-78271000D01*
G75*
G02*
X77907000Y-78346000I-75000J0D01*
G01*
X76582000Y-78346000D01*
G75*
G02*
X76507000Y-78271000I0J75000D01*
G01*
G37*
G36*
G01*
X76507000Y-77771000D02*
X76507000Y-77621000D01*
G75*
G02*
X76582000Y-77546000I75000J0D01*
G01*
X77907000Y-77546000D01*
G75*
G02*
X77982000Y-77621000I0J-75000D01*
G01*
X77982000Y-77771000D01*
G75*
G02*
X77907000Y-77846000I-75000J0D01*
G01*
X76582000Y-77846000D01*
G75*
G02*
X76507000Y-77771000I0J75000D01*
G01*
G37*
G36*
G01*
X76507000Y-77271000D02*
X76507000Y-77121000D01*
G75*
G02*
X76582000Y-77046000I75000J0D01*
G01*
X77907000Y-77046000D01*
G75*
G02*
X77982000Y-77121000I0J-75000D01*
G01*
X77982000Y-77271000D01*
G75*
G02*
X77907000Y-77346000I-75000J0D01*
G01*
X76582000Y-77346000D01*
G75*
G02*
X76507000Y-77271000I0J75000D01*
G01*
G37*
G36*
G01*
X76507000Y-76771000D02*
X76507000Y-76621000D01*
G75*
G02*
X76582000Y-76546000I75000J0D01*
G01*
X77907000Y-76546000D01*
G75*
G02*
X77982000Y-76621000I0J-75000D01*
G01*
X77982000Y-76771000D01*
G75*
G02*
X77907000Y-76846000I-75000J0D01*
G01*
X76582000Y-76846000D01*
G75*
G02*
X76507000Y-76771000I0J75000D01*
G01*
G37*
G36*
G01*
X76507000Y-76271000D02*
X76507000Y-76121000D01*
G75*
G02*
X76582000Y-76046000I75000J0D01*
G01*
X77907000Y-76046000D01*
G75*
G02*
X77982000Y-76121000I0J-75000D01*
G01*
X77982000Y-76271000D01*
G75*
G02*
X77907000Y-76346000I-75000J0D01*
G01*
X76582000Y-76346000D01*
G75*
G02*
X76507000Y-76271000I0J75000D01*
G01*
G37*
G36*
G01*
X76507000Y-75771000D02*
X76507000Y-75621000D01*
G75*
G02*
X76582000Y-75546000I75000J0D01*
G01*
X77907000Y-75546000D01*
G75*
G02*
X77982000Y-75621000I0J-75000D01*
G01*
X77982000Y-75771000D01*
G75*
G02*
X77907000Y-75846000I-75000J0D01*
G01*
X76582000Y-75846000D01*
G75*
G02*
X76507000Y-75771000I0J75000D01*
G01*
G37*
G36*
G01*
X76507000Y-75271000D02*
X76507000Y-75121000D01*
G75*
G02*
X76582000Y-75046000I75000J0D01*
G01*
X77907000Y-75046000D01*
G75*
G02*
X77982000Y-75121000I0J-75000D01*
G01*
X77982000Y-75271000D01*
G75*
G02*
X77907000Y-75346000I-75000J0D01*
G01*
X76582000Y-75346000D01*
G75*
G02*
X76507000Y-75271000I0J75000D01*
G01*
G37*
G36*
G01*
X76507000Y-74771000D02*
X76507000Y-74621000D01*
G75*
G02*
X76582000Y-74546000I75000J0D01*
G01*
X77907000Y-74546000D01*
G75*
G02*
X77982000Y-74621000I0J-75000D01*
G01*
X77982000Y-74771000D01*
G75*
G02*
X77907000Y-74846000I-75000J0D01*
G01*
X76582000Y-74846000D01*
G75*
G02*
X76507000Y-74771000I0J75000D01*
G01*
G37*
G36*
G01*
X76507000Y-74271000D02*
X76507000Y-74121000D01*
G75*
G02*
X76582000Y-74046000I75000J0D01*
G01*
X77907000Y-74046000D01*
G75*
G02*
X77982000Y-74121000I0J-75000D01*
G01*
X77982000Y-74271000D01*
G75*
G02*
X77907000Y-74346000I-75000J0D01*
G01*
X76582000Y-74346000D01*
G75*
G02*
X76507000Y-74271000I0J75000D01*
G01*
G37*
G36*
G01*
X76507000Y-73771000D02*
X76507000Y-73621000D01*
G75*
G02*
X76582000Y-73546000I75000J0D01*
G01*
X77907000Y-73546000D01*
G75*
G02*
X77982000Y-73621000I0J-75000D01*
G01*
X77982000Y-73771000D01*
G75*
G02*
X77907000Y-73846000I-75000J0D01*
G01*
X76582000Y-73846000D01*
G75*
G02*
X76507000Y-73771000I0J75000D01*
G01*
G37*
G36*
G01*
X76507000Y-73271000D02*
X76507000Y-73121000D01*
G75*
G02*
X76582000Y-73046000I75000J0D01*
G01*
X77907000Y-73046000D01*
G75*
G02*
X77982000Y-73121000I0J-75000D01*
G01*
X77982000Y-73271000D01*
G75*
G02*
X77907000Y-73346000I-75000J0D01*
G01*
X76582000Y-73346000D01*
G75*
G02*
X76507000Y-73271000I0J75000D01*
G01*
G37*
%TD*%
D21*
%TO.C,SW59*%
X259238750Y-28575000D03*
X269398750Y-28575000D03*
D22*
X264318750Y-28575000D03*
D23*
X261778750Y-33655000D03*
X268128750Y-31115000D03*
%TD*%
D21*
%TO.C,SW58*%
X242570000Y0D03*
X252730000Y0D03*
D22*
X247650000Y0D03*
D23*
X245110000Y-5080000D03*
X251460000Y-2540000D03*
%TD*%
D21*
%TO.C,SW56*%
X237807500Y-38100000D03*
X247967500Y-38100000D03*
D22*
X242887500Y-38100000D03*
D23*
X240347500Y-43180000D03*
X246697500Y-40640000D03*
%TD*%
D21*
%TO.C,SW55*%
X233045000Y-19050000D03*
X243205000Y-19050000D03*
D22*
X238125000Y-19050000D03*
D23*
X235585000Y-24130000D03*
X241935000Y-21590000D03*
%TD*%
D21*
%TO.C,SW54*%
X223520000Y0D03*
X233680000Y0D03*
D22*
X228600000Y0D03*
D23*
X226060000Y-5080000D03*
X232410000Y-2540000D03*
%TD*%
D21*
%TO.C,SW52*%
X209232500Y-57150000D03*
X219392500Y-57150000D03*
D22*
X214312500Y-57150000D03*
D23*
X211772500Y-62230000D03*
X218122500Y-59690000D03*
%TD*%
D21*
%TO.C,SW51*%
X218757500Y-38100000D03*
X228917500Y-38100000D03*
D22*
X223837500Y-38100000D03*
D23*
X221297500Y-43180000D03*
X227647500Y-40640000D03*
%TD*%
D21*
%TO.C,SW50*%
X213995000Y-19050000D03*
X224155000Y-19050000D03*
D22*
X219075000Y-19050000D03*
D23*
X216535000Y-24130000D03*
X222885000Y-21590000D03*
%TD*%
D21*
%TO.C,SW49*%
X204470000Y0D03*
X214630000Y0D03*
D22*
X209550000Y0D03*
D23*
X207010000Y-5080000D03*
X213360000Y-2540000D03*
%TD*%
D21*
%TO.C,SW47*%
X190182500Y-57150000D03*
X200342500Y-57150000D03*
D22*
X195262500Y-57150000D03*
D23*
X192722500Y-62230000D03*
X199072500Y-59690000D03*
%TD*%
D21*
%TO.C,SW46*%
X199707500Y-38100000D03*
X209867500Y-38100000D03*
D22*
X204787500Y-38100000D03*
D23*
X202247500Y-43180000D03*
X208597500Y-40640000D03*
%TD*%
D21*
%TO.C,SW45*%
X194945000Y-19050000D03*
X205105000Y-19050000D03*
D22*
X200025000Y-19050000D03*
D23*
X197485000Y-24130000D03*
X203835000Y-21590000D03*
%TD*%
D21*
%TO.C,SW44*%
X185420000Y0D03*
X195580000Y0D03*
D22*
X190500000Y0D03*
D23*
X187960000Y-5080000D03*
X194310000Y-2540000D03*
%TD*%
D21*
%TO.C,SW43*%
X171132500Y-57150000D03*
X181292500Y-57150000D03*
D22*
X176212500Y-57150000D03*
D23*
X173672500Y-62230000D03*
X180022500Y-59690000D03*
%TD*%
D21*
%TO.C,SW42*%
X180657500Y-38100000D03*
X190817500Y-38100000D03*
D22*
X185737500Y-38100000D03*
D23*
X183197500Y-43180000D03*
X189547500Y-40640000D03*
%TD*%
D21*
%TO.C,SW41*%
X175895000Y-19050000D03*
X186055000Y-19050000D03*
D22*
X180975000Y-19050000D03*
D23*
X178435000Y-24130000D03*
X184785000Y-21590000D03*
%TD*%
D21*
%TO.C,SW40*%
X166370000Y0D03*
X176530000Y0D03*
D22*
X171450000Y0D03*
D23*
X168910000Y-5080000D03*
X175260000Y-2540000D03*
%TD*%
D21*
%TO.C,SW39*%
X152082500Y-57150000D03*
X162242500Y-57150000D03*
D22*
X157162500Y-57150000D03*
D23*
X154622500Y-62230000D03*
X160972500Y-59690000D03*
%TD*%
D21*
%TO.C,SW38*%
X161607500Y-38100000D03*
X171767500Y-38100000D03*
D22*
X166687500Y-38100000D03*
D23*
X164147500Y-43180000D03*
X170497500Y-40640000D03*
%TD*%
D21*
%TO.C,SW37*%
X156845000Y-19050000D03*
X167005000Y-19050000D03*
D22*
X161925000Y-19050000D03*
D23*
X159385000Y-24130000D03*
X165735000Y-21590000D03*
%TD*%
D21*
%TO.C,SW36*%
X147320000Y0D03*
X157480000Y0D03*
D22*
X152400000Y0D03*
D23*
X149860000Y-5080000D03*
X156210000Y-2540000D03*
%TD*%
D21*
%TO.C,SW35*%
X133032500Y-57150000D03*
X143192500Y-57150000D03*
D22*
X138112500Y-57150000D03*
D23*
X135572500Y-62230000D03*
X141922500Y-59690000D03*
%TD*%
D21*
%TO.C,SW34*%
X142557500Y-38100000D03*
X152717500Y-38100000D03*
D22*
X147637500Y-38100000D03*
D23*
X145097500Y-43180000D03*
X151447500Y-40640000D03*
%TD*%
D21*
%TO.C,SW33*%
X137795000Y-19050000D03*
X147955000Y-19050000D03*
D22*
X142875000Y-19050000D03*
D23*
X140335000Y-24130000D03*
X146685000Y-21590000D03*
%TD*%
D21*
%TO.C,SW32*%
X128270000Y0D03*
X138430000Y0D03*
D22*
X133350000Y0D03*
D23*
X130810000Y-5080000D03*
X137160000Y-2540000D03*
%TD*%
D21*
%TO.C,SW31*%
X126523750Y-76200000D03*
X116363750Y-76200000D03*
D22*
X121443750Y-76200000D03*
D23*
X123983750Y-71120000D03*
X117633750Y-73660000D03*
%TD*%
D21*
%TO.C,SW30*%
X113982500Y-57150000D03*
X124142500Y-57150000D03*
D22*
X119062500Y-57150000D03*
D23*
X116522500Y-62230000D03*
X122872500Y-59690000D03*
%TD*%
D21*
%TO.C,SW29*%
X123507500Y-38100000D03*
X133667500Y-38100000D03*
D22*
X128587500Y-38100000D03*
D23*
X126047500Y-43180000D03*
X132397500Y-40640000D03*
%TD*%
D21*
%TO.C,SW28*%
X118745000Y-19050000D03*
X128905000Y-19050000D03*
D22*
X123825000Y-19050000D03*
D23*
X121285000Y-24130000D03*
X127635000Y-21590000D03*
%TD*%
D21*
%TO.C,SW27*%
X109220000Y0D03*
X119380000Y0D03*
D22*
X114300000Y0D03*
D23*
X111760000Y-5080000D03*
X118110000Y-2540000D03*
%TD*%
D21*
%TO.C,SW26*%
X94932500Y-57150000D03*
X105092500Y-57150000D03*
D22*
X100012500Y-57150000D03*
D23*
X97472500Y-62230000D03*
X103822500Y-59690000D03*
%TD*%
D21*
%TO.C,SW25*%
X114617500Y-38100000D03*
X104457500Y-38100000D03*
D22*
X109537500Y-38100000D03*
D23*
X112077500Y-33020000D03*
X105727500Y-35560000D03*
%TD*%
D21*
%TO.C,SW24*%
X99695000Y-19050000D03*
X109855000Y-19050000D03*
D22*
X104775000Y-19050000D03*
D23*
X102235000Y-24130000D03*
X108585000Y-21590000D03*
%TD*%
D21*
%TO.C,SW23*%
X90170000Y0D03*
X100330000Y0D03*
D22*
X95250000Y0D03*
D23*
X92710000Y-5080000D03*
X99060000Y-2540000D03*
%TD*%
D21*
%TO.C,SW22*%
X75882500Y-57150000D03*
X86042500Y-57150000D03*
D22*
X80962500Y-57150000D03*
D23*
X78422500Y-62230000D03*
X84772500Y-59690000D03*
%TD*%
D21*
%TO.C,SW21*%
X85407500Y-38100000D03*
X95567500Y-38100000D03*
D22*
X90487500Y-38100000D03*
D23*
X87947500Y-43180000D03*
X94297500Y-40640000D03*
%TD*%
D21*
%TO.C,SW20*%
X80645000Y-19050000D03*
X90805000Y-19050000D03*
D22*
X85725000Y-19050000D03*
D23*
X83185000Y-24130000D03*
X89535000Y-21590000D03*
%TD*%
D21*
%TO.C,SW19*%
X71120000Y0D03*
X81280000Y0D03*
D22*
X76200000Y0D03*
D23*
X73660000Y-5080000D03*
X80010000Y-2540000D03*
%TD*%
D21*
%TO.C,SW18*%
X56832500Y-57150000D03*
X66992500Y-57150000D03*
D22*
X61912500Y-57150000D03*
D23*
X59372500Y-62230000D03*
X65722500Y-59690000D03*
%TD*%
D21*
%TO.C,SW17*%
X66357500Y-38100000D03*
X76517500Y-38100000D03*
D22*
X71437500Y-38100000D03*
D23*
X68897500Y-43180000D03*
X75247500Y-40640000D03*
%TD*%
D21*
%TO.C,SW16*%
X61595000Y-19050000D03*
X71755000Y-19050000D03*
D22*
X66675000Y-19050000D03*
D23*
X64135000Y-24130000D03*
X70485000Y-21590000D03*
%TD*%
D21*
%TO.C,SW15*%
X52070000Y0D03*
X62230000Y0D03*
D22*
X57150000Y0D03*
D23*
X54610000Y-5080000D03*
X60960000Y-2540000D03*
%TD*%
D21*
%TO.C,SW13*%
X37782500Y-57150000D03*
X47942500Y-57150000D03*
D22*
X42862500Y-57150000D03*
D23*
X40322500Y-62230000D03*
X46672500Y-59690000D03*
%TD*%
D21*
%TO.C,SW12*%
X47307500Y-38100000D03*
X57467500Y-38100000D03*
D22*
X52387500Y-38100000D03*
D23*
X49847500Y-43180000D03*
X56197500Y-40640000D03*
%TD*%
D21*
%TO.C,SW11*%
X42545000Y-19050000D03*
X52705000Y-19050000D03*
D22*
X47625000Y-19050000D03*
D23*
X45085000Y-24130000D03*
X51435000Y-21590000D03*
%TD*%
D21*
%TO.C,SW10*%
X33020000Y0D03*
X43180000Y0D03*
D22*
X38100000Y0D03*
D23*
X35560000Y-5080000D03*
X41910000Y-2540000D03*
%TD*%
D21*
%TO.C,SW8*%
X28257500Y-38100000D03*
X38417500Y-38100000D03*
D22*
X33337500Y-38100000D03*
D23*
X30797500Y-43180000D03*
X37147500Y-40640000D03*
%TD*%
D21*
%TO.C,SW7*%
X23495000Y-19050000D03*
X33655000Y-19050000D03*
D22*
X28575000Y-19050000D03*
D23*
X26035000Y-24130000D03*
X32385000Y-21590000D03*
%TD*%
D21*
%TO.C,SW6*%
X19050000Y-5080000D03*
X19050000Y5080000D03*
D22*
X19050000Y0D03*
D23*
X24130000Y-2540000D03*
X21590000Y3810000D03*
%TD*%
D21*
%TO.C,SW3*%
X2063750Y-38100000D03*
X12223750Y-38100000D03*
D22*
X7143750Y-38100000D03*
D23*
X4603750Y-43180000D03*
X10953750Y-40640000D03*
%TD*%
D21*
%TO.C,SW2*%
X9842500Y-19050000D03*
X-317500Y-19050000D03*
D22*
X4762500Y-19050000D03*
D23*
X7302500Y-13970000D03*
X952500Y-16510000D03*
%TD*%
D21*
%TO.C,SW1*%
X0Y5080000D03*
X0Y-5080000D03*
D22*
X0Y0D03*
D23*
X-5080000Y2540000D03*
X-2540000Y-3810000D03*
%TD*%
M02*
