%TF.GenerationSoftware,KiCad,Pcbnew,5.1.10*%
%TF.CreationDate,2021-07-28T13:13:53+02:00*%
%TF.ProjectId,msp430_Keyboard,6d737034-3330-45f4-9b65-79626f617264,rev?*%
%TF.SameCoordinates,Original*%
%TF.FileFunction,Paste,Bot*%
%TF.FilePolarity,Positive*%
%FSLAX46Y46*%
G04 Gerber Fmt 4.6, Leading zero omitted, Abs format (unit mm)*
G04 Created by KiCad (PCBNEW 5.1.10) date 2021-07-28 13:13:53*
%MOMM*%
%LPD*%
G01*
G04 APERTURE LIST*
%ADD10R,1.000000X1.000000*%
%ADD11R,0.300000X1.200000*%
%ADD12R,2.000000X1.500000*%
%ADD13R,2.000000X3.800000*%
%ADD14R,1.060000X0.650000*%
%ADD15R,2.400000X1.500000*%
%ADD16R,1.100000X0.600000*%
%ADD17R,0.900000X1.000000*%
%ADD18R,2.550000X2.500000*%
%ADD19R,2.500000X2.550000*%
G04 APERTURE END LIST*
%TO.C,R12*%
G36*
G01*
X108121000Y-73643500D02*
X108121000Y-73168500D01*
G75*
G02*
X108358500Y-72931000I237500J0D01*
G01*
X108858500Y-72931000D01*
G75*
G02*
X109096000Y-73168500I0J-237500D01*
G01*
X109096000Y-73643500D01*
G75*
G02*
X108858500Y-73881000I-237500J0D01*
G01*
X108358500Y-73881000D01*
G75*
G02*
X108121000Y-73643500I0J237500D01*
G01*
G37*
G36*
G01*
X106296000Y-73643500D02*
X106296000Y-73168500D01*
G75*
G02*
X106533500Y-72931000I237500J0D01*
G01*
X107033500Y-72931000D01*
G75*
G02*
X107271000Y-73168500I0J-237500D01*
G01*
X107271000Y-73643500D01*
G75*
G02*
X107033500Y-73881000I-237500J0D01*
G01*
X106533500Y-73881000D01*
G75*
G02*
X106296000Y-73643500I0J237500D01*
G01*
G37*
%TD*%
%TO.C,R8*%
G36*
G01*
X6941000Y-905500D02*
X6941000Y-1380500D01*
G75*
G02*
X6703500Y-1618000I-237500J0D01*
G01*
X6203500Y-1618000D01*
G75*
G02*
X5966000Y-1380500I0J237500D01*
G01*
X5966000Y-905500D01*
G75*
G02*
X6203500Y-668000I237500J0D01*
G01*
X6703500Y-668000D01*
G75*
G02*
X6941000Y-905500I0J-237500D01*
G01*
G37*
G36*
G01*
X8766000Y-905500D02*
X8766000Y-1380500D01*
G75*
G02*
X8528500Y-1618000I-237500J0D01*
G01*
X8028500Y-1618000D01*
G75*
G02*
X7791000Y-1380500I0J237500D01*
G01*
X7791000Y-905500D01*
G75*
G02*
X8028500Y-668000I237500J0D01*
G01*
X8528500Y-668000D01*
G75*
G02*
X8766000Y-905500I0J-237500D01*
G01*
G37*
%TD*%
%TO.C,R6*%
G36*
G01*
X1607000Y7730500D02*
X1607000Y7255500D01*
G75*
G02*
X1369500Y7018000I-237500J0D01*
G01*
X869500Y7018000D01*
G75*
G02*
X632000Y7255500I0J237500D01*
G01*
X632000Y7730500D01*
G75*
G02*
X869500Y7968000I237500J0D01*
G01*
X1369500Y7968000D01*
G75*
G02*
X1607000Y7730500I0J-237500D01*
G01*
G37*
G36*
G01*
X3432000Y7730500D02*
X3432000Y7255500D01*
G75*
G02*
X3194500Y7018000I-237500J0D01*
G01*
X2694500Y7018000D01*
G75*
G02*
X2457000Y7255500I0J237500D01*
G01*
X2457000Y7730500D01*
G75*
G02*
X2694500Y7968000I237500J0D01*
G01*
X3194500Y7968000D01*
G75*
G02*
X3432000Y7730500I0J-237500D01*
G01*
G37*
%TD*%
%TO.C,R5*%
G36*
G01*
X84626000Y-71484500D02*
X84626000Y-71009500D01*
G75*
G02*
X84863500Y-70772000I237500J0D01*
G01*
X85363500Y-70772000D01*
G75*
G02*
X85601000Y-71009500I0J-237500D01*
G01*
X85601000Y-71484500D01*
G75*
G02*
X85363500Y-71722000I-237500J0D01*
G01*
X84863500Y-71722000D01*
G75*
G02*
X84626000Y-71484500I0J237500D01*
G01*
G37*
G36*
G01*
X82801000Y-71484500D02*
X82801000Y-71009500D01*
G75*
G02*
X83038500Y-70772000I237500J0D01*
G01*
X83538500Y-70772000D01*
G75*
G02*
X83776000Y-71009500I0J-237500D01*
G01*
X83776000Y-71484500D01*
G75*
G02*
X83538500Y-71722000I-237500J0D01*
G01*
X83038500Y-71722000D01*
G75*
G02*
X82801000Y-71484500I0J237500D01*
G01*
G37*
%TD*%
%TO.C,R4*%
G36*
G01*
X53450500Y-63202000D02*
X52975500Y-63202000D01*
G75*
G02*
X52738000Y-62964500I0J237500D01*
G01*
X52738000Y-62464500D01*
G75*
G02*
X52975500Y-62227000I237500J0D01*
G01*
X53450500Y-62227000D01*
G75*
G02*
X53688000Y-62464500I0J-237500D01*
G01*
X53688000Y-62964500D01*
G75*
G02*
X53450500Y-63202000I-237500J0D01*
G01*
G37*
G36*
G01*
X53450500Y-65027000D02*
X52975500Y-65027000D01*
G75*
G02*
X52738000Y-64789500I0J237500D01*
G01*
X52738000Y-64289500D01*
G75*
G02*
X52975500Y-64052000I237500J0D01*
G01*
X53450500Y-64052000D01*
G75*
G02*
X53688000Y-64289500I0J-237500D01*
G01*
X53688000Y-64789500D01*
G75*
G02*
X53450500Y-65027000I-237500J0D01*
G01*
G37*
%TD*%
%TO.C,R3*%
G36*
G01*
X43544500Y-44152000D02*
X43069500Y-44152000D01*
G75*
G02*
X42832000Y-43914500I0J237500D01*
G01*
X42832000Y-43414500D01*
G75*
G02*
X43069500Y-43177000I237500J0D01*
G01*
X43544500Y-43177000D01*
G75*
G02*
X43782000Y-43414500I0J-237500D01*
G01*
X43782000Y-43914500D01*
G75*
G02*
X43544500Y-44152000I-237500J0D01*
G01*
G37*
G36*
G01*
X43544500Y-45977000D02*
X43069500Y-45977000D01*
G75*
G02*
X42832000Y-45739500I0J237500D01*
G01*
X42832000Y-45239500D01*
G75*
G02*
X43069500Y-45002000I237500J0D01*
G01*
X43544500Y-45002000D01*
G75*
G02*
X43782000Y-45239500I0J-237500D01*
G01*
X43782000Y-45739500D01*
G75*
G02*
X43544500Y-45977000I-237500J0D01*
G01*
G37*
%TD*%
%TO.C,R2*%
G36*
G01*
X38845500Y-25102000D02*
X38370500Y-25102000D01*
G75*
G02*
X38133000Y-24864500I0J237500D01*
G01*
X38133000Y-24364500D01*
G75*
G02*
X38370500Y-24127000I237500J0D01*
G01*
X38845500Y-24127000D01*
G75*
G02*
X39083000Y-24364500I0J-237500D01*
G01*
X39083000Y-24864500D01*
G75*
G02*
X38845500Y-25102000I-237500J0D01*
G01*
G37*
G36*
G01*
X38845500Y-26927000D02*
X38370500Y-26927000D01*
G75*
G02*
X38133000Y-26689500I0J237500D01*
G01*
X38133000Y-26189500D01*
G75*
G02*
X38370500Y-25952000I237500J0D01*
G01*
X38845500Y-25952000D01*
G75*
G02*
X39083000Y-26189500I0J-237500D01*
G01*
X39083000Y-26689500D01*
G75*
G02*
X38845500Y-26927000I-237500J0D01*
G01*
G37*
%TD*%
%TO.C,R1*%
G36*
G01*
X29701500Y-6052000D02*
X29226500Y-6052000D01*
G75*
G02*
X28989000Y-5814500I0J237500D01*
G01*
X28989000Y-5314500D01*
G75*
G02*
X29226500Y-5077000I237500J0D01*
G01*
X29701500Y-5077000D01*
G75*
G02*
X29939000Y-5314500I0J-237500D01*
G01*
X29939000Y-5814500D01*
G75*
G02*
X29701500Y-6052000I-237500J0D01*
G01*
G37*
G36*
G01*
X29701500Y-7877000D02*
X29226500Y-7877000D01*
G75*
G02*
X28989000Y-7639500I0J237500D01*
G01*
X28989000Y-7139500D01*
G75*
G02*
X29226500Y-6902000I237500J0D01*
G01*
X29701500Y-6902000D01*
G75*
G02*
X29939000Y-7139500I0J-237500D01*
G01*
X29939000Y-7639500D01*
G75*
G02*
X29701500Y-7877000I-237500J0D01*
G01*
G37*
%TD*%
%TO.C,C19*%
G36*
G01*
X111069000Y-73643500D02*
X111069000Y-73168500D01*
G75*
G02*
X111306500Y-72931000I237500J0D01*
G01*
X111906500Y-72931000D01*
G75*
G02*
X112144000Y-73168500I0J-237500D01*
G01*
X112144000Y-73643500D01*
G75*
G02*
X111906500Y-73881000I-237500J0D01*
G01*
X111306500Y-73881000D01*
G75*
G02*
X111069000Y-73643500I0J237500D01*
G01*
G37*
G36*
G01*
X109344000Y-73643500D02*
X109344000Y-73168500D01*
G75*
G02*
X109581500Y-72931000I237500J0D01*
G01*
X110181500Y-72931000D01*
G75*
G02*
X110419000Y-73168500I0J-237500D01*
G01*
X110419000Y-73643500D01*
G75*
G02*
X110181500Y-73881000I-237500J0D01*
G01*
X109581500Y-73881000D01*
G75*
G02*
X109344000Y-73643500I0J237500D01*
G01*
G37*
%TD*%
%TO.C,C5*%
G36*
G01*
X146288998Y-83323000D02*
X147589002Y-83323000D01*
G75*
G02*
X147839000Y-83572998I0J-249998D01*
G01*
X147839000Y-84398002D01*
G75*
G02*
X147589002Y-84648000I-249998J0D01*
G01*
X146288998Y-84648000D01*
G75*
G02*
X146039000Y-84398002I0J249998D01*
G01*
X146039000Y-83572998D01*
G75*
G02*
X146288998Y-83323000I249998J0D01*
G01*
G37*
G36*
G01*
X146288998Y-80198000D02*
X147589002Y-80198000D01*
G75*
G02*
X147839000Y-80447998I0J-249998D01*
G01*
X147839000Y-81273002D01*
G75*
G02*
X147589002Y-81523000I-249998J0D01*
G01*
X146288998Y-81523000D01*
G75*
G02*
X146039000Y-81273002I0J249998D01*
G01*
X146039000Y-80447998D01*
G75*
G02*
X146288998Y-80198000I249998J0D01*
G01*
G37*
%TD*%
%TO.C,C2*%
G36*
G01*
X226076500Y-55443000D02*
X226551500Y-55443000D01*
G75*
G02*
X226789000Y-55680500I0J-237500D01*
G01*
X226789000Y-56280500D01*
G75*
G02*
X226551500Y-56518000I-237500J0D01*
G01*
X226076500Y-56518000D01*
G75*
G02*
X225839000Y-56280500I0J237500D01*
G01*
X225839000Y-55680500D01*
G75*
G02*
X226076500Y-55443000I237500J0D01*
G01*
G37*
G36*
G01*
X226076500Y-53718000D02*
X226551500Y-53718000D01*
G75*
G02*
X226789000Y-53955500I0J-237500D01*
G01*
X226789000Y-54555500D01*
G75*
G02*
X226551500Y-54793000I-237500J0D01*
G01*
X226076500Y-54793000D01*
G75*
G02*
X225839000Y-54555500I0J237500D01*
G01*
X225839000Y-53955500D01*
G75*
G02*
X226076500Y-53718000I237500J0D01*
G01*
G37*
%TD*%
%TO.C,C1*%
G36*
G01*
X31186000Y-58022500D02*
X31186000Y-57547500D01*
G75*
G02*
X31423500Y-57310000I237500J0D01*
G01*
X32023500Y-57310000D01*
G75*
G02*
X32261000Y-57547500I0J-237500D01*
G01*
X32261000Y-58022500D01*
G75*
G02*
X32023500Y-58260000I-237500J0D01*
G01*
X31423500Y-58260000D01*
G75*
G02*
X31186000Y-58022500I0J237500D01*
G01*
G37*
G36*
G01*
X29461000Y-58022500D02*
X29461000Y-57547500D01*
G75*
G02*
X29698500Y-57310000I237500J0D01*
G01*
X30298500Y-57310000D01*
G75*
G02*
X30536000Y-57547500I0J-237500D01*
G01*
X30536000Y-58022500D01*
G75*
G02*
X30298500Y-58260000I-237500J0D01*
G01*
X29698500Y-58260000D01*
G75*
G02*
X29461000Y-58022500I0J237500D01*
G01*
G37*
%TD*%
D10*
%TO.C,D7*%
X50185000Y-57150000D03*
X52685000Y-57150000D03*
%TD*%
%TO.C,R11*%
G36*
G01*
X204680000Y-79264500D02*
X204680000Y-79739500D01*
G75*
G02*
X204442500Y-79977000I-237500J0D01*
G01*
X203942500Y-79977000D01*
G75*
G02*
X203705000Y-79739500I0J237500D01*
G01*
X203705000Y-79264500D01*
G75*
G02*
X203942500Y-79027000I237500J0D01*
G01*
X204442500Y-79027000D01*
G75*
G02*
X204680000Y-79264500I0J-237500D01*
G01*
G37*
G36*
G01*
X206505000Y-79264500D02*
X206505000Y-79739500D01*
G75*
G02*
X206267500Y-79977000I-237500J0D01*
G01*
X205767500Y-79977000D01*
G75*
G02*
X205530000Y-79739500I0J237500D01*
G01*
X205530000Y-79264500D01*
G75*
G02*
X205767500Y-79027000I237500J0D01*
G01*
X206267500Y-79027000D01*
G75*
G02*
X206505000Y-79264500I0J-237500D01*
G01*
G37*
%TD*%
%TO.C,C18*%
G36*
G01*
X78542000Y-70247500D02*
X78542000Y-70722500D01*
G75*
G02*
X78304500Y-70960000I-237500J0D01*
G01*
X77704500Y-70960000D01*
G75*
G02*
X77467000Y-70722500I0J237500D01*
G01*
X77467000Y-70247500D01*
G75*
G02*
X77704500Y-70010000I237500J0D01*
G01*
X78304500Y-70010000D01*
G75*
G02*
X78542000Y-70247500I0J-237500D01*
G01*
G37*
G36*
G01*
X80267000Y-70247500D02*
X80267000Y-70722500D01*
G75*
G02*
X80029500Y-70960000I-237500J0D01*
G01*
X79429500Y-70960000D01*
G75*
G02*
X79192000Y-70722500I0J237500D01*
G01*
X79192000Y-70247500D01*
G75*
G02*
X79429500Y-70010000I237500J0D01*
G01*
X80029500Y-70010000D01*
G75*
G02*
X80267000Y-70247500I0J-237500D01*
G01*
G37*
%TD*%
%TO.C,C17*%
G36*
G01*
X80335000Y-80247500D02*
X80335000Y-79772500D01*
G75*
G02*
X80572500Y-79535000I237500J0D01*
G01*
X81172500Y-79535000D01*
G75*
G02*
X81410000Y-79772500I0J-237500D01*
G01*
X81410000Y-80247500D01*
G75*
G02*
X81172500Y-80485000I-237500J0D01*
G01*
X80572500Y-80485000D01*
G75*
G02*
X80335000Y-80247500I0J237500D01*
G01*
G37*
G36*
G01*
X78610000Y-80247500D02*
X78610000Y-79772500D01*
G75*
G02*
X78847500Y-79535000I237500J0D01*
G01*
X79447500Y-79535000D01*
G75*
G02*
X79685000Y-79772500I0J-237500D01*
G01*
X79685000Y-80247500D01*
G75*
G02*
X79447500Y-80485000I-237500J0D01*
G01*
X78847500Y-80485000D01*
G75*
G02*
X78610000Y-80247500I0J237500D01*
G01*
G37*
%TD*%
%TO.C,C16*%
G36*
G01*
X91578000Y-79644002D02*
X91578000Y-78343998D01*
G75*
G02*
X91827998Y-78094000I249998J0D01*
G01*
X92653002Y-78094000D01*
G75*
G02*
X92903000Y-78343998I0J-249998D01*
G01*
X92903000Y-79644002D01*
G75*
G02*
X92653002Y-79894000I-249998J0D01*
G01*
X91827998Y-79894000D01*
G75*
G02*
X91578000Y-79644002I0J249998D01*
G01*
G37*
G36*
G01*
X88453000Y-79644002D02*
X88453000Y-78343998D01*
G75*
G02*
X88702998Y-78094000I249998J0D01*
G01*
X89528002Y-78094000D01*
G75*
G02*
X89778000Y-78343998I0J-249998D01*
G01*
X89778000Y-79644002D01*
G75*
G02*
X89528002Y-79894000I-249998J0D01*
G01*
X88702998Y-79894000D01*
G75*
G02*
X88453000Y-79644002I0J249998D01*
G01*
G37*
%TD*%
%TO.C,C15*%
G36*
G01*
X87265500Y-79700000D02*
X87740500Y-79700000D01*
G75*
G02*
X87978000Y-79937500I0J-237500D01*
G01*
X87978000Y-80537500D01*
G75*
G02*
X87740500Y-80775000I-237500J0D01*
G01*
X87265500Y-80775000D01*
G75*
G02*
X87028000Y-80537500I0J237500D01*
G01*
X87028000Y-79937500D01*
G75*
G02*
X87265500Y-79700000I237500J0D01*
G01*
G37*
G36*
G01*
X87265500Y-77975000D02*
X87740500Y-77975000D01*
G75*
G02*
X87978000Y-78212500I0J-237500D01*
G01*
X87978000Y-78812500D01*
G75*
G02*
X87740500Y-79050000I-237500J0D01*
G01*
X87265500Y-79050000D01*
G75*
G02*
X87028000Y-78812500I0J237500D01*
G01*
X87028000Y-78212500D01*
G75*
G02*
X87265500Y-77975000I237500J0D01*
G01*
G37*
%TD*%
%TO.C,C14*%
G36*
G01*
X71871000Y-77962998D02*
X71871000Y-79263002D01*
G75*
G02*
X71621002Y-79513000I-249998J0D01*
G01*
X70795998Y-79513000D01*
G75*
G02*
X70546000Y-79263002I0J249998D01*
G01*
X70546000Y-77962998D01*
G75*
G02*
X70795998Y-77713000I249998J0D01*
G01*
X71621002Y-77713000D01*
G75*
G02*
X71871000Y-77962998I0J-249998D01*
G01*
G37*
G36*
G01*
X74996000Y-77962998D02*
X74996000Y-79263002D01*
G75*
G02*
X74746002Y-79513000I-249998J0D01*
G01*
X73920998Y-79513000D01*
G75*
G02*
X73671000Y-79263002I0J249998D01*
G01*
X73671000Y-77962998D01*
G75*
G02*
X73920998Y-77713000I249998J0D01*
G01*
X74746002Y-77713000D01*
G75*
G02*
X74996000Y-77962998I0J-249998D01*
G01*
G37*
%TD*%
%TO.C,C13*%
G36*
G01*
X77033000Y-80247500D02*
X77033000Y-79772500D01*
G75*
G02*
X77270500Y-79535000I237500J0D01*
G01*
X77870500Y-79535000D01*
G75*
G02*
X78108000Y-79772500I0J-237500D01*
G01*
X78108000Y-80247500D01*
G75*
G02*
X77870500Y-80485000I-237500J0D01*
G01*
X77270500Y-80485000D01*
G75*
G02*
X77033000Y-80247500I0J237500D01*
G01*
G37*
G36*
G01*
X75308000Y-80247500D02*
X75308000Y-79772500D01*
G75*
G02*
X75545500Y-79535000I237500J0D01*
G01*
X76145500Y-79535000D01*
G75*
G02*
X76383000Y-79772500I0J-237500D01*
G01*
X76383000Y-80247500D01*
G75*
G02*
X76145500Y-80485000I-237500J0D01*
G01*
X75545500Y-80485000D01*
G75*
G02*
X75308000Y-80247500I0J237500D01*
G01*
G37*
%TD*%
%TO.C,C12*%
G36*
G01*
X76565998Y-77735000D02*
X77866002Y-77735000D01*
G75*
G02*
X78116000Y-77984998I0J-249998D01*
G01*
X78116000Y-78810002D01*
G75*
G02*
X77866002Y-79060000I-249998J0D01*
G01*
X76565998Y-79060000D01*
G75*
G02*
X76316000Y-78810002I0J249998D01*
G01*
X76316000Y-77984998D01*
G75*
G02*
X76565998Y-77735000I249998J0D01*
G01*
G37*
G36*
G01*
X76565998Y-74610000D02*
X77866002Y-74610000D01*
G75*
G02*
X78116000Y-74859998I0J-249998D01*
G01*
X78116000Y-75685002D01*
G75*
G02*
X77866002Y-75935000I-249998J0D01*
G01*
X76565998Y-75935000D01*
G75*
G02*
X76316000Y-75685002I0J249998D01*
G01*
X76316000Y-74859998D01*
G75*
G02*
X76565998Y-74610000I249998J0D01*
G01*
G37*
%TD*%
%TO.C,C11*%
G36*
G01*
X73208000Y-74565500D02*
X73208000Y-75040500D01*
G75*
G02*
X72970500Y-75278000I-237500J0D01*
G01*
X72370500Y-75278000D01*
G75*
G02*
X72133000Y-75040500I0J237500D01*
G01*
X72133000Y-74565500D01*
G75*
G02*
X72370500Y-74328000I237500J0D01*
G01*
X72970500Y-74328000D01*
G75*
G02*
X73208000Y-74565500I0J-237500D01*
G01*
G37*
G36*
G01*
X74933000Y-74565500D02*
X74933000Y-75040500D01*
G75*
G02*
X74695500Y-75278000I-237500J0D01*
G01*
X74095500Y-75278000D01*
G75*
G02*
X73858000Y-75040500I0J237500D01*
G01*
X73858000Y-74565500D01*
G75*
G02*
X74095500Y-74328000I237500J0D01*
G01*
X74695500Y-74328000D01*
G75*
G02*
X74933000Y-74565500I0J-237500D01*
G01*
G37*
%TD*%
%TO.C,C10*%
G36*
G01*
X78542000Y-68850500D02*
X78542000Y-69325500D01*
G75*
G02*
X78304500Y-69563000I-237500J0D01*
G01*
X77704500Y-69563000D01*
G75*
G02*
X77467000Y-69325500I0J237500D01*
G01*
X77467000Y-68850500D01*
G75*
G02*
X77704500Y-68613000I237500J0D01*
G01*
X78304500Y-68613000D01*
G75*
G02*
X78542000Y-68850500I0J-237500D01*
G01*
G37*
G36*
G01*
X80267000Y-68850500D02*
X80267000Y-69325500D01*
G75*
G02*
X80029500Y-69563000I-237500J0D01*
G01*
X79429500Y-69563000D01*
G75*
G02*
X79192000Y-69325500I0J237500D01*
G01*
X79192000Y-68850500D01*
G75*
G02*
X79429500Y-68613000I237500J0D01*
G01*
X80029500Y-68613000D01*
G75*
G02*
X80267000Y-68850500I0J-237500D01*
G01*
G37*
%TD*%
D11*
%TO.C,J2*%
X12275000Y455000D03*
X11775000Y455000D03*
X11275000Y455000D03*
X10775000Y455000D03*
X10275000Y455000D03*
X9775000Y455000D03*
X9275000Y455000D03*
X8775000Y455000D03*
X8275000Y455000D03*
X7775000Y455000D03*
X7275000Y455000D03*
X6775000Y455000D03*
%TD*%
D12*
%TO.C,U6*%
X74524000Y-29958000D03*
X74524000Y-34558000D03*
X74524000Y-32258000D03*
D13*
X68224000Y-32258000D03*
%TD*%
D14*
%TO.C,U5*%
X106469000Y-12385000D03*
X106469000Y-14285000D03*
X108669000Y-14285000D03*
X108669000Y-13335000D03*
X108669000Y-12385000D03*
%TD*%
%TO.C,R9*%
G36*
G01*
X107144000Y-10684500D02*
X107144000Y-11159500D01*
G75*
G02*
X106906500Y-11397000I-237500J0D01*
G01*
X106406500Y-11397000D01*
G75*
G02*
X106169000Y-11159500I0J237500D01*
G01*
X106169000Y-10684500D01*
G75*
G02*
X106406500Y-10447000I237500J0D01*
G01*
X106906500Y-10447000D01*
G75*
G02*
X107144000Y-10684500I0J-237500D01*
G01*
G37*
G36*
G01*
X108969000Y-10684500D02*
X108969000Y-11159500D01*
G75*
G02*
X108731500Y-11397000I-237500J0D01*
G01*
X108231500Y-11397000D01*
G75*
G02*
X107994000Y-11159500I0J237500D01*
G01*
X107994000Y-10684500D01*
G75*
G02*
X108231500Y-10447000I237500J0D01*
G01*
X108731500Y-10447000D01*
G75*
G02*
X108969000Y-10684500I0J-237500D01*
G01*
G37*
%TD*%
%TO.C,C9*%
G36*
G01*
X66182002Y-31231000D02*
X64881998Y-31231000D01*
G75*
G02*
X64632000Y-30981002I0J249998D01*
G01*
X64632000Y-30155998D01*
G75*
G02*
X64881998Y-29906000I249998J0D01*
G01*
X66182002Y-29906000D01*
G75*
G02*
X66432000Y-30155998I0J-249998D01*
G01*
X66432000Y-30981002D01*
G75*
G02*
X66182002Y-31231000I-249998J0D01*
G01*
G37*
G36*
G01*
X66182002Y-34356000D02*
X64881998Y-34356000D01*
G75*
G02*
X64632000Y-34106002I0J249998D01*
G01*
X64632000Y-33280998D01*
G75*
G02*
X64881998Y-33031000I249998J0D01*
G01*
X66182002Y-33031000D01*
G75*
G02*
X66432000Y-33280998I0J-249998D01*
G01*
X66432000Y-34106002D01*
G75*
G02*
X66182002Y-34356000I-249998J0D01*
G01*
G37*
%TD*%
%TO.C,C8*%
G36*
G01*
X77739002Y-31358000D02*
X76438998Y-31358000D01*
G75*
G02*
X76189000Y-31108002I0J249998D01*
G01*
X76189000Y-30282998D01*
G75*
G02*
X76438998Y-30033000I249998J0D01*
G01*
X77739002Y-30033000D01*
G75*
G02*
X77989000Y-30282998I0J-249998D01*
G01*
X77989000Y-31108002D01*
G75*
G02*
X77739002Y-31358000I-249998J0D01*
G01*
G37*
G36*
G01*
X77739002Y-34483000D02*
X76438998Y-34483000D01*
G75*
G02*
X76189000Y-34233002I0J249998D01*
G01*
X76189000Y-33407998D01*
G75*
G02*
X76438998Y-33158000I249998J0D01*
G01*
X77739002Y-33158000D01*
G75*
G02*
X77989000Y-33407998I0J-249998D01*
G01*
X77989000Y-34233002D01*
G75*
G02*
X77739002Y-34483000I-249998J0D01*
G01*
G37*
%TD*%
%TO.C,C7*%
G36*
G01*
X111013002Y-12435000D02*
X109712998Y-12435000D01*
G75*
G02*
X109463000Y-12185002I0J249998D01*
G01*
X109463000Y-11359998D01*
G75*
G02*
X109712998Y-11110000I249998J0D01*
G01*
X111013002Y-11110000D01*
G75*
G02*
X111263000Y-11359998I0J-249998D01*
G01*
X111263000Y-12185002D01*
G75*
G02*
X111013002Y-12435000I-249998J0D01*
G01*
G37*
G36*
G01*
X111013002Y-15560000D02*
X109712998Y-15560000D01*
G75*
G02*
X109463000Y-15310002I0J249998D01*
G01*
X109463000Y-14484998D01*
G75*
G02*
X109712998Y-14235000I249998J0D01*
G01*
X111013002Y-14235000D01*
G75*
G02*
X111263000Y-14484998I0J-249998D01*
G01*
X111263000Y-15310002D01*
G75*
G02*
X111013002Y-15560000I-249998J0D01*
G01*
G37*
%TD*%
%TO.C,C6*%
G36*
G01*
X105171002Y-12435000D02*
X103870998Y-12435000D01*
G75*
G02*
X103621000Y-12185002I0J249998D01*
G01*
X103621000Y-11359998D01*
G75*
G02*
X103870998Y-11110000I249998J0D01*
G01*
X105171002Y-11110000D01*
G75*
G02*
X105421000Y-11359998I0J-249998D01*
G01*
X105421000Y-12185002D01*
G75*
G02*
X105171002Y-12435000I-249998J0D01*
G01*
G37*
G36*
G01*
X105171002Y-15560000D02*
X103870998Y-15560000D01*
G75*
G02*
X103621000Y-15310002I0J249998D01*
G01*
X103621000Y-14484998D01*
G75*
G02*
X103870998Y-14235000I249998J0D01*
G01*
X105171002Y-14235000D01*
G75*
G02*
X105421000Y-14484998I0J-249998D01*
G01*
X105421000Y-15310002D01*
G75*
G02*
X105171002Y-15560000I-249998J0D01*
G01*
G37*
%TD*%
D10*
%TO.C,D53*%
X238252000Y-6116000D03*
X238252000Y-8616000D03*
%TD*%
D15*
%TO.C,Y2*%
X68772000Y-76454000D03*
D16*
X74372000Y-75954000D03*
X74372000Y-76954000D03*
%TD*%
%TO.C,U4*%
G36*
G01*
X162583000Y-81381250D02*
X162583000Y-81698750D01*
G75*
G02*
X162424250Y-81857500I-158750J0D01*
G01*
X161471750Y-81857500D01*
G75*
G02*
X161313000Y-81698750I0J158750D01*
G01*
X161313000Y-81381250D01*
G75*
G02*
X161471750Y-81222500I158750J0D01*
G01*
X162424250Y-81222500D01*
G75*
G02*
X162583000Y-81381250I0J-158750D01*
G01*
G37*
G36*
G01*
X162583000Y-80381250D02*
X162583000Y-80698750D01*
G75*
G02*
X162424250Y-80857500I-158750J0D01*
G01*
X161471750Y-80857500D01*
G75*
G02*
X161313000Y-80698750I0J158750D01*
G01*
X161313000Y-80381250D01*
G75*
G02*
X161471750Y-80222500I158750J0D01*
G01*
X162424250Y-80222500D01*
G75*
G02*
X162583000Y-80381250I0J-158750D01*
G01*
G37*
G36*
G01*
X162583000Y-79381250D02*
X162583000Y-79698750D01*
G75*
G02*
X162424250Y-79857500I-158750J0D01*
G01*
X161471750Y-79857500D01*
G75*
G02*
X161313000Y-79698750I0J158750D01*
G01*
X161313000Y-79381250D01*
G75*
G02*
X161471750Y-79222500I158750J0D01*
G01*
X162424250Y-79222500D01*
G75*
G02*
X162583000Y-79381250I0J-158750D01*
G01*
G37*
G36*
G01*
X162583000Y-78381250D02*
X162583000Y-78698750D01*
G75*
G02*
X162424250Y-78857500I-158750J0D01*
G01*
X161471750Y-78857500D01*
G75*
G02*
X161313000Y-78698750I0J158750D01*
G01*
X161313000Y-78381250D01*
G75*
G02*
X161471750Y-78222500I158750J0D01*
G01*
X162424250Y-78222500D01*
G75*
G02*
X162583000Y-78381250I0J-158750D01*
G01*
G37*
G36*
G01*
X162583000Y-77381250D02*
X162583000Y-77698750D01*
G75*
G02*
X162424250Y-77857500I-158750J0D01*
G01*
X161471750Y-77857500D01*
G75*
G02*
X161313000Y-77698750I0J158750D01*
G01*
X161313000Y-77381250D01*
G75*
G02*
X161471750Y-77222500I158750J0D01*
G01*
X162424250Y-77222500D01*
G75*
G02*
X162583000Y-77381250I0J-158750D01*
G01*
G37*
G36*
G01*
X162583000Y-76381250D02*
X162583000Y-76698750D01*
G75*
G02*
X162424250Y-76857500I-158750J0D01*
G01*
X161471750Y-76857500D01*
G75*
G02*
X161313000Y-76698750I0J158750D01*
G01*
X161313000Y-76381250D01*
G75*
G02*
X161471750Y-76222500I158750J0D01*
G01*
X162424250Y-76222500D01*
G75*
G02*
X162583000Y-76381250I0J-158750D01*
G01*
G37*
G36*
G01*
X162583000Y-75381250D02*
X162583000Y-75698750D01*
G75*
G02*
X162424250Y-75857500I-158750J0D01*
G01*
X161471750Y-75857500D01*
G75*
G02*
X161313000Y-75698750I0J158750D01*
G01*
X161313000Y-75381250D01*
G75*
G02*
X161471750Y-75222500I158750J0D01*
G01*
X162424250Y-75222500D01*
G75*
G02*
X162583000Y-75381250I0J-158750D01*
G01*
G37*
G36*
G01*
X162583000Y-74381250D02*
X162583000Y-74698750D01*
G75*
G02*
X162424250Y-74857500I-158750J0D01*
G01*
X161471750Y-74857500D01*
G75*
G02*
X161313000Y-74698750I0J158750D01*
G01*
X161313000Y-74381250D01*
G75*
G02*
X161471750Y-74222500I158750J0D01*
G01*
X162424250Y-74222500D01*
G75*
G02*
X162583000Y-74381250I0J-158750D01*
G01*
G37*
G36*
G01*
X162583000Y-73381250D02*
X162583000Y-73698750D01*
G75*
G02*
X162424250Y-73857500I-158750J0D01*
G01*
X161471750Y-73857500D01*
G75*
G02*
X161313000Y-73698750I0J158750D01*
G01*
X161313000Y-73381250D01*
G75*
G02*
X161471750Y-73222500I158750J0D01*
G01*
X162424250Y-73222500D01*
G75*
G02*
X162583000Y-73381250I0J-158750D01*
G01*
G37*
G36*
G01*
X162583000Y-72381250D02*
X162583000Y-72698750D01*
G75*
G02*
X162424250Y-72857500I-158750J0D01*
G01*
X161471750Y-72857500D01*
G75*
G02*
X161313000Y-72698750I0J158750D01*
G01*
X161313000Y-72381250D01*
G75*
G02*
X161471750Y-72222500I158750J0D01*
G01*
X162424250Y-72222500D01*
G75*
G02*
X162583000Y-72381250I0J-158750D01*
G01*
G37*
G36*
G01*
X162583000Y-71381250D02*
X162583000Y-71698750D01*
G75*
G02*
X162424250Y-71857500I-158750J0D01*
G01*
X161471750Y-71857500D01*
G75*
G02*
X161313000Y-71698750I0J158750D01*
G01*
X161313000Y-71381250D01*
G75*
G02*
X161471750Y-71222500I158750J0D01*
G01*
X162424250Y-71222500D01*
G75*
G02*
X162583000Y-71381250I0J-158750D01*
G01*
G37*
G36*
G01*
X162583000Y-70381250D02*
X162583000Y-70698750D01*
G75*
G02*
X162424250Y-70857500I-158750J0D01*
G01*
X161471750Y-70857500D01*
G75*
G02*
X161313000Y-70698750I0J158750D01*
G01*
X161313000Y-70381250D01*
G75*
G02*
X161471750Y-70222500I158750J0D01*
G01*
X162424250Y-70222500D01*
G75*
G02*
X162583000Y-70381250I0J-158750D01*
G01*
G37*
G36*
G01*
X162583000Y-69381250D02*
X162583000Y-69698750D01*
G75*
G02*
X162424250Y-69857500I-158750J0D01*
G01*
X161471750Y-69857500D01*
G75*
G02*
X161313000Y-69698750I0J158750D01*
G01*
X161313000Y-69381250D01*
G75*
G02*
X161471750Y-69222500I158750J0D01*
G01*
X162424250Y-69222500D01*
G75*
G02*
X162583000Y-69381250I0J-158750D01*
G01*
G37*
G36*
G01*
X162583000Y-68381250D02*
X162583000Y-68698750D01*
G75*
G02*
X162424250Y-68857500I-158750J0D01*
G01*
X161471750Y-68857500D01*
G75*
G02*
X161313000Y-68698750I0J158750D01*
G01*
X161313000Y-68381250D01*
G75*
G02*
X161471750Y-68222500I158750J0D01*
G01*
X162424250Y-68222500D01*
G75*
G02*
X162583000Y-68381250I0J-158750D01*
G01*
G37*
G36*
G01*
X162583000Y-67381250D02*
X162583000Y-67698750D01*
G75*
G02*
X162424250Y-67857500I-158750J0D01*
G01*
X161471750Y-67857500D01*
G75*
G02*
X161313000Y-67698750I0J158750D01*
G01*
X161313000Y-67381250D01*
G75*
G02*
X161471750Y-67222500I158750J0D01*
G01*
X162424250Y-67222500D01*
G75*
G02*
X162583000Y-67381250I0J-158750D01*
G01*
G37*
G36*
G01*
X158789250Y-65405000D02*
X159106750Y-65405000D01*
G75*
G02*
X159265500Y-65563750I0J-158750D01*
G01*
X159265500Y-66516250D01*
G75*
G02*
X159106750Y-66675000I-158750J0D01*
G01*
X158789250Y-66675000D01*
G75*
G02*
X158630500Y-66516250I0J158750D01*
G01*
X158630500Y-65563750D01*
G75*
G02*
X158789250Y-65405000I158750J0D01*
G01*
G37*
G36*
G01*
X157789250Y-65405000D02*
X158106750Y-65405000D01*
G75*
G02*
X158265500Y-65563750I0J-158750D01*
G01*
X158265500Y-66516250D01*
G75*
G02*
X158106750Y-66675000I-158750J0D01*
G01*
X157789250Y-66675000D01*
G75*
G02*
X157630500Y-66516250I0J158750D01*
G01*
X157630500Y-65563750D01*
G75*
G02*
X157789250Y-65405000I158750J0D01*
G01*
G37*
G36*
G01*
X156789250Y-65405000D02*
X157106750Y-65405000D01*
G75*
G02*
X157265500Y-65563750I0J-158750D01*
G01*
X157265500Y-66516250D01*
G75*
G02*
X157106750Y-66675000I-158750J0D01*
G01*
X156789250Y-66675000D01*
G75*
G02*
X156630500Y-66516250I0J158750D01*
G01*
X156630500Y-65563750D01*
G75*
G02*
X156789250Y-65405000I158750J0D01*
G01*
G37*
G36*
G01*
X155789250Y-65405000D02*
X156106750Y-65405000D01*
G75*
G02*
X156265500Y-65563750I0J-158750D01*
G01*
X156265500Y-66516250D01*
G75*
G02*
X156106750Y-66675000I-158750J0D01*
G01*
X155789250Y-66675000D01*
G75*
G02*
X155630500Y-66516250I0J158750D01*
G01*
X155630500Y-65563750D01*
G75*
G02*
X155789250Y-65405000I158750J0D01*
G01*
G37*
G36*
G01*
X154789250Y-65405000D02*
X155106750Y-65405000D01*
G75*
G02*
X155265500Y-65563750I0J-158750D01*
G01*
X155265500Y-66516250D01*
G75*
G02*
X155106750Y-66675000I-158750J0D01*
G01*
X154789250Y-66675000D01*
G75*
G02*
X154630500Y-66516250I0J158750D01*
G01*
X154630500Y-65563750D01*
G75*
G02*
X154789250Y-65405000I158750J0D01*
G01*
G37*
G36*
G01*
X153789250Y-65405000D02*
X154106750Y-65405000D01*
G75*
G02*
X154265500Y-65563750I0J-158750D01*
G01*
X154265500Y-66516250D01*
G75*
G02*
X154106750Y-66675000I-158750J0D01*
G01*
X153789250Y-66675000D01*
G75*
G02*
X153630500Y-66516250I0J158750D01*
G01*
X153630500Y-65563750D01*
G75*
G02*
X153789250Y-65405000I158750J0D01*
G01*
G37*
G36*
G01*
X152789250Y-65405000D02*
X153106750Y-65405000D01*
G75*
G02*
X153265500Y-65563750I0J-158750D01*
G01*
X153265500Y-66516250D01*
G75*
G02*
X153106750Y-66675000I-158750J0D01*
G01*
X152789250Y-66675000D01*
G75*
G02*
X152630500Y-66516250I0J158750D01*
G01*
X152630500Y-65563750D01*
G75*
G02*
X152789250Y-65405000I158750J0D01*
G01*
G37*
G36*
G01*
X151789250Y-65405000D02*
X152106750Y-65405000D01*
G75*
G02*
X152265500Y-65563750I0J-158750D01*
G01*
X152265500Y-66516250D01*
G75*
G02*
X152106750Y-66675000I-158750J0D01*
G01*
X151789250Y-66675000D01*
G75*
G02*
X151630500Y-66516250I0J158750D01*
G01*
X151630500Y-65563750D01*
G75*
G02*
X151789250Y-65405000I158750J0D01*
G01*
G37*
G36*
G01*
X148313000Y-67698750D02*
X148313000Y-67381250D01*
G75*
G02*
X148471750Y-67222500I158750J0D01*
G01*
X149424250Y-67222500D01*
G75*
G02*
X149583000Y-67381250I0J-158750D01*
G01*
X149583000Y-67698750D01*
G75*
G02*
X149424250Y-67857500I-158750J0D01*
G01*
X148471750Y-67857500D01*
G75*
G02*
X148313000Y-67698750I0J158750D01*
G01*
G37*
G36*
G01*
X148313000Y-68698750D02*
X148313000Y-68381250D01*
G75*
G02*
X148471750Y-68222500I158750J0D01*
G01*
X149424250Y-68222500D01*
G75*
G02*
X149583000Y-68381250I0J-158750D01*
G01*
X149583000Y-68698750D01*
G75*
G02*
X149424250Y-68857500I-158750J0D01*
G01*
X148471750Y-68857500D01*
G75*
G02*
X148313000Y-68698750I0J158750D01*
G01*
G37*
G36*
G01*
X148313000Y-69698750D02*
X148313000Y-69381250D01*
G75*
G02*
X148471750Y-69222500I158750J0D01*
G01*
X149424250Y-69222500D01*
G75*
G02*
X149583000Y-69381250I0J-158750D01*
G01*
X149583000Y-69698750D01*
G75*
G02*
X149424250Y-69857500I-158750J0D01*
G01*
X148471750Y-69857500D01*
G75*
G02*
X148313000Y-69698750I0J158750D01*
G01*
G37*
G36*
G01*
X148313000Y-70698750D02*
X148313000Y-70381250D01*
G75*
G02*
X148471750Y-70222500I158750J0D01*
G01*
X149424250Y-70222500D01*
G75*
G02*
X149583000Y-70381250I0J-158750D01*
G01*
X149583000Y-70698750D01*
G75*
G02*
X149424250Y-70857500I-158750J0D01*
G01*
X148471750Y-70857500D01*
G75*
G02*
X148313000Y-70698750I0J158750D01*
G01*
G37*
G36*
G01*
X148313000Y-71698750D02*
X148313000Y-71381250D01*
G75*
G02*
X148471750Y-71222500I158750J0D01*
G01*
X149424250Y-71222500D01*
G75*
G02*
X149583000Y-71381250I0J-158750D01*
G01*
X149583000Y-71698750D01*
G75*
G02*
X149424250Y-71857500I-158750J0D01*
G01*
X148471750Y-71857500D01*
G75*
G02*
X148313000Y-71698750I0J158750D01*
G01*
G37*
G36*
G01*
X148313000Y-72698750D02*
X148313000Y-72381250D01*
G75*
G02*
X148471750Y-72222500I158750J0D01*
G01*
X149424250Y-72222500D01*
G75*
G02*
X149583000Y-72381250I0J-158750D01*
G01*
X149583000Y-72698750D01*
G75*
G02*
X149424250Y-72857500I-158750J0D01*
G01*
X148471750Y-72857500D01*
G75*
G02*
X148313000Y-72698750I0J158750D01*
G01*
G37*
G36*
G01*
X148313000Y-73698750D02*
X148313000Y-73381250D01*
G75*
G02*
X148471750Y-73222500I158750J0D01*
G01*
X149424250Y-73222500D01*
G75*
G02*
X149583000Y-73381250I0J-158750D01*
G01*
X149583000Y-73698750D01*
G75*
G02*
X149424250Y-73857500I-158750J0D01*
G01*
X148471750Y-73857500D01*
G75*
G02*
X148313000Y-73698750I0J158750D01*
G01*
G37*
G36*
G01*
X148313000Y-74698750D02*
X148313000Y-74381250D01*
G75*
G02*
X148471750Y-74222500I158750J0D01*
G01*
X149424250Y-74222500D01*
G75*
G02*
X149583000Y-74381250I0J-158750D01*
G01*
X149583000Y-74698750D01*
G75*
G02*
X149424250Y-74857500I-158750J0D01*
G01*
X148471750Y-74857500D01*
G75*
G02*
X148313000Y-74698750I0J158750D01*
G01*
G37*
G36*
G01*
X148313000Y-75698750D02*
X148313000Y-75381250D01*
G75*
G02*
X148471750Y-75222500I158750J0D01*
G01*
X149424250Y-75222500D01*
G75*
G02*
X149583000Y-75381250I0J-158750D01*
G01*
X149583000Y-75698750D01*
G75*
G02*
X149424250Y-75857500I-158750J0D01*
G01*
X148471750Y-75857500D01*
G75*
G02*
X148313000Y-75698750I0J158750D01*
G01*
G37*
G36*
G01*
X148313000Y-76698750D02*
X148313000Y-76381250D01*
G75*
G02*
X148471750Y-76222500I158750J0D01*
G01*
X149424250Y-76222500D01*
G75*
G02*
X149583000Y-76381250I0J-158750D01*
G01*
X149583000Y-76698750D01*
G75*
G02*
X149424250Y-76857500I-158750J0D01*
G01*
X148471750Y-76857500D01*
G75*
G02*
X148313000Y-76698750I0J158750D01*
G01*
G37*
G36*
G01*
X148313000Y-77698750D02*
X148313000Y-77381250D01*
G75*
G02*
X148471750Y-77222500I158750J0D01*
G01*
X149424250Y-77222500D01*
G75*
G02*
X149583000Y-77381250I0J-158750D01*
G01*
X149583000Y-77698750D01*
G75*
G02*
X149424250Y-77857500I-158750J0D01*
G01*
X148471750Y-77857500D01*
G75*
G02*
X148313000Y-77698750I0J158750D01*
G01*
G37*
G36*
G01*
X148313000Y-78698750D02*
X148313000Y-78381250D01*
G75*
G02*
X148471750Y-78222500I158750J0D01*
G01*
X149424250Y-78222500D01*
G75*
G02*
X149583000Y-78381250I0J-158750D01*
G01*
X149583000Y-78698750D01*
G75*
G02*
X149424250Y-78857500I-158750J0D01*
G01*
X148471750Y-78857500D01*
G75*
G02*
X148313000Y-78698750I0J158750D01*
G01*
G37*
G36*
G01*
X148313000Y-79698750D02*
X148313000Y-79381250D01*
G75*
G02*
X148471750Y-79222500I158750J0D01*
G01*
X149424250Y-79222500D01*
G75*
G02*
X149583000Y-79381250I0J-158750D01*
G01*
X149583000Y-79698750D01*
G75*
G02*
X149424250Y-79857500I-158750J0D01*
G01*
X148471750Y-79857500D01*
G75*
G02*
X148313000Y-79698750I0J158750D01*
G01*
G37*
G36*
G01*
X148313000Y-80698750D02*
X148313000Y-80381250D01*
G75*
G02*
X148471750Y-80222500I158750J0D01*
G01*
X149424250Y-80222500D01*
G75*
G02*
X149583000Y-80381250I0J-158750D01*
G01*
X149583000Y-80698750D01*
G75*
G02*
X149424250Y-80857500I-158750J0D01*
G01*
X148471750Y-80857500D01*
G75*
G02*
X148313000Y-80698750I0J158750D01*
G01*
G37*
G36*
G01*
X148313000Y-81698750D02*
X148313000Y-81381250D01*
G75*
G02*
X148471750Y-81222500I158750J0D01*
G01*
X149424250Y-81222500D01*
G75*
G02*
X149583000Y-81381250I0J-158750D01*
G01*
X149583000Y-81698750D01*
G75*
G02*
X149424250Y-81857500I-158750J0D01*
G01*
X148471750Y-81857500D01*
G75*
G02*
X148313000Y-81698750I0J158750D01*
G01*
G37*
%TD*%
D17*
%TO.C,SW63*%
X144798000Y-76416000D03*
X144798000Y-78016000D03*
X140698000Y-76416000D03*
X140698000Y-78016000D03*
%TD*%
%TO.C,SW62*%
X144798000Y-80480000D03*
X144798000Y-82080000D03*
X140698000Y-80480000D03*
X140698000Y-82080000D03*
%TD*%
D18*
%TO.C,SW61*%
X256698750Y-73660000D03*
X270668750Y-71120000D03*
%TD*%
%TO.C,SW60*%
X209073750Y-73660000D03*
X223043750Y-71120000D03*
%TD*%
%TO.C,SW57*%
X185261250Y-73660000D03*
X199231250Y-71120000D03*
%TD*%
%TO.C,SW53*%
X242411250Y-54610000D03*
X256381250Y-52070000D03*
%TD*%
%TO.C,SW48*%
X232886250Y-73660000D03*
X246856250Y-71120000D03*
%TD*%
%TO.C,SW14*%
X18573750Y-73660000D03*
X32543750Y-71120000D03*
%TD*%
%TO.C,SW9*%
X42386250Y-73660000D03*
X56356250Y-71120000D03*
%TD*%
%TO.C,SW5*%
X19526250Y-59690000D03*
X5556250Y-62230000D03*
%TD*%
%TO.C,SW4*%
X-5238750Y-73660000D03*
X8731250Y-71120000D03*
%TD*%
D10*
%TO.C,D52*%
X271760000Y-25400000D03*
X269260000Y-25400000D03*
%TD*%
%TO.C,D51*%
X255270000Y-6116000D03*
X255270000Y-8616000D03*
%TD*%
%TO.C,D50*%
X250571000Y-44216000D03*
X250571000Y-46716000D03*
%TD*%
%TO.C,D49*%
X245745000Y-25166000D03*
X245745000Y-27666000D03*
%TD*%
%TO.C,D48*%
X236220000Y-6116000D03*
X236220000Y-8616000D03*
%TD*%
%TO.C,D47*%
X221869000Y-57384000D03*
X221869000Y-54884000D03*
%TD*%
%TO.C,D46*%
X231394000Y-44216000D03*
X231394000Y-46716000D03*
%TD*%
%TO.C,D45*%
X226695000Y-25166000D03*
X226695000Y-27666000D03*
%TD*%
%TO.C,D44*%
X217170000Y-6116000D03*
X217170000Y-8616000D03*
%TD*%
%TO.C,D43*%
X202819000Y-57384000D03*
X202819000Y-54884000D03*
%TD*%
%TO.C,D42*%
X212471000Y-44216000D03*
X212471000Y-46716000D03*
%TD*%
%TO.C,D41*%
X207645000Y-25166000D03*
X207645000Y-27666000D03*
%TD*%
%TO.C,D40*%
X198120000Y-6116000D03*
X198120000Y-8616000D03*
%TD*%
%TO.C,D39*%
X183769000Y-57384000D03*
X183769000Y-54884000D03*
%TD*%
%TO.C,D38*%
X193421000Y-44216000D03*
X193421000Y-46716000D03*
%TD*%
%TO.C,D37*%
X188595000Y-25166000D03*
X188595000Y-27666000D03*
%TD*%
%TO.C,D36*%
X179070000Y-6116000D03*
X179070000Y-8616000D03*
%TD*%
%TO.C,D35*%
X164719000Y-57384000D03*
X164719000Y-54884000D03*
%TD*%
%TO.C,D34*%
X174244000Y-44216000D03*
X174244000Y-46716000D03*
%TD*%
%TO.C,D33*%
X169545000Y-25166000D03*
X169545000Y-27666000D03*
%TD*%
%TO.C,D32*%
X160020000Y-6116000D03*
X160020000Y-8616000D03*
%TD*%
%TO.C,D31*%
X145796000Y-57384000D03*
X145796000Y-54884000D03*
%TD*%
%TO.C,D30*%
X155194000Y-44216000D03*
X155194000Y-46716000D03*
%TD*%
%TO.C,D29*%
X150495000Y-25166000D03*
X150495000Y-27666000D03*
%TD*%
%TO.C,D28*%
X140970000Y-6116000D03*
X140970000Y-8616000D03*
%TD*%
%TO.C,D27*%
X126746000Y-57384000D03*
X126746000Y-54884000D03*
%TD*%
%TO.C,D26*%
X136144000Y-44216000D03*
X136144000Y-46716000D03*
%TD*%
%TO.C,D25*%
X131445000Y-25166000D03*
X131445000Y-27666000D03*
%TD*%
%TO.C,D24*%
X121920000Y-6116000D03*
X121920000Y-8616000D03*
%TD*%
%TO.C,D23*%
X113792000Y-71100000D03*
X113792000Y-68600000D03*
%TD*%
%TO.C,D22*%
X112522000Y-44216000D03*
X112522000Y-46716000D03*
%TD*%
%TO.C,D21*%
X112395000Y-25166000D03*
X112395000Y-27666000D03*
%TD*%
%TO.C,D20*%
X102870000Y-6116000D03*
X102870000Y-8616000D03*
%TD*%
%TO.C,D19*%
X110089000Y-57277000D03*
X107589000Y-57277000D03*
%TD*%
%TO.C,D18*%
X98044000Y-44216000D03*
X98044000Y-46716000D03*
%TD*%
%TO.C,D17*%
X93345000Y-25166000D03*
X93345000Y-27666000D03*
%TD*%
%TO.C,D16*%
X83820000Y-6116000D03*
X83820000Y-8616000D03*
%TD*%
%TO.C,D15*%
X90912000Y-57404000D03*
X88412000Y-57404000D03*
%TD*%
%TO.C,D14*%
X78994000Y-44216000D03*
X78994000Y-46716000D03*
%TD*%
%TO.C,D13*%
X74295000Y-25166000D03*
X74295000Y-27666000D03*
%TD*%
%TO.C,D12*%
X64770000Y-6116000D03*
X64770000Y-8616000D03*
%TD*%
%TO.C,D11*%
X71481000Y-57023000D03*
X68981000Y-57023000D03*
%TD*%
%TO.C,D10*%
X59944000Y-44216000D03*
X59944000Y-46716000D03*
%TD*%
%TO.C,D9*%
X55245000Y-25166000D03*
X55245000Y-27666000D03*
%TD*%
%TO.C,D8*%
X45720000Y-6116000D03*
X45720000Y-8616000D03*
%TD*%
%TO.C,D6*%
X40894000Y-44216000D03*
X40894000Y-46716000D03*
%TD*%
%TO.C,D5*%
X36195000Y-25166000D03*
X36195000Y-27666000D03*
%TD*%
%TO.C,D4*%
X27940000Y-6116000D03*
X27940000Y-8616000D03*
%TD*%
%TO.C,D3*%
X14732000Y-44216000D03*
X14732000Y-46716000D03*
%TD*%
%TO.C,D2*%
X11938000Y-25039000D03*
X11938000Y-27539000D03*
%TD*%
%TO.C,D1*%
X-5715000Y-7640000D03*
X-5715000Y-10140000D03*
%TD*%
D18*
%TO.C,SW59*%
X271938750Y-31115000D03*
X257968750Y-33655000D03*
%TD*%
%TO.C,SW58*%
X255270000Y-2540000D03*
X241300000Y-5080000D03*
%TD*%
%TO.C,SW56*%
X250507500Y-40640000D03*
X236537500Y-43180000D03*
%TD*%
%TO.C,SW55*%
X245745000Y-21590000D03*
X231775000Y-24130000D03*
%TD*%
%TO.C,SW54*%
X236220000Y-2540000D03*
X222250000Y-5080000D03*
%TD*%
%TO.C,SW52*%
X221932500Y-59690000D03*
X207962500Y-62230000D03*
%TD*%
%TO.C,SW51*%
X231457500Y-40640000D03*
X217487500Y-43180000D03*
%TD*%
%TO.C,SW50*%
X226695000Y-21590000D03*
X212725000Y-24130000D03*
%TD*%
%TO.C,SW49*%
X217170000Y-2540000D03*
X203200000Y-5080000D03*
%TD*%
%TO.C,SW47*%
X202882500Y-59690000D03*
X188912500Y-62230000D03*
%TD*%
%TO.C,SW46*%
X212407500Y-40640000D03*
X198437500Y-43180000D03*
%TD*%
%TO.C,SW45*%
X207645000Y-21590000D03*
X193675000Y-24130000D03*
%TD*%
%TO.C,SW44*%
X198120000Y-2540000D03*
X184150000Y-5080000D03*
%TD*%
%TO.C,SW43*%
X183832500Y-59690000D03*
X169862500Y-62230000D03*
%TD*%
%TO.C,SW42*%
X193357500Y-40640000D03*
X179387500Y-43180000D03*
%TD*%
%TO.C,SW41*%
X188595000Y-21590000D03*
X174625000Y-24130000D03*
%TD*%
%TO.C,SW40*%
X179070000Y-2540000D03*
X165100000Y-5080000D03*
%TD*%
%TO.C,SW39*%
X164782500Y-59690000D03*
X150812500Y-62230000D03*
%TD*%
%TO.C,SW38*%
X174307500Y-40640000D03*
X160337500Y-43180000D03*
%TD*%
%TO.C,SW37*%
X169545000Y-21590000D03*
X155575000Y-24130000D03*
%TD*%
%TO.C,SW36*%
X160020000Y-2540000D03*
X146050000Y-5080000D03*
%TD*%
%TO.C,SW35*%
X145732500Y-59690000D03*
X131762500Y-62230000D03*
%TD*%
%TO.C,SW34*%
X155257500Y-40640000D03*
X141287500Y-43180000D03*
%TD*%
%TO.C,SW33*%
X150495000Y-21590000D03*
X136525000Y-24130000D03*
%TD*%
%TO.C,SW32*%
X140970000Y-2540000D03*
X127000000Y-5080000D03*
%TD*%
%TO.C,SW31*%
X113823750Y-73660000D03*
X127793750Y-71120000D03*
%TD*%
%TO.C,SW30*%
X126682500Y-59690000D03*
X112712500Y-62230000D03*
%TD*%
%TO.C,SW29*%
X136207500Y-40640000D03*
X122237500Y-43180000D03*
%TD*%
%TO.C,SW28*%
X131445000Y-21590000D03*
X117475000Y-24130000D03*
%TD*%
%TO.C,SW27*%
X121920000Y-2540000D03*
X107950000Y-5080000D03*
%TD*%
%TO.C,SW26*%
X107632500Y-59690000D03*
X93662500Y-62230000D03*
%TD*%
%TO.C,SW25*%
X101917500Y-35560000D03*
X115887500Y-33020000D03*
%TD*%
%TO.C,SW24*%
X112395000Y-21590000D03*
X98425000Y-24130000D03*
%TD*%
%TO.C,SW23*%
X102870000Y-2540000D03*
X88900000Y-5080000D03*
%TD*%
%TO.C,SW22*%
X88582500Y-59690000D03*
X74612500Y-62230000D03*
%TD*%
%TO.C,SW21*%
X98107500Y-40640000D03*
X84137500Y-43180000D03*
%TD*%
%TO.C,SW20*%
X93345000Y-21590000D03*
X79375000Y-24130000D03*
%TD*%
%TO.C,SW19*%
X83820000Y-2540000D03*
X69850000Y-5080000D03*
%TD*%
%TO.C,SW18*%
X69532500Y-59690000D03*
X55562500Y-62230000D03*
%TD*%
%TO.C,SW17*%
X79057500Y-40640000D03*
X65087500Y-43180000D03*
%TD*%
%TO.C,SW16*%
X74295000Y-21590000D03*
X60325000Y-24130000D03*
%TD*%
%TO.C,SW15*%
X64770000Y-2540000D03*
X50800000Y-5080000D03*
%TD*%
%TO.C,SW13*%
X50482500Y-59690000D03*
X36512500Y-62230000D03*
%TD*%
%TO.C,SW12*%
X60007500Y-40640000D03*
X46037500Y-43180000D03*
%TD*%
%TO.C,SW11*%
X55245000Y-21590000D03*
X41275000Y-24130000D03*
%TD*%
%TO.C,SW10*%
X45720000Y-2540000D03*
X31750000Y-5080000D03*
%TD*%
%TO.C,SW8*%
X40957500Y-40640000D03*
X26987500Y-43180000D03*
%TD*%
%TO.C,SW7*%
X36195000Y-21590000D03*
X22225000Y-24130000D03*
%TD*%
D19*
%TO.C,SW6*%
X21590000Y7620000D03*
X24130000Y-6350000D03*
%TD*%
D18*
%TO.C,SW3*%
X14763750Y-40640000D03*
X793750Y-43180000D03*
%TD*%
%TO.C,SW2*%
X-2857500Y-16510000D03*
X11112500Y-13970000D03*
%TD*%
D19*
%TO.C,SW1*%
X-2540000Y-7620000D03*
X-5080000Y6350000D03*
%TD*%
M02*
