%TF.GenerationSoftware,KiCad,Pcbnew,5.1.10*%
%TF.CreationDate,2021-07-28T13:13:53+02:00*%
%TF.ProjectId,msp430_Keyboard,6d737034-3330-45f4-9b65-79626f617264,rev?*%
%TF.SameCoordinates,Original*%
%TF.FileFunction,Soldermask,Bot*%
%TF.FilePolarity,Negative*%
%FSLAX46Y46*%
G04 Gerber Fmt 4.6, Leading zero omitted, Abs format (unit mm)*
G04 Created by KiCad (PCBNEW 5.1.10) date 2021-07-28 13:13:53*
%MOMM*%
%LPD*%
G01*
G04 APERTURE LIST*
%ADD10C,0.300000*%
%ADD11C,0.010000*%
%ADD12R,1.000000X1.000000*%
%ADD13C,2.000000*%
%ADD14C,1.800000*%
%ADD15R,1.800000X1.800000*%
%ADD16C,0.100000*%
%ADD17C,0.650000*%
%ADD18R,0.300000X1.200000*%
%ADD19C,2.012000*%
%ADD20R,2.000000X1.500000*%
%ADD21R,2.000000X3.800000*%
%ADD22R,1.060000X0.650000*%
%ADD23O,1.750000X1.200000*%
%ADD24R,2.000000X2.000000*%
%ADD25C,3.500000*%
%ADD26R,2.400000X1.500000*%
%ADD27R,1.100000X0.600000*%
%ADD28R,0.900000X1.000000*%
%ADD29O,1.000000X1.000000*%
%ADD30C,1.750000*%
%ADD31C,4.000000*%
%ADD32C,3.000000*%
%ADD33R,2.550000X2.500000*%
%ADD34C,2.600000*%
%ADD35R,2.500000X2.550000*%
G04 APERTURE END LIST*
D10*
X274529857Y-84244571D02*
X274529857Y-82744571D01*
X274029857Y-83816000D01*
X273529857Y-82744571D01*
X273529857Y-84244571D01*
X272887000Y-84173142D02*
X272672714Y-84244571D01*
X272315571Y-84244571D01*
X272172714Y-84173142D01*
X272101285Y-84101714D01*
X272029857Y-83958857D01*
X272029857Y-83816000D01*
X272101285Y-83673142D01*
X272172714Y-83601714D01*
X272315571Y-83530285D01*
X272601285Y-83458857D01*
X272744142Y-83387428D01*
X272815571Y-83316000D01*
X272887000Y-83173142D01*
X272887000Y-83030285D01*
X272815571Y-82887428D01*
X272744142Y-82816000D01*
X272601285Y-82744571D01*
X272244142Y-82744571D01*
X272029857Y-82816000D01*
X271387000Y-84244571D02*
X271387000Y-82744571D01*
X270815571Y-82744571D01*
X270672714Y-82816000D01*
X270601285Y-82887428D01*
X270529857Y-83030285D01*
X270529857Y-83244571D01*
X270601285Y-83387428D01*
X270672714Y-83458857D01*
X270815571Y-83530285D01*
X271387000Y-83530285D01*
X269244142Y-83244571D02*
X269244142Y-84244571D01*
X269601285Y-82673142D02*
X269958428Y-83744571D01*
X269029857Y-83744571D01*
X268601285Y-82744571D02*
X267672714Y-82744571D01*
X268172714Y-83316000D01*
X267958428Y-83316000D01*
X267815571Y-83387428D01*
X267744142Y-83458857D01*
X267672714Y-83601714D01*
X267672714Y-83958857D01*
X267744142Y-84101714D01*
X267815571Y-84173142D01*
X267958428Y-84244571D01*
X268387000Y-84244571D01*
X268529857Y-84173142D01*
X268601285Y-84101714D01*
X266744142Y-82744571D02*
X266601285Y-82744571D01*
X266458428Y-82816000D01*
X266387000Y-82887428D01*
X266315571Y-83030285D01*
X266244142Y-83316000D01*
X266244142Y-83673142D01*
X266315571Y-83958857D01*
X266387000Y-84101714D01*
X266458428Y-84173142D01*
X266601285Y-84244571D01*
X266744142Y-84244571D01*
X266887000Y-84173142D01*
X266958428Y-84101714D01*
X267029857Y-83958857D01*
X267101285Y-83673142D01*
X267101285Y-83316000D01*
X267029857Y-83030285D01*
X266958428Y-82887428D01*
X266887000Y-82816000D01*
X266744142Y-82744571D01*
X265958428Y-84387428D02*
X264815571Y-84387428D01*
X264458428Y-84244571D02*
X264458428Y-82744571D01*
X263601285Y-84244571D02*
X264244142Y-83387428D01*
X263601285Y-82744571D02*
X264458428Y-83601714D01*
X262387000Y-84173142D02*
X262529857Y-84244571D01*
X262815571Y-84244571D01*
X262958428Y-84173142D01*
X263029857Y-84030285D01*
X263029857Y-83458857D01*
X262958428Y-83316000D01*
X262815571Y-83244571D01*
X262529857Y-83244571D01*
X262387000Y-83316000D01*
X262315571Y-83458857D01*
X262315571Y-83601714D01*
X263029857Y-83744571D01*
X261815571Y-83244571D02*
X261458428Y-84244571D01*
X261101285Y-83244571D02*
X261458428Y-84244571D01*
X261601285Y-84601714D01*
X261672714Y-84673142D01*
X261815571Y-84744571D01*
X260029857Y-83458857D02*
X259815571Y-83530285D01*
X259744142Y-83601714D01*
X259672714Y-83744571D01*
X259672714Y-83958857D01*
X259744142Y-84101714D01*
X259815571Y-84173142D01*
X259958428Y-84244571D01*
X260529857Y-84244571D01*
X260529857Y-82744571D01*
X260029857Y-82744571D01*
X259887000Y-82816000D01*
X259815571Y-82887428D01*
X259744142Y-83030285D01*
X259744142Y-83173142D01*
X259815571Y-83316000D01*
X259887000Y-83387428D01*
X260029857Y-83458857D01*
X260529857Y-83458857D01*
X257887000Y-83673142D02*
X256744142Y-83673142D01*
X254958428Y-83816000D02*
X254244142Y-83816000D01*
X255101285Y-84244571D02*
X254601285Y-82744571D01*
X254101285Y-84244571D01*
X253601285Y-84101714D02*
X253529857Y-84173142D01*
X253601285Y-84244571D01*
X253672714Y-84173142D01*
X253601285Y-84101714D01*
X253601285Y-84244571D01*
X253029857Y-82744571D02*
X252672714Y-84244571D01*
X252387000Y-83173142D01*
X252101285Y-84244571D01*
X251744142Y-82744571D01*
X250601285Y-84173142D02*
X250744142Y-84244571D01*
X251029857Y-84244571D01*
X251172714Y-84173142D01*
X251244142Y-84030285D01*
X251244142Y-83458857D01*
X251172714Y-83316000D01*
X251029857Y-83244571D01*
X250744142Y-83244571D01*
X250601285Y-83316000D01*
X250529857Y-83458857D01*
X250529857Y-83601714D01*
X251244142Y-83744571D01*
X249887000Y-83244571D02*
X249887000Y-84244571D01*
X249887000Y-83387428D02*
X249815571Y-83316000D01*
X249672714Y-83244571D01*
X249458428Y-83244571D01*
X249315571Y-83316000D01*
X249244142Y-83458857D01*
X249244142Y-84244571D01*
X248672714Y-83244571D02*
X247887000Y-83244571D01*
X248672714Y-84244571D01*
X247887000Y-84244571D01*
X246744142Y-84173142D02*
X246887000Y-84244571D01*
X247172714Y-84244571D01*
X247315571Y-84173142D01*
X247387000Y-84030285D01*
X247387000Y-83458857D01*
X247315571Y-83316000D01*
X247172714Y-83244571D01*
X246887000Y-83244571D01*
X246744142Y-83316000D01*
X246672714Y-83458857D01*
X246672714Y-83601714D01*
X247387000Y-83744571D01*
X245815571Y-84244571D02*
X245958428Y-84173142D01*
X246029857Y-84030285D01*
X246029857Y-82744571D01*
X244101285Y-83673142D02*
X242958428Y-83673142D01*
X241172714Y-82887428D02*
X241101285Y-82816000D01*
X240958428Y-82744571D01*
X240601285Y-82744571D01*
X240458428Y-82816000D01*
X240387000Y-82887428D01*
X240315571Y-83030285D01*
X240315571Y-83173142D01*
X240387000Y-83387428D01*
X241244142Y-84244571D01*
X240315571Y-84244571D01*
X239029857Y-82744571D02*
X239315571Y-82744571D01*
X239458428Y-82816000D01*
X239529857Y-82887428D01*
X239672714Y-83101714D01*
X239744142Y-83387428D01*
X239744142Y-83958857D01*
X239672714Y-84101714D01*
X239601285Y-84173142D01*
X239458428Y-84244571D01*
X239172714Y-84244571D01*
X239029857Y-84173142D01*
X238958428Y-84101714D01*
X238887000Y-83958857D01*
X238887000Y-83601714D01*
X238958428Y-83458857D01*
X239029857Y-83387428D01*
X239172714Y-83316000D01*
X239458428Y-83316000D01*
X239601285Y-83387428D01*
X239672714Y-83458857D01*
X239744142Y-83601714D01*
X238244142Y-84101714D02*
X238172714Y-84173142D01*
X238244142Y-84244571D01*
X238315571Y-84173142D01*
X238244142Y-84101714D01*
X238244142Y-84244571D01*
X237244142Y-82744571D02*
X237101285Y-82744571D01*
X236958428Y-82816000D01*
X236887000Y-82887428D01*
X236815571Y-83030285D01*
X236744142Y-83316000D01*
X236744142Y-83673142D01*
X236815571Y-83958857D01*
X236887000Y-84101714D01*
X236958428Y-84173142D01*
X237101285Y-84244571D01*
X237244142Y-84244571D01*
X237387000Y-84173142D01*
X237458428Y-84101714D01*
X237529857Y-83958857D01*
X237601285Y-83673142D01*
X237601285Y-83316000D01*
X237529857Y-83030285D01*
X237458428Y-82887428D01*
X237387000Y-82816000D01*
X237244142Y-82744571D01*
X236244142Y-82744571D02*
X235244142Y-82744571D01*
X235887000Y-84244571D01*
X234672714Y-84101714D02*
X234601285Y-84173142D01*
X234672714Y-84244571D01*
X234744142Y-84173142D01*
X234672714Y-84101714D01*
X234672714Y-84244571D01*
X234029857Y-82887428D02*
X233958428Y-82816000D01*
X233815571Y-82744571D01*
X233458428Y-82744571D01*
X233315571Y-82816000D01*
X233244142Y-82887428D01*
X233172714Y-83030285D01*
X233172714Y-83173142D01*
X233244142Y-83387428D01*
X234101285Y-84244571D01*
X233172714Y-84244571D01*
X232244142Y-82744571D02*
X232101285Y-82744571D01*
X231958428Y-82816000D01*
X231887000Y-82887428D01*
X231815571Y-83030285D01*
X231744142Y-83316000D01*
X231744142Y-83673142D01*
X231815571Y-83958857D01*
X231887000Y-84101714D01*
X231958428Y-84173142D01*
X232101285Y-84244571D01*
X232244142Y-84244571D01*
X232387000Y-84173142D01*
X232458428Y-84101714D01*
X232529857Y-83958857D01*
X232601285Y-83673142D01*
X232601285Y-83316000D01*
X232529857Y-83030285D01*
X232458428Y-82887428D01*
X232387000Y-82816000D01*
X232244142Y-82744571D01*
X231172714Y-82887428D02*
X231101285Y-82816000D01*
X230958428Y-82744571D01*
X230601285Y-82744571D01*
X230458428Y-82816000D01*
X230387000Y-82887428D01*
X230315571Y-83030285D01*
X230315571Y-83173142D01*
X230387000Y-83387428D01*
X231244142Y-84244571D01*
X230315571Y-84244571D01*
X228887000Y-84244571D02*
X229744142Y-84244571D01*
X229315571Y-84244571D02*
X229315571Y-82744571D01*
X229458428Y-82958857D01*
X229601285Y-83101714D01*
X229744142Y-83173142D01*
D11*
%TO.C,REF\u002A\u002A*%
G36*
X267887986Y-50586998D02*
G01*
X267729994Y-50587863D01*
X267615653Y-50590205D01*
X267537593Y-50594762D01*
X267488446Y-50602270D01*
X267460841Y-50613466D01*
X267447408Y-50629088D01*
X267440779Y-50649873D01*
X267440135Y-50652563D01*
X267430065Y-50701113D01*
X267411425Y-50796905D01*
X267386155Y-50929743D01*
X267356193Y-51089431D01*
X267323478Y-51265774D01*
X267322336Y-51271967D01*
X267289567Y-51444782D01*
X267258907Y-51597469D01*
X267232336Y-51720871D01*
X267211833Y-51805831D01*
X267199374Y-51843190D01*
X267198780Y-51843852D01*
X267162081Y-51862095D01*
X267086414Y-51892497D01*
X266988122Y-51928493D01*
X266987575Y-51928685D01*
X266863767Y-51975222D01*
X266717804Y-52034504D01*
X266580219Y-52094109D01*
X266573707Y-52097056D01*
X266349610Y-52198765D01*
X265853381Y-51859897D01*
X265701154Y-51756592D01*
X265563259Y-51664237D01*
X265447685Y-51588084D01*
X265362421Y-51533385D01*
X265315456Y-51505393D01*
X265310996Y-51503317D01*
X265276866Y-51512560D01*
X265213119Y-51557156D01*
X265117269Y-51639209D01*
X264986831Y-51760821D01*
X264853672Y-51890205D01*
X264725306Y-52017702D01*
X264610419Y-52134046D01*
X264515927Y-52232052D01*
X264448747Y-52304536D01*
X264415794Y-52344313D01*
X264414568Y-52346361D01*
X264410926Y-52373656D01*
X264424650Y-52418234D01*
X264459131Y-52486112D01*
X264517761Y-52583311D01*
X264603930Y-52715851D01*
X264718800Y-52886476D01*
X264820746Y-53036655D01*
X264911877Y-53171350D01*
X264986927Y-53282740D01*
X265040631Y-53363005D01*
X265067720Y-53404325D01*
X265069426Y-53407130D01*
X265066118Y-53446721D01*
X265041047Y-53523669D01*
X264999202Y-53623432D01*
X264984288Y-53655291D01*
X264919214Y-53797226D01*
X264849788Y-53958273D01*
X264793391Y-54097621D01*
X264752753Y-54201044D01*
X264720474Y-54279642D01*
X264701822Y-54320720D01*
X264699503Y-54323885D01*
X264665197Y-54329128D01*
X264584331Y-54343494D01*
X264467657Y-54364937D01*
X264325925Y-54391413D01*
X264169890Y-54420877D01*
X264010302Y-54451283D01*
X263857915Y-54480588D01*
X263723479Y-54506745D01*
X263617748Y-54527710D01*
X263551474Y-54541439D01*
X263535218Y-54545320D01*
X263518427Y-54554900D01*
X263505751Y-54576536D01*
X263496622Y-54617531D01*
X263490469Y-54685189D01*
X263486720Y-54786812D01*
X263484808Y-54929703D01*
X263484160Y-55121165D01*
X263484126Y-55199645D01*
X263484126Y-55837906D01*
X263637402Y-55868160D01*
X263722678Y-55884564D01*
X263849930Y-55908509D01*
X264003685Y-55937107D01*
X264168466Y-55967467D01*
X264214011Y-55975806D01*
X264366068Y-56005370D01*
X264498532Y-56034442D01*
X264600286Y-56060329D01*
X264660212Y-56080337D01*
X264670195Y-56086301D01*
X264694707Y-56128534D01*
X264729852Y-56210370D01*
X264768827Y-56315683D01*
X264776558Y-56338368D01*
X264827640Y-56479018D01*
X264891046Y-56637714D01*
X264953096Y-56780225D01*
X264953402Y-56780886D01*
X265056733Y-57004440D01*
X264377039Y-58004232D01*
X264813379Y-58441300D01*
X264945351Y-58571381D01*
X265065721Y-58686048D01*
X265167727Y-58779181D01*
X265244609Y-58844658D01*
X265289607Y-58876357D01*
X265296062Y-58878368D01*
X265333960Y-58862529D01*
X265411292Y-58818496D01*
X265519611Y-58751490D01*
X265650468Y-58666734D01*
X265791948Y-58571816D01*
X265935539Y-58474998D01*
X266063565Y-58390751D01*
X266167895Y-58324258D01*
X266240400Y-58280702D01*
X266272842Y-58265264D01*
X266312424Y-58278328D01*
X266387481Y-58312750D01*
X266482532Y-58361380D01*
X266492608Y-58366785D01*
X266620609Y-58430980D01*
X266708382Y-58462463D01*
X266762972Y-58462798D01*
X266791425Y-58433548D01*
X266791590Y-58433138D01*
X266805812Y-58398498D01*
X266839731Y-58316269D01*
X266890716Y-58192814D01*
X266956138Y-58034498D01*
X267033366Y-57847686D01*
X267119771Y-57638742D01*
X267203449Y-57436446D01*
X267295412Y-57213200D01*
X267379850Y-57006392D01*
X267454231Y-56822362D01*
X267516026Y-56667451D01*
X267562703Y-56547996D01*
X267591732Y-56470339D01*
X267600678Y-56441356D01*
X267578244Y-56408110D01*
X267519561Y-56355123D01*
X267441311Y-56296704D01*
X267218466Y-56111952D01*
X267044282Y-55900182D01*
X266920846Y-55665856D01*
X266850246Y-55413434D01*
X266834569Y-55147377D01*
X266845964Y-55024575D01*
X266908050Y-54769793D01*
X267014977Y-54544801D01*
X267160111Y-54351817D01*
X267336822Y-54193061D01*
X267538478Y-54070750D01*
X267758446Y-53987105D01*
X267990094Y-53944344D01*
X268226791Y-53944687D01*
X268461905Y-53990352D01*
X268688804Y-54083559D01*
X268900856Y-54226527D01*
X268989364Y-54307383D01*
X269159111Y-54515007D01*
X269277301Y-54741895D01*
X269344722Y-54981433D01*
X269362160Y-55227007D01*
X269330402Y-55472003D01*
X269250235Y-55709808D01*
X269122445Y-55933807D01*
X268947820Y-56137387D01*
X268752688Y-56296704D01*
X268671409Y-56357602D01*
X268613991Y-56410015D01*
X268593322Y-56441406D01*
X268604144Y-56475639D01*
X268634923Y-56557419D01*
X268683126Y-56680407D01*
X268746222Y-56838263D01*
X268821678Y-57024649D01*
X268906962Y-57233226D01*
X268990781Y-57436496D01*
X269083255Y-57659933D01*
X269168911Y-57866984D01*
X269245118Y-58051286D01*
X269309247Y-58206475D01*
X269358668Y-58326188D01*
X269390752Y-58404061D01*
X269402641Y-58433138D01*
X269430726Y-58462677D01*
X269485051Y-58462591D01*
X269572605Y-58431326D01*
X269700381Y-58367329D01*
X269701392Y-58366785D01*
X269797598Y-58317121D01*
X269875369Y-58280945D01*
X269919223Y-58265408D01*
X269921158Y-58265264D01*
X269954171Y-58281024D01*
X270027054Y-58324850D01*
X270131678Y-58391557D01*
X270259910Y-58475964D01*
X270402052Y-58571816D01*
X270546767Y-58668867D01*
X270677196Y-58753270D01*
X270784890Y-58819801D01*
X270861402Y-58863238D01*
X270897938Y-58878368D01*
X270931582Y-58858482D01*
X270999224Y-58802903D01*
X271094107Y-58717754D01*
X271209470Y-58609153D01*
X271338555Y-58483221D01*
X271380771Y-58441149D01*
X271817261Y-58003931D01*
X271485023Y-57516340D01*
X271384054Y-57366605D01*
X271295438Y-57232220D01*
X271224146Y-57120969D01*
X271175150Y-57040639D01*
X271153422Y-56999014D01*
X271152785Y-56996053D01*
X271164240Y-56956818D01*
X271195051Y-56877895D01*
X271239884Y-56772509D01*
X271271353Y-56701954D01*
X271330192Y-56566876D01*
X271385604Y-56430409D01*
X271428564Y-56315103D01*
X271440234Y-56279977D01*
X271473389Y-56186174D01*
X271505799Y-56113694D01*
X271523601Y-56086301D01*
X271562886Y-56069536D01*
X271648626Y-56045770D01*
X271769697Y-56017697D01*
X271914973Y-55988009D01*
X271979988Y-55975806D01*
X272145087Y-55945468D01*
X272303448Y-55916093D01*
X272439596Y-55890569D01*
X272538057Y-55871785D01*
X272556598Y-55868160D01*
X272709873Y-55837906D01*
X272709873Y-55199645D01*
X272709529Y-54989770D01*
X272708116Y-54830980D01*
X272705064Y-54715973D01*
X272699803Y-54637446D01*
X272691763Y-54588096D01*
X272680373Y-54560619D01*
X272665063Y-54547713D01*
X272658782Y-54545320D01*
X272620896Y-54536833D01*
X272537195Y-54519900D01*
X272418433Y-54496566D01*
X272275361Y-54468875D01*
X272118732Y-54438873D01*
X271959297Y-54408604D01*
X271807809Y-54380115D01*
X271675019Y-54355449D01*
X271571681Y-54336651D01*
X271508545Y-54325767D01*
X271494497Y-54323885D01*
X271481770Y-54298704D01*
X271453600Y-54231622D01*
X271415252Y-54135333D01*
X271400609Y-54097621D01*
X271341548Y-53951921D01*
X271272000Y-53790951D01*
X271209712Y-53655291D01*
X271163879Y-53551561D01*
X271133387Y-53466326D01*
X271123208Y-53414126D01*
X271124831Y-53407130D01*
X271146343Y-53374102D01*
X271195465Y-53300643D01*
X271266923Y-53194577D01*
X271355445Y-53063726D01*
X271455759Y-52915912D01*
X271475594Y-52886734D01*
X271591988Y-52713863D01*
X271677548Y-52582226D01*
X271735684Y-52485761D01*
X271769808Y-52418408D01*
X271783331Y-52374106D01*
X271779664Y-52346794D01*
X271779570Y-52346620D01*
X271750707Y-52310746D01*
X271686867Y-52241391D01*
X271594969Y-52145745D01*
X271481933Y-52030999D01*
X271354679Y-51904341D01*
X271340328Y-51890205D01*
X271179957Y-51734903D01*
X271056195Y-51620870D01*
X270966555Y-51546002D01*
X270908552Y-51508196D01*
X270883004Y-51503317D01*
X270845718Y-51524603D01*
X270768343Y-51573773D01*
X270658867Y-51645575D01*
X270525280Y-51734755D01*
X270375570Y-51836063D01*
X270340618Y-51859897D01*
X269844390Y-52198765D01*
X269620293Y-52097056D01*
X269484011Y-52037783D01*
X269337724Y-51978170D01*
X269211965Y-51930640D01*
X269206425Y-51928685D01*
X269108057Y-51892677D01*
X269032229Y-51862229D01*
X268995282Y-51843905D01*
X268995220Y-51843852D01*
X268983496Y-51810729D01*
X268963568Y-51729267D01*
X268937413Y-51608625D01*
X268907010Y-51457959D01*
X268874337Y-51286428D01*
X268871664Y-51271967D01*
X268838890Y-51095235D01*
X268808802Y-50934810D01*
X268783339Y-50800888D01*
X268764441Y-50703663D01*
X268754047Y-50653332D01*
X268753865Y-50652563D01*
X268747539Y-50631153D01*
X268735239Y-50614988D01*
X268709594Y-50603331D01*
X268663235Y-50595445D01*
X268588792Y-50590593D01*
X268478895Y-50588039D01*
X268326175Y-50587045D01*
X268123262Y-50586874D01*
X268097000Y-50586874D01*
X267887986Y-50586998D01*
G37*
X267887986Y-50586998D02*
X267729994Y-50587863D01*
X267615653Y-50590205D01*
X267537593Y-50594762D01*
X267488446Y-50602270D01*
X267460841Y-50613466D01*
X267447408Y-50629088D01*
X267440779Y-50649873D01*
X267440135Y-50652563D01*
X267430065Y-50701113D01*
X267411425Y-50796905D01*
X267386155Y-50929743D01*
X267356193Y-51089431D01*
X267323478Y-51265774D01*
X267322336Y-51271967D01*
X267289567Y-51444782D01*
X267258907Y-51597469D01*
X267232336Y-51720871D01*
X267211833Y-51805831D01*
X267199374Y-51843190D01*
X267198780Y-51843852D01*
X267162081Y-51862095D01*
X267086414Y-51892497D01*
X266988122Y-51928493D01*
X266987575Y-51928685D01*
X266863767Y-51975222D01*
X266717804Y-52034504D01*
X266580219Y-52094109D01*
X266573707Y-52097056D01*
X266349610Y-52198765D01*
X265853381Y-51859897D01*
X265701154Y-51756592D01*
X265563259Y-51664237D01*
X265447685Y-51588084D01*
X265362421Y-51533385D01*
X265315456Y-51505393D01*
X265310996Y-51503317D01*
X265276866Y-51512560D01*
X265213119Y-51557156D01*
X265117269Y-51639209D01*
X264986831Y-51760821D01*
X264853672Y-51890205D01*
X264725306Y-52017702D01*
X264610419Y-52134046D01*
X264515927Y-52232052D01*
X264448747Y-52304536D01*
X264415794Y-52344313D01*
X264414568Y-52346361D01*
X264410926Y-52373656D01*
X264424650Y-52418234D01*
X264459131Y-52486112D01*
X264517761Y-52583311D01*
X264603930Y-52715851D01*
X264718800Y-52886476D01*
X264820746Y-53036655D01*
X264911877Y-53171350D01*
X264986927Y-53282740D01*
X265040631Y-53363005D01*
X265067720Y-53404325D01*
X265069426Y-53407130D01*
X265066118Y-53446721D01*
X265041047Y-53523669D01*
X264999202Y-53623432D01*
X264984288Y-53655291D01*
X264919214Y-53797226D01*
X264849788Y-53958273D01*
X264793391Y-54097621D01*
X264752753Y-54201044D01*
X264720474Y-54279642D01*
X264701822Y-54320720D01*
X264699503Y-54323885D01*
X264665197Y-54329128D01*
X264584331Y-54343494D01*
X264467657Y-54364937D01*
X264325925Y-54391413D01*
X264169890Y-54420877D01*
X264010302Y-54451283D01*
X263857915Y-54480588D01*
X263723479Y-54506745D01*
X263617748Y-54527710D01*
X263551474Y-54541439D01*
X263535218Y-54545320D01*
X263518427Y-54554900D01*
X263505751Y-54576536D01*
X263496622Y-54617531D01*
X263490469Y-54685189D01*
X263486720Y-54786812D01*
X263484808Y-54929703D01*
X263484160Y-55121165D01*
X263484126Y-55199645D01*
X263484126Y-55837906D01*
X263637402Y-55868160D01*
X263722678Y-55884564D01*
X263849930Y-55908509D01*
X264003685Y-55937107D01*
X264168466Y-55967467D01*
X264214011Y-55975806D01*
X264366068Y-56005370D01*
X264498532Y-56034442D01*
X264600286Y-56060329D01*
X264660212Y-56080337D01*
X264670195Y-56086301D01*
X264694707Y-56128534D01*
X264729852Y-56210370D01*
X264768827Y-56315683D01*
X264776558Y-56338368D01*
X264827640Y-56479018D01*
X264891046Y-56637714D01*
X264953096Y-56780225D01*
X264953402Y-56780886D01*
X265056733Y-57004440D01*
X264377039Y-58004232D01*
X264813379Y-58441300D01*
X264945351Y-58571381D01*
X265065721Y-58686048D01*
X265167727Y-58779181D01*
X265244609Y-58844658D01*
X265289607Y-58876357D01*
X265296062Y-58878368D01*
X265333960Y-58862529D01*
X265411292Y-58818496D01*
X265519611Y-58751490D01*
X265650468Y-58666734D01*
X265791948Y-58571816D01*
X265935539Y-58474998D01*
X266063565Y-58390751D01*
X266167895Y-58324258D01*
X266240400Y-58280702D01*
X266272842Y-58265264D01*
X266312424Y-58278328D01*
X266387481Y-58312750D01*
X266482532Y-58361380D01*
X266492608Y-58366785D01*
X266620609Y-58430980D01*
X266708382Y-58462463D01*
X266762972Y-58462798D01*
X266791425Y-58433548D01*
X266791590Y-58433138D01*
X266805812Y-58398498D01*
X266839731Y-58316269D01*
X266890716Y-58192814D01*
X266956138Y-58034498D01*
X267033366Y-57847686D01*
X267119771Y-57638742D01*
X267203449Y-57436446D01*
X267295412Y-57213200D01*
X267379850Y-57006392D01*
X267454231Y-56822362D01*
X267516026Y-56667451D01*
X267562703Y-56547996D01*
X267591732Y-56470339D01*
X267600678Y-56441356D01*
X267578244Y-56408110D01*
X267519561Y-56355123D01*
X267441311Y-56296704D01*
X267218466Y-56111952D01*
X267044282Y-55900182D01*
X266920846Y-55665856D01*
X266850246Y-55413434D01*
X266834569Y-55147377D01*
X266845964Y-55024575D01*
X266908050Y-54769793D01*
X267014977Y-54544801D01*
X267160111Y-54351817D01*
X267336822Y-54193061D01*
X267538478Y-54070750D01*
X267758446Y-53987105D01*
X267990094Y-53944344D01*
X268226791Y-53944687D01*
X268461905Y-53990352D01*
X268688804Y-54083559D01*
X268900856Y-54226527D01*
X268989364Y-54307383D01*
X269159111Y-54515007D01*
X269277301Y-54741895D01*
X269344722Y-54981433D01*
X269362160Y-55227007D01*
X269330402Y-55472003D01*
X269250235Y-55709808D01*
X269122445Y-55933807D01*
X268947820Y-56137387D01*
X268752688Y-56296704D01*
X268671409Y-56357602D01*
X268613991Y-56410015D01*
X268593322Y-56441406D01*
X268604144Y-56475639D01*
X268634923Y-56557419D01*
X268683126Y-56680407D01*
X268746222Y-56838263D01*
X268821678Y-57024649D01*
X268906962Y-57233226D01*
X268990781Y-57436496D01*
X269083255Y-57659933D01*
X269168911Y-57866984D01*
X269245118Y-58051286D01*
X269309247Y-58206475D01*
X269358668Y-58326188D01*
X269390752Y-58404061D01*
X269402641Y-58433138D01*
X269430726Y-58462677D01*
X269485051Y-58462591D01*
X269572605Y-58431326D01*
X269700381Y-58367329D01*
X269701392Y-58366785D01*
X269797598Y-58317121D01*
X269875369Y-58280945D01*
X269919223Y-58265408D01*
X269921158Y-58265264D01*
X269954171Y-58281024D01*
X270027054Y-58324850D01*
X270131678Y-58391557D01*
X270259910Y-58475964D01*
X270402052Y-58571816D01*
X270546767Y-58668867D01*
X270677196Y-58753270D01*
X270784890Y-58819801D01*
X270861402Y-58863238D01*
X270897938Y-58878368D01*
X270931582Y-58858482D01*
X270999224Y-58802903D01*
X271094107Y-58717754D01*
X271209470Y-58609153D01*
X271338555Y-58483221D01*
X271380771Y-58441149D01*
X271817261Y-58003931D01*
X271485023Y-57516340D01*
X271384054Y-57366605D01*
X271295438Y-57232220D01*
X271224146Y-57120969D01*
X271175150Y-57040639D01*
X271153422Y-56999014D01*
X271152785Y-56996053D01*
X271164240Y-56956818D01*
X271195051Y-56877895D01*
X271239884Y-56772509D01*
X271271353Y-56701954D01*
X271330192Y-56566876D01*
X271385604Y-56430409D01*
X271428564Y-56315103D01*
X271440234Y-56279977D01*
X271473389Y-56186174D01*
X271505799Y-56113694D01*
X271523601Y-56086301D01*
X271562886Y-56069536D01*
X271648626Y-56045770D01*
X271769697Y-56017697D01*
X271914973Y-55988009D01*
X271979988Y-55975806D01*
X272145087Y-55945468D01*
X272303448Y-55916093D01*
X272439596Y-55890569D01*
X272538057Y-55871785D01*
X272556598Y-55868160D01*
X272709873Y-55837906D01*
X272709873Y-55199645D01*
X272709529Y-54989770D01*
X272708116Y-54830980D01*
X272705064Y-54715973D01*
X272699803Y-54637446D01*
X272691763Y-54588096D01*
X272680373Y-54560619D01*
X272665063Y-54547713D01*
X272658782Y-54545320D01*
X272620896Y-54536833D01*
X272537195Y-54519900D01*
X272418433Y-54496566D01*
X272275361Y-54468875D01*
X272118732Y-54438873D01*
X271959297Y-54408604D01*
X271807809Y-54380115D01*
X271675019Y-54355449D01*
X271571681Y-54336651D01*
X271508545Y-54325767D01*
X271494497Y-54323885D01*
X271481770Y-54298704D01*
X271453600Y-54231622D01*
X271415252Y-54135333D01*
X271400609Y-54097621D01*
X271341548Y-53951921D01*
X271272000Y-53790951D01*
X271209712Y-53655291D01*
X271163879Y-53551561D01*
X271133387Y-53466326D01*
X271123208Y-53414126D01*
X271124831Y-53407130D01*
X271146343Y-53374102D01*
X271195465Y-53300643D01*
X271266923Y-53194577D01*
X271355445Y-53063726D01*
X271455759Y-52915912D01*
X271475594Y-52886734D01*
X271591988Y-52713863D01*
X271677548Y-52582226D01*
X271735684Y-52485761D01*
X271769808Y-52418408D01*
X271783331Y-52374106D01*
X271779664Y-52346794D01*
X271779570Y-52346620D01*
X271750707Y-52310746D01*
X271686867Y-52241391D01*
X271594969Y-52145745D01*
X271481933Y-52030999D01*
X271354679Y-51904341D01*
X271340328Y-51890205D01*
X271179957Y-51734903D01*
X271056195Y-51620870D01*
X270966555Y-51546002D01*
X270908552Y-51508196D01*
X270883004Y-51503317D01*
X270845718Y-51524603D01*
X270768343Y-51573773D01*
X270658867Y-51645575D01*
X270525280Y-51734755D01*
X270375570Y-51836063D01*
X270340618Y-51859897D01*
X269844390Y-52198765D01*
X269620293Y-52097056D01*
X269484011Y-52037783D01*
X269337724Y-51978170D01*
X269211965Y-51930640D01*
X269206425Y-51928685D01*
X269108057Y-51892677D01*
X269032229Y-51862229D01*
X268995282Y-51843905D01*
X268995220Y-51843852D01*
X268983496Y-51810729D01*
X268963568Y-51729267D01*
X268937413Y-51608625D01*
X268907010Y-51457959D01*
X268874337Y-51286428D01*
X268871664Y-51271967D01*
X268838890Y-51095235D01*
X268808802Y-50934810D01*
X268783339Y-50800888D01*
X268764441Y-50703663D01*
X268754047Y-50653332D01*
X268753865Y-50652563D01*
X268747539Y-50631153D01*
X268735239Y-50614988D01*
X268709594Y-50603331D01*
X268663235Y-50595445D01*
X268588792Y-50590593D01*
X268478895Y-50588039D01*
X268326175Y-50587045D01*
X268123262Y-50586874D01*
X268097000Y-50586874D01*
X267887986Y-50586998D01*
%TD*%
%TO.C,R12*%
G36*
G01*
X108121000Y-73643500D02*
X108121000Y-73168500D01*
G75*
G02*
X108358500Y-72931000I237500J0D01*
G01*
X108858500Y-72931000D01*
G75*
G02*
X109096000Y-73168500I0J-237500D01*
G01*
X109096000Y-73643500D01*
G75*
G02*
X108858500Y-73881000I-237500J0D01*
G01*
X108358500Y-73881000D01*
G75*
G02*
X108121000Y-73643500I0J237500D01*
G01*
G37*
G36*
G01*
X106296000Y-73643500D02*
X106296000Y-73168500D01*
G75*
G02*
X106533500Y-72931000I237500J0D01*
G01*
X107033500Y-72931000D01*
G75*
G02*
X107271000Y-73168500I0J-237500D01*
G01*
X107271000Y-73643500D01*
G75*
G02*
X107033500Y-73881000I-237500J0D01*
G01*
X106533500Y-73881000D01*
G75*
G02*
X106296000Y-73643500I0J237500D01*
G01*
G37*
%TD*%
%TO.C,R8*%
G36*
G01*
X6941000Y-905500D02*
X6941000Y-1380500D01*
G75*
G02*
X6703500Y-1618000I-237500J0D01*
G01*
X6203500Y-1618000D01*
G75*
G02*
X5966000Y-1380500I0J237500D01*
G01*
X5966000Y-905500D01*
G75*
G02*
X6203500Y-668000I237500J0D01*
G01*
X6703500Y-668000D01*
G75*
G02*
X6941000Y-905500I0J-237500D01*
G01*
G37*
G36*
G01*
X8766000Y-905500D02*
X8766000Y-1380500D01*
G75*
G02*
X8528500Y-1618000I-237500J0D01*
G01*
X8028500Y-1618000D01*
G75*
G02*
X7791000Y-1380500I0J237500D01*
G01*
X7791000Y-905500D01*
G75*
G02*
X8028500Y-668000I237500J0D01*
G01*
X8528500Y-668000D01*
G75*
G02*
X8766000Y-905500I0J-237500D01*
G01*
G37*
%TD*%
%TO.C,R6*%
G36*
G01*
X1607000Y7730500D02*
X1607000Y7255500D01*
G75*
G02*
X1369500Y7018000I-237500J0D01*
G01*
X869500Y7018000D01*
G75*
G02*
X632000Y7255500I0J237500D01*
G01*
X632000Y7730500D01*
G75*
G02*
X869500Y7968000I237500J0D01*
G01*
X1369500Y7968000D01*
G75*
G02*
X1607000Y7730500I0J-237500D01*
G01*
G37*
G36*
G01*
X3432000Y7730500D02*
X3432000Y7255500D01*
G75*
G02*
X3194500Y7018000I-237500J0D01*
G01*
X2694500Y7018000D01*
G75*
G02*
X2457000Y7255500I0J237500D01*
G01*
X2457000Y7730500D01*
G75*
G02*
X2694500Y7968000I237500J0D01*
G01*
X3194500Y7968000D01*
G75*
G02*
X3432000Y7730500I0J-237500D01*
G01*
G37*
%TD*%
%TO.C,R5*%
G36*
G01*
X84626000Y-71484500D02*
X84626000Y-71009500D01*
G75*
G02*
X84863500Y-70772000I237500J0D01*
G01*
X85363500Y-70772000D01*
G75*
G02*
X85601000Y-71009500I0J-237500D01*
G01*
X85601000Y-71484500D01*
G75*
G02*
X85363500Y-71722000I-237500J0D01*
G01*
X84863500Y-71722000D01*
G75*
G02*
X84626000Y-71484500I0J237500D01*
G01*
G37*
G36*
G01*
X82801000Y-71484500D02*
X82801000Y-71009500D01*
G75*
G02*
X83038500Y-70772000I237500J0D01*
G01*
X83538500Y-70772000D01*
G75*
G02*
X83776000Y-71009500I0J-237500D01*
G01*
X83776000Y-71484500D01*
G75*
G02*
X83538500Y-71722000I-237500J0D01*
G01*
X83038500Y-71722000D01*
G75*
G02*
X82801000Y-71484500I0J237500D01*
G01*
G37*
%TD*%
%TO.C,R4*%
G36*
G01*
X53450500Y-63202000D02*
X52975500Y-63202000D01*
G75*
G02*
X52738000Y-62964500I0J237500D01*
G01*
X52738000Y-62464500D01*
G75*
G02*
X52975500Y-62227000I237500J0D01*
G01*
X53450500Y-62227000D01*
G75*
G02*
X53688000Y-62464500I0J-237500D01*
G01*
X53688000Y-62964500D01*
G75*
G02*
X53450500Y-63202000I-237500J0D01*
G01*
G37*
G36*
G01*
X53450500Y-65027000D02*
X52975500Y-65027000D01*
G75*
G02*
X52738000Y-64789500I0J237500D01*
G01*
X52738000Y-64289500D01*
G75*
G02*
X52975500Y-64052000I237500J0D01*
G01*
X53450500Y-64052000D01*
G75*
G02*
X53688000Y-64289500I0J-237500D01*
G01*
X53688000Y-64789500D01*
G75*
G02*
X53450500Y-65027000I-237500J0D01*
G01*
G37*
%TD*%
%TO.C,R3*%
G36*
G01*
X43544500Y-44152000D02*
X43069500Y-44152000D01*
G75*
G02*
X42832000Y-43914500I0J237500D01*
G01*
X42832000Y-43414500D01*
G75*
G02*
X43069500Y-43177000I237500J0D01*
G01*
X43544500Y-43177000D01*
G75*
G02*
X43782000Y-43414500I0J-237500D01*
G01*
X43782000Y-43914500D01*
G75*
G02*
X43544500Y-44152000I-237500J0D01*
G01*
G37*
G36*
G01*
X43544500Y-45977000D02*
X43069500Y-45977000D01*
G75*
G02*
X42832000Y-45739500I0J237500D01*
G01*
X42832000Y-45239500D01*
G75*
G02*
X43069500Y-45002000I237500J0D01*
G01*
X43544500Y-45002000D01*
G75*
G02*
X43782000Y-45239500I0J-237500D01*
G01*
X43782000Y-45739500D01*
G75*
G02*
X43544500Y-45977000I-237500J0D01*
G01*
G37*
%TD*%
%TO.C,R2*%
G36*
G01*
X38845500Y-25102000D02*
X38370500Y-25102000D01*
G75*
G02*
X38133000Y-24864500I0J237500D01*
G01*
X38133000Y-24364500D01*
G75*
G02*
X38370500Y-24127000I237500J0D01*
G01*
X38845500Y-24127000D01*
G75*
G02*
X39083000Y-24364500I0J-237500D01*
G01*
X39083000Y-24864500D01*
G75*
G02*
X38845500Y-25102000I-237500J0D01*
G01*
G37*
G36*
G01*
X38845500Y-26927000D02*
X38370500Y-26927000D01*
G75*
G02*
X38133000Y-26689500I0J237500D01*
G01*
X38133000Y-26189500D01*
G75*
G02*
X38370500Y-25952000I237500J0D01*
G01*
X38845500Y-25952000D01*
G75*
G02*
X39083000Y-26189500I0J-237500D01*
G01*
X39083000Y-26689500D01*
G75*
G02*
X38845500Y-26927000I-237500J0D01*
G01*
G37*
%TD*%
%TO.C,R1*%
G36*
G01*
X29701500Y-6052000D02*
X29226500Y-6052000D01*
G75*
G02*
X28989000Y-5814500I0J237500D01*
G01*
X28989000Y-5314500D01*
G75*
G02*
X29226500Y-5077000I237500J0D01*
G01*
X29701500Y-5077000D01*
G75*
G02*
X29939000Y-5314500I0J-237500D01*
G01*
X29939000Y-5814500D01*
G75*
G02*
X29701500Y-6052000I-237500J0D01*
G01*
G37*
G36*
G01*
X29701500Y-7877000D02*
X29226500Y-7877000D01*
G75*
G02*
X28989000Y-7639500I0J237500D01*
G01*
X28989000Y-7139500D01*
G75*
G02*
X29226500Y-6902000I237500J0D01*
G01*
X29701500Y-6902000D01*
G75*
G02*
X29939000Y-7139500I0J-237500D01*
G01*
X29939000Y-7639500D01*
G75*
G02*
X29701500Y-7877000I-237500J0D01*
G01*
G37*
%TD*%
%TO.C,C19*%
G36*
G01*
X111069000Y-73643500D02*
X111069000Y-73168500D01*
G75*
G02*
X111306500Y-72931000I237500J0D01*
G01*
X111906500Y-72931000D01*
G75*
G02*
X112144000Y-73168500I0J-237500D01*
G01*
X112144000Y-73643500D01*
G75*
G02*
X111906500Y-73881000I-237500J0D01*
G01*
X111306500Y-73881000D01*
G75*
G02*
X111069000Y-73643500I0J237500D01*
G01*
G37*
G36*
G01*
X109344000Y-73643500D02*
X109344000Y-73168500D01*
G75*
G02*
X109581500Y-72931000I237500J0D01*
G01*
X110181500Y-72931000D01*
G75*
G02*
X110419000Y-73168500I0J-237500D01*
G01*
X110419000Y-73643500D01*
G75*
G02*
X110181500Y-73881000I-237500J0D01*
G01*
X109581500Y-73881000D01*
G75*
G02*
X109344000Y-73643500I0J237500D01*
G01*
G37*
%TD*%
%TO.C,C5*%
G36*
G01*
X146288998Y-83323000D02*
X147589002Y-83323000D01*
G75*
G02*
X147839000Y-83572998I0J-249998D01*
G01*
X147839000Y-84398002D01*
G75*
G02*
X147589002Y-84648000I-249998J0D01*
G01*
X146288998Y-84648000D01*
G75*
G02*
X146039000Y-84398002I0J249998D01*
G01*
X146039000Y-83572998D01*
G75*
G02*
X146288998Y-83323000I249998J0D01*
G01*
G37*
G36*
G01*
X146288998Y-80198000D02*
X147589002Y-80198000D01*
G75*
G02*
X147839000Y-80447998I0J-249998D01*
G01*
X147839000Y-81273002D01*
G75*
G02*
X147589002Y-81523000I-249998J0D01*
G01*
X146288998Y-81523000D01*
G75*
G02*
X146039000Y-81273002I0J249998D01*
G01*
X146039000Y-80447998D01*
G75*
G02*
X146288998Y-80198000I249998J0D01*
G01*
G37*
%TD*%
%TO.C,C2*%
G36*
G01*
X226076500Y-55443000D02*
X226551500Y-55443000D01*
G75*
G02*
X226789000Y-55680500I0J-237500D01*
G01*
X226789000Y-56280500D01*
G75*
G02*
X226551500Y-56518000I-237500J0D01*
G01*
X226076500Y-56518000D01*
G75*
G02*
X225839000Y-56280500I0J237500D01*
G01*
X225839000Y-55680500D01*
G75*
G02*
X226076500Y-55443000I237500J0D01*
G01*
G37*
G36*
G01*
X226076500Y-53718000D02*
X226551500Y-53718000D01*
G75*
G02*
X226789000Y-53955500I0J-237500D01*
G01*
X226789000Y-54555500D01*
G75*
G02*
X226551500Y-54793000I-237500J0D01*
G01*
X226076500Y-54793000D01*
G75*
G02*
X225839000Y-54555500I0J237500D01*
G01*
X225839000Y-53955500D01*
G75*
G02*
X226076500Y-53718000I237500J0D01*
G01*
G37*
%TD*%
%TO.C,C1*%
G36*
G01*
X31186000Y-58022500D02*
X31186000Y-57547500D01*
G75*
G02*
X31423500Y-57310000I237500J0D01*
G01*
X32023500Y-57310000D01*
G75*
G02*
X32261000Y-57547500I0J-237500D01*
G01*
X32261000Y-58022500D01*
G75*
G02*
X32023500Y-58260000I-237500J0D01*
G01*
X31423500Y-58260000D01*
G75*
G02*
X31186000Y-58022500I0J237500D01*
G01*
G37*
G36*
G01*
X29461000Y-58022500D02*
X29461000Y-57547500D01*
G75*
G02*
X29698500Y-57310000I237500J0D01*
G01*
X30298500Y-57310000D01*
G75*
G02*
X30536000Y-57547500I0J-237500D01*
G01*
X30536000Y-58022500D01*
G75*
G02*
X30298500Y-58260000I-237500J0D01*
G01*
X29698500Y-58260000D01*
G75*
G02*
X29461000Y-58022500I0J237500D01*
G01*
G37*
%TD*%
D12*
%TO.C,D7*%
X50185000Y-57150000D03*
X52685000Y-57150000D03*
%TD*%
D13*
%TO.C,SW65*%
X20193000Y-41800000D03*
X20193000Y-38100000D03*
X20193000Y-34400000D03*
%TD*%
%TO.C,R11*%
G36*
G01*
X204680000Y-79264500D02*
X204680000Y-79739500D01*
G75*
G02*
X204442500Y-79977000I-237500J0D01*
G01*
X203942500Y-79977000D01*
G75*
G02*
X203705000Y-79739500I0J237500D01*
G01*
X203705000Y-79264500D01*
G75*
G02*
X203942500Y-79027000I237500J0D01*
G01*
X204442500Y-79027000D01*
G75*
G02*
X204680000Y-79264500I0J-237500D01*
G01*
G37*
G36*
G01*
X206505000Y-79264500D02*
X206505000Y-79739500D01*
G75*
G02*
X206267500Y-79977000I-237500J0D01*
G01*
X205767500Y-79977000D01*
G75*
G02*
X205530000Y-79739500I0J237500D01*
G01*
X205530000Y-79264500D01*
G75*
G02*
X205767500Y-79027000I237500J0D01*
G01*
X206267500Y-79027000D01*
G75*
G02*
X206505000Y-79264500I0J-237500D01*
G01*
G37*
%TD*%
D14*
%TO.C,D55*%
X206121000Y-81534000D03*
D15*
X203581000Y-81534000D03*
%TD*%
D16*
%TO.C,JP1*%
G36*
X83670000Y-68187000D02*
G01*
X83170000Y-68187000D01*
X83170000Y-68186398D01*
X83145466Y-68186398D01*
X83096635Y-68181588D01*
X83048510Y-68172016D01*
X83001555Y-68157772D01*
X82956222Y-68138995D01*
X82912949Y-68115864D01*
X82872150Y-68088604D01*
X82834221Y-68057476D01*
X82799524Y-68022779D01*
X82768396Y-67984850D01*
X82741136Y-67944051D01*
X82718005Y-67900778D01*
X82699228Y-67855445D01*
X82684984Y-67808490D01*
X82675412Y-67760365D01*
X82670602Y-67711534D01*
X82670602Y-67687000D01*
X82670000Y-67687000D01*
X82670000Y-67187000D01*
X82670602Y-67187000D01*
X82670602Y-67162466D01*
X82675412Y-67113635D01*
X82684984Y-67065510D01*
X82699228Y-67018555D01*
X82718005Y-66973222D01*
X82741136Y-66929949D01*
X82768396Y-66889150D01*
X82799524Y-66851221D01*
X82834221Y-66816524D01*
X82872150Y-66785396D01*
X82912949Y-66758136D01*
X82956222Y-66735005D01*
X83001555Y-66716228D01*
X83048510Y-66701984D01*
X83096635Y-66692412D01*
X83145466Y-66687602D01*
X83170000Y-66687602D01*
X83170000Y-66687000D01*
X83670000Y-66687000D01*
X83670000Y-68187000D01*
G37*
G36*
X84470000Y-66687602D02*
G01*
X84494534Y-66687602D01*
X84543365Y-66692412D01*
X84591490Y-66701984D01*
X84638445Y-66716228D01*
X84683778Y-66735005D01*
X84727051Y-66758136D01*
X84767850Y-66785396D01*
X84805779Y-66816524D01*
X84840476Y-66851221D01*
X84871604Y-66889150D01*
X84898864Y-66929949D01*
X84921995Y-66973222D01*
X84940772Y-67018555D01*
X84955016Y-67065510D01*
X84964588Y-67113635D01*
X84969398Y-67162466D01*
X84969398Y-67187000D01*
X84970000Y-67187000D01*
X84970000Y-67687000D01*
X84969398Y-67687000D01*
X84969398Y-67711534D01*
X84964588Y-67760365D01*
X84955016Y-67808490D01*
X84940772Y-67855445D01*
X84921995Y-67900778D01*
X84898864Y-67944051D01*
X84871604Y-67984850D01*
X84840476Y-68022779D01*
X84805779Y-68057476D01*
X84767850Y-68088604D01*
X84727051Y-68115864D01*
X84683778Y-68138995D01*
X84638445Y-68157772D01*
X84591490Y-68172016D01*
X84543365Y-68181588D01*
X84494534Y-68186398D01*
X84470000Y-68186398D01*
X84470000Y-68187000D01*
X83970000Y-68187000D01*
X83970000Y-66687000D01*
X84470000Y-66687000D01*
X84470000Y-66687602D01*
G37*
%TD*%
%TO.C,C18*%
G36*
G01*
X78542000Y-70247500D02*
X78542000Y-70722500D01*
G75*
G02*
X78304500Y-70960000I-237500J0D01*
G01*
X77704500Y-70960000D01*
G75*
G02*
X77467000Y-70722500I0J237500D01*
G01*
X77467000Y-70247500D01*
G75*
G02*
X77704500Y-70010000I237500J0D01*
G01*
X78304500Y-70010000D01*
G75*
G02*
X78542000Y-70247500I0J-237500D01*
G01*
G37*
G36*
G01*
X80267000Y-70247500D02*
X80267000Y-70722500D01*
G75*
G02*
X80029500Y-70960000I-237500J0D01*
G01*
X79429500Y-70960000D01*
G75*
G02*
X79192000Y-70722500I0J237500D01*
G01*
X79192000Y-70247500D01*
G75*
G02*
X79429500Y-70010000I237500J0D01*
G01*
X80029500Y-70010000D01*
G75*
G02*
X80267000Y-70247500I0J-237500D01*
G01*
G37*
%TD*%
%TO.C,C17*%
G36*
G01*
X80335000Y-80247500D02*
X80335000Y-79772500D01*
G75*
G02*
X80572500Y-79535000I237500J0D01*
G01*
X81172500Y-79535000D01*
G75*
G02*
X81410000Y-79772500I0J-237500D01*
G01*
X81410000Y-80247500D01*
G75*
G02*
X81172500Y-80485000I-237500J0D01*
G01*
X80572500Y-80485000D01*
G75*
G02*
X80335000Y-80247500I0J237500D01*
G01*
G37*
G36*
G01*
X78610000Y-80247500D02*
X78610000Y-79772500D01*
G75*
G02*
X78847500Y-79535000I237500J0D01*
G01*
X79447500Y-79535000D01*
G75*
G02*
X79685000Y-79772500I0J-237500D01*
G01*
X79685000Y-80247500D01*
G75*
G02*
X79447500Y-80485000I-237500J0D01*
G01*
X78847500Y-80485000D01*
G75*
G02*
X78610000Y-80247500I0J237500D01*
G01*
G37*
%TD*%
%TO.C,C16*%
G36*
G01*
X91578000Y-79644002D02*
X91578000Y-78343998D01*
G75*
G02*
X91827998Y-78094000I249998J0D01*
G01*
X92653002Y-78094000D01*
G75*
G02*
X92903000Y-78343998I0J-249998D01*
G01*
X92903000Y-79644002D01*
G75*
G02*
X92653002Y-79894000I-249998J0D01*
G01*
X91827998Y-79894000D01*
G75*
G02*
X91578000Y-79644002I0J249998D01*
G01*
G37*
G36*
G01*
X88453000Y-79644002D02*
X88453000Y-78343998D01*
G75*
G02*
X88702998Y-78094000I249998J0D01*
G01*
X89528002Y-78094000D01*
G75*
G02*
X89778000Y-78343998I0J-249998D01*
G01*
X89778000Y-79644002D01*
G75*
G02*
X89528002Y-79894000I-249998J0D01*
G01*
X88702998Y-79894000D01*
G75*
G02*
X88453000Y-79644002I0J249998D01*
G01*
G37*
%TD*%
%TO.C,C15*%
G36*
G01*
X87265500Y-79700000D02*
X87740500Y-79700000D01*
G75*
G02*
X87978000Y-79937500I0J-237500D01*
G01*
X87978000Y-80537500D01*
G75*
G02*
X87740500Y-80775000I-237500J0D01*
G01*
X87265500Y-80775000D01*
G75*
G02*
X87028000Y-80537500I0J237500D01*
G01*
X87028000Y-79937500D01*
G75*
G02*
X87265500Y-79700000I237500J0D01*
G01*
G37*
G36*
G01*
X87265500Y-77975000D02*
X87740500Y-77975000D01*
G75*
G02*
X87978000Y-78212500I0J-237500D01*
G01*
X87978000Y-78812500D01*
G75*
G02*
X87740500Y-79050000I-237500J0D01*
G01*
X87265500Y-79050000D01*
G75*
G02*
X87028000Y-78812500I0J237500D01*
G01*
X87028000Y-78212500D01*
G75*
G02*
X87265500Y-77975000I237500J0D01*
G01*
G37*
%TD*%
%TO.C,C14*%
G36*
G01*
X71871000Y-77962998D02*
X71871000Y-79263002D01*
G75*
G02*
X71621002Y-79513000I-249998J0D01*
G01*
X70795998Y-79513000D01*
G75*
G02*
X70546000Y-79263002I0J249998D01*
G01*
X70546000Y-77962998D01*
G75*
G02*
X70795998Y-77713000I249998J0D01*
G01*
X71621002Y-77713000D01*
G75*
G02*
X71871000Y-77962998I0J-249998D01*
G01*
G37*
G36*
G01*
X74996000Y-77962998D02*
X74996000Y-79263002D01*
G75*
G02*
X74746002Y-79513000I-249998J0D01*
G01*
X73920998Y-79513000D01*
G75*
G02*
X73671000Y-79263002I0J249998D01*
G01*
X73671000Y-77962998D01*
G75*
G02*
X73920998Y-77713000I249998J0D01*
G01*
X74746002Y-77713000D01*
G75*
G02*
X74996000Y-77962998I0J-249998D01*
G01*
G37*
%TD*%
%TO.C,C13*%
G36*
G01*
X77033000Y-80247500D02*
X77033000Y-79772500D01*
G75*
G02*
X77270500Y-79535000I237500J0D01*
G01*
X77870500Y-79535000D01*
G75*
G02*
X78108000Y-79772500I0J-237500D01*
G01*
X78108000Y-80247500D01*
G75*
G02*
X77870500Y-80485000I-237500J0D01*
G01*
X77270500Y-80485000D01*
G75*
G02*
X77033000Y-80247500I0J237500D01*
G01*
G37*
G36*
G01*
X75308000Y-80247500D02*
X75308000Y-79772500D01*
G75*
G02*
X75545500Y-79535000I237500J0D01*
G01*
X76145500Y-79535000D01*
G75*
G02*
X76383000Y-79772500I0J-237500D01*
G01*
X76383000Y-80247500D01*
G75*
G02*
X76145500Y-80485000I-237500J0D01*
G01*
X75545500Y-80485000D01*
G75*
G02*
X75308000Y-80247500I0J237500D01*
G01*
G37*
%TD*%
%TO.C,C12*%
G36*
G01*
X76565998Y-77735000D02*
X77866002Y-77735000D01*
G75*
G02*
X78116000Y-77984998I0J-249998D01*
G01*
X78116000Y-78810002D01*
G75*
G02*
X77866002Y-79060000I-249998J0D01*
G01*
X76565998Y-79060000D01*
G75*
G02*
X76316000Y-78810002I0J249998D01*
G01*
X76316000Y-77984998D01*
G75*
G02*
X76565998Y-77735000I249998J0D01*
G01*
G37*
G36*
G01*
X76565998Y-74610000D02*
X77866002Y-74610000D01*
G75*
G02*
X78116000Y-74859998I0J-249998D01*
G01*
X78116000Y-75685002D01*
G75*
G02*
X77866002Y-75935000I-249998J0D01*
G01*
X76565998Y-75935000D01*
G75*
G02*
X76316000Y-75685002I0J249998D01*
G01*
X76316000Y-74859998D01*
G75*
G02*
X76565998Y-74610000I249998J0D01*
G01*
G37*
%TD*%
%TO.C,C11*%
G36*
G01*
X73208000Y-74565500D02*
X73208000Y-75040500D01*
G75*
G02*
X72970500Y-75278000I-237500J0D01*
G01*
X72370500Y-75278000D01*
G75*
G02*
X72133000Y-75040500I0J237500D01*
G01*
X72133000Y-74565500D01*
G75*
G02*
X72370500Y-74328000I237500J0D01*
G01*
X72970500Y-74328000D01*
G75*
G02*
X73208000Y-74565500I0J-237500D01*
G01*
G37*
G36*
G01*
X74933000Y-74565500D02*
X74933000Y-75040500D01*
G75*
G02*
X74695500Y-75278000I-237500J0D01*
G01*
X74095500Y-75278000D01*
G75*
G02*
X73858000Y-75040500I0J237500D01*
G01*
X73858000Y-74565500D01*
G75*
G02*
X74095500Y-74328000I237500J0D01*
G01*
X74695500Y-74328000D01*
G75*
G02*
X74933000Y-74565500I0J-237500D01*
G01*
G37*
%TD*%
%TO.C,C10*%
G36*
G01*
X78542000Y-68850500D02*
X78542000Y-69325500D01*
G75*
G02*
X78304500Y-69563000I-237500J0D01*
G01*
X77704500Y-69563000D01*
G75*
G02*
X77467000Y-69325500I0J237500D01*
G01*
X77467000Y-68850500D01*
G75*
G02*
X77704500Y-68613000I237500J0D01*
G01*
X78304500Y-68613000D01*
G75*
G02*
X78542000Y-68850500I0J-237500D01*
G01*
G37*
G36*
G01*
X80267000Y-68850500D02*
X80267000Y-69325500D01*
G75*
G02*
X80029500Y-69563000I-237500J0D01*
G01*
X79429500Y-69563000D01*
G75*
G02*
X79192000Y-69325500I0J237500D01*
G01*
X79192000Y-68850500D01*
G75*
G02*
X79429500Y-68613000I237500J0D01*
G01*
X80029500Y-68613000D01*
G75*
G02*
X80267000Y-68850500I0J-237500D01*
G01*
G37*
%TD*%
D17*
%TO.C,J2*%
X6725000Y1705000D03*
X7125000Y2405000D03*
X7925000Y2405000D03*
X8325000Y1705000D03*
X8725000Y2405000D03*
X9125000Y1705000D03*
X9925000Y1705000D03*
X10325000Y2405000D03*
X10725000Y1705000D03*
X11125000Y2405000D03*
X11925000Y2405000D03*
X12325000Y1705000D03*
D18*
X12275000Y455000D03*
X11775000Y455000D03*
X11275000Y455000D03*
X10775000Y455000D03*
X10275000Y455000D03*
X9775000Y455000D03*
X9275000Y455000D03*
X8775000Y455000D03*
X8275000Y455000D03*
X7775000Y455000D03*
X7275000Y455000D03*
X6775000Y455000D03*
D19*
X5255000Y7585000D03*
X13795000Y7585000D03*
X5255000Y2855000D03*
X13795000Y2855000D03*
D17*
X7525000Y1705000D03*
X11525000Y1705000D03*
%TD*%
D20*
%TO.C,U6*%
X74524000Y-29958000D03*
X74524000Y-34558000D03*
X74524000Y-32258000D03*
D21*
X68224000Y-32258000D03*
%TD*%
D22*
%TO.C,U5*%
X106469000Y-12385000D03*
X106469000Y-14285000D03*
X108669000Y-14285000D03*
X108669000Y-13335000D03*
X108669000Y-12385000D03*
%TD*%
%TO.C,R9*%
G36*
G01*
X107144000Y-10684500D02*
X107144000Y-11159500D01*
G75*
G02*
X106906500Y-11397000I-237500J0D01*
G01*
X106406500Y-11397000D01*
G75*
G02*
X106169000Y-11159500I0J237500D01*
G01*
X106169000Y-10684500D01*
G75*
G02*
X106406500Y-10447000I237500J0D01*
G01*
X106906500Y-10447000D01*
G75*
G02*
X107144000Y-10684500I0J-237500D01*
G01*
G37*
G36*
G01*
X108969000Y-10684500D02*
X108969000Y-11159500D01*
G75*
G02*
X108731500Y-11397000I-237500J0D01*
G01*
X108231500Y-11397000D01*
G75*
G02*
X107994000Y-11159500I0J237500D01*
G01*
X107994000Y-10684500D01*
G75*
G02*
X108231500Y-10447000I237500J0D01*
G01*
X108731500Y-10447000D01*
G75*
G02*
X108969000Y-10684500I0J-237500D01*
G01*
G37*
%TD*%
D23*
%TO.C,J3*%
X115062000Y-15335000D03*
G36*
G01*
X114436999Y-12735000D02*
X115687001Y-12735000D01*
G75*
G02*
X115937000Y-12984999I0J-249999D01*
G01*
X115937000Y-13685001D01*
G75*
G02*
X115687001Y-13935000I-249999J0D01*
G01*
X114436999Y-13935000D01*
G75*
G02*
X114187000Y-13685001I0J249999D01*
G01*
X114187000Y-12984999D01*
G75*
G02*
X114436999Y-12735000I249999J0D01*
G01*
G37*
%TD*%
%TO.C,C9*%
G36*
G01*
X66182002Y-31231000D02*
X64881998Y-31231000D01*
G75*
G02*
X64632000Y-30981002I0J249998D01*
G01*
X64632000Y-30155998D01*
G75*
G02*
X64881998Y-29906000I249998J0D01*
G01*
X66182002Y-29906000D01*
G75*
G02*
X66432000Y-30155998I0J-249998D01*
G01*
X66432000Y-30981002D01*
G75*
G02*
X66182002Y-31231000I-249998J0D01*
G01*
G37*
G36*
G01*
X66182002Y-34356000D02*
X64881998Y-34356000D01*
G75*
G02*
X64632000Y-34106002I0J249998D01*
G01*
X64632000Y-33280998D01*
G75*
G02*
X64881998Y-33031000I249998J0D01*
G01*
X66182002Y-33031000D01*
G75*
G02*
X66432000Y-33280998I0J-249998D01*
G01*
X66432000Y-34106002D01*
G75*
G02*
X66182002Y-34356000I-249998J0D01*
G01*
G37*
%TD*%
%TO.C,C8*%
G36*
G01*
X77739002Y-31358000D02*
X76438998Y-31358000D01*
G75*
G02*
X76189000Y-31108002I0J249998D01*
G01*
X76189000Y-30282998D01*
G75*
G02*
X76438998Y-30033000I249998J0D01*
G01*
X77739002Y-30033000D01*
G75*
G02*
X77989000Y-30282998I0J-249998D01*
G01*
X77989000Y-31108002D01*
G75*
G02*
X77739002Y-31358000I-249998J0D01*
G01*
G37*
G36*
G01*
X77739002Y-34483000D02*
X76438998Y-34483000D01*
G75*
G02*
X76189000Y-34233002I0J249998D01*
G01*
X76189000Y-33407998D01*
G75*
G02*
X76438998Y-33158000I249998J0D01*
G01*
X77739002Y-33158000D01*
G75*
G02*
X77989000Y-33407998I0J-249998D01*
G01*
X77989000Y-34233002D01*
G75*
G02*
X77739002Y-34483000I-249998J0D01*
G01*
G37*
%TD*%
%TO.C,C7*%
G36*
G01*
X111013002Y-12435000D02*
X109712998Y-12435000D01*
G75*
G02*
X109463000Y-12185002I0J249998D01*
G01*
X109463000Y-11359998D01*
G75*
G02*
X109712998Y-11110000I249998J0D01*
G01*
X111013002Y-11110000D01*
G75*
G02*
X111263000Y-11359998I0J-249998D01*
G01*
X111263000Y-12185002D01*
G75*
G02*
X111013002Y-12435000I-249998J0D01*
G01*
G37*
G36*
G01*
X111013002Y-15560000D02*
X109712998Y-15560000D01*
G75*
G02*
X109463000Y-15310002I0J249998D01*
G01*
X109463000Y-14484998D01*
G75*
G02*
X109712998Y-14235000I249998J0D01*
G01*
X111013002Y-14235000D01*
G75*
G02*
X111263000Y-14484998I0J-249998D01*
G01*
X111263000Y-15310002D01*
G75*
G02*
X111013002Y-15560000I-249998J0D01*
G01*
G37*
%TD*%
%TO.C,C6*%
G36*
G01*
X105171002Y-12435000D02*
X103870998Y-12435000D01*
G75*
G02*
X103621000Y-12185002I0J249998D01*
G01*
X103621000Y-11359998D01*
G75*
G02*
X103870998Y-11110000I249998J0D01*
G01*
X105171002Y-11110000D01*
G75*
G02*
X105421000Y-11359998I0J-249998D01*
G01*
X105421000Y-12185002D01*
G75*
G02*
X105171002Y-12435000I-249998J0D01*
G01*
G37*
G36*
G01*
X105171002Y-15560000D02*
X103870998Y-15560000D01*
G75*
G02*
X103621000Y-15310002I0J249998D01*
G01*
X103621000Y-14484998D01*
G75*
G02*
X103870998Y-14235000I249998J0D01*
G01*
X105171002Y-14235000D01*
G75*
G02*
X105421000Y-14484998I0J-249998D01*
G01*
X105421000Y-15310002D01*
G75*
G02*
X105171002Y-15560000I-249998J0D01*
G01*
G37*
%TD*%
D24*
%TO.C,SW64*%
X264160000Y-7620000D03*
D13*
X266660000Y-7620000D03*
X269160000Y-7620000D03*
D25*
X261060000Y-120000D03*
X272260000Y-120000D03*
D13*
X264160000Y6880000D03*
X269160000Y6880000D03*
%TD*%
D12*
%TO.C,D53*%
X238252000Y-6116000D03*
X238252000Y-8616000D03*
%TD*%
D26*
%TO.C,Y2*%
X68772000Y-76454000D03*
D27*
X74372000Y-75954000D03*
X74372000Y-76954000D03*
%TD*%
%TO.C,U4*%
G36*
G01*
X162583000Y-81381250D02*
X162583000Y-81698750D01*
G75*
G02*
X162424250Y-81857500I-158750J0D01*
G01*
X161471750Y-81857500D01*
G75*
G02*
X161313000Y-81698750I0J158750D01*
G01*
X161313000Y-81381250D01*
G75*
G02*
X161471750Y-81222500I158750J0D01*
G01*
X162424250Y-81222500D01*
G75*
G02*
X162583000Y-81381250I0J-158750D01*
G01*
G37*
G36*
G01*
X162583000Y-80381250D02*
X162583000Y-80698750D01*
G75*
G02*
X162424250Y-80857500I-158750J0D01*
G01*
X161471750Y-80857500D01*
G75*
G02*
X161313000Y-80698750I0J158750D01*
G01*
X161313000Y-80381250D01*
G75*
G02*
X161471750Y-80222500I158750J0D01*
G01*
X162424250Y-80222500D01*
G75*
G02*
X162583000Y-80381250I0J-158750D01*
G01*
G37*
G36*
G01*
X162583000Y-79381250D02*
X162583000Y-79698750D01*
G75*
G02*
X162424250Y-79857500I-158750J0D01*
G01*
X161471750Y-79857500D01*
G75*
G02*
X161313000Y-79698750I0J158750D01*
G01*
X161313000Y-79381250D01*
G75*
G02*
X161471750Y-79222500I158750J0D01*
G01*
X162424250Y-79222500D01*
G75*
G02*
X162583000Y-79381250I0J-158750D01*
G01*
G37*
G36*
G01*
X162583000Y-78381250D02*
X162583000Y-78698750D01*
G75*
G02*
X162424250Y-78857500I-158750J0D01*
G01*
X161471750Y-78857500D01*
G75*
G02*
X161313000Y-78698750I0J158750D01*
G01*
X161313000Y-78381250D01*
G75*
G02*
X161471750Y-78222500I158750J0D01*
G01*
X162424250Y-78222500D01*
G75*
G02*
X162583000Y-78381250I0J-158750D01*
G01*
G37*
G36*
G01*
X162583000Y-77381250D02*
X162583000Y-77698750D01*
G75*
G02*
X162424250Y-77857500I-158750J0D01*
G01*
X161471750Y-77857500D01*
G75*
G02*
X161313000Y-77698750I0J158750D01*
G01*
X161313000Y-77381250D01*
G75*
G02*
X161471750Y-77222500I158750J0D01*
G01*
X162424250Y-77222500D01*
G75*
G02*
X162583000Y-77381250I0J-158750D01*
G01*
G37*
G36*
G01*
X162583000Y-76381250D02*
X162583000Y-76698750D01*
G75*
G02*
X162424250Y-76857500I-158750J0D01*
G01*
X161471750Y-76857500D01*
G75*
G02*
X161313000Y-76698750I0J158750D01*
G01*
X161313000Y-76381250D01*
G75*
G02*
X161471750Y-76222500I158750J0D01*
G01*
X162424250Y-76222500D01*
G75*
G02*
X162583000Y-76381250I0J-158750D01*
G01*
G37*
G36*
G01*
X162583000Y-75381250D02*
X162583000Y-75698750D01*
G75*
G02*
X162424250Y-75857500I-158750J0D01*
G01*
X161471750Y-75857500D01*
G75*
G02*
X161313000Y-75698750I0J158750D01*
G01*
X161313000Y-75381250D01*
G75*
G02*
X161471750Y-75222500I158750J0D01*
G01*
X162424250Y-75222500D01*
G75*
G02*
X162583000Y-75381250I0J-158750D01*
G01*
G37*
G36*
G01*
X162583000Y-74381250D02*
X162583000Y-74698750D01*
G75*
G02*
X162424250Y-74857500I-158750J0D01*
G01*
X161471750Y-74857500D01*
G75*
G02*
X161313000Y-74698750I0J158750D01*
G01*
X161313000Y-74381250D01*
G75*
G02*
X161471750Y-74222500I158750J0D01*
G01*
X162424250Y-74222500D01*
G75*
G02*
X162583000Y-74381250I0J-158750D01*
G01*
G37*
G36*
G01*
X162583000Y-73381250D02*
X162583000Y-73698750D01*
G75*
G02*
X162424250Y-73857500I-158750J0D01*
G01*
X161471750Y-73857500D01*
G75*
G02*
X161313000Y-73698750I0J158750D01*
G01*
X161313000Y-73381250D01*
G75*
G02*
X161471750Y-73222500I158750J0D01*
G01*
X162424250Y-73222500D01*
G75*
G02*
X162583000Y-73381250I0J-158750D01*
G01*
G37*
G36*
G01*
X162583000Y-72381250D02*
X162583000Y-72698750D01*
G75*
G02*
X162424250Y-72857500I-158750J0D01*
G01*
X161471750Y-72857500D01*
G75*
G02*
X161313000Y-72698750I0J158750D01*
G01*
X161313000Y-72381250D01*
G75*
G02*
X161471750Y-72222500I158750J0D01*
G01*
X162424250Y-72222500D01*
G75*
G02*
X162583000Y-72381250I0J-158750D01*
G01*
G37*
G36*
G01*
X162583000Y-71381250D02*
X162583000Y-71698750D01*
G75*
G02*
X162424250Y-71857500I-158750J0D01*
G01*
X161471750Y-71857500D01*
G75*
G02*
X161313000Y-71698750I0J158750D01*
G01*
X161313000Y-71381250D01*
G75*
G02*
X161471750Y-71222500I158750J0D01*
G01*
X162424250Y-71222500D01*
G75*
G02*
X162583000Y-71381250I0J-158750D01*
G01*
G37*
G36*
G01*
X162583000Y-70381250D02*
X162583000Y-70698750D01*
G75*
G02*
X162424250Y-70857500I-158750J0D01*
G01*
X161471750Y-70857500D01*
G75*
G02*
X161313000Y-70698750I0J158750D01*
G01*
X161313000Y-70381250D01*
G75*
G02*
X161471750Y-70222500I158750J0D01*
G01*
X162424250Y-70222500D01*
G75*
G02*
X162583000Y-70381250I0J-158750D01*
G01*
G37*
G36*
G01*
X162583000Y-69381250D02*
X162583000Y-69698750D01*
G75*
G02*
X162424250Y-69857500I-158750J0D01*
G01*
X161471750Y-69857500D01*
G75*
G02*
X161313000Y-69698750I0J158750D01*
G01*
X161313000Y-69381250D01*
G75*
G02*
X161471750Y-69222500I158750J0D01*
G01*
X162424250Y-69222500D01*
G75*
G02*
X162583000Y-69381250I0J-158750D01*
G01*
G37*
G36*
G01*
X162583000Y-68381250D02*
X162583000Y-68698750D01*
G75*
G02*
X162424250Y-68857500I-158750J0D01*
G01*
X161471750Y-68857500D01*
G75*
G02*
X161313000Y-68698750I0J158750D01*
G01*
X161313000Y-68381250D01*
G75*
G02*
X161471750Y-68222500I158750J0D01*
G01*
X162424250Y-68222500D01*
G75*
G02*
X162583000Y-68381250I0J-158750D01*
G01*
G37*
G36*
G01*
X162583000Y-67381250D02*
X162583000Y-67698750D01*
G75*
G02*
X162424250Y-67857500I-158750J0D01*
G01*
X161471750Y-67857500D01*
G75*
G02*
X161313000Y-67698750I0J158750D01*
G01*
X161313000Y-67381250D01*
G75*
G02*
X161471750Y-67222500I158750J0D01*
G01*
X162424250Y-67222500D01*
G75*
G02*
X162583000Y-67381250I0J-158750D01*
G01*
G37*
G36*
G01*
X158789250Y-65405000D02*
X159106750Y-65405000D01*
G75*
G02*
X159265500Y-65563750I0J-158750D01*
G01*
X159265500Y-66516250D01*
G75*
G02*
X159106750Y-66675000I-158750J0D01*
G01*
X158789250Y-66675000D01*
G75*
G02*
X158630500Y-66516250I0J158750D01*
G01*
X158630500Y-65563750D01*
G75*
G02*
X158789250Y-65405000I158750J0D01*
G01*
G37*
G36*
G01*
X157789250Y-65405000D02*
X158106750Y-65405000D01*
G75*
G02*
X158265500Y-65563750I0J-158750D01*
G01*
X158265500Y-66516250D01*
G75*
G02*
X158106750Y-66675000I-158750J0D01*
G01*
X157789250Y-66675000D01*
G75*
G02*
X157630500Y-66516250I0J158750D01*
G01*
X157630500Y-65563750D01*
G75*
G02*
X157789250Y-65405000I158750J0D01*
G01*
G37*
G36*
G01*
X156789250Y-65405000D02*
X157106750Y-65405000D01*
G75*
G02*
X157265500Y-65563750I0J-158750D01*
G01*
X157265500Y-66516250D01*
G75*
G02*
X157106750Y-66675000I-158750J0D01*
G01*
X156789250Y-66675000D01*
G75*
G02*
X156630500Y-66516250I0J158750D01*
G01*
X156630500Y-65563750D01*
G75*
G02*
X156789250Y-65405000I158750J0D01*
G01*
G37*
G36*
G01*
X155789250Y-65405000D02*
X156106750Y-65405000D01*
G75*
G02*
X156265500Y-65563750I0J-158750D01*
G01*
X156265500Y-66516250D01*
G75*
G02*
X156106750Y-66675000I-158750J0D01*
G01*
X155789250Y-66675000D01*
G75*
G02*
X155630500Y-66516250I0J158750D01*
G01*
X155630500Y-65563750D01*
G75*
G02*
X155789250Y-65405000I158750J0D01*
G01*
G37*
G36*
G01*
X154789250Y-65405000D02*
X155106750Y-65405000D01*
G75*
G02*
X155265500Y-65563750I0J-158750D01*
G01*
X155265500Y-66516250D01*
G75*
G02*
X155106750Y-66675000I-158750J0D01*
G01*
X154789250Y-66675000D01*
G75*
G02*
X154630500Y-66516250I0J158750D01*
G01*
X154630500Y-65563750D01*
G75*
G02*
X154789250Y-65405000I158750J0D01*
G01*
G37*
G36*
G01*
X153789250Y-65405000D02*
X154106750Y-65405000D01*
G75*
G02*
X154265500Y-65563750I0J-158750D01*
G01*
X154265500Y-66516250D01*
G75*
G02*
X154106750Y-66675000I-158750J0D01*
G01*
X153789250Y-66675000D01*
G75*
G02*
X153630500Y-66516250I0J158750D01*
G01*
X153630500Y-65563750D01*
G75*
G02*
X153789250Y-65405000I158750J0D01*
G01*
G37*
G36*
G01*
X152789250Y-65405000D02*
X153106750Y-65405000D01*
G75*
G02*
X153265500Y-65563750I0J-158750D01*
G01*
X153265500Y-66516250D01*
G75*
G02*
X153106750Y-66675000I-158750J0D01*
G01*
X152789250Y-66675000D01*
G75*
G02*
X152630500Y-66516250I0J158750D01*
G01*
X152630500Y-65563750D01*
G75*
G02*
X152789250Y-65405000I158750J0D01*
G01*
G37*
G36*
G01*
X151789250Y-65405000D02*
X152106750Y-65405000D01*
G75*
G02*
X152265500Y-65563750I0J-158750D01*
G01*
X152265500Y-66516250D01*
G75*
G02*
X152106750Y-66675000I-158750J0D01*
G01*
X151789250Y-66675000D01*
G75*
G02*
X151630500Y-66516250I0J158750D01*
G01*
X151630500Y-65563750D01*
G75*
G02*
X151789250Y-65405000I158750J0D01*
G01*
G37*
G36*
G01*
X148313000Y-67698750D02*
X148313000Y-67381250D01*
G75*
G02*
X148471750Y-67222500I158750J0D01*
G01*
X149424250Y-67222500D01*
G75*
G02*
X149583000Y-67381250I0J-158750D01*
G01*
X149583000Y-67698750D01*
G75*
G02*
X149424250Y-67857500I-158750J0D01*
G01*
X148471750Y-67857500D01*
G75*
G02*
X148313000Y-67698750I0J158750D01*
G01*
G37*
G36*
G01*
X148313000Y-68698750D02*
X148313000Y-68381250D01*
G75*
G02*
X148471750Y-68222500I158750J0D01*
G01*
X149424250Y-68222500D01*
G75*
G02*
X149583000Y-68381250I0J-158750D01*
G01*
X149583000Y-68698750D01*
G75*
G02*
X149424250Y-68857500I-158750J0D01*
G01*
X148471750Y-68857500D01*
G75*
G02*
X148313000Y-68698750I0J158750D01*
G01*
G37*
G36*
G01*
X148313000Y-69698750D02*
X148313000Y-69381250D01*
G75*
G02*
X148471750Y-69222500I158750J0D01*
G01*
X149424250Y-69222500D01*
G75*
G02*
X149583000Y-69381250I0J-158750D01*
G01*
X149583000Y-69698750D01*
G75*
G02*
X149424250Y-69857500I-158750J0D01*
G01*
X148471750Y-69857500D01*
G75*
G02*
X148313000Y-69698750I0J158750D01*
G01*
G37*
G36*
G01*
X148313000Y-70698750D02*
X148313000Y-70381250D01*
G75*
G02*
X148471750Y-70222500I158750J0D01*
G01*
X149424250Y-70222500D01*
G75*
G02*
X149583000Y-70381250I0J-158750D01*
G01*
X149583000Y-70698750D01*
G75*
G02*
X149424250Y-70857500I-158750J0D01*
G01*
X148471750Y-70857500D01*
G75*
G02*
X148313000Y-70698750I0J158750D01*
G01*
G37*
G36*
G01*
X148313000Y-71698750D02*
X148313000Y-71381250D01*
G75*
G02*
X148471750Y-71222500I158750J0D01*
G01*
X149424250Y-71222500D01*
G75*
G02*
X149583000Y-71381250I0J-158750D01*
G01*
X149583000Y-71698750D01*
G75*
G02*
X149424250Y-71857500I-158750J0D01*
G01*
X148471750Y-71857500D01*
G75*
G02*
X148313000Y-71698750I0J158750D01*
G01*
G37*
G36*
G01*
X148313000Y-72698750D02*
X148313000Y-72381250D01*
G75*
G02*
X148471750Y-72222500I158750J0D01*
G01*
X149424250Y-72222500D01*
G75*
G02*
X149583000Y-72381250I0J-158750D01*
G01*
X149583000Y-72698750D01*
G75*
G02*
X149424250Y-72857500I-158750J0D01*
G01*
X148471750Y-72857500D01*
G75*
G02*
X148313000Y-72698750I0J158750D01*
G01*
G37*
G36*
G01*
X148313000Y-73698750D02*
X148313000Y-73381250D01*
G75*
G02*
X148471750Y-73222500I158750J0D01*
G01*
X149424250Y-73222500D01*
G75*
G02*
X149583000Y-73381250I0J-158750D01*
G01*
X149583000Y-73698750D01*
G75*
G02*
X149424250Y-73857500I-158750J0D01*
G01*
X148471750Y-73857500D01*
G75*
G02*
X148313000Y-73698750I0J158750D01*
G01*
G37*
G36*
G01*
X148313000Y-74698750D02*
X148313000Y-74381250D01*
G75*
G02*
X148471750Y-74222500I158750J0D01*
G01*
X149424250Y-74222500D01*
G75*
G02*
X149583000Y-74381250I0J-158750D01*
G01*
X149583000Y-74698750D01*
G75*
G02*
X149424250Y-74857500I-158750J0D01*
G01*
X148471750Y-74857500D01*
G75*
G02*
X148313000Y-74698750I0J158750D01*
G01*
G37*
G36*
G01*
X148313000Y-75698750D02*
X148313000Y-75381250D01*
G75*
G02*
X148471750Y-75222500I158750J0D01*
G01*
X149424250Y-75222500D01*
G75*
G02*
X149583000Y-75381250I0J-158750D01*
G01*
X149583000Y-75698750D01*
G75*
G02*
X149424250Y-75857500I-158750J0D01*
G01*
X148471750Y-75857500D01*
G75*
G02*
X148313000Y-75698750I0J158750D01*
G01*
G37*
G36*
G01*
X148313000Y-76698750D02*
X148313000Y-76381250D01*
G75*
G02*
X148471750Y-76222500I158750J0D01*
G01*
X149424250Y-76222500D01*
G75*
G02*
X149583000Y-76381250I0J-158750D01*
G01*
X149583000Y-76698750D01*
G75*
G02*
X149424250Y-76857500I-158750J0D01*
G01*
X148471750Y-76857500D01*
G75*
G02*
X148313000Y-76698750I0J158750D01*
G01*
G37*
G36*
G01*
X148313000Y-77698750D02*
X148313000Y-77381250D01*
G75*
G02*
X148471750Y-77222500I158750J0D01*
G01*
X149424250Y-77222500D01*
G75*
G02*
X149583000Y-77381250I0J-158750D01*
G01*
X149583000Y-77698750D01*
G75*
G02*
X149424250Y-77857500I-158750J0D01*
G01*
X148471750Y-77857500D01*
G75*
G02*
X148313000Y-77698750I0J158750D01*
G01*
G37*
G36*
G01*
X148313000Y-78698750D02*
X148313000Y-78381250D01*
G75*
G02*
X148471750Y-78222500I158750J0D01*
G01*
X149424250Y-78222500D01*
G75*
G02*
X149583000Y-78381250I0J-158750D01*
G01*
X149583000Y-78698750D01*
G75*
G02*
X149424250Y-78857500I-158750J0D01*
G01*
X148471750Y-78857500D01*
G75*
G02*
X148313000Y-78698750I0J158750D01*
G01*
G37*
G36*
G01*
X148313000Y-79698750D02*
X148313000Y-79381250D01*
G75*
G02*
X148471750Y-79222500I158750J0D01*
G01*
X149424250Y-79222500D01*
G75*
G02*
X149583000Y-79381250I0J-158750D01*
G01*
X149583000Y-79698750D01*
G75*
G02*
X149424250Y-79857500I-158750J0D01*
G01*
X148471750Y-79857500D01*
G75*
G02*
X148313000Y-79698750I0J158750D01*
G01*
G37*
G36*
G01*
X148313000Y-80698750D02*
X148313000Y-80381250D01*
G75*
G02*
X148471750Y-80222500I158750J0D01*
G01*
X149424250Y-80222500D01*
G75*
G02*
X149583000Y-80381250I0J-158750D01*
G01*
X149583000Y-80698750D01*
G75*
G02*
X149424250Y-80857500I-158750J0D01*
G01*
X148471750Y-80857500D01*
G75*
G02*
X148313000Y-80698750I0J158750D01*
G01*
G37*
G36*
G01*
X148313000Y-81698750D02*
X148313000Y-81381250D01*
G75*
G02*
X148471750Y-81222500I158750J0D01*
G01*
X149424250Y-81222500D01*
G75*
G02*
X149583000Y-81381250I0J-158750D01*
G01*
X149583000Y-81698750D01*
G75*
G02*
X149424250Y-81857500I-158750J0D01*
G01*
X148471750Y-81857500D01*
G75*
G02*
X148313000Y-81698750I0J158750D01*
G01*
G37*
%TD*%
D28*
%TO.C,SW63*%
X144798000Y-76416000D03*
X144798000Y-78016000D03*
X140698000Y-76416000D03*
X140698000Y-78016000D03*
%TD*%
%TO.C,SW62*%
X144798000Y-80480000D03*
X144798000Y-82080000D03*
X140698000Y-80480000D03*
X140698000Y-82080000D03*
%TD*%
D29*
%TO.C,J1*%
X111125000Y-74930000D03*
X109855000Y-74930000D03*
X108585000Y-74930000D03*
D12*
X107315000Y-74930000D03*
%TD*%
D30*
%TO.C,SW61*%
X269398750Y-76200000D03*
X259238750Y-76200000D03*
D31*
X264318750Y-76200000D03*
D32*
X266858750Y-71120000D03*
X260508750Y-73660000D03*
D33*
X256698750Y-73660000D03*
X270668750Y-71120000D03*
%TD*%
D30*
%TO.C,SW60*%
X221773750Y-76200000D03*
X211613750Y-76200000D03*
D31*
X216693750Y-76200000D03*
D32*
X219233750Y-71120000D03*
X212883750Y-73660000D03*
D33*
X209073750Y-73660000D03*
X223043750Y-71120000D03*
%TD*%
D30*
%TO.C,SW57*%
X197961250Y-76200000D03*
X187801250Y-76200000D03*
D31*
X192881250Y-76200000D03*
D32*
X195421250Y-71120000D03*
X189071250Y-73660000D03*
D33*
X185261250Y-73660000D03*
X199231250Y-71120000D03*
%TD*%
D30*
%TO.C,SW53*%
X255111250Y-57150000D03*
X244951250Y-57150000D03*
D31*
X250031250Y-57150000D03*
D32*
X252571250Y-52070000D03*
X246221250Y-54610000D03*
D33*
X242411250Y-54610000D03*
X256381250Y-52070000D03*
%TD*%
D30*
%TO.C,SW48*%
X245586250Y-76200000D03*
X235426250Y-76200000D03*
D31*
X240506250Y-76200000D03*
D32*
X243046250Y-71120000D03*
X236696250Y-73660000D03*
D33*
X232886250Y-73660000D03*
X246856250Y-71120000D03*
%TD*%
D30*
%TO.C,SW14*%
X31273750Y-76200000D03*
X21113750Y-76200000D03*
D31*
X26193750Y-76200000D03*
D32*
X28733750Y-71120000D03*
X22383750Y-73660000D03*
D33*
X18573750Y-73660000D03*
X32543750Y-71120000D03*
%TD*%
D30*
%TO.C,SW9*%
X55086250Y-76200000D03*
X44926250Y-76200000D03*
D31*
X50006250Y-76200000D03*
D32*
X52546250Y-71120000D03*
X46196250Y-73660000D03*
D33*
X42386250Y-73660000D03*
X56356250Y-71120000D03*
%TD*%
D30*
%TO.C,SW5*%
X6826250Y-57150000D03*
X16986250Y-57150000D03*
D31*
X11906250Y-57150000D03*
D32*
X9366250Y-62230000D03*
X15716250Y-59690000D03*
D33*
X19526250Y-59690000D03*
X5556250Y-62230000D03*
%TD*%
D30*
%TO.C,SW4*%
X7461250Y-76200000D03*
X-2698750Y-76200000D03*
D31*
X2381250Y-76200000D03*
D32*
X4921250Y-71120000D03*
X-1428750Y-73660000D03*
D33*
X-5238750Y-73660000D03*
X8731250Y-71120000D03*
%TD*%
D12*
%TO.C,D52*%
X271760000Y-25400000D03*
X269260000Y-25400000D03*
%TD*%
%TO.C,D51*%
X255270000Y-6116000D03*
X255270000Y-8616000D03*
%TD*%
%TO.C,D50*%
X250571000Y-44216000D03*
X250571000Y-46716000D03*
%TD*%
%TO.C,D49*%
X245745000Y-25166000D03*
X245745000Y-27666000D03*
%TD*%
%TO.C,D48*%
X236220000Y-6116000D03*
X236220000Y-8616000D03*
%TD*%
%TO.C,D47*%
X221869000Y-57384000D03*
X221869000Y-54884000D03*
%TD*%
%TO.C,D46*%
X231394000Y-44216000D03*
X231394000Y-46716000D03*
%TD*%
%TO.C,D45*%
X226695000Y-25166000D03*
X226695000Y-27666000D03*
%TD*%
%TO.C,D44*%
X217170000Y-6116000D03*
X217170000Y-8616000D03*
%TD*%
%TO.C,D43*%
X202819000Y-57384000D03*
X202819000Y-54884000D03*
%TD*%
%TO.C,D42*%
X212471000Y-44216000D03*
X212471000Y-46716000D03*
%TD*%
%TO.C,D41*%
X207645000Y-25166000D03*
X207645000Y-27666000D03*
%TD*%
%TO.C,D40*%
X198120000Y-6116000D03*
X198120000Y-8616000D03*
%TD*%
%TO.C,D39*%
X183769000Y-57384000D03*
X183769000Y-54884000D03*
%TD*%
%TO.C,D38*%
X193421000Y-44216000D03*
X193421000Y-46716000D03*
%TD*%
%TO.C,D37*%
X188595000Y-25166000D03*
X188595000Y-27666000D03*
%TD*%
%TO.C,D36*%
X179070000Y-6116000D03*
X179070000Y-8616000D03*
%TD*%
%TO.C,D35*%
X164719000Y-57384000D03*
X164719000Y-54884000D03*
%TD*%
%TO.C,D34*%
X174244000Y-44216000D03*
X174244000Y-46716000D03*
%TD*%
%TO.C,D33*%
X169545000Y-25166000D03*
X169545000Y-27666000D03*
%TD*%
%TO.C,D32*%
X160020000Y-6116000D03*
X160020000Y-8616000D03*
%TD*%
%TO.C,D31*%
X145796000Y-57384000D03*
X145796000Y-54884000D03*
%TD*%
%TO.C,D30*%
X155194000Y-44216000D03*
X155194000Y-46716000D03*
%TD*%
%TO.C,D29*%
X150495000Y-25166000D03*
X150495000Y-27666000D03*
%TD*%
%TO.C,D28*%
X140970000Y-6116000D03*
X140970000Y-8616000D03*
%TD*%
%TO.C,D27*%
X126746000Y-57384000D03*
X126746000Y-54884000D03*
%TD*%
%TO.C,D26*%
X136144000Y-44216000D03*
X136144000Y-46716000D03*
%TD*%
%TO.C,D25*%
X131445000Y-25166000D03*
X131445000Y-27666000D03*
%TD*%
%TO.C,D24*%
X121920000Y-6116000D03*
X121920000Y-8616000D03*
%TD*%
%TO.C,D23*%
X113792000Y-71100000D03*
X113792000Y-68600000D03*
%TD*%
%TO.C,D22*%
X112522000Y-44216000D03*
X112522000Y-46716000D03*
%TD*%
%TO.C,D21*%
X112395000Y-25166000D03*
X112395000Y-27666000D03*
%TD*%
%TO.C,D20*%
X102870000Y-6116000D03*
X102870000Y-8616000D03*
%TD*%
%TO.C,D19*%
X110089000Y-57277000D03*
X107589000Y-57277000D03*
%TD*%
%TO.C,D18*%
X98044000Y-44216000D03*
X98044000Y-46716000D03*
%TD*%
%TO.C,D17*%
X93345000Y-25166000D03*
X93345000Y-27666000D03*
%TD*%
%TO.C,D16*%
X83820000Y-6116000D03*
X83820000Y-8616000D03*
%TD*%
%TO.C,D15*%
X90912000Y-57404000D03*
X88412000Y-57404000D03*
%TD*%
%TO.C,D14*%
X78994000Y-44216000D03*
X78994000Y-46716000D03*
%TD*%
%TO.C,D13*%
X74295000Y-25166000D03*
X74295000Y-27666000D03*
%TD*%
%TO.C,D12*%
X64770000Y-6116000D03*
X64770000Y-8616000D03*
%TD*%
%TO.C,D11*%
X71481000Y-57023000D03*
X68981000Y-57023000D03*
%TD*%
%TO.C,D10*%
X59944000Y-44216000D03*
X59944000Y-46716000D03*
%TD*%
%TO.C,D9*%
X55245000Y-25166000D03*
X55245000Y-27666000D03*
%TD*%
%TO.C,D8*%
X45720000Y-6116000D03*
X45720000Y-8616000D03*
%TD*%
%TO.C,D6*%
X40894000Y-44216000D03*
X40894000Y-46716000D03*
%TD*%
%TO.C,D5*%
X36195000Y-25166000D03*
X36195000Y-27666000D03*
%TD*%
%TO.C,D4*%
X27940000Y-6116000D03*
X27940000Y-8616000D03*
%TD*%
%TO.C,D3*%
X14732000Y-44216000D03*
X14732000Y-46716000D03*
%TD*%
%TO.C,D2*%
X11938000Y-25039000D03*
X11938000Y-27539000D03*
%TD*%
%TO.C,D1*%
X-5715000Y-7640000D03*
X-5715000Y-10140000D03*
%TD*%
D31*
%TO.C,REF\u002A\u002A*%
X272567400Y-40487600D03*
%TD*%
%TO.C,REF\u002A\u002A*%
X272567400Y-16662400D03*
%TD*%
%TO.C,REF\u002A\u002A*%
X261950200Y-48920400D03*
%TD*%
%TO.C,REF\u002A\u002A*%
X238150400Y-48920400D03*
%TD*%
%TO.C,REF\u002A\u002A*%
X171450000Y-67970400D03*
%TD*%
%TO.C,REF\u002A\u002A*%
X71450200Y-67970400D03*
%TD*%
%TO.C,REF\u002A\u002A*%
X23799800Y-48920400D03*
%TD*%
%TO.C,REF\u002A\u002A*%
X25400Y-48920400D03*
%TD*%
D32*
%TO.C,REF\u002A\u002A*%
X257327400Y-16687800D03*
%TD*%
%TO.C,REF\u002A\u002A*%
X257327400Y-40462200D03*
%TD*%
%TO.C,REF\u002A\u002A*%
X261924800Y-64135000D03*
%TD*%
%TO.C,REF\u002A\u002A*%
X238125000Y-64135000D03*
%TD*%
%TO.C,REF\u002A\u002A*%
X171450000Y-83185000D03*
%TD*%
%TO.C,REF\u002A\u002A*%
X71450200Y-83185000D03*
%TD*%
%TO.C,REF\u002A\u002A*%
X23749000Y-64135000D03*
%TD*%
%TO.C,REF\u002A\u002A*%
X0Y-64135000D03*
%TD*%
D34*
%TO.C,REF\u002A\u002A*%
X181356000Y-75819000D03*
%TD*%
%TO.C,REF\u002A\u002A*%
X272542000Y-47117000D03*
%TD*%
%TO.C,REF\u002A\u002A*%
X-5969000Y-47117000D03*
%TD*%
%TO.C,REF\u002A\u002A*%
X118999000Y-37973000D03*
%TD*%
%TO.C,REF\u002A\u002A*%
X250825000Y-18542000D03*
%TD*%
%TO.C,REF\u002A\u002A*%
X16002000Y-18542000D03*
%TD*%
D30*
%TO.C,SW59*%
X259238750Y-28575000D03*
X269398750Y-28575000D03*
D31*
X264318750Y-28575000D03*
D32*
X261778750Y-33655000D03*
X268128750Y-31115000D03*
D33*
X271938750Y-31115000D03*
X257968750Y-33655000D03*
%TD*%
D30*
%TO.C,SW58*%
X242570000Y0D03*
X252730000Y0D03*
D31*
X247650000Y0D03*
D32*
X245110000Y-5080000D03*
X251460000Y-2540000D03*
D33*
X255270000Y-2540000D03*
X241300000Y-5080000D03*
%TD*%
D30*
%TO.C,SW56*%
X237807500Y-38100000D03*
X247967500Y-38100000D03*
D31*
X242887500Y-38100000D03*
D32*
X240347500Y-43180000D03*
X246697500Y-40640000D03*
D33*
X250507500Y-40640000D03*
X236537500Y-43180000D03*
%TD*%
D30*
%TO.C,SW55*%
X233045000Y-19050000D03*
X243205000Y-19050000D03*
D31*
X238125000Y-19050000D03*
D32*
X235585000Y-24130000D03*
X241935000Y-21590000D03*
D33*
X245745000Y-21590000D03*
X231775000Y-24130000D03*
%TD*%
D30*
%TO.C,SW54*%
X223520000Y0D03*
X233680000Y0D03*
D31*
X228600000Y0D03*
D32*
X226060000Y-5080000D03*
X232410000Y-2540000D03*
D33*
X236220000Y-2540000D03*
X222250000Y-5080000D03*
%TD*%
D30*
%TO.C,SW52*%
X209232500Y-57150000D03*
X219392500Y-57150000D03*
D31*
X214312500Y-57150000D03*
D32*
X211772500Y-62230000D03*
X218122500Y-59690000D03*
D33*
X221932500Y-59690000D03*
X207962500Y-62230000D03*
%TD*%
D30*
%TO.C,SW51*%
X218757500Y-38100000D03*
X228917500Y-38100000D03*
D31*
X223837500Y-38100000D03*
D32*
X221297500Y-43180000D03*
X227647500Y-40640000D03*
D33*
X231457500Y-40640000D03*
X217487500Y-43180000D03*
%TD*%
D30*
%TO.C,SW50*%
X213995000Y-19050000D03*
X224155000Y-19050000D03*
D31*
X219075000Y-19050000D03*
D32*
X216535000Y-24130000D03*
X222885000Y-21590000D03*
D33*
X226695000Y-21590000D03*
X212725000Y-24130000D03*
%TD*%
D30*
%TO.C,SW49*%
X204470000Y0D03*
X214630000Y0D03*
D31*
X209550000Y0D03*
D32*
X207010000Y-5080000D03*
X213360000Y-2540000D03*
D33*
X217170000Y-2540000D03*
X203200000Y-5080000D03*
%TD*%
D30*
%TO.C,SW47*%
X190182500Y-57150000D03*
X200342500Y-57150000D03*
D31*
X195262500Y-57150000D03*
D32*
X192722500Y-62230000D03*
X199072500Y-59690000D03*
D33*
X202882500Y-59690000D03*
X188912500Y-62230000D03*
%TD*%
D30*
%TO.C,SW46*%
X199707500Y-38100000D03*
X209867500Y-38100000D03*
D31*
X204787500Y-38100000D03*
D32*
X202247500Y-43180000D03*
X208597500Y-40640000D03*
D33*
X212407500Y-40640000D03*
X198437500Y-43180000D03*
%TD*%
D30*
%TO.C,SW45*%
X194945000Y-19050000D03*
X205105000Y-19050000D03*
D31*
X200025000Y-19050000D03*
D32*
X197485000Y-24130000D03*
X203835000Y-21590000D03*
D33*
X207645000Y-21590000D03*
X193675000Y-24130000D03*
%TD*%
D30*
%TO.C,SW44*%
X185420000Y0D03*
X195580000Y0D03*
D31*
X190500000Y0D03*
D32*
X187960000Y-5080000D03*
X194310000Y-2540000D03*
D33*
X198120000Y-2540000D03*
X184150000Y-5080000D03*
%TD*%
D30*
%TO.C,SW43*%
X171132500Y-57150000D03*
X181292500Y-57150000D03*
D31*
X176212500Y-57150000D03*
D32*
X173672500Y-62230000D03*
X180022500Y-59690000D03*
D33*
X183832500Y-59690000D03*
X169862500Y-62230000D03*
%TD*%
D30*
%TO.C,SW42*%
X180657500Y-38100000D03*
X190817500Y-38100000D03*
D31*
X185737500Y-38100000D03*
D32*
X183197500Y-43180000D03*
X189547500Y-40640000D03*
D33*
X193357500Y-40640000D03*
X179387500Y-43180000D03*
%TD*%
D30*
%TO.C,SW41*%
X175895000Y-19050000D03*
X186055000Y-19050000D03*
D31*
X180975000Y-19050000D03*
D32*
X178435000Y-24130000D03*
X184785000Y-21590000D03*
D33*
X188595000Y-21590000D03*
X174625000Y-24130000D03*
%TD*%
D30*
%TO.C,SW40*%
X166370000Y0D03*
X176530000Y0D03*
D31*
X171450000Y0D03*
D32*
X168910000Y-5080000D03*
X175260000Y-2540000D03*
D33*
X179070000Y-2540000D03*
X165100000Y-5080000D03*
%TD*%
D30*
%TO.C,SW39*%
X152082500Y-57150000D03*
X162242500Y-57150000D03*
D31*
X157162500Y-57150000D03*
D32*
X154622500Y-62230000D03*
X160972500Y-59690000D03*
D33*
X164782500Y-59690000D03*
X150812500Y-62230000D03*
%TD*%
D30*
%TO.C,SW38*%
X161607500Y-38100000D03*
X171767500Y-38100000D03*
D31*
X166687500Y-38100000D03*
D32*
X164147500Y-43180000D03*
X170497500Y-40640000D03*
D33*
X174307500Y-40640000D03*
X160337500Y-43180000D03*
%TD*%
D30*
%TO.C,SW37*%
X156845000Y-19050000D03*
X167005000Y-19050000D03*
D31*
X161925000Y-19050000D03*
D32*
X159385000Y-24130000D03*
X165735000Y-21590000D03*
D33*
X169545000Y-21590000D03*
X155575000Y-24130000D03*
%TD*%
D30*
%TO.C,SW36*%
X147320000Y0D03*
X157480000Y0D03*
D31*
X152400000Y0D03*
D32*
X149860000Y-5080000D03*
X156210000Y-2540000D03*
D33*
X160020000Y-2540000D03*
X146050000Y-5080000D03*
%TD*%
D30*
%TO.C,SW35*%
X133032500Y-57150000D03*
X143192500Y-57150000D03*
D31*
X138112500Y-57150000D03*
D32*
X135572500Y-62230000D03*
X141922500Y-59690000D03*
D33*
X145732500Y-59690000D03*
X131762500Y-62230000D03*
%TD*%
D30*
%TO.C,SW34*%
X142557500Y-38100000D03*
X152717500Y-38100000D03*
D31*
X147637500Y-38100000D03*
D32*
X145097500Y-43180000D03*
X151447500Y-40640000D03*
D33*
X155257500Y-40640000D03*
X141287500Y-43180000D03*
%TD*%
D30*
%TO.C,SW33*%
X137795000Y-19050000D03*
X147955000Y-19050000D03*
D31*
X142875000Y-19050000D03*
D32*
X140335000Y-24130000D03*
X146685000Y-21590000D03*
D33*
X150495000Y-21590000D03*
X136525000Y-24130000D03*
%TD*%
D30*
%TO.C,SW32*%
X128270000Y0D03*
X138430000Y0D03*
D31*
X133350000Y0D03*
D32*
X130810000Y-5080000D03*
X137160000Y-2540000D03*
D33*
X140970000Y-2540000D03*
X127000000Y-5080000D03*
%TD*%
D30*
%TO.C,SW31*%
X126523750Y-76200000D03*
X116363750Y-76200000D03*
D31*
X121443750Y-76200000D03*
D32*
X123983750Y-71120000D03*
X117633750Y-73660000D03*
D33*
X113823750Y-73660000D03*
X127793750Y-71120000D03*
%TD*%
D30*
%TO.C,SW30*%
X113982500Y-57150000D03*
X124142500Y-57150000D03*
D31*
X119062500Y-57150000D03*
D32*
X116522500Y-62230000D03*
X122872500Y-59690000D03*
D33*
X126682500Y-59690000D03*
X112712500Y-62230000D03*
%TD*%
D30*
%TO.C,SW29*%
X123507500Y-38100000D03*
X133667500Y-38100000D03*
D31*
X128587500Y-38100000D03*
D32*
X126047500Y-43180000D03*
X132397500Y-40640000D03*
D33*
X136207500Y-40640000D03*
X122237500Y-43180000D03*
%TD*%
D30*
%TO.C,SW28*%
X118745000Y-19050000D03*
X128905000Y-19050000D03*
D31*
X123825000Y-19050000D03*
D32*
X121285000Y-24130000D03*
X127635000Y-21590000D03*
D33*
X131445000Y-21590000D03*
X117475000Y-24130000D03*
%TD*%
D30*
%TO.C,SW27*%
X109220000Y0D03*
X119380000Y0D03*
D31*
X114300000Y0D03*
D32*
X111760000Y-5080000D03*
X118110000Y-2540000D03*
D33*
X121920000Y-2540000D03*
X107950000Y-5080000D03*
%TD*%
D30*
%TO.C,SW26*%
X94932500Y-57150000D03*
X105092500Y-57150000D03*
D31*
X100012500Y-57150000D03*
D32*
X97472500Y-62230000D03*
X103822500Y-59690000D03*
D33*
X107632500Y-59690000D03*
X93662500Y-62230000D03*
%TD*%
D30*
%TO.C,SW25*%
X114617500Y-38100000D03*
X104457500Y-38100000D03*
D31*
X109537500Y-38100000D03*
D32*
X112077500Y-33020000D03*
X105727500Y-35560000D03*
D33*
X101917500Y-35560000D03*
X115887500Y-33020000D03*
%TD*%
D30*
%TO.C,SW24*%
X99695000Y-19050000D03*
X109855000Y-19050000D03*
D31*
X104775000Y-19050000D03*
D32*
X102235000Y-24130000D03*
X108585000Y-21590000D03*
D33*
X112395000Y-21590000D03*
X98425000Y-24130000D03*
%TD*%
D30*
%TO.C,SW23*%
X90170000Y0D03*
X100330000Y0D03*
D31*
X95250000Y0D03*
D32*
X92710000Y-5080000D03*
X99060000Y-2540000D03*
D33*
X102870000Y-2540000D03*
X88900000Y-5080000D03*
%TD*%
D30*
%TO.C,SW22*%
X75882500Y-57150000D03*
X86042500Y-57150000D03*
D31*
X80962500Y-57150000D03*
D32*
X78422500Y-62230000D03*
X84772500Y-59690000D03*
D33*
X88582500Y-59690000D03*
X74612500Y-62230000D03*
%TD*%
D30*
%TO.C,SW21*%
X85407500Y-38100000D03*
X95567500Y-38100000D03*
D31*
X90487500Y-38100000D03*
D32*
X87947500Y-43180000D03*
X94297500Y-40640000D03*
D33*
X98107500Y-40640000D03*
X84137500Y-43180000D03*
%TD*%
D30*
%TO.C,SW20*%
X80645000Y-19050000D03*
X90805000Y-19050000D03*
D31*
X85725000Y-19050000D03*
D32*
X83185000Y-24130000D03*
X89535000Y-21590000D03*
D33*
X93345000Y-21590000D03*
X79375000Y-24130000D03*
%TD*%
D30*
%TO.C,SW19*%
X71120000Y0D03*
X81280000Y0D03*
D31*
X76200000Y0D03*
D32*
X73660000Y-5080000D03*
X80010000Y-2540000D03*
D33*
X83820000Y-2540000D03*
X69850000Y-5080000D03*
%TD*%
D30*
%TO.C,SW18*%
X56832500Y-57150000D03*
X66992500Y-57150000D03*
D31*
X61912500Y-57150000D03*
D32*
X59372500Y-62230000D03*
X65722500Y-59690000D03*
D33*
X69532500Y-59690000D03*
X55562500Y-62230000D03*
%TD*%
D30*
%TO.C,SW17*%
X66357500Y-38100000D03*
X76517500Y-38100000D03*
D31*
X71437500Y-38100000D03*
D32*
X68897500Y-43180000D03*
X75247500Y-40640000D03*
D33*
X79057500Y-40640000D03*
X65087500Y-43180000D03*
%TD*%
D30*
%TO.C,SW16*%
X61595000Y-19050000D03*
X71755000Y-19050000D03*
D31*
X66675000Y-19050000D03*
D32*
X64135000Y-24130000D03*
X70485000Y-21590000D03*
D33*
X74295000Y-21590000D03*
X60325000Y-24130000D03*
%TD*%
D30*
%TO.C,SW15*%
X52070000Y0D03*
X62230000Y0D03*
D31*
X57150000Y0D03*
D32*
X54610000Y-5080000D03*
X60960000Y-2540000D03*
D33*
X64770000Y-2540000D03*
X50800000Y-5080000D03*
%TD*%
D30*
%TO.C,SW13*%
X37782500Y-57150000D03*
X47942500Y-57150000D03*
D31*
X42862500Y-57150000D03*
D32*
X40322500Y-62230000D03*
X46672500Y-59690000D03*
D33*
X50482500Y-59690000D03*
X36512500Y-62230000D03*
%TD*%
D30*
%TO.C,SW12*%
X47307500Y-38100000D03*
X57467500Y-38100000D03*
D31*
X52387500Y-38100000D03*
D32*
X49847500Y-43180000D03*
X56197500Y-40640000D03*
D33*
X60007500Y-40640000D03*
X46037500Y-43180000D03*
%TD*%
D30*
%TO.C,SW11*%
X42545000Y-19050000D03*
X52705000Y-19050000D03*
D31*
X47625000Y-19050000D03*
D32*
X45085000Y-24130000D03*
X51435000Y-21590000D03*
D33*
X55245000Y-21590000D03*
X41275000Y-24130000D03*
%TD*%
D30*
%TO.C,SW10*%
X33020000Y0D03*
X43180000Y0D03*
D31*
X38100000Y0D03*
D32*
X35560000Y-5080000D03*
X41910000Y-2540000D03*
D33*
X45720000Y-2540000D03*
X31750000Y-5080000D03*
%TD*%
D30*
%TO.C,SW8*%
X28257500Y-38100000D03*
X38417500Y-38100000D03*
D31*
X33337500Y-38100000D03*
D32*
X30797500Y-43180000D03*
X37147500Y-40640000D03*
D33*
X40957500Y-40640000D03*
X26987500Y-43180000D03*
%TD*%
D30*
%TO.C,SW7*%
X23495000Y-19050000D03*
X33655000Y-19050000D03*
D31*
X28575000Y-19050000D03*
D32*
X26035000Y-24130000D03*
X32385000Y-21590000D03*
D33*
X36195000Y-21590000D03*
X22225000Y-24130000D03*
%TD*%
D30*
%TO.C,SW6*%
X19050000Y-5080000D03*
X19050000Y5080000D03*
D31*
X19050000Y0D03*
D32*
X24130000Y-2540000D03*
X21590000Y3810000D03*
D35*
X21590000Y7620000D03*
X24130000Y-6350000D03*
%TD*%
D30*
%TO.C,SW3*%
X2063750Y-38100000D03*
X12223750Y-38100000D03*
D31*
X7143750Y-38100000D03*
D32*
X4603750Y-43180000D03*
X10953750Y-40640000D03*
D33*
X14763750Y-40640000D03*
X793750Y-43180000D03*
%TD*%
D30*
%TO.C,SW2*%
X9842500Y-19050000D03*
X-317500Y-19050000D03*
D31*
X4762500Y-19050000D03*
D32*
X7302500Y-13970000D03*
X952500Y-16510000D03*
D33*
X-2857500Y-16510000D03*
X11112500Y-13970000D03*
%TD*%
D30*
%TO.C,SW1*%
X0Y5080000D03*
X0Y-5080000D03*
D31*
X0Y0D03*
D32*
X-5080000Y2540000D03*
X-2540000Y-3810000D03*
D35*
X-2540000Y-7620000D03*
X-5080000Y6350000D03*
%TD*%
M02*
