%TF.GenerationSoftware,KiCad,Pcbnew,5.1.10*%
%TF.CreationDate,2021-07-28T13:13:53+02:00*%
%TF.ProjectId,msp430_Keyboard,6d737034-3330-45f4-9b65-79626f617264,rev?*%
%TF.SameCoordinates,Original*%
%TF.FileFunction,Legend,Top*%
%TF.FilePolarity,Positive*%
%FSLAX46Y46*%
G04 Gerber Fmt 4.6, Leading zero omitted, Abs format (unit mm)*
G04 Created by KiCad (PCBNEW 5.1.10) date 2021-07-28 13:13:53*
%MOMM*%
%LPD*%
G01*
G04 APERTURE LIST*
%ADD10C,0.120000*%
%ADD11C,0.150000*%
G04 APERTURE END LIST*
D10*
X11557000Y5715000D02*
X11176000Y6477000D01*
X6604000Y6604000D02*
X7874000Y8128000D01*
%TO.C,R7*%
X9652724Y4332500D02*
X9143276Y4332500D01*
X9652724Y3287500D02*
X9143276Y3287500D01*
%TO.C,C4*%
X76600267Y-70737000D02*
X76307733Y-70737000D01*
X76600267Y-71757000D02*
X76307733Y-71757000D01*
%TO.C,C3*%
X81663000Y-67202267D02*
X81663000Y-66909733D01*
X80643000Y-67202267D02*
X80643000Y-66909733D01*
%TO.C,D55*%
X206121000Y-82614000D02*
X206121000Y-82614000D01*
X206121000Y-82744000D02*
X206121000Y-82614000D01*
X206121000Y-82744000D02*
X206121000Y-82744000D01*
X206121000Y-82614000D02*
X206121000Y-82744000D01*
X203581000Y-82614000D02*
X203581000Y-82614000D01*
X203581000Y-82744000D02*
X203581000Y-82614000D01*
X203581000Y-82744000D02*
X203581000Y-82744000D01*
X203581000Y-82614000D02*
X203581000Y-82744000D01*
X206411000Y-82744000D02*
X206811000Y-82744000D01*
X206411000Y-83864000D02*
X206411000Y-82744000D01*
X206811000Y-83864000D02*
X206411000Y-83864000D01*
X206811000Y-82744000D02*
X206811000Y-83864000D01*
X203291000Y-82744000D02*
X206411000Y-82744000D01*
X206411000Y-82744000D02*
X206411000Y-86604000D01*
X203291000Y-82744000D02*
X203291000Y-86604000D01*
X206411000Y-86604000D02*
G75*
G02*
X203291000Y-86604000I-1560000J0D01*
G01*
%TO.C,R10*%
X9779724Y6081500D02*
X9270276Y6081500D01*
X9779724Y7126500D02*
X9270276Y7126500D01*
%TO.C,D54*%
X10325000Y8863000D02*
X7865000Y8863000D01*
X7865000Y8863000D02*
X7865000Y7393000D01*
X7865000Y7393000D02*
X10325000Y7393000D01*
%TO.C,Y1*%
X80232000Y-69341000D02*
X80232000Y-66041000D01*
X80232000Y-66041000D02*
X76232000Y-66041000D01*
%TO.C,SW64*%
X266660000Y-620000D02*
X266660000Y380000D01*
X266160000Y-120000D02*
X267160000Y-120000D01*
X270160000Y5980000D02*
X272560000Y5980000D01*
X265360000Y5980000D02*
X267960000Y5980000D01*
X260760000Y5980000D02*
X263160000Y5980000D01*
X262560000Y-7320000D02*
X262860000Y-7620000D01*
X262560000Y-7920000D02*
X262560000Y-7320000D01*
X262860000Y-7620000D02*
X262560000Y-7920000D01*
X260760000Y-6220000D02*
X272560000Y-6220000D01*
X260760000Y-2120000D02*
X260760000Y-6220000D01*
X272560000Y-2120000D02*
X272560000Y-6220000D01*
X272560000Y5980000D02*
X272560000Y1880000D01*
X260760000Y1880000D02*
X260760000Y5980000D01*
X269660000Y-120000D02*
G75*
G03*
X269660000Y-120000I-3000000J0D01*
G01*
%TO.C,U3*%
X225865000Y-57023000D02*
X225865000Y-60623000D01*
X225865000Y-57023000D02*
X225865000Y-54823000D01*
X231335000Y-57023000D02*
X231335000Y-59223000D01*
X231335000Y-57023000D02*
X231335000Y-54823000D01*
%TO.C,U2*%
X28634000Y-62357000D02*
X28634000Y-65957000D01*
X28634000Y-62357000D02*
X28634000Y-60157000D01*
X34104000Y-62357000D02*
X34104000Y-64557000D01*
X34104000Y-62357000D02*
X34104000Y-60157000D01*
%TO.C,SW61*%
X256518750Y-84000000D02*
X256518750Y-68400000D01*
X272118750Y-84000000D02*
X256518750Y-84000000D01*
X272118750Y-68400000D02*
X272118750Y-84000000D01*
X256518750Y-68400000D02*
X272118750Y-68400000D01*
%TO.C,SW60*%
X208893750Y-84000000D02*
X208893750Y-68400000D01*
X224493750Y-84000000D02*
X208893750Y-84000000D01*
X224493750Y-68400000D02*
X224493750Y-84000000D01*
X208893750Y-68400000D02*
X224493750Y-68400000D01*
%TO.C,SW57*%
X185081250Y-84000000D02*
X185081250Y-68400000D01*
X200681250Y-84000000D02*
X185081250Y-84000000D01*
X200681250Y-68400000D02*
X200681250Y-84000000D01*
X185081250Y-68400000D02*
X200681250Y-68400000D01*
%TO.C,SW53*%
X242231250Y-64950000D02*
X242231250Y-49350000D01*
X257831250Y-64950000D02*
X242231250Y-64950000D01*
X257831250Y-49350000D02*
X257831250Y-64950000D01*
X242231250Y-49350000D02*
X257831250Y-49350000D01*
%TO.C,SW48*%
X232706250Y-84000000D02*
X232706250Y-68400000D01*
X248306250Y-84000000D02*
X232706250Y-84000000D01*
X248306250Y-68400000D02*
X248306250Y-84000000D01*
X232706250Y-68400000D02*
X248306250Y-68400000D01*
%TO.C,SW14*%
X18393750Y-84000000D02*
X18393750Y-68400000D01*
X33993750Y-84000000D02*
X18393750Y-84000000D01*
X33993750Y-68400000D02*
X33993750Y-84000000D01*
X18393750Y-68400000D02*
X33993750Y-68400000D01*
%TO.C,SW9*%
X42206250Y-84000000D02*
X42206250Y-68400000D01*
X57806250Y-84000000D02*
X42206250Y-84000000D01*
X57806250Y-68400000D02*
X57806250Y-84000000D01*
X42206250Y-68400000D02*
X57806250Y-68400000D01*
%TO.C,SW5*%
X19706250Y-49350000D02*
X19706250Y-64950000D01*
X4106250Y-49350000D02*
X19706250Y-49350000D01*
X4106250Y-64950000D02*
X4106250Y-49350000D01*
X19706250Y-64950000D02*
X4106250Y-64950000D01*
%TO.C,SW4*%
X-5418750Y-84000000D02*
X-5418750Y-68400000D01*
X10181250Y-84000000D02*
X-5418750Y-84000000D01*
X10181250Y-68400000D02*
X10181250Y-84000000D01*
X-5418750Y-68400000D02*
X10181250Y-68400000D01*
%TO.C,U1*%
X77797000Y-72786000D02*
X76507000Y-72786000D01*
X77797000Y-72336000D02*
X77797000Y-72786000D01*
X78247000Y-72336000D02*
X77797000Y-72336000D01*
X85017000Y-72336000D02*
X85017000Y-72786000D01*
X84567000Y-72336000D02*
X85017000Y-72336000D01*
X77797000Y-79556000D02*
X77797000Y-79106000D01*
X78247000Y-79556000D02*
X77797000Y-79556000D01*
X85017000Y-79556000D02*
X85017000Y-79106000D01*
X84567000Y-79556000D02*
X85017000Y-79556000D01*
%TO.C,SW59*%
X272118750Y-20775000D02*
X272118750Y-36375000D01*
X256518750Y-20775000D02*
X272118750Y-20775000D01*
X256518750Y-36375000D02*
X256518750Y-20775000D01*
X272118750Y-36375000D02*
X256518750Y-36375000D01*
%TO.C,SW58*%
X255450000Y7800000D02*
X255450000Y-7800000D01*
X239850000Y7800000D02*
X255450000Y7800000D01*
X239850000Y-7800000D02*
X239850000Y7800000D01*
X255450000Y-7800000D02*
X239850000Y-7800000D01*
%TO.C,SW56*%
X250687500Y-30300000D02*
X250687500Y-45900000D01*
X235087500Y-30300000D02*
X250687500Y-30300000D01*
X235087500Y-45900000D02*
X235087500Y-30300000D01*
X250687500Y-45900000D02*
X235087500Y-45900000D01*
%TO.C,SW55*%
X245925000Y-11250000D02*
X245925000Y-26850000D01*
X230325000Y-11250000D02*
X245925000Y-11250000D01*
X230325000Y-26850000D02*
X230325000Y-11250000D01*
X245925000Y-26850000D02*
X230325000Y-26850000D01*
%TO.C,SW54*%
X236400000Y7800000D02*
X236400000Y-7800000D01*
X220800000Y7800000D02*
X236400000Y7800000D01*
X220800000Y-7800000D02*
X220800000Y7800000D01*
X236400000Y-7800000D02*
X220800000Y-7800000D01*
%TO.C,SW52*%
X222112500Y-49350000D02*
X222112500Y-64950000D01*
X206512500Y-49350000D02*
X222112500Y-49350000D01*
X206512500Y-64950000D02*
X206512500Y-49350000D01*
X222112500Y-64950000D02*
X206512500Y-64950000D01*
%TO.C,SW51*%
X231637500Y-30300000D02*
X231637500Y-45900000D01*
X216037500Y-30300000D02*
X231637500Y-30300000D01*
X216037500Y-45900000D02*
X216037500Y-30300000D01*
X231637500Y-45900000D02*
X216037500Y-45900000D01*
%TO.C,SW50*%
X226875000Y-11250000D02*
X226875000Y-26850000D01*
X211275000Y-11250000D02*
X226875000Y-11250000D01*
X211275000Y-26850000D02*
X211275000Y-11250000D01*
X226875000Y-26850000D02*
X211275000Y-26850000D01*
%TO.C,SW49*%
X217350000Y7800000D02*
X217350000Y-7800000D01*
X201750000Y7800000D02*
X217350000Y7800000D01*
X201750000Y-7800000D02*
X201750000Y7800000D01*
X217350000Y-7800000D02*
X201750000Y-7800000D01*
%TO.C,SW47*%
X203062500Y-49350000D02*
X203062500Y-64950000D01*
X187462500Y-49350000D02*
X203062500Y-49350000D01*
X187462500Y-64950000D02*
X187462500Y-49350000D01*
X203062500Y-64950000D02*
X187462500Y-64950000D01*
%TO.C,SW46*%
X212587500Y-30300000D02*
X212587500Y-45900000D01*
X196987500Y-30300000D02*
X212587500Y-30300000D01*
X196987500Y-45900000D02*
X196987500Y-30300000D01*
X212587500Y-45900000D02*
X196987500Y-45900000D01*
%TO.C,SW45*%
X207825000Y-11250000D02*
X207825000Y-26850000D01*
X192225000Y-11250000D02*
X207825000Y-11250000D01*
X192225000Y-26850000D02*
X192225000Y-11250000D01*
X207825000Y-26850000D02*
X192225000Y-26850000D01*
%TO.C,SW44*%
X198300000Y7800000D02*
X198300000Y-7800000D01*
X182700000Y7800000D02*
X198300000Y7800000D01*
X182700000Y-7800000D02*
X182700000Y7800000D01*
X198300000Y-7800000D02*
X182700000Y-7800000D01*
%TO.C,SW43*%
X184012500Y-49350000D02*
X184012500Y-64950000D01*
X168412500Y-49350000D02*
X184012500Y-49350000D01*
X168412500Y-64950000D02*
X168412500Y-49350000D01*
X184012500Y-64950000D02*
X168412500Y-64950000D01*
%TO.C,SW42*%
X193537500Y-30300000D02*
X193537500Y-45900000D01*
X177937500Y-30300000D02*
X193537500Y-30300000D01*
X177937500Y-45900000D02*
X177937500Y-30300000D01*
X193537500Y-45900000D02*
X177937500Y-45900000D01*
%TO.C,SW41*%
X188775000Y-11250000D02*
X188775000Y-26850000D01*
X173175000Y-11250000D02*
X188775000Y-11250000D01*
X173175000Y-26850000D02*
X173175000Y-11250000D01*
X188775000Y-26850000D02*
X173175000Y-26850000D01*
%TO.C,SW40*%
X179250000Y7800000D02*
X179250000Y-7800000D01*
X163650000Y7800000D02*
X179250000Y7800000D01*
X163650000Y-7800000D02*
X163650000Y7800000D01*
X179250000Y-7800000D02*
X163650000Y-7800000D01*
%TO.C,SW39*%
X164962500Y-49350000D02*
X164962500Y-64950000D01*
X149362500Y-49350000D02*
X164962500Y-49350000D01*
X149362500Y-64950000D02*
X149362500Y-49350000D01*
X164962500Y-64950000D02*
X149362500Y-64950000D01*
%TO.C,SW38*%
X174487500Y-30300000D02*
X174487500Y-45900000D01*
X158887500Y-30300000D02*
X174487500Y-30300000D01*
X158887500Y-45900000D02*
X158887500Y-30300000D01*
X174487500Y-45900000D02*
X158887500Y-45900000D01*
%TO.C,SW37*%
X169725000Y-11250000D02*
X169725000Y-26850000D01*
X154125000Y-11250000D02*
X169725000Y-11250000D01*
X154125000Y-26850000D02*
X154125000Y-11250000D01*
X169725000Y-26850000D02*
X154125000Y-26850000D01*
%TO.C,SW36*%
X160200000Y7800000D02*
X160200000Y-7800000D01*
X144600000Y7800000D02*
X160200000Y7800000D01*
X144600000Y-7800000D02*
X144600000Y7800000D01*
X160200000Y-7800000D02*
X144600000Y-7800000D01*
%TO.C,SW35*%
X145912500Y-49350000D02*
X145912500Y-64950000D01*
X130312500Y-49350000D02*
X145912500Y-49350000D01*
X130312500Y-64950000D02*
X130312500Y-49350000D01*
X145912500Y-64950000D02*
X130312500Y-64950000D01*
%TO.C,SW34*%
X155437500Y-30300000D02*
X155437500Y-45900000D01*
X139837500Y-30300000D02*
X155437500Y-30300000D01*
X139837500Y-45900000D02*
X139837500Y-30300000D01*
X155437500Y-45900000D02*
X139837500Y-45900000D01*
%TO.C,SW33*%
X150675000Y-11250000D02*
X150675000Y-26850000D01*
X135075000Y-11250000D02*
X150675000Y-11250000D01*
X135075000Y-26850000D02*
X135075000Y-11250000D01*
X150675000Y-26850000D02*
X135075000Y-26850000D01*
%TO.C,SW32*%
X141150000Y7800000D02*
X141150000Y-7800000D01*
X125550000Y7800000D02*
X141150000Y7800000D01*
X125550000Y-7800000D02*
X125550000Y7800000D01*
X141150000Y-7800000D02*
X125550000Y-7800000D01*
%TO.C,SW31*%
X113643750Y-84000000D02*
X113643750Y-68400000D01*
X129243750Y-84000000D02*
X113643750Y-84000000D01*
X129243750Y-68400000D02*
X129243750Y-84000000D01*
X113643750Y-68400000D02*
X129243750Y-68400000D01*
%TO.C,SW30*%
X126862500Y-49350000D02*
X126862500Y-64950000D01*
X111262500Y-49350000D02*
X126862500Y-49350000D01*
X111262500Y-64950000D02*
X111262500Y-49350000D01*
X126862500Y-64950000D02*
X111262500Y-64950000D01*
%TO.C,SW29*%
X136387500Y-30300000D02*
X136387500Y-45900000D01*
X120787500Y-30300000D02*
X136387500Y-30300000D01*
X120787500Y-45900000D02*
X120787500Y-30300000D01*
X136387500Y-45900000D02*
X120787500Y-45900000D01*
%TO.C,SW28*%
X131625000Y-11250000D02*
X131625000Y-26850000D01*
X116025000Y-11250000D02*
X131625000Y-11250000D01*
X116025000Y-26850000D02*
X116025000Y-11250000D01*
X131625000Y-26850000D02*
X116025000Y-26850000D01*
%TO.C,SW27*%
X122100000Y7800000D02*
X122100000Y-7800000D01*
X106500000Y7800000D02*
X122100000Y7800000D01*
X106500000Y-7800000D02*
X106500000Y7800000D01*
X122100000Y-7800000D02*
X106500000Y-7800000D01*
%TO.C,SW26*%
X107812500Y-49350000D02*
X107812500Y-64950000D01*
X92212500Y-49350000D02*
X107812500Y-49350000D01*
X92212500Y-64950000D02*
X92212500Y-49350000D01*
X107812500Y-64950000D02*
X92212500Y-64950000D01*
%TO.C,SW25*%
X101737500Y-45900000D02*
X101737500Y-30300000D01*
X117337500Y-45900000D02*
X101737500Y-45900000D01*
X117337500Y-30300000D02*
X117337500Y-45900000D01*
X101737500Y-30300000D02*
X117337500Y-30300000D01*
%TO.C,SW24*%
X112575000Y-11250000D02*
X112575000Y-26850000D01*
X96975000Y-11250000D02*
X112575000Y-11250000D01*
X96975000Y-26850000D02*
X96975000Y-11250000D01*
X112575000Y-26850000D02*
X96975000Y-26850000D01*
%TO.C,SW23*%
X103050000Y7800000D02*
X103050000Y-7800000D01*
X87450000Y7800000D02*
X103050000Y7800000D01*
X87450000Y-7800000D02*
X87450000Y7800000D01*
X103050000Y-7800000D02*
X87450000Y-7800000D01*
%TO.C,SW22*%
X88762500Y-49350000D02*
X88762500Y-64950000D01*
X73162500Y-49350000D02*
X88762500Y-49350000D01*
X73162500Y-64950000D02*
X73162500Y-49350000D01*
X88762500Y-64950000D02*
X73162500Y-64950000D01*
%TO.C,SW21*%
X98287500Y-30300000D02*
X98287500Y-45900000D01*
X82687500Y-30300000D02*
X98287500Y-30300000D01*
X82687500Y-45900000D02*
X82687500Y-30300000D01*
X98287500Y-45900000D02*
X82687500Y-45900000D01*
%TO.C,SW20*%
X93525000Y-11250000D02*
X93525000Y-26850000D01*
X77925000Y-11250000D02*
X93525000Y-11250000D01*
X77925000Y-26850000D02*
X77925000Y-11250000D01*
X93525000Y-26850000D02*
X77925000Y-26850000D01*
%TO.C,SW19*%
X84000000Y7800000D02*
X84000000Y-7800000D01*
X68400000Y7800000D02*
X84000000Y7800000D01*
X68400000Y-7800000D02*
X68400000Y7800000D01*
X84000000Y-7800000D02*
X68400000Y-7800000D01*
%TO.C,SW18*%
X69712500Y-49350000D02*
X69712500Y-64950000D01*
X54112500Y-49350000D02*
X69712500Y-49350000D01*
X54112500Y-64950000D02*
X54112500Y-49350000D01*
X69712500Y-64950000D02*
X54112500Y-64950000D01*
%TO.C,SW17*%
X79237500Y-30300000D02*
X79237500Y-45900000D01*
X63637500Y-30300000D02*
X79237500Y-30300000D01*
X63637500Y-45900000D02*
X63637500Y-30300000D01*
X79237500Y-45900000D02*
X63637500Y-45900000D01*
%TO.C,SW16*%
X74475000Y-11250000D02*
X74475000Y-26850000D01*
X58875000Y-11250000D02*
X74475000Y-11250000D01*
X58875000Y-26850000D02*
X58875000Y-11250000D01*
X74475000Y-26850000D02*
X58875000Y-26850000D01*
%TO.C,SW15*%
X64950000Y7800000D02*
X64950000Y-7800000D01*
X49350000Y7800000D02*
X64950000Y7800000D01*
X49350000Y-7800000D02*
X49350000Y7800000D01*
X64950000Y-7800000D02*
X49350000Y-7800000D01*
%TO.C,SW13*%
X50662500Y-49350000D02*
X50662500Y-64950000D01*
X35062500Y-49350000D02*
X50662500Y-49350000D01*
X35062500Y-64950000D02*
X35062500Y-49350000D01*
X50662500Y-64950000D02*
X35062500Y-64950000D01*
%TO.C,SW12*%
X60187500Y-30300000D02*
X60187500Y-45900000D01*
X44587500Y-30300000D02*
X60187500Y-30300000D01*
X44587500Y-45900000D02*
X44587500Y-30300000D01*
X60187500Y-45900000D02*
X44587500Y-45900000D01*
%TO.C,SW11*%
X55425000Y-11250000D02*
X55425000Y-26850000D01*
X39825000Y-11250000D02*
X55425000Y-11250000D01*
X39825000Y-26850000D02*
X39825000Y-11250000D01*
X55425000Y-26850000D02*
X39825000Y-26850000D01*
%TO.C,SW10*%
X45900000Y7800000D02*
X45900000Y-7800000D01*
X30300000Y7800000D02*
X45900000Y7800000D01*
X30300000Y-7800000D02*
X30300000Y7800000D01*
X45900000Y-7800000D02*
X30300000Y-7800000D01*
%TO.C,SW8*%
X41137500Y-30300000D02*
X41137500Y-45900000D01*
X25537500Y-30300000D02*
X41137500Y-30300000D01*
X25537500Y-45900000D02*
X25537500Y-30300000D01*
X41137500Y-45900000D02*
X25537500Y-45900000D01*
%TO.C,SW7*%
X36375000Y-11250000D02*
X36375000Y-26850000D01*
X20775000Y-11250000D02*
X36375000Y-11250000D01*
X20775000Y-26850000D02*
X20775000Y-11250000D01*
X36375000Y-26850000D02*
X20775000Y-26850000D01*
%TO.C,SW6*%
X11250000Y7800000D02*
X26850000Y7800000D01*
X11250000Y-7800000D02*
X11250000Y7800000D01*
X26850000Y-7800000D02*
X11250000Y-7800000D01*
X26850000Y7800000D02*
X26850000Y-7800000D01*
%TO.C,SW3*%
X14943750Y-30300000D02*
X14943750Y-45900000D01*
X-656250Y-30300000D02*
X14943750Y-30300000D01*
X-656250Y-45900000D02*
X-656250Y-30300000D01*
X14943750Y-45900000D02*
X-656250Y-45900000D01*
%TO.C,SW2*%
X-3037500Y-26850000D02*
X-3037500Y-11250000D01*
X12562500Y-26850000D02*
X-3037500Y-26850000D01*
X12562500Y-11250000D02*
X12562500Y-26850000D01*
X-3037500Y-11250000D02*
X12562500Y-11250000D01*
%TO.C,SW1*%
X7800000Y-7800000D02*
X-7800000Y-7800000D01*
X7800000Y7800000D02*
X7800000Y-7800000D01*
X-7800000Y7800000D02*
X7800000Y7800000D01*
X-7800000Y-7800000D02*
X-7800000Y7800000D01*
%TO.C,R7*%
D11*
X9231333Y4627619D02*
X8898000Y5103809D01*
X8659904Y4627619D02*
X8659904Y5627619D01*
X9040857Y5627619D01*
X9136095Y5580000D01*
X9183714Y5532380D01*
X9231333Y5437142D01*
X9231333Y5294285D01*
X9183714Y5199047D01*
X9136095Y5151428D01*
X9040857Y5103809D01*
X8659904Y5103809D01*
X9564666Y5627619D02*
X10231333Y5627619D01*
X9802761Y4627619D01*
%TO.C,C4*%
X72477333Y-71604142D02*
X72429714Y-71651761D01*
X72286857Y-71699380D01*
X72191619Y-71699380D01*
X72048761Y-71651761D01*
X71953523Y-71556523D01*
X71905904Y-71461285D01*
X71858285Y-71270809D01*
X71858285Y-71127952D01*
X71905904Y-70937476D01*
X71953523Y-70842238D01*
X72048761Y-70747000D01*
X72191619Y-70699380D01*
X72286857Y-70699380D01*
X72429714Y-70747000D01*
X72477333Y-70794619D01*
X73334476Y-71032714D02*
X73334476Y-71699380D01*
X73096380Y-70651761D02*
X72858285Y-71366047D01*
X73477333Y-71366047D01*
%TO.C,C3*%
X83018333Y-67667142D02*
X82970714Y-67714761D01*
X82827857Y-67762380D01*
X82732619Y-67762380D01*
X82589761Y-67714761D01*
X82494523Y-67619523D01*
X82446904Y-67524285D01*
X82399285Y-67333809D01*
X82399285Y-67190952D01*
X82446904Y-67000476D01*
X82494523Y-66905238D01*
X82589761Y-66810000D01*
X82732619Y-66762380D01*
X82827857Y-66762380D01*
X82970714Y-66810000D01*
X83018333Y-66857619D01*
X83351666Y-66762380D02*
X83970714Y-66762380D01*
X83637380Y-67143333D01*
X83780238Y-67143333D01*
X83875476Y-67190952D01*
X83923095Y-67238571D01*
X83970714Y-67333809D01*
X83970714Y-67571904D01*
X83923095Y-67667142D01*
X83875476Y-67714761D01*
X83780238Y-67762380D01*
X83494523Y-67762380D01*
X83399285Y-67714761D01*
X83351666Y-67667142D01*
%TO.C,D55*%
X203636714Y-80026380D02*
X203636714Y-79026380D01*
X203874809Y-79026380D01*
X204017666Y-79074000D01*
X204112904Y-79169238D01*
X204160523Y-79264476D01*
X204208142Y-79454952D01*
X204208142Y-79597809D01*
X204160523Y-79788285D01*
X204112904Y-79883523D01*
X204017666Y-79978761D01*
X203874809Y-80026380D01*
X203636714Y-80026380D01*
X205112904Y-79026380D02*
X204636714Y-79026380D01*
X204589095Y-79502571D01*
X204636714Y-79454952D01*
X204731952Y-79407333D01*
X204970047Y-79407333D01*
X205065285Y-79454952D01*
X205112904Y-79502571D01*
X205160523Y-79597809D01*
X205160523Y-79835904D01*
X205112904Y-79931142D01*
X205065285Y-79978761D01*
X204970047Y-80026380D01*
X204731952Y-80026380D01*
X204636714Y-79978761D01*
X204589095Y-79931142D01*
X206065285Y-79026380D02*
X205589095Y-79026380D01*
X205541476Y-79502571D01*
X205589095Y-79454952D01*
X205684333Y-79407333D01*
X205922428Y-79407333D01*
X206017666Y-79454952D01*
X206065285Y-79502571D01*
X206112904Y-79597809D01*
X206112904Y-79835904D01*
X206065285Y-79931142D01*
X206017666Y-79978761D01*
X205922428Y-80026380D01*
X205684333Y-80026380D01*
X205589095Y-79978761D01*
X205541476Y-79931142D01*
%TO.C,R10*%
X12438142Y5262619D02*
X12104809Y5738809D01*
X11866714Y5262619D02*
X11866714Y6262619D01*
X12247666Y6262619D01*
X12342904Y6215000D01*
X12390523Y6167380D01*
X12438142Y6072142D01*
X12438142Y5929285D01*
X12390523Y5834047D01*
X12342904Y5786428D01*
X12247666Y5738809D01*
X11866714Y5738809D01*
X13390523Y5262619D02*
X12819095Y5262619D01*
X13104809Y5262619D02*
X13104809Y6262619D01*
X13009571Y6119761D01*
X12914333Y6024523D01*
X12819095Y5976904D01*
X14009571Y6262619D02*
X14104809Y6262619D01*
X14200047Y6215000D01*
X14247666Y6167380D01*
X14295285Y6072142D01*
X14342904Y5881666D01*
X14342904Y5643571D01*
X14295285Y5453095D01*
X14247666Y5357857D01*
X14200047Y5310238D01*
X14104809Y5262619D01*
X14009571Y5262619D01*
X13914333Y5310238D01*
X13866714Y5357857D01*
X13819095Y5453095D01*
X13771476Y5643571D01*
X13771476Y5881666D01*
X13819095Y6072142D01*
X13866714Y6167380D01*
X13914333Y6215000D01*
X14009571Y6262619D01*
%TO.C,D54*%
X4881714Y5135619D02*
X4881714Y6135619D01*
X5119809Y6135619D01*
X5262666Y6088000D01*
X5357904Y5992761D01*
X5405523Y5897523D01*
X5453142Y5707047D01*
X5453142Y5564190D01*
X5405523Y5373714D01*
X5357904Y5278476D01*
X5262666Y5183238D01*
X5119809Y5135619D01*
X4881714Y5135619D01*
X6357904Y6135619D02*
X5881714Y6135619D01*
X5834095Y5659428D01*
X5881714Y5707047D01*
X5976952Y5754666D01*
X6215047Y5754666D01*
X6310285Y5707047D01*
X6357904Y5659428D01*
X6405523Y5564190D01*
X6405523Y5326095D01*
X6357904Y5230857D01*
X6310285Y5183238D01*
X6215047Y5135619D01*
X5976952Y5135619D01*
X5881714Y5183238D01*
X5834095Y5230857D01*
X7262666Y5802285D02*
X7262666Y5135619D01*
X7024571Y6183238D02*
X6786476Y5468952D01*
X7405523Y5468952D01*
%TO.C,Y1*%
X74834809Y-67921190D02*
X74834809Y-68397380D01*
X74501476Y-67397380D02*
X74834809Y-67921190D01*
X75168142Y-67397380D01*
X76025285Y-68397380D02*
X75453857Y-68397380D01*
X75739571Y-68397380D02*
X75739571Y-67397380D01*
X75644333Y-67540238D01*
X75549095Y-67635476D01*
X75453857Y-67683095D01*
%TO.C,SW64*%
X268573476Y-5738761D02*
X268716333Y-5786380D01*
X268954428Y-5786380D01*
X269049666Y-5738761D01*
X269097285Y-5691142D01*
X269144904Y-5595904D01*
X269144904Y-5500666D01*
X269097285Y-5405428D01*
X269049666Y-5357809D01*
X268954428Y-5310190D01*
X268763952Y-5262571D01*
X268668714Y-5214952D01*
X268621095Y-5167333D01*
X268573476Y-5072095D01*
X268573476Y-4976857D01*
X268621095Y-4881619D01*
X268668714Y-4834000D01*
X268763952Y-4786380D01*
X269002047Y-4786380D01*
X269144904Y-4834000D01*
X269478238Y-4786380D02*
X269716333Y-5786380D01*
X269906809Y-5072095D01*
X270097285Y-5786380D01*
X270335380Y-4786380D01*
X271144904Y-4786380D02*
X270954428Y-4786380D01*
X270859190Y-4834000D01*
X270811571Y-4881619D01*
X270716333Y-5024476D01*
X270668714Y-5214952D01*
X270668714Y-5595904D01*
X270716333Y-5691142D01*
X270763952Y-5738761D01*
X270859190Y-5786380D01*
X271049666Y-5786380D01*
X271144904Y-5738761D01*
X271192523Y-5691142D01*
X271240142Y-5595904D01*
X271240142Y-5357809D01*
X271192523Y-5262571D01*
X271144904Y-5214952D01*
X271049666Y-5167333D01*
X270859190Y-5167333D01*
X270763952Y-5214952D01*
X270716333Y-5262571D01*
X270668714Y-5357809D01*
X272097285Y-5119714D02*
X272097285Y-5786380D01*
X271859190Y-4738761D02*
X271621095Y-5453047D01*
X272240142Y-5453047D01*
%TO.C,U3*%
X224602380Y-57784904D02*
X225411904Y-57784904D01*
X225507142Y-57737285D01*
X225554761Y-57689666D01*
X225602380Y-57594428D01*
X225602380Y-57403952D01*
X225554761Y-57308714D01*
X225507142Y-57261095D01*
X225411904Y-57213476D01*
X224602380Y-57213476D01*
X224602380Y-56832523D02*
X224602380Y-56213476D01*
X224983333Y-56546809D01*
X224983333Y-56403952D01*
X225030952Y-56308714D01*
X225078571Y-56261095D01*
X225173809Y-56213476D01*
X225411904Y-56213476D01*
X225507142Y-56261095D01*
X225554761Y-56308714D01*
X225602380Y-56403952D01*
X225602380Y-56689666D01*
X225554761Y-56784904D01*
X225507142Y-56832523D01*
%TO.C,U2*%
X27371380Y-63118904D02*
X28180904Y-63118904D01*
X28276142Y-63071285D01*
X28323761Y-63023666D01*
X28371380Y-62928428D01*
X28371380Y-62737952D01*
X28323761Y-62642714D01*
X28276142Y-62595095D01*
X28180904Y-62547476D01*
X27371380Y-62547476D01*
X27466619Y-62118904D02*
X27419000Y-62071285D01*
X27371380Y-61976047D01*
X27371380Y-61737952D01*
X27419000Y-61642714D01*
X27466619Y-61595095D01*
X27561857Y-61547476D01*
X27657095Y-61547476D01*
X27799952Y-61595095D01*
X28371380Y-62166523D01*
X28371380Y-61547476D01*
%TO.C,SW61*%
X267938476Y-83589761D02*
X268081333Y-83637380D01*
X268319428Y-83637380D01*
X268414666Y-83589761D01*
X268462285Y-83542142D01*
X268509904Y-83446904D01*
X268509904Y-83351666D01*
X268462285Y-83256428D01*
X268414666Y-83208809D01*
X268319428Y-83161190D01*
X268128952Y-83113571D01*
X268033714Y-83065952D01*
X267986095Y-83018333D01*
X267938476Y-82923095D01*
X267938476Y-82827857D01*
X267986095Y-82732619D01*
X268033714Y-82685000D01*
X268128952Y-82637380D01*
X268367047Y-82637380D01*
X268509904Y-82685000D01*
X268843238Y-82637380D02*
X269081333Y-83637380D01*
X269271809Y-82923095D01*
X269462285Y-83637380D01*
X269700380Y-82637380D01*
X270509904Y-82637380D02*
X270319428Y-82637380D01*
X270224190Y-82685000D01*
X270176571Y-82732619D01*
X270081333Y-82875476D01*
X270033714Y-83065952D01*
X270033714Y-83446904D01*
X270081333Y-83542142D01*
X270128952Y-83589761D01*
X270224190Y-83637380D01*
X270414666Y-83637380D01*
X270509904Y-83589761D01*
X270557523Y-83542142D01*
X270605142Y-83446904D01*
X270605142Y-83208809D01*
X270557523Y-83113571D01*
X270509904Y-83065952D01*
X270414666Y-83018333D01*
X270224190Y-83018333D01*
X270128952Y-83065952D01*
X270081333Y-83113571D01*
X270033714Y-83208809D01*
X271557523Y-83637380D02*
X270986095Y-83637380D01*
X271271809Y-83637380D02*
X271271809Y-82637380D01*
X271176571Y-82780238D01*
X271081333Y-82875476D01*
X270986095Y-82923095D01*
X265422238Y-80065571D02*
X265088904Y-80065571D01*
X265088904Y-80589380D02*
X265088904Y-79589380D01*
X265565095Y-79589380D01*
X265946047Y-79589380D02*
X265946047Y-80398904D01*
X265993666Y-80494142D01*
X266041285Y-80541761D01*
X266136523Y-80589380D01*
X266327000Y-80589380D01*
X266422238Y-80541761D01*
X266469857Y-80494142D01*
X266517476Y-80398904D01*
X266517476Y-79589380D01*
X266993666Y-80589380D02*
X266993666Y-79589380D01*
X267565095Y-80589380D01*
X267565095Y-79589380D01*
X268612714Y-80494142D02*
X268565095Y-80541761D01*
X268422238Y-80589380D01*
X268327000Y-80589380D01*
X268184142Y-80541761D01*
X268088904Y-80446523D01*
X268041285Y-80351285D01*
X267993666Y-80160809D01*
X267993666Y-80017952D01*
X268041285Y-79827476D01*
X268088904Y-79732238D01*
X268184142Y-79637000D01*
X268327000Y-79589380D01*
X268422238Y-79589380D01*
X268565095Y-79637000D01*
X268612714Y-79684619D01*
%TO.C,SW60*%
X220313476Y-83716761D02*
X220456333Y-83764380D01*
X220694428Y-83764380D01*
X220789666Y-83716761D01*
X220837285Y-83669142D01*
X220884904Y-83573904D01*
X220884904Y-83478666D01*
X220837285Y-83383428D01*
X220789666Y-83335809D01*
X220694428Y-83288190D01*
X220503952Y-83240571D01*
X220408714Y-83192952D01*
X220361095Y-83145333D01*
X220313476Y-83050095D01*
X220313476Y-82954857D01*
X220361095Y-82859619D01*
X220408714Y-82812000D01*
X220503952Y-82764380D01*
X220742047Y-82764380D01*
X220884904Y-82812000D01*
X221218238Y-82764380D02*
X221456333Y-83764380D01*
X221646809Y-83050095D01*
X221837285Y-83764380D01*
X222075380Y-82764380D01*
X222884904Y-82764380D02*
X222694428Y-82764380D01*
X222599190Y-82812000D01*
X222551571Y-82859619D01*
X222456333Y-83002476D01*
X222408714Y-83192952D01*
X222408714Y-83573904D01*
X222456333Y-83669142D01*
X222503952Y-83716761D01*
X222599190Y-83764380D01*
X222789666Y-83764380D01*
X222884904Y-83716761D01*
X222932523Y-83669142D01*
X222980142Y-83573904D01*
X222980142Y-83335809D01*
X222932523Y-83240571D01*
X222884904Y-83192952D01*
X222789666Y-83145333D01*
X222599190Y-83145333D01*
X222503952Y-83192952D01*
X222456333Y-83240571D01*
X222408714Y-83335809D01*
X223599190Y-82764380D02*
X223694428Y-82764380D01*
X223789666Y-82812000D01*
X223837285Y-82859619D01*
X223884904Y-82954857D01*
X223932523Y-83145333D01*
X223932523Y-83383428D01*
X223884904Y-83573904D01*
X223837285Y-83669142D01*
X223789666Y-83716761D01*
X223694428Y-83764380D01*
X223599190Y-83764380D01*
X223503952Y-83716761D01*
X223456333Y-83669142D01*
X223408714Y-83573904D01*
X223361095Y-83383428D01*
X223361095Y-83145333D01*
X223408714Y-82954857D01*
X223456333Y-82859619D01*
X223503952Y-82812000D01*
X223599190Y-82764380D01*
X215233523Y-80843380D02*
X214900190Y-80367190D01*
X214662095Y-80843380D02*
X214662095Y-79843380D01*
X215043047Y-79843380D01*
X215138285Y-79891000D01*
X215185904Y-79938619D01*
X215233523Y-80033857D01*
X215233523Y-80176714D01*
X215185904Y-80271952D01*
X215138285Y-80319571D01*
X215043047Y-80367190D01*
X214662095Y-80367190D01*
X215424000Y-80938619D02*
X216185904Y-80938619D01*
X216376380Y-80795761D02*
X216519238Y-80843380D01*
X216757333Y-80843380D01*
X216852571Y-80795761D01*
X216900190Y-80748142D01*
X216947809Y-80652904D01*
X216947809Y-80557666D01*
X216900190Y-80462428D01*
X216852571Y-80414809D01*
X216757333Y-80367190D01*
X216566857Y-80319571D01*
X216471619Y-80271952D01*
X216424000Y-80224333D01*
X216376380Y-80129095D01*
X216376380Y-80033857D01*
X216424000Y-79938619D01*
X216471619Y-79891000D01*
X216566857Y-79843380D01*
X216804952Y-79843380D01*
X216947809Y-79891000D01*
X217804952Y-80176714D02*
X217804952Y-80843380D01*
X217376380Y-80176714D02*
X217376380Y-80700523D01*
X217424000Y-80795761D01*
X217519238Y-80843380D01*
X217662095Y-80843380D01*
X217757333Y-80795761D01*
X217804952Y-80748142D01*
X218281142Y-80176714D02*
X218281142Y-81176714D01*
X218281142Y-80224333D02*
X218376380Y-80176714D01*
X218566857Y-80176714D01*
X218662095Y-80224333D01*
X218709714Y-80271952D01*
X218757333Y-80367190D01*
X218757333Y-80652904D01*
X218709714Y-80748142D01*
X218662095Y-80795761D01*
X218566857Y-80843380D01*
X218376380Y-80843380D01*
X218281142Y-80795761D01*
X219566857Y-80795761D02*
X219471619Y-80843380D01*
X219281142Y-80843380D01*
X219185904Y-80795761D01*
X219138285Y-80700523D01*
X219138285Y-80319571D01*
X219185904Y-80224333D01*
X219281142Y-80176714D01*
X219471619Y-80176714D01*
X219566857Y-80224333D01*
X219614476Y-80319571D01*
X219614476Y-80414809D01*
X219138285Y-80510047D01*
X220043047Y-80843380D02*
X220043047Y-80176714D01*
X220043047Y-80367190D02*
X220090666Y-80271952D01*
X220138285Y-80224333D01*
X220233523Y-80176714D01*
X220328761Y-80176714D01*
%TO.C,SW57*%
X196564476Y-83589761D02*
X196707333Y-83637380D01*
X196945428Y-83637380D01*
X197040666Y-83589761D01*
X197088285Y-83542142D01*
X197135904Y-83446904D01*
X197135904Y-83351666D01*
X197088285Y-83256428D01*
X197040666Y-83208809D01*
X196945428Y-83161190D01*
X196754952Y-83113571D01*
X196659714Y-83065952D01*
X196612095Y-83018333D01*
X196564476Y-82923095D01*
X196564476Y-82827857D01*
X196612095Y-82732619D01*
X196659714Y-82685000D01*
X196754952Y-82637380D01*
X196993047Y-82637380D01*
X197135904Y-82685000D01*
X197469238Y-82637380D02*
X197707333Y-83637380D01*
X197897809Y-82923095D01*
X198088285Y-83637380D01*
X198326380Y-82637380D01*
X199183523Y-82637380D02*
X198707333Y-82637380D01*
X198659714Y-83113571D01*
X198707333Y-83065952D01*
X198802571Y-83018333D01*
X199040666Y-83018333D01*
X199135904Y-83065952D01*
X199183523Y-83113571D01*
X199231142Y-83208809D01*
X199231142Y-83446904D01*
X199183523Y-83542142D01*
X199135904Y-83589761D01*
X199040666Y-83637380D01*
X198802571Y-83637380D01*
X198707333Y-83589761D01*
X198659714Y-83542142D01*
X199564476Y-82637380D02*
X200231142Y-82637380D01*
X199802571Y-83637380D01*
X192778333Y-80430666D02*
X193254523Y-80430666D01*
X192683095Y-80716380D02*
X193016428Y-79716380D01*
X193349761Y-80716380D01*
X193825952Y-80716380D02*
X193730714Y-80668761D01*
X193683095Y-80573523D01*
X193683095Y-79716380D01*
X194064047Y-80049714D02*
X194445000Y-80049714D01*
X194206904Y-79716380D02*
X194206904Y-80573523D01*
X194254523Y-80668761D01*
X194349761Y-80716380D01*
X194445000Y-80716380D01*
X194540238Y-80811619D02*
X195302142Y-80811619D01*
X196064047Y-79764000D02*
X195968809Y-79716380D01*
X195825952Y-79716380D01*
X195683095Y-79764000D01*
X195587857Y-79859238D01*
X195540238Y-79954476D01*
X195492619Y-80144952D01*
X195492619Y-80287809D01*
X195540238Y-80478285D01*
X195587857Y-80573523D01*
X195683095Y-80668761D01*
X195825952Y-80716380D01*
X195921190Y-80716380D01*
X196064047Y-80668761D01*
X196111666Y-80621142D01*
X196111666Y-80287809D01*
X195921190Y-80287809D01*
X197111666Y-80716380D02*
X196778333Y-80240190D01*
X196540238Y-80716380D02*
X196540238Y-79716380D01*
X196921190Y-79716380D01*
X197016428Y-79764000D01*
X197064047Y-79811619D01*
X197111666Y-79906857D01*
X197111666Y-80049714D01*
X197064047Y-80144952D01*
X197016428Y-80192571D01*
X196921190Y-80240190D01*
X196540238Y-80240190D01*
%TO.C,SW53*%
X253460476Y-64412761D02*
X253603333Y-64460380D01*
X253841428Y-64460380D01*
X253936666Y-64412761D01*
X253984285Y-64365142D01*
X254031904Y-64269904D01*
X254031904Y-64174666D01*
X253984285Y-64079428D01*
X253936666Y-64031809D01*
X253841428Y-63984190D01*
X253650952Y-63936571D01*
X253555714Y-63888952D01*
X253508095Y-63841333D01*
X253460476Y-63746095D01*
X253460476Y-63650857D01*
X253508095Y-63555619D01*
X253555714Y-63508000D01*
X253650952Y-63460380D01*
X253889047Y-63460380D01*
X254031904Y-63508000D01*
X254365238Y-63460380D02*
X254603333Y-64460380D01*
X254793809Y-63746095D01*
X254984285Y-64460380D01*
X255222380Y-63460380D01*
X256079523Y-63460380D02*
X255603333Y-63460380D01*
X255555714Y-63936571D01*
X255603333Y-63888952D01*
X255698571Y-63841333D01*
X255936666Y-63841333D01*
X256031904Y-63888952D01*
X256079523Y-63936571D01*
X256127142Y-64031809D01*
X256127142Y-64269904D01*
X256079523Y-64365142D01*
X256031904Y-64412761D01*
X255936666Y-64460380D01*
X255698571Y-64460380D01*
X255603333Y-64412761D01*
X255555714Y-64365142D01*
X256460476Y-63460380D02*
X257079523Y-63460380D01*
X256746190Y-63841333D01*
X256889047Y-63841333D01*
X256984285Y-63888952D01*
X257031904Y-63936571D01*
X257079523Y-64031809D01*
X257079523Y-64269904D01*
X257031904Y-64365142D01*
X256984285Y-64412761D01*
X256889047Y-64460380D01*
X256603333Y-64460380D01*
X256508095Y-64412761D01*
X256460476Y-64365142D01*
X249777476Y-61158380D02*
X249444142Y-60682190D01*
X249206047Y-61158380D02*
X249206047Y-60158380D01*
X249587000Y-60158380D01*
X249682238Y-60206000D01*
X249729857Y-60253619D01*
X249777476Y-60348857D01*
X249777476Y-60491714D01*
X249729857Y-60586952D01*
X249682238Y-60634571D01*
X249587000Y-60682190D01*
X249206047Y-60682190D01*
X249967952Y-61253619D02*
X250729857Y-61253619D01*
X250920333Y-61110761D02*
X251063190Y-61158380D01*
X251301285Y-61158380D01*
X251396523Y-61110761D01*
X251444142Y-61063142D01*
X251491761Y-60967904D01*
X251491761Y-60872666D01*
X251444142Y-60777428D01*
X251396523Y-60729809D01*
X251301285Y-60682190D01*
X251110809Y-60634571D01*
X251015571Y-60586952D01*
X250967952Y-60539333D01*
X250920333Y-60444095D01*
X250920333Y-60348857D01*
X250967952Y-60253619D01*
X251015571Y-60206000D01*
X251110809Y-60158380D01*
X251348904Y-60158380D01*
X251491761Y-60206000D01*
X251920333Y-61158380D02*
X251920333Y-60158380D01*
X252348904Y-61158380D02*
X252348904Y-60634571D01*
X252301285Y-60539333D01*
X252206047Y-60491714D01*
X252063190Y-60491714D01*
X251967952Y-60539333D01*
X251920333Y-60586952D01*
X252825095Y-61158380D02*
X252825095Y-60491714D01*
X252825095Y-60158380D02*
X252777476Y-60206000D01*
X252825095Y-60253619D01*
X252872714Y-60206000D01*
X252825095Y-60158380D01*
X252825095Y-60253619D01*
X253158428Y-60491714D02*
X253539380Y-60491714D01*
X253301285Y-61158380D02*
X253301285Y-60301238D01*
X253348904Y-60206000D01*
X253444142Y-60158380D01*
X253539380Y-60158380D01*
X253729857Y-60491714D02*
X254110809Y-60491714D01*
X253872714Y-60158380D02*
X253872714Y-61015523D01*
X253920333Y-61110761D01*
X254015571Y-61158380D01*
X254110809Y-61158380D01*
%TO.C,SW48*%
X243935476Y-83462761D02*
X244078333Y-83510380D01*
X244316428Y-83510380D01*
X244411666Y-83462761D01*
X244459285Y-83415142D01*
X244506904Y-83319904D01*
X244506904Y-83224666D01*
X244459285Y-83129428D01*
X244411666Y-83081809D01*
X244316428Y-83034190D01*
X244125952Y-82986571D01*
X244030714Y-82938952D01*
X243983095Y-82891333D01*
X243935476Y-82796095D01*
X243935476Y-82700857D01*
X243983095Y-82605619D01*
X244030714Y-82558000D01*
X244125952Y-82510380D01*
X244364047Y-82510380D01*
X244506904Y-82558000D01*
X244840238Y-82510380D02*
X245078333Y-83510380D01*
X245268809Y-82796095D01*
X245459285Y-83510380D01*
X245697380Y-82510380D01*
X246506904Y-82843714D02*
X246506904Y-83510380D01*
X246268809Y-82462761D02*
X246030714Y-83177047D01*
X246649761Y-83177047D01*
X247173571Y-82938952D02*
X247078333Y-82891333D01*
X247030714Y-82843714D01*
X246983095Y-82748476D01*
X246983095Y-82700857D01*
X247030714Y-82605619D01*
X247078333Y-82558000D01*
X247173571Y-82510380D01*
X247364047Y-82510380D01*
X247459285Y-82558000D01*
X247506904Y-82605619D01*
X247554523Y-82700857D01*
X247554523Y-82748476D01*
X247506904Y-82843714D01*
X247459285Y-82891333D01*
X247364047Y-82938952D01*
X247173571Y-82938952D01*
X247078333Y-82986571D01*
X247030714Y-83034190D01*
X246983095Y-83129428D01*
X246983095Y-83319904D01*
X247030714Y-83415142D01*
X247078333Y-83462761D01*
X247173571Y-83510380D01*
X247364047Y-83510380D01*
X247459285Y-83462761D01*
X247506904Y-83415142D01*
X247554523Y-83319904D01*
X247554523Y-83129428D01*
X247506904Y-83034190D01*
X247459285Y-82986571D01*
X247364047Y-82938952D01*
X241268428Y-80843380D02*
X240935095Y-80367190D01*
X240697000Y-80843380D02*
X240697000Y-79843380D01*
X241077952Y-79843380D01*
X241173190Y-79891000D01*
X241220809Y-79938619D01*
X241268428Y-80033857D01*
X241268428Y-80176714D01*
X241220809Y-80271952D01*
X241173190Y-80319571D01*
X241077952Y-80367190D01*
X240697000Y-80367190D01*
X241458904Y-80938619D02*
X242220809Y-80938619D01*
X243030333Y-80748142D02*
X242982714Y-80795761D01*
X242839857Y-80843380D01*
X242744619Y-80843380D01*
X242601761Y-80795761D01*
X242506523Y-80700523D01*
X242458904Y-80605285D01*
X242411285Y-80414809D01*
X242411285Y-80271952D01*
X242458904Y-80081476D01*
X242506523Y-79986238D01*
X242601761Y-79891000D01*
X242744619Y-79843380D01*
X242839857Y-79843380D01*
X242982714Y-79891000D01*
X243030333Y-79938619D01*
X243316047Y-80176714D02*
X243697000Y-80176714D01*
X243458904Y-79843380D02*
X243458904Y-80700523D01*
X243506523Y-80795761D01*
X243601761Y-80843380D01*
X243697000Y-80843380D01*
X244030333Y-80843380D02*
X244030333Y-80176714D01*
X244030333Y-80367190D02*
X244077952Y-80271952D01*
X244125571Y-80224333D01*
X244220809Y-80176714D01*
X244316047Y-80176714D01*
X244792238Y-80843380D02*
X244697000Y-80795761D01*
X244649380Y-80700523D01*
X244649380Y-79843380D01*
%TO.C,SW14*%
X29559476Y-83335761D02*
X29702333Y-83383380D01*
X29940428Y-83383380D01*
X30035666Y-83335761D01*
X30083285Y-83288142D01*
X30130904Y-83192904D01*
X30130904Y-83097666D01*
X30083285Y-83002428D01*
X30035666Y-82954809D01*
X29940428Y-82907190D01*
X29749952Y-82859571D01*
X29654714Y-82811952D01*
X29607095Y-82764333D01*
X29559476Y-82669095D01*
X29559476Y-82573857D01*
X29607095Y-82478619D01*
X29654714Y-82431000D01*
X29749952Y-82383380D01*
X29988047Y-82383380D01*
X30130904Y-82431000D01*
X30464238Y-82383380D02*
X30702333Y-83383380D01*
X30892809Y-82669095D01*
X31083285Y-83383380D01*
X31321380Y-82383380D01*
X32226142Y-83383380D02*
X31654714Y-83383380D01*
X31940428Y-83383380D02*
X31940428Y-82383380D01*
X31845190Y-82526238D01*
X31749952Y-82621476D01*
X31654714Y-82669095D01*
X33083285Y-82716714D02*
X33083285Y-83383380D01*
X32845190Y-82335761D02*
X32607095Y-83050047D01*
X33226142Y-83050047D01*
X26130523Y-80081380D02*
X25654333Y-80081380D01*
X25654333Y-79081380D01*
X26225761Y-80176619D02*
X26987666Y-80176619D01*
X27178142Y-80033761D02*
X27321000Y-80081380D01*
X27559095Y-80081380D01*
X27654333Y-80033761D01*
X27701952Y-79986142D01*
X27749571Y-79890904D01*
X27749571Y-79795666D01*
X27701952Y-79700428D01*
X27654333Y-79652809D01*
X27559095Y-79605190D01*
X27368619Y-79557571D01*
X27273380Y-79509952D01*
X27225761Y-79462333D01*
X27178142Y-79367095D01*
X27178142Y-79271857D01*
X27225761Y-79176619D01*
X27273380Y-79129000D01*
X27368619Y-79081380D01*
X27606714Y-79081380D01*
X27749571Y-79129000D01*
X28606714Y-79414714D02*
X28606714Y-80081380D01*
X28178142Y-79414714D02*
X28178142Y-79938523D01*
X28225761Y-80033761D01*
X28321000Y-80081380D01*
X28463857Y-80081380D01*
X28559095Y-80033761D01*
X28606714Y-79986142D01*
X29082904Y-79414714D02*
X29082904Y-80414714D01*
X29082904Y-79462333D02*
X29178142Y-79414714D01*
X29368619Y-79414714D01*
X29463857Y-79462333D01*
X29511476Y-79509952D01*
X29559095Y-79605190D01*
X29559095Y-79890904D01*
X29511476Y-79986142D01*
X29463857Y-80033761D01*
X29368619Y-80081380D01*
X29178142Y-80081380D01*
X29082904Y-80033761D01*
X30368619Y-80033761D02*
X30273380Y-80081380D01*
X30082904Y-80081380D01*
X29987666Y-80033761D01*
X29940047Y-79938523D01*
X29940047Y-79557571D01*
X29987666Y-79462333D01*
X30082904Y-79414714D01*
X30273380Y-79414714D01*
X30368619Y-79462333D01*
X30416238Y-79557571D01*
X30416238Y-79652809D01*
X29940047Y-79748047D01*
X30844809Y-80081380D02*
X30844809Y-79414714D01*
X30844809Y-79605190D02*
X30892428Y-79509952D01*
X30940047Y-79462333D01*
X31035285Y-79414714D01*
X31130523Y-79414714D01*
%TO.C,SW9*%
X54419666Y-83462761D02*
X54562523Y-83510380D01*
X54800619Y-83510380D01*
X54895857Y-83462761D01*
X54943476Y-83415142D01*
X54991095Y-83319904D01*
X54991095Y-83224666D01*
X54943476Y-83129428D01*
X54895857Y-83081809D01*
X54800619Y-83034190D01*
X54610142Y-82986571D01*
X54514904Y-82938952D01*
X54467285Y-82891333D01*
X54419666Y-82796095D01*
X54419666Y-82700857D01*
X54467285Y-82605619D01*
X54514904Y-82558000D01*
X54610142Y-82510380D01*
X54848238Y-82510380D01*
X54991095Y-82558000D01*
X55324428Y-82510380D02*
X55562523Y-83510380D01*
X55753000Y-82796095D01*
X55943476Y-83510380D01*
X56181571Y-82510380D01*
X56610142Y-83510380D02*
X56800619Y-83510380D01*
X56895857Y-83462761D01*
X56943476Y-83415142D01*
X57038714Y-83272285D01*
X57086333Y-83081809D01*
X57086333Y-82700857D01*
X57038714Y-82605619D01*
X56991095Y-82558000D01*
X56895857Y-82510380D01*
X56705380Y-82510380D01*
X56610142Y-82558000D01*
X56562523Y-82605619D01*
X56514904Y-82700857D01*
X56514904Y-82938952D01*
X56562523Y-83034190D01*
X56610142Y-83081809D01*
X56705380Y-83129428D01*
X56895857Y-83129428D01*
X56991095Y-83081809D01*
X57038714Y-83034190D01*
X57086333Y-82938952D01*
X51657380Y-80081380D02*
X51181190Y-80081380D01*
X51181190Y-79081380D01*
X51752619Y-80176619D02*
X52514523Y-80176619D01*
X52705000Y-79795666D02*
X53181190Y-79795666D01*
X52609761Y-80081380D02*
X52943095Y-79081380D01*
X53276428Y-80081380D01*
X53752619Y-80081380D02*
X53657380Y-80033761D01*
X53609761Y-79938523D01*
X53609761Y-79081380D01*
X53990714Y-79414714D02*
X54371666Y-79414714D01*
X54133571Y-79081380D02*
X54133571Y-79938523D01*
X54181190Y-80033761D01*
X54276428Y-80081380D01*
X54371666Y-80081380D01*
%TO.C,SW5*%
X15652916Y-64539761D02*
X15795773Y-64587380D01*
X16033869Y-64587380D01*
X16129107Y-64539761D01*
X16176726Y-64492142D01*
X16224345Y-64396904D01*
X16224345Y-64301666D01*
X16176726Y-64206428D01*
X16129107Y-64158809D01*
X16033869Y-64111190D01*
X15843392Y-64063571D01*
X15748154Y-64015952D01*
X15700535Y-63968333D01*
X15652916Y-63873095D01*
X15652916Y-63777857D01*
X15700535Y-63682619D01*
X15748154Y-63635000D01*
X15843392Y-63587380D01*
X16081488Y-63587380D01*
X16224345Y-63635000D01*
X16557678Y-63587380D02*
X16795773Y-64587380D01*
X16986250Y-63873095D01*
X17176726Y-64587380D01*
X17414821Y-63587380D01*
X18271964Y-63587380D02*
X17795773Y-63587380D01*
X17748154Y-64063571D01*
X17795773Y-64015952D01*
X17891011Y-63968333D01*
X18129107Y-63968333D01*
X18224345Y-64015952D01*
X18271964Y-64063571D01*
X18319583Y-64158809D01*
X18319583Y-64396904D01*
X18271964Y-64492142D01*
X18224345Y-64539761D01*
X18129107Y-64587380D01*
X17891011Y-64587380D01*
X17795773Y-64539761D01*
X17748154Y-64492142D01*
X11366726Y-62682380D02*
X10890535Y-62682380D01*
X10890535Y-61682380D01*
X11461964Y-62777619D02*
X12223869Y-62777619D01*
X12414345Y-62634761D02*
X12557202Y-62682380D01*
X12795297Y-62682380D01*
X12890535Y-62634761D01*
X12938154Y-62587142D01*
X12985773Y-62491904D01*
X12985773Y-62396666D01*
X12938154Y-62301428D01*
X12890535Y-62253809D01*
X12795297Y-62206190D01*
X12604821Y-62158571D01*
X12509583Y-62110952D01*
X12461964Y-62063333D01*
X12414345Y-61968095D01*
X12414345Y-61872857D01*
X12461964Y-61777619D01*
X12509583Y-61730000D01*
X12604821Y-61682380D01*
X12842916Y-61682380D01*
X12985773Y-61730000D01*
X13414345Y-62682380D02*
X13414345Y-61682380D01*
X13842916Y-62682380D02*
X13842916Y-62158571D01*
X13795297Y-62063333D01*
X13700059Y-62015714D01*
X13557202Y-62015714D01*
X13461964Y-62063333D01*
X13414345Y-62110952D01*
X14319107Y-62682380D02*
X14319107Y-62015714D01*
X14319107Y-61682380D02*
X14271488Y-61730000D01*
X14319107Y-61777619D01*
X14366726Y-61730000D01*
X14319107Y-61682380D01*
X14319107Y-61777619D01*
X14652440Y-62015714D02*
X15033392Y-62015714D01*
X14795297Y-62682380D02*
X14795297Y-61825238D01*
X14842916Y-61730000D01*
X14938154Y-61682380D01*
X15033392Y-61682380D01*
X15223869Y-62015714D02*
X15604821Y-62015714D01*
X15366726Y-61682380D02*
X15366726Y-62539523D01*
X15414345Y-62634761D01*
X15509583Y-62682380D01*
X15604821Y-62682380D01*
%TO.C,SW4*%
X6667666Y-83462761D02*
X6810523Y-83510380D01*
X7048619Y-83510380D01*
X7143857Y-83462761D01*
X7191476Y-83415142D01*
X7239095Y-83319904D01*
X7239095Y-83224666D01*
X7191476Y-83129428D01*
X7143857Y-83081809D01*
X7048619Y-83034190D01*
X6858142Y-82986571D01*
X6762904Y-82938952D01*
X6715285Y-82891333D01*
X6667666Y-82796095D01*
X6667666Y-82700857D01*
X6715285Y-82605619D01*
X6762904Y-82558000D01*
X6858142Y-82510380D01*
X7096238Y-82510380D01*
X7239095Y-82558000D01*
X7572428Y-82510380D02*
X7810523Y-83510380D01*
X8001000Y-82796095D01*
X8191476Y-83510380D01*
X8429571Y-82510380D01*
X9239095Y-82843714D02*
X9239095Y-83510380D01*
X9001000Y-82462761D02*
X8762904Y-83177047D01*
X9381952Y-83177047D01*
X2127428Y-80843380D02*
X1651238Y-80843380D01*
X1651238Y-79843380D01*
X2222666Y-80938619D02*
X2984571Y-80938619D01*
X3794095Y-80748142D02*
X3746476Y-80795761D01*
X3603619Y-80843380D01*
X3508380Y-80843380D01*
X3365523Y-80795761D01*
X3270285Y-80700523D01*
X3222666Y-80605285D01*
X3175047Y-80414809D01*
X3175047Y-80271952D01*
X3222666Y-80081476D01*
X3270285Y-79986238D01*
X3365523Y-79891000D01*
X3508380Y-79843380D01*
X3603619Y-79843380D01*
X3746476Y-79891000D01*
X3794095Y-79938619D01*
X4079809Y-80176714D02*
X4460761Y-80176714D01*
X4222666Y-79843380D02*
X4222666Y-80700523D01*
X4270285Y-80795761D01*
X4365523Y-80843380D01*
X4460761Y-80843380D01*
X4794095Y-80843380D02*
X4794095Y-80176714D01*
X4794095Y-80367190D02*
X4841714Y-80271952D01*
X4889333Y-80224333D01*
X4984571Y-80176714D01*
X5079809Y-80176714D01*
X5556000Y-80843380D02*
X5460761Y-80795761D01*
X5413142Y-80700523D01*
X5413142Y-79843380D01*
%TO.C,U1*%
X84963095Y-79970380D02*
X84963095Y-80779904D01*
X85010714Y-80875142D01*
X85058333Y-80922761D01*
X85153571Y-80970380D01*
X85344047Y-80970380D01*
X85439285Y-80922761D01*
X85486904Y-80875142D01*
X85534523Y-80779904D01*
X85534523Y-79970380D01*
X86534523Y-80970380D02*
X85963095Y-80970380D01*
X86248809Y-80970380D02*
X86248809Y-79970380D01*
X86153571Y-80113238D01*
X86058333Y-80208476D01*
X85963095Y-80256095D01*
%TO.C,SW59*%
X267589226Y-35964761D02*
X267732083Y-36012380D01*
X267970178Y-36012380D01*
X268065416Y-35964761D01*
X268113035Y-35917142D01*
X268160654Y-35821904D01*
X268160654Y-35726666D01*
X268113035Y-35631428D01*
X268065416Y-35583809D01*
X267970178Y-35536190D01*
X267779702Y-35488571D01*
X267684464Y-35440952D01*
X267636845Y-35393333D01*
X267589226Y-35298095D01*
X267589226Y-35202857D01*
X267636845Y-35107619D01*
X267684464Y-35060000D01*
X267779702Y-35012380D01*
X268017797Y-35012380D01*
X268160654Y-35060000D01*
X268493988Y-35012380D02*
X268732083Y-36012380D01*
X268922559Y-35298095D01*
X269113035Y-36012380D01*
X269351130Y-35012380D01*
X270208273Y-35012380D02*
X269732083Y-35012380D01*
X269684464Y-35488571D01*
X269732083Y-35440952D01*
X269827321Y-35393333D01*
X270065416Y-35393333D01*
X270160654Y-35440952D01*
X270208273Y-35488571D01*
X270255892Y-35583809D01*
X270255892Y-35821904D01*
X270208273Y-35917142D01*
X270160654Y-35964761D01*
X270065416Y-36012380D01*
X269827321Y-36012380D01*
X269732083Y-35964761D01*
X269684464Y-35917142D01*
X270732083Y-36012380D02*
X270922559Y-36012380D01*
X271017797Y-35964761D01*
X271065416Y-35917142D01*
X271160654Y-35774285D01*
X271208273Y-35583809D01*
X271208273Y-35202857D01*
X271160654Y-35107619D01*
X271113035Y-35060000D01*
X271017797Y-35012380D01*
X270827321Y-35012380D01*
X270732083Y-35060000D01*
X270684464Y-35107619D01*
X270636845Y-35202857D01*
X270636845Y-35440952D01*
X270684464Y-35536190D01*
X270732083Y-35583809D01*
X270827321Y-35631428D01*
X271017797Y-35631428D01*
X271113035Y-35583809D01*
X271160654Y-35536190D01*
X271208273Y-35440952D01*
X263898273Y-33583571D02*
X264231607Y-33583571D01*
X264374464Y-34107380D02*
X263898273Y-34107380D01*
X263898273Y-33107380D01*
X264374464Y-33107380D01*
X264803035Y-33440714D02*
X264803035Y-34107380D01*
X264803035Y-33535952D02*
X264850654Y-33488333D01*
X264945892Y-33440714D01*
X265088750Y-33440714D01*
X265183988Y-33488333D01*
X265231607Y-33583571D01*
X265231607Y-34107380D01*
X265564940Y-33440714D02*
X265945892Y-33440714D01*
X265707797Y-33107380D02*
X265707797Y-33964523D01*
X265755416Y-34059761D01*
X265850654Y-34107380D01*
X265945892Y-34107380D01*
X266660178Y-34059761D02*
X266564940Y-34107380D01*
X266374464Y-34107380D01*
X266279226Y-34059761D01*
X266231607Y-33964523D01*
X266231607Y-33583571D01*
X266279226Y-33488333D01*
X266374464Y-33440714D01*
X266564940Y-33440714D01*
X266660178Y-33488333D01*
X266707797Y-33583571D01*
X266707797Y-33678809D01*
X266231607Y-33774047D01*
X267136369Y-34107380D02*
X267136369Y-33440714D01*
X267136369Y-33631190D02*
X267183988Y-33535952D01*
X267231607Y-33488333D01*
X267326845Y-33440714D01*
X267422083Y-33440714D01*
%TO.C,SW58*%
X250920476Y-7389761D02*
X251063333Y-7437380D01*
X251301428Y-7437380D01*
X251396666Y-7389761D01*
X251444285Y-7342142D01*
X251491904Y-7246904D01*
X251491904Y-7151666D01*
X251444285Y-7056428D01*
X251396666Y-7008809D01*
X251301428Y-6961190D01*
X251110952Y-6913571D01*
X251015714Y-6865952D01*
X250968095Y-6818333D01*
X250920476Y-6723095D01*
X250920476Y-6627857D01*
X250968095Y-6532619D01*
X251015714Y-6485000D01*
X251110952Y-6437380D01*
X251349047Y-6437380D01*
X251491904Y-6485000D01*
X251825238Y-6437380D02*
X252063333Y-7437380D01*
X252253809Y-6723095D01*
X252444285Y-7437380D01*
X252682380Y-6437380D01*
X253539523Y-6437380D02*
X253063333Y-6437380D01*
X253015714Y-6913571D01*
X253063333Y-6865952D01*
X253158571Y-6818333D01*
X253396666Y-6818333D01*
X253491904Y-6865952D01*
X253539523Y-6913571D01*
X253587142Y-7008809D01*
X253587142Y-7246904D01*
X253539523Y-7342142D01*
X253491904Y-7389761D01*
X253396666Y-7437380D01*
X253158571Y-7437380D01*
X253063333Y-7389761D01*
X253015714Y-7342142D01*
X254158571Y-6865952D02*
X254063333Y-6818333D01*
X254015714Y-6770714D01*
X253968095Y-6675476D01*
X253968095Y-6627857D01*
X254015714Y-6532619D01*
X254063333Y-6485000D01*
X254158571Y-6437380D01*
X254349047Y-6437380D01*
X254444285Y-6485000D01*
X254491904Y-6532619D01*
X254539523Y-6627857D01*
X254539523Y-6675476D01*
X254491904Y-6770714D01*
X254444285Y-6818333D01*
X254349047Y-6865952D01*
X254158571Y-6865952D01*
X254063333Y-6913571D01*
X254015714Y-6961190D01*
X253968095Y-7056428D01*
X253968095Y-7246904D01*
X254015714Y-7342142D01*
X254063333Y-7389761D01*
X254158571Y-7437380D01*
X254349047Y-7437380D01*
X254444285Y-7389761D01*
X254491904Y-7342142D01*
X254539523Y-7246904D01*
X254539523Y-7056428D01*
X254491904Y-6961190D01*
X254444285Y-6913571D01*
X254349047Y-6865952D01*
X247698047Y-5008571D02*
X247840904Y-5056190D01*
X247888523Y-5103809D01*
X247936142Y-5199047D01*
X247936142Y-5341904D01*
X247888523Y-5437142D01*
X247840904Y-5484761D01*
X247745666Y-5532380D01*
X247364714Y-5532380D01*
X247364714Y-4532380D01*
X247698047Y-4532380D01*
X247793285Y-4580000D01*
X247840904Y-4627619D01*
X247888523Y-4722857D01*
X247888523Y-4818095D01*
X247840904Y-4913333D01*
X247793285Y-4960952D01*
X247698047Y-5008571D01*
X247364714Y-5008571D01*
X248793285Y-5532380D02*
X248793285Y-5008571D01*
X248745666Y-4913333D01*
X248650428Y-4865714D01*
X248459952Y-4865714D01*
X248364714Y-4913333D01*
X248793285Y-5484761D02*
X248698047Y-5532380D01*
X248459952Y-5532380D01*
X248364714Y-5484761D01*
X248317095Y-5389523D01*
X248317095Y-5294285D01*
X248364714Y-5199047D01*
X248459952Y-5151428D01*
X248698047Y-5151428D01*
X248793285Y-5103809D01*
X249698047Y-5484761D02*
X249602809Y-5532380D01*
X249412333Y-5532380D01*
X249317095Y-5484761D01*
X249269476Y-5437142D01*
X249221857Y-5341904D01*
X249221857Y-5056190D01*
X249269476Y-4960952D01*
X249317095Y-4913333D01*
X249412333Y-4865714D01*
X249602809Y-4865714D01*
X249698047Y-4913333D01*
X250126619Y-5532380D02*
X250126619Y-4532380D01*
X250221857Y-5151428D02*
X250507571Y-5532380D01*
X250507571Y-4865714D02*
X250126619Y-5246666D01*
X250888523Y-5484761D02*
X250983761Y-5532380D01*
X251174238Y-5532380D01*
X251269476Y-5484761D01*
X251317095Y-5389523D01*
X251317095Y-5341904D01*
X251269476Y-5246666D01*
X251174238Y-5199047D01*
X251031380Y-5199047D01*
X250936142Y-5151428D01*
X250888523Y-5056190D01*
X250888523Y-5008571D01*
X250936142Y-4913333D01*
X251031380Y-4865714D01*
X251174238Y-4865714D01*
X251269476Y-4913333D01*
X251745666Y-4865714D02*
X251745666Y-5865714D01*
X251745666Y-4913333D02*
X251840904Y-4865714D01*
X252031380Y-4865714D01*
X252126619Y-4913333D01*
X252174238Y-4960952D01*
X252221857Y-5056190D01*
X252221857Y-5341904D01*
X252174238Y-5437142D01*
X252126619Y-5484761D01*
X252031380Y-5532380D01*
X251840904Y-5532380D01*
X251745666Y-5484761D01*
X253079000Y-5532380D02*
X253079000Y-5008571D01*
X253031380Y-4913333D01*
X252936142Y-4865714D01*
X252745666Y-4865714D01*
X252650428Y-4913333D01*
X253079000Y-5484761D02*
X252983761Y-5532380D01*
X252745666Y-5532380D01*
X252650428Y-5484761D01*
X252602809Y-5389523D01*
X252602809Y-5294285D01*
X252650428Y-5199047D01*
X252745666Y-5151428D01*
X252983761Y-5151428D01*
X253079000Y-5103809D01*
X253983761Y-5484761D02*
X253888523Y-5532380D01*
X253698047Y-5532380D01*
X253602809Y-5484761D01*
X253555190Y-5437142D01*
X253507571Y-5341904D01*
X253507571Y-5056190D01*
X253555190Y-4960952D01*
X253602809Y-4913333D01*
X253698047Y-4865714D01*
X253888523Y-4865714D01*
X253983761Y-4913333D01*
X254793285Y-5484761D02*
X254698047Y-5532380D01*
X254507571Y-5532380D01*
X254412333Y-5484761D01*
X254364714Y-5389523D01*
X254364714Y-5008571D01*
X254412333Y-4913333D01*
X254507571Y-4865714D01*
X254698047Y-4865714D01*
X254793285Y-4913333D01*
X254840904Y-5008571D01*
X254840904Y-5103809D01*
X254364714Y-5199047D01*
%TO.C,SW56*%
X246157976Y-45489761D02*
X246300833Y-45537380D01*
X246538928Y-45537380D01*
X246634166Y-45489761D01*
X246681785Y-45442142D01*
X246729404Y-45346904D01*
X246729404Y-45251666D01*
X246681785Y-45156428D01*
X246634166Y-45108809D01*
X246538928Y-45061190D01*
X246348452Y-45013571D01*
X246253214Y-44965952D01*
X246205595Y-44918333D01*
X246157976Y-44823095D01*
X246157976Y-44727857D01*
X246205595Y-44632619D01*
X246253214Y-44585000D01*
X246348452Y-44537380D01*
X246586547Y-44537380D01*
X246729404Y-44585000D01*
X247062738Y-44537380D02*
X247300833Y-45537380D01*
X247491309Y-44823095D01*
X247681785Y-45537380D01*
X247919880Y-44537380D01*
X248777023Y-44537380D02*
X248300833Y-44537380D01*
X248253214Y-45013571D01*
X248300833Y-44965952D01*
X248396071Y-44918333D01*
X248634166Y-44918333D01*
X248729404Y-44965952D01*
X248777023Y-45013571D01*
X248824642Y-45108809D01*
X248824642Y-45346904D01*
X248777023Y-45442142D01*
X248729404Y-45489761D01*
X248634166Y-45537380D01*
X248396071Y-45537380D01*
X248300833Y-45489761D01*
X248253214Y-45442142D01*
X249681785Y-44537380D02*
X249491309Y-44537380D01*
X249396071Y-44585000D01*
X249348452Y-44632619D01*
X249253214Y-44775476D01*
X249205595Y-44965952D01*
X249205595Y-45346904D01*
X249253214Y-45442142D01*
X249300833Y-45489761D01*
X249396071Y-45537380D01*
X249586547Y-45537380D01*
X249681785Y-45489761D01*
X249729404Y-45442142D01*
X249777023Y-45346904D01*
X249777023Y-45108809D01*
X249729404Y-45013571D01*
X249681785Y-44965952D01*
X249586547Y-44918333D01*
X249396071Y-44918333D01*
X249300833Y-44965952D01*
X249253214Y-45013571D01*
X249205595Y-45108809D01*
X243728928Y-42537142D02*
X244586071Y-43822857D01*
%TO.C,SW55*%
X241395476Y-26439761D02*
X241538333Y-26487380D01*
X241776428Y-26487380D01*
X241871666Y-26439761D01*
X241919285Y-26392142D01*
X241966904Y-26296904D01*
X241966904Y-26201666D01*
X241919285Y-26106428D01*
X241871666Y-26058809D01*
X241776428Y-26011190D01*
X241585952Y-25963571D01*
X241490714Y-25915952D01*
X241443095Y-25868333D01*
X241395476Y-25773095D01*
X241395476Y-25677857D01*
X241443095Y-25582619D01*
X241490714Y-25535000D01*
X241585952Y-25487380D01*
X241824047Y-25487380D01*
X241966904Y-25535000D01*
X242300238Y-25487380D02*
X242538333Y-26487380D01*
X242728809Y-25773095D01*
X242919285Y-26487380D01*
X243157380Y-25487380D01*
X244014523Y-25487380D02*
X243538333Y-25487380D01*
X243490714Y-25963571D01*
X243538333Y-25915952D01*
X243633571Y-25868333D01*
X243871666Y-25868333D01*
X243966904Y-25915952D01*
X244014523Y-25963571D01*
X244062142Y-26058809D01*
X244062142Y-26296904D01*
X244014523Y-26392142D01*
X243966904Y-26439761D01*
X243871666Y-26487380D01*
X243633571Y-26487380D01*
X243538333Y-26439761D01*
X243490714Y-26392142D01*
X244966904Y-25487380D02*
X244490714Y-25487380D01*
X244443095Y-25963571D01*
X244490714Y-25915952D01*
X244585952Y-25868333D01*
X244824047Y-25868333D01*
X244919285Y-25915952D01*
X244966904Y-25963571D01*
X245014523Y-26058809D01*
X245014523Y-26296904D01*
X244966904Y-26392142D01*
X244919285Y-26439761D01*
X244824047Y-26487380D01*
X244585952Y-26487380D01*
X244490714Y-26439761D01*
X244443095Y-26392142D01*
X239204523Y-24915714D02*
X239442619Y-24915714D01*
X239442619Y-23487142D01*
X239204523Y-23487142D01*
%TO.C,SW54*%
X231870476Y-7389761D02*
X232013333Y-7437380D01*
X232251428Y-7437380D01*
X232346666Y-7389761D01*
X232394285Y-7342142D01*
X232441904Y-7246904D01*
X232441904Y-7151666D01*
X232394285Y-7056428D01*
X232346666Y-7008809D01*
X232251428Y-6961190D01*
X232060952Y-6913571D01*
X231965714Y-6865952D01*
X231918095Y-6818333D01*
X231870476Y-6723095D01*
X231870476Y-6627857D01*
X231918095Y-6532619D01*
X231965714Y-6485000D01*
X232060952Y-6437380D01*
X232299047Y-6437380D01*
X232441904Y-6485000D01*
X232775238Y-6437380D02*
X233013333Y-7437380D01*
X233203809Y-6723095D01*
X233394285Y-7437380D01*
X233632380Y-6437380D01*
X234489523Y-6437380D02*
X234013333Y-6437380D01*
X233965714Y-6913571D01*
X234013333Y-6865952D01*
X234108571Y-6818333D01*
X234346666Y-6818333D01*
X234441904Y-6865952D01*
X234489523Y-6913571D01*
X234537142Y-7008809D01*
X234537142Y-7246904D01*
X234489523Y-7342142D01*
X234441904Y-7389761D01*
X234346666Y-7437380D01*
X234108571Y-7437380D01*
X234013333Y-7389761D01*
X233965714Y-7342142D01*
X235394285Y-6770714D02*
X235394285Y-7437380D01*
X235156190Y-6389761D02*
X234918095Y-7104047D01*
X235537142Y-7104047D01*
X229489047Y-5008571D02*
X230250952Y-5008571D01*
X230250952Y-5294285D02*
X229489047Y-5294285D01*
%TO.C,SW52*%
X217582976Y-64539761D02*
X217725833Y-64587380D01*
X217963928Y-64587380D01*
X218059166Y-64539761D01*
X218106785Y-64492142D01*
X218154404Y-64396904D01*
X218154404Y-64301666D01*
X218106785Y-64206428D01*
X218059166Y-64158809D01*
X217963928Y-64111190D01*
X217773452Y-64063571D01*
X217678214Y-64015952D01*
X217630595Y-63968333D01*
X217582976Y-63873095D01*
X217582976Y-63777857D01*
X217630595Y-63682619D01*
X217678214Y-63635000D01*
X217773452Y-63587380D01*
X218011547Y-63587380D01*
X218154404Y-63635000D01*
X218487738Y-63587380D02*
X218725833Y-64587380D01*
X218916309Y-63873095D01*
X219106785Y-64587380D01*
X219344880Y-63587380D01*
X220202023Y-63587380D02*
X219725833Y-63587380D01*
X219678214Y-64063571D01*
X219725833Y-64015952D01*
X219821071Y-63968333D01*
X220059166Y-63968333D01*
X220154404Y-64015952D01*
X220202023Y-64063571D01*
X220249642Y-64158809D01*
X220249642Y-64396904D01*
X220202023Y-64492142D01*
X220154404Y-64539761D01*
X220059166Y-64587380D01*
X219821071Y-64587380D01*
X219725833Y-64539761D01*
X219678214Y-64492142D01*
X220630595Y-63682619D02*
X220678214Y-63635000D01*
X220773452Y-63587380D01*
X221011547Y-63587380D01*
X221106785Y-63635000D01*
X221154404Y-63682619D01*
X221202023Y-63777857D01*
X221202023Y-63873095D01*
X221154404Y-64015952D01*
X220582976Y-64587380D01*
X221202023Y-64587380D01*
X216011071Y-61634761D02*
X215153928Y-62920476D01*
%TO.C,SW51*%
X227107976Y-45489761D02*
X227250833Y-45537380D01*
X227488928Y-45537380D01*
X227584166Y-45489761D01*
X227631785Y-45442142D01*
X227679404Y-45346904D01*
X227679404Y-45251666D01*
X227631785Y-45156428D01*
X227584166Y-45108809D01*
X227488928Y-45061190D01*
X227298452Y-45013571D01*
X227203214Y-44965952D01*
X227155595Y-44918333D01*
X227107976Y-44823095D01*
X227107976Y-44727857D01*
X227155595Y-44632619D01*
X227203214Y-44585000D01*
X227298452Y-44537380D01*
X227536547Y-44537380D01*
X227679404Y-44585000D01*
X228012738Y-44537380D02*
X228250833Y-45537380D01*
X228441309Y-44823095D01*
X228631785Y-45537380D01*
X228869880Y-44537380D01*
X229727023Y-44537380D02*
X229250833Y-44537380D01*
X229203214Y-45013571D01*
X229250833Y-44965952D01*
X229346071Y-44918333D01*
X229584166Y-44918333D01*
X229679404Y-44965952D01*
X229727023Y-45013571D01*
X229774642Y-45108809D01*
X229774642Y-45346904D01*
X229727023Y-45442142D01*
X229679404Y-45489761D01*
X229584166Y-45537380D01*
X229346071Y-45537380D01*
X229250833Y-45489761D01*
X229203214Y-45442142D01*
X230727023Y-45537380D02*
X230155595Y-45537380D01*
X230441309Y-45537380D02*
X230441309Y-44537380D01*
X230346071Y-44680238D01*
X230250833Y-44775476D01*
X230155595Y-44823095D01*
X225155119Y-42632380D02*
X225059880Y-42822857D01*
%TO.C,SW50*%
X222345476Y-26439761D02*
X222488333Y-26487380D01*
X222726428Y-26487380D01*
X222821666Y-26439761D01*
X222869285Y-26392142D01*
X222916904Y-26296904D01*
X222916904Y-26201666D01*
X222869285Y-26106428D01*
X222821666Y-26058809D01*
X222726428Y-26011190D01*
X222535952Y-25963571D01*
X222440714Y-25915952D01*
X222393095Y-25868333D01*
X222345476Y-25773095D01*
X222345476Y-25677857D01*
X222393095Y-25582619D01*
X222440714Y-25535000D01*
X222535952Y-25487380D01*
X222774047Y-25487380D01*
X222916904Y-25535000D01*
X223250238Y-25487380D02*
X223488333Y-26487380D01*
X223678809Y-25773095D01*
X223869285Y-26487380D01*
X224107380Y-25487380D01*
X224964523Y-25487380D02*
X224488333Y-25487380D01*
X224440714Y-25963571D01*
X224488333Y-25915952D01*
X224583571Y-25868333D01*
X224821666Y-25868333D01*
X224916904Y-25915952D01*
X224964523Y-25963571D01*
X225012142Y-26058809D01*
X225012142Y-26296904D01*
X224964523Y-26392142D01*
X224916904Y-26439761D01*
X224821666Y-26487380D01*
X224583571Y-26487380D01*
X224488333Y-26439761D01*
X224440714Y-26392142D01*
X225631190Y-25487380D02*
X225726428Y-25487380D01*
X225821666Y-25535000D01*
X225869285Y-25582619D01*
X225916904Y-25677857D01*
X225964523Y-25868333D01*
X225964523Y-26106428D01*
X225916904Y-26296904D01*
X225869285Y-26392142D01*
X225821666Y-26439761D01*
X225726428Y-26487380D01*
X225631190Y-26487380D01*
X225535952Y-26439761D01*
X225488333Y-26392142D01*
X225440714Y-26296904D01*
X225393095Y-26106428D01*
X225393095Y-25868333D01*
X225440714Y-25677857D01*
X225488333Y-25582619D01*
X225535952Y-25535000D01*
X225631190Y-25487380D01*
X220535476Y-24915714D02*
X220297380Y-24915714D01*
X220297380Y-23487142D01*
X220535476Y-23487142D01*
%TO.C,SW49*%
X212820476Y-7389761D02*
X212963333Y-7437380D01*
X213201428Y-7437380D01*
X213296666Y-7389761D01*
X213344285Y-7342142D01*
X213391904Y-7246904D01*
X213391904Y-7151666D01*
X213344285Y-7056428D01*
X213296666Y-7008809D01*
X213201428Y-6961190D01*
X213010952Y-6913571D01*
X212915714Y-6865952D01*
X212868095Y-6818333D01*
X212820476Y-6723095D01*
X212820476Y-6627857D01*
X212868095Y-6532619D01*
X212915714Y-6485000D01*
X213010952Y-6437380D01*
X213249047Y-6437380D01*
X213391904Y-6485000D01*
X213725238Y-6437380D02*
X213963333Y-7437380D01*
X214153809Y-6723095D01*
X214344285Y-7437380D01*
X214582380Y-6437380D01*
X215391904Y-6770714D02*
X215391904Y-7437380D01*
X215153809Y-6389761D02*
X214915714Y-7104047D01*
X215534761Y-7104047D01*
X215963333Y-7437380D02*
X216153809Y-7437380D01*
X216249047Y-7389761D01*
X216296666Y-7342142D01*
X216391904Y-7199285D01*
X216439523Y-7008809D01*
X216439523Y-6627857D01*
X216391904Y-6532619D01*
X216344285Y-6485000D01*
X216249047Y-6437380D01*
X216058571Y-6437380D01*
X215963333Y-6485000D01*
X215915714Y-6532619D01*
X215868095Y-6627857D01*
X215868095Y-6865952D01*
X215915714Y-6961190D01*
X215963333Y-7008809D01*
X216058571Y-7056428D01*
X216249047Y-7056428D01*
X216344285Y-7008809D01*
X216391904Y-6961190D01*
X216439523Y-6865952D01*
X210439047Y-5151428D02*
X211200952Y-5151428D01*
%TO.C,SW47*%
X198532976Y-64539761D02*
X198675833Y-64587380D01*
X198913928Y-64587380D01*
X199009166Y-64539761D01*
X199056785Y-64492142D01*
X199104404Y-64396904D01*
X199104404Y-64301666D01*
X199056785Y-64206428D01*
X199009166Y-64158809D01*
X198913928Y-64111190D01*
X198723452Y-64063571D01*
X198628214Y-64015952D01*
X198580595Y-63968333D01*
X198532976Y-63873095D01*
X198532976Y-63777857D01*
X198580595Y-63682619D01*
X198628214Y-63635000D01*
X198723452Y-63587380D01*
X198961547Y-63587380D01*
X199104404Y-63635000D01*
X199437738Y-63587380D02*
X199675833Y-64587380D01*
X199866309Y-63873095D01*
X200056785Y-64587380D01*
X200294880Y-63587380D01*
X201104404Y-63920714D02*
X201104404Y-64587380D01*
X200866309Y-63539761D02*
X200628214Y-64254047D01*
X201247261Y-64254047D01*
X201532976Y-63587380D02*
X202199642Y-63587380D01*
X201771071Y-64587380D01*
X196532500Y-62587142D02*
X196580119Y-62634761D01*
X196532500Y-62682380D01*
X196484880Y-62634761D01*
X196532500Y-62587142D01*
X196532500Y-62682380D01*
%TO.C,SW46*%
X208057976Y-45489761D02*
X208200833Y-45537380D01*
X208438928Y-45537380D01*
X208534166Y-45489761D01*
X208581785Y-45442142D01*
X208629404Y-45346904D01*
X208629404Y-45251666D01*
X208581785Y-45156428D01*
X208534166Y-45108809D01*
X208438928Y-45061190D01*
X208248452Y-45013571D01*
X208153214Y-44965952D01*
X208105595Y-44918333D01*
X208057976Y-44823095D01*
X208057976Y-44727857D01*
X208105595Y-44632619D01*
X208153214Y-44585000D01*
X208248452Y-44537380D01*
X208486547Y-44537380D01*
X208629404Y-44585000D01*
X208962738Y-44537380D02*
X209200833Y-45537380D01*
X209391309Y-44823095D01*
X209581785Y-45537380D01*
X209819880Y-44537380D01*
X210629404Y-44870714D02*
X210629404Y-45537380D01*
X210391309Y-44489761D02*
X210153214Y-45204047D01*
X210772261Y-45204047D01*
X211581785Y-44537380D02*
X211391309Y-44537380D01*
X211296071Y-44585000D01*
X211248452Y-44632619D01*
X211153214Y-44775476D01*
X211105595Y-44965952D01*
X211105595Y-45346904D01*
X211153214Y-45442142D01*
X211200833Y-45489761D01*
X211296071Y-45537380D01*
X211486547Y-45537380D01*
X211581785Y-45489761D01*
X211629404Y-45442142D01*
X211677023Y-45346904D01*
X211677023Y-45108809D01*
X211629404Y-45013571D01*
X211581785Y-44965952D01*
X211486547Y-44918333D01*
X211296071Y-44918333D01*
X211200833Y-44965952D01*
X211153214Y-45013571D01*
X211105595Y-45108809D01*
X206105119Y-43584761D02*
X206105119Y-43632380D01*
X206057500Y-43727619D01*
X206009880Y-43775238D01*
X206057500Y-43013333D02*
X206105119Y-43060952D01*
X206057500Y-43108571D01*
X206009880Y-43060952D01*
X206057500Y-43013333D01*
X206057500Y-43108571D01*
%TO.C,SW45*%
X203295476Y-26439761D02*
X203438333Y-26487380D01*
X203676428Y-26487380D01*
X203771666Y-26439761D01*
X203819285Y-26392142D01*
X203866904Y-26296904D01*
X203866904Y-26201666D01*
X203819285Y-26106428D01*
X203771666Y-26058809D01*
X203676428Y-26011190D01*
X203485952Y-25963571D01*
X203390714Y-25915952D01*
X203343095Y-25868333D01*
X203295476Y-25773095D01*
X203295476Y-25677857D01*
X203343095Y-25582619D01*
X203390714Y-25535000D01*
X203485952Y-25487380D01*
X203724047Y-25487380D01*
X203866904Y-25535000D01*
X204200238Y-25487380D02*
X204438333Y-26487380D01*
X204628809Y-25773095D01*
X204819285Y-26487380D01*
X205057380Y-25487380D01*
X205866904Y-25820714D02*
X205866904Y-26487380D01*
X205628809Y-25439761D02*
X205390714Y-26154047D01*
X206009761Y-26154047D01*
X206866904Y-25487380D02*
X206390714Y-25487380D01*
X206343095Y-25963571D01*
X206390714Y-25915952D01*
X206485952Y-25868333D01*
X206724047Y-25868333D01*
X206819285Y-25915952D01*
X206866904Y-25963571D01*
X206914523Y-26058809D01*
X206914523Y-26296904D01*
X206866904Y-26392142D01*
X206819285Y-26439761D01*
X206724047Y-26487380D01*
X206485952Y-26487380D01*
X206390714Y-26439761D01*
X206343095Y-26392142D01*
X201033095Y-24582380D02*
X201033095Y-23582380D01*
X201414047Y-23582380D01*
X201509285Y-23630000D01*
X201556904Y-23677619D01*
X201604523Y-23772857D01*
X201604523Y-23915714D01*
X201556904Y-24010952D01*
X201509285Y-24058571D01*
X201414047Y-24106190D01*
X201033095Y-24106190D01*
%TO.C,SW44*%
X193770476Y-7389761D02*
X193913333Y-7437380D01*
X194151428Y-7437380D01*
X194246666Y-7389761D01*
X194294285Y-7342142D01*
X194341904Y-7246904D01*
X194341904Y-7151666D01*
X194294285Y-7056428D01*
X194246666Y-7008809D01*
X194151428Y-6961190D01*
X193960952Y-6913571D01*
X193865714Y-6865952D01*
X193818095Y-6818333D01*
X193770476Y-6723095D01*
X193770476Y-6627857D01*
X193818095Y-6532619D01*
X193865714Y-6485000D01*
X193960952Y-6437380D01*
X194199047Y-6437380D01*
X194341904Y-6485000D01*
X194675238Y-6437380D02*
X194913333Y-7437380D01*
X195103809Y-6723095D01*
X195294285Y-7437380D01*
X195532380Y-6437380D01*
X196341904Y-6770714D02*
X196341904Y-7437380D01*
X196103809Y-6389761D02*
X195865714Y-7104047D01*
X196484761Y-7104047D01*
X197294285Y-6770714D02*
X197294285Y-7437380D01*
X197056190Y-6389761D02*
X196818095Y-7104047D01*
X197437142Y-7104047D01*
X191722380Y-4532380D02*
X191817619Y-4532380D01*
X191912857Y-4580000D01*
X191960476Y-4627619D01*
X192008095Y-4722857D01*
X192055714Y-4913333D01*
X192055714Y-5151428D01*
X192008095Y-5341904D01*
X191960476Y-5437142D01*
X191912857Y-5484761D01*
X191817619Y-5532380D01*
X191722380Y-5532380D01*
X191627142Y-5484761D01*
X191579523Y-5437142D01*
X191531904Y-5341904D01*
X191484285Y-5151428D01*
X191484285Y-4913333D01*
X191531904Y-4722857D01*
X191579523Y-4627619D01*
X191627142Y-4580000D01*
X191722380Y-4532380D01*
%TO.C,SW43*%
X179482976Y-64539761D02*
X179625833Y-64587380D01*
X179863928Y-64587380D01*
X179959166Y-64539761D01*
X180006785Y-64492142D01*
X180054404Y-64396904D01*
X180054404Y-64301666D01*
X180006785Y-64206428D01*
X179959166Y-64158809D01*
X179863928Y-64111190D01*
X179673452Y-64063571D01*
X179578214Y-64015952D01*
X179530595Y-63968333D01*
X179482976Y-63873095D01*
X179482976Y-63777857D01*
X179530595Y-63682619D01*
X179578214Y-63635000D01*
X179673452Y-63587380D01*
X179911547Y-63587380D01*
X180054404Y-63635000D01*
X180387738Y-63587380D02*
X180625833Y-64587380D01*
X180816309Y-63873095D01*
X181006785Y-64587380D01*
X181244880Y-63587380D01*
X182054404Y-63920714D02*
X182054404Y-64587380D01*
X181816309Y-63539761D02*
X181578214Y-64254047D01*
X182197261Y-64254047D01*
X182482976Y-63587380D02*
X183102023Y-63587380D01*
X182768690Y-63968333D01*
X182911547Y-63968333D01*
X183006785Y-64015952D01*
X183054404Y-64063571D01*
X183102023Y-64158809D01*
X183102023Y-64396904D01*
X183054404Y-64492142D01*
X183006785Y-64539761D01*
X182911547Y-64587380D01*
X182625833Y-64587380D01*
X182530595Y-64539761D01*
X182482976Y-64492142D01*
X177530119Y-62634761D02*
X177530119Y-62682380D01*
X177482500Y-62777619D01*
X177434880Y-62825238D01*
%TO.C,SW42*%
X189007976Y-45489761D02*
X189150833Y-45537380D01*
X189388928Y-45537380D01*
X189484166Y-45489761D01*
X189531785Y-45442142D01*
X189579404Y-45346904D01*
X189579404Y-45251666D01*
X189531785Y-45156428D01*
X189484166Y-45108809D01*
X189388928Y-45061190D01*
X189198452Y-45013571D01*
X189103214Y-44965952D01*
X189055595Y-44918333D01*
X189007976Y-44823095D01*
X189007976Y-44727857D01*
X189055595Y-44632619D01*
X189103214Y-44585000D01*
X189198452Y-44537380D01*
X189436547Y-44537380D01*
X189579404Y-44585000D01*
X189912738Y-44537380D02*
X190150833Y-45537380D01*
X190341309Y-44823095D01*
X190531785Y-45537380D01*
X190769880Y-44537380D01*
X191579404Y-44870714D02*
X191579404Y-45537380D01*
X191341309Y-44489761D02*
X191103214Y-45204047D01*
X191722261Y-45204047D01*
X192055595Y-44632619D02*
X192103214Y-44585000D01*
X192198452Y-44537380D01*
X192436547Y-44537380D01*
X192531785Y-44585000D01*
X192579404Y-44632619D01*
X192627023Y-44727857D01*
X192627023Y-44823095D01*
X192579404Y-44965952D01*
X192007976Y-45537380D01*
X192627023Y-45537380D01*
X187317023Y-43632380D02*
X186840833Y-43632380D01*
X186840833Y-42632380D01*
%TO.C,SW41*%
X184245476Y-26439761D02*
X184388333Y-26487380D01*
X184626428Y-26487380D01*
X184721666Y-26439761D01*
X184769285Y-26392142D01*
X184816904Y-26296904D01*
X184816904Y-26201666D01*
X184769285Y-26106428D01*
X184721666Y-26058809D01*
X184626428Y-26011190D01*
X184435952Y-25963571D01*
X184340714Y-25915952D01*
X184293095Y-25868333D01*
X184245476Y-25773095D01*
X184245476Y-25677857D01*
X184293095Y-25582619D01*
X184340714Y-25535000D01*
X184435952Y-25487380D01*
X184674047Y-25487380D01*
X184816904Y-25535000D01*
X185150238Y-25487380D02*
X185388333Y-26487380D01*
X185578809Y-25773095D01*
X185769285Y-26487380D01*
X186007380Y-25487380D01*
X186816904Y-25820714D02*
X186816904Y-26487380D01*
X186578809Y-25439761D02*
X186340714Y-26154047D01*
X186959761Y-26154047D01*
X187864523Y-26487380D02*
X187293095Y-26487380D01*
X187578809Y-26487380D02*
X187578809Y-25487380D01*
X187483571Y-25630238D01*
X187388333Y-25725476D01*
X187293095Y-25773095D01*
X182149761Y-23582380D02*
X182340238Y-23582380D01*
X182435476Y-23630000D01*
X182530714Y-23725238D01*
X182578333Y-23915714D01*
X182578333Y-24249047D01*
X182530714Y-24439523D01*
X182435476Y-24534761D01*
X182340238Y-24582380D01*
X182149761Y-24582380D01*
X182054523Y-24534761D01*
X181959285Y-24439523D01*
X181911666Y-24249047D01*
X181911666Y-23915714D01*
X181959285Y-23725238D01*
X182054523Y-23630000D01*
X182149761Y-23582380D01*
%TO.C,SW40*%
X174720476Y-7389761D02*
X174863333Y-7437380D01*
X175101428Y-7437380D01*
X175196666Y-7389761D01*
X175244285Y-7342142D01*
X175291904Y-7246904D01*
X175291904Y-7151666D01*
X175244285Y-7056428D01*
X175196666Y-7008809D01*
X175101428Y-6961190D01*
X174910952Y-6913571D01*
X174815714Y-6865952D01*
X174768095Y-6818333D01*
X174720476Y-6723095D01*
X174720476Y-6627857D01*
X174768095Y-6532619D01*
X174815714Y-6485000D01*
X174910952Y-6437380D01*
X175149047Y-6437380D01*
X175291904Y-6485000D01*
X175625238Y-6437380D02*
X175863333Y-7437380D01*
X176053809Y-6723095D01*
X176244285Y-7437380D01*
X176482380Y-6437380D01*
X177291904Y-6770714D02*
X177291904Y-7437380D01*
X177053809Y-6389761D02*
X176815714Y-7104047D01*
X177434761Y-7104047D01*
X178006190Y-6437380D02*
X178101428Y-6437380D01*
X178196666Y-6485000D01*
X178244285Y-6532619D01*
X178291904Y-6627857D01*
X178339523Y-6818333D01*
X178339523Y-7056428D01*
X178291904Y-7246904D01*
X178244285Y-7342142D01*
X178196666Y-7389761D01*
X178101428Y-7437380D01*
X178006190Y-7437380D01*
X177910952Y-7389761D01*
X177863333Y-7342142D01*
X177815714Y-7246904D01*
X177768095Y-7056428D01*
X177768095Y-6818333D01*
X177815714Y-6627857D01*
X177863333Y-6532619D01*
X177910952Y-6485000D01*
X178006190Y-6437380D01*
X172529523Y-5532380D02*
X172720000Y-5532380D01*
X172815238Y-5484761D01*
X172862857Y-5437142D01*
X172958095Y-5294285D01*
X173005714Y-5103809D01*
X173005714Y-4722857D01*
X172958095Y-4627619D01*
X172910476Y-4580000D01*
X172815238Y-4532380D01*
X172624761Y-4532380D01*
X172529523Y-4580000D01*
X172481904Y-4627619D01*
X172434285Y-4722857D01*
X172434285Y-4960952D01*
X172481904Y-5056190D01*
X172529523Y-5103809D01*
X172624761Y-5151428D01*
X172815238Y-5151428D01*
X172910476Y-5103809D01*
X172958095Y-5056190D01*
X173005714Y-4960952D01*
%TO.C,SW39*%
X160432976Y-64539761D02*
X160575833Y-64587380D01*
X160813928Y-64587380D01*
X160909166Y-64539761D01*
X160956785Y-64492142D01*
X161004404Y-64396904D01*
X161004404Y-64301666D01*
X160956785Y-64206428D01*
X160909166Y-64158809D01*
X160813928Y-64111190D01*
X160623452Y-64063571D01*
X160528214Y-64015952D01*
X160480595Y-63968333D01*
X160432976Y-63873095D01*
X160432976Y-63777857D01*
X160480595Y-63682619D01*
X160528214Y-63635000D01*
X160623452Y-63587380D01*
X160861547Y-63587380D01*
X161004404Y-63635000D01*
X161337738Y-63587380D02*
X161575833Y-64587380D01*
X161766309Y-63873095D01*
X161956785Y-64587380D01*
X162194880Y-63587380D01*
X162480595Y-63587380D02*
X163099642Y-63587380D01*
X162766309Y-63968333D01*
X162909166Y-63968333D01*
X163004404Y-64015952D01*
X163052023Y-64063571D01*
X163099642Y-64158809D01*
X163099642Y-64396904D01*
X163052023Y-64492142D01*
X163004404Y-64539761D01*
X162909166Y-64587380D01*
X162623452Y-64587380D01*
X162528214Y-64539761D01*
X162480595Y-64492142D01*
X163575833Y-64587380D02*
X163766309Y-64587380D01*
X163861547Y-64539761D01*
X163909166Y-64492142D01*
X164004404Y-64349285D01*
X164052023Y-64158809D01*
X164052023Y-63777857D01*
X164004404Y-63682619D01*
X163956785Y-63635000D01*
X163861547Y-63587380D01*
X163671071Y-63587380D01*
X163575833Y-63635000D01*
X163528214Y-63682619D01*
X163480595Y-63777857D01*
X163480595Y-64015952D01*
X163528214Y-64111190D01*
X163575833Y-64158809D01*
X163671071Y-64206428D01*
X163861547Y-64206428D01*
X163956785Y-64158809D01*
X164004404Y-64111190D01*
X164052023Y-64015952D01*
X158099166Y-62682380D02*
X158099166Y-61682380D01*
X158432500Y-62396666D01*
X158765833Y-61682380D01*
X158765833Y-62682380D01*
%TO.C,SW38*%
X169957976Y-45489761D02*
X170100833Y-45537380D01*
X170338928Y-45537380D01*
X170434166Y-45489761D01*
X170481785Y-45442142D01*
X170529404Y-45346904D01*
X170529404Y-45251666D01*
X170481785Y-45156428D01*
X170434166Y-45108809D01*
X170338928Y-45061190D01*
X170148452Y-45013571D01*
X170053214Y-44965952D01*
X170005595Y-44918333D01*
X169957976Y-44823095D01*
X169957976Y-44727857D01*
X170005595Y-44632619D01*
X170053214Y-44585000D01*
X170148452Y-44537380D01*
X170386547Y-44537380D01*
X170529404Y-44585000D01*
X170862738Y-44537380D02*
X171100833Y-45537380D01*
X171291309Y-44823095D01*
X171481785Y-45537380D01*
X171719880Y-44537380D01*
X172005595Y-44537380D02*
X172624642Y-44537380D01*
X172291309Y-44918333D01*
X172434166Y-44918333D01*
X172529404Y-44965952D01*
X172577023Y-45013571D01*
X172624642Y-45108809D01*
X172624642Y-45346904D01*
X172577023Y-45442142D01*
X172529404Y-45489761D01*
X172434166Y-45537380D01*
X172148452Y-45537380D01*
X172053214Y-45489761D01*
X172005595Y-45442142D01*
X173196071Y-44965952D02*
X173100833Y-44918333D01*
X173053214Y-44870714D01*
X173005595Y-44775476D01*
X173005595Y-44727857D01*
X173053214Y-44632619D01*
X173100833Y-44585000D01*
X173196071Y-44537380D01*
X173386547Y-44537380D01*
X173481785Y-44585000D01*
X173529404Y-44632619D01*
X173577023Y-44727857D01*
X173577023Y-44775476D01*
X173529404Y-44870714D01*
X173481785Y-44918333D01*
X173386547Y-44965952D01*
X173196071Y-44965952D01*
X173100833Y-45013571D01*
X173053214Y-45061190D01*
X173005595Y-45156428D01*
X173005595Y-45346904D01*
X173053214Y-45442142D01*
X173100833Y-45489761D01*
X173196071Y-45537380D01*
X173386547Y-45537380D01*
X173481785Y-45489761D01*
X173529404Y-45442142D01*
X173577023Y-45346904D01*
X173577023Y-45156428D01*
X173529404Y-45061190D01*
X173481785Y-45013571D01*
X173386547Y-44965952D01*
X167695595Y-43632380D02*
X167695595Y-42632380D01*
X168267023Y-43632380D02*
X167838452Y-43060952D01*
X168267023Y-42632380D02*
X167695595Y-43203809D01*
%TO.C,SW37*%
X165195476Y-26439761D02*
X165338333Y-26487380D01*
X165576428Y-26487380D01*
X165671666Y-26439761D01*
X165719285Y-26392142D01*
X165766904Y-26296904D01*
X165766904Y-26201666D01*
X165719285Y-26106428D01*
X165671666Y-26058809D01*
X165576428Y-26011190D01*
X165385952Y-25963571D01*
X165290714Y-25915952D01*
X165243095Y-25868333D01*
X165195476Y-25773095D01*
X165195476Y-25677857D01*
X165243095Y-25582619D01*
X165290714Y-25535000D01*
X165385952Y-25487380D01*
X165624047Y-25487380D01*
X165766904Y-25535000D01*
X166100238Y-25487380D02*
X166338333Y-26487380D01*
X166528809Y-25773095D01*
X166719285Y-26487380D01*
X166957380Y-25487380D01*
X167243095Y-25487380D02*
X167862142Y-25487380D01*
X167528809Y-25868333D01*
X167671666Y-25868333D01*
X167766904Y-25915952D01*
X167814523Y-25963571D01*
X167862142Y-26058809D01*
X167862142Y-26296904D01*
X167814523Y-26392142D01*
X167766904Y-26439761D01*
X167671666Y-26487380D01*
X167385952Y-26487380D01*
X167290714Y-26439761D01*
X167243095Y-26392142D01*
X168195476Y-25487380D02*
X168862142Y-25487380D01*
X168433571Y-26487380D01*
X163195000Y-24582380D02*
X163195000Y-23582380D01*
%TO.C,SW36*%
X155670476Y-7389761D02*
X155813333Y-7437380D01*
X156051428Y-7437380D01*
X156146666Y-7389761D01*
X156194285Y-7342142D01*
X156241904Y-7246904D01*
X156241904Y-7151666D01*
X156194285Y-7056428D01*
X156146666Y-7008809D01*
X156051428Y-6961190D01*
X155860952Y-6913571D01*
X155765714Y-6865952D01*
X155718095Y-6818333D01*
X155670476Y-6723095D01*
X155670476Y-6627857D01*
X155718095Y-6532619D01*
X155765714Y-6485000D01*
X155860952Y-6437380D01*
X156099047Y-6437380D01*
X156241904Y-6485000D01*
X156575238Y-6437380D02*
X156813333Y-7437380D01*
X157003809Y-6723095D01*
X157194285Y-7437380D01*
X157432380Y-6437380D01*
X157718095Y-6437380D02*
X158337142Y-6437380D01*
X158003809Y-6818333D01*
X158146666Y-6818333D01*
X158241904Y-6865952D01*
X158289523Y-6913571D01*
X158337142Y-7008809D01*
X158337142Y-7246904D01*
X158289523Y-7342142D01*
X158241904Y-7389761D01*
X158146666Y-7437380D01*
X157860952Y-7437380D01*
X157765714Y-7389761D01*
X157718095Y-7342142D01*
X159194285Y-6437380D02*
X159003809Y-6437380D01*
X158908571Y-6485000D01*
X158860952Y-6532619D01*
X158765714Y-6675476D01*
X158718095Y-6865952D01*
X158718095Y-7246904D01*
X158765714Y-7342142D01*
X158813333Y-7389761D01*
X158908571Y-7437380D01*
X159099047Y-7437380D01*
X159194285Y-7389761D01*
X159241904Y-7342142D01*
X159289523Y-7246904D01*
X159289523Y-7008809D01*
X159241904Y-6913571D01*
X159194285Y-6865952D01*
X159099047Y-6818333D01*
X158908571Y-6818333D01*
X158813333Y-6865952D01*
X158765714Y-6913571D01*
X158718095Y-7008809D01*
X153574761Y-4960952D02*
X153479523Y-4913333D01*
X153431904Y-4865714D01*
X153384285Y-4770476D01*
X153384285Y-4722857D01*
X153431904Y-4627619D01*
X153479523Y-4580000D01*
X153574761Y-4532380D01*
X153765238Y-4532380D01*
X153860476Y-4580000D01*
X153908095Y-4627619D01*
X153955714Y-4722857D01*
X153955714Y-4770476D01*
X153908095Y-4865714D01*
X153860476Y-4913333D01*
X153765238Y-4960952D01*
X153574761Y-4960952D01*
X153479523Y-5008571D01*
X153431904Y-5056190D01*
X153384285Y-5151428D01*
X153384285Y-5341904D01*
X153431904Y-5437142D01*
X153479523Y-5484761D01*
X153574761Y-5532380D01*
X153765238Y-5532380D01*
X153860476Y-5484761D01*
X153908095Y-5437142D01*
X153955714Y-5341904D01*
X153955714Y-5151428D01*
X153908095Y-5056190D01*
X153860476Y-5008571D01*
X153765238Y-4960952D01*
%TO.C,SW35*%
X141382976Y-64539761D02*
X141525833Y-64587380D01*
X141763928Y-64587380D01*
X141859166Y-64539761D01*
X141906785Y-64492142D01*
X141954404Y-64396904D01*
X141954404Y-64301666D01*
X141906785Y-64206428D01*
X141859166Y-64158809D01*
X141763928Y-64111190D01*
X141573452Y-64063571D01*
X141478214Y-64015952D01*
X141430595Y-63968333D01*
X141382976Y-63873095D01*
X141382976Y-63777857D01*
X141430595Y-63682619D01*
X141478214Y-63635000D01*
X141573452Y-63587380D01*
X141811547Y-63587380D01*
X141954404Y-63635000D01*
X142287738Y-63587380D02*
X142525833Y-64587380D01*
X142716309Y-63873095D01*
X142906785Y-64587380D01*
X143144880Y-63587380D01*
X143430595Y-63587380D02*
X144049642Y-63587380D01*
X143716309Y-63968333D01*
X143859166Y-63968333D01*
X143954404Y-64015952D01*
X144002023Y-64063571D01*
X144049642Y-64158809D01*
X144049642Y-64396904D01*
X144002023Y-64492142D01*
X143954404Y-64539761D01*
X143859166Y-64587380D01*
X143573452Y-64587380D01*
X143478214Y-64539761D01*
X143430595Y-64492142D01*
X144954404Y-63587380D02*
X144478214Y-63587380D01*
X144430595Y-64063571D01*
X144478214Y-64015952D01*
X144573452Y-63968333D01*
X144811547Y-63968333D01*
X144906785Y-64015952D01*
X144954404Y-64063571D01*
X145002023Y-64158809D01*
X145002023Y-64396904D01*
X144954404Y-64492142D01*
X144906785Y-64539761D01*
X144811547Y-64587380D01*
X144573452Y-64587380D01*
X144478214Y-64539761D01*
X144430595Y-64492142D01*
X139096785Y-62682380D02*
X139096785Y-61682380D01*
X139668214Y-62682380D01*
X139668214Y-61682380D01*
%TO.C,SW34*%
X150907976Y-45489761D02*
X151050833Y-45537380D01*
X151288928Y-45537380D01*
X151384166Y-45489761D01*
X151431785Y-45442142D01*
X151479404Y-45346904D01*
X151479404Y-45251666D01*
X151431785Y-45156428D01*
X151384166Y-45108809D01*
X151288928Y-45061190D01*
X151098452Y-45013571D01*
X151003214Y-44965952D01*
X150955595Y-44918333D01*
X150907976Y-44823095D01*
X150907976Y-44727857D01*
X150955595Y-44632619D01*
X151003214Y-44585000D01*
X151098452Y-44537380D01*
X151336547Y-44537380D01*
X151479404Y-44585000D01*
X151812738Y-44537380D02*
X152050833Y-45537380D01*
X152241309Y-44823095D01*
X152431785Y-45537380D01*
X152669880Y-44537380D01*
X152955595Y-44537380D02*
X153574642Y-44537380D01*
X153241309Y-44918333D01*
X153384166Y-44918333D01*
X153479404Y-44965952D01*
X153527023Y-45013571D01*
X153574642Y-45108809D01*
X153574642Y-45346904D01*
X153527023Y-45442142D01*
X153479404Y-45489761D01*
X153384166Y-45537380D01*
X153098452Y-45537380D01*
X153003214Y-45489761D01*
X152955595Y-45442142D01*
X154431785Y-44870714D02*
X154431785Y-45537380D01*
X154193690Y-44489761D02*
X153955595Y-45204047D01*
X154574642Y-45204047D01*
X149050357Y-42632380D02*
X149050357Y-43346666D01*
X149002738Y-43489523D01*
X148907500Y-43584761D01*
X148764642Y-43632380D01*
X148669404Y-43632380D01*
%TO.C,SW33*%
X146145476Y-26439761D02*
X146288333Y-26487380D01*
X146526428Y-26487380D01*
X146621666Y-26439761D01*
X146669285Y-26392142D01*
X146716904Y-26296904D01*
X146716904Y-26201666D01*
X146669285Y-26106428D01*
X146621666Y-26058809D01*
X146526428Y-26011190D01*
X146335952Y-25963571D01*
X146240714Y-25915952D01*
X146193095Y-25868333D01*
X146145476Y-25773095D01*
X146145476Y-25677857D01*
X146193095Y-25582619D01*
X146240714Y-25535000D01*
X146335952Y-25487380D01*
X146574047Y-25487380D01*
X146716904Y-25535000D01*
X147050238Y-25487380D02*
X147288333Y-26487380D01*
X147478809Y-25773095D01*
X147669285Y-26487380D01*
X147907380Y-25487380D01*
X148193095Y-25487380D02*
X148812142Y-25487380D01*
X148478809Y-25868333D01*
X148621666Y-25868333D01*
X148716904Y-25915952D01*
X148764523Y-25963571D01*
X148812142Y-26058809D01*
X148812142Y-26296904D01*
X148764523Y-26392142D01*
X148716904Y-26439761D01*
X148621666Y-26487380D01*
X148335952Y-26487380D01*
X148240714Y-26439761D01*
X148193095Y-26392142D01*
X149145476Y-25487380D02*
X149764523Y-25487380D01*
X149431190Y-25868333D01*
X149574047Y-25868333D01*
X149669285Y-25915952D01*
X149716904Y-25963571D01*
X149764523Y-26058809D01*
X149764523Y-26296904D01*
X149716904Y-26392142D01*
X149669285Y-26439761D01*
X149574047Y-26487380D01*
X149288333Y-26487380D01*
X149193095Y-26439761D01*
X149145476Y-26392142D01*
X143859285Y-23582380D02*
X143859285Y-24391904D01*
X143906904Y-24487142D01*
X143954523Y-24534761D01*
X144049761Y-24582380D01*
X144240238Y-24582380D01*
X144335476Y-24534761D01*
X144383095Y-24487142D01*
X144430714Y-24391904D01*
X144430714Y-23582380D01*
%TO.C,SW32*%
X136620476Y-7389761D02*
X136763333Y-7437380D01*
X137001428Y-7437380D01*
X137096666Y-7389761D01*
X137144285Y-7342142D01*
X137191904Y-7246904D01*
X137191904Y-7151666D01*
X137144285Y-7056428D01*
X137096666Y-7008809D01*
X137001428Y-6961190D01*
X136810952Y-6913571D01*
X136715714Y-6865952D01*
X136668095Y-6818333D01*
X136620476Y-6723095D01*
X136620476Y-6627857D01*
X136668095Y-6532619D01*
X136715714Y-6485000D01*
X136810952Y-6437380D01*
X137049047Y-6437380D01*
X137191904Y-6485000D01*
X137525238Y-6437380D02*
X137763333Y-7437380D01*
X137953809Y-6723095D01*
X138144285Y-7437380D01*
X138382380Y-6437380D01*
X138668095Y-6437380D02*
X139287142Y-6437380D01*
X138953809Y-6818333D01*
X139096666Y-6818333D01*
X139191904Y-6865952D01*
X139239523Y-6913571D01*
X139287142Y-7008809D01*
X139287142Y-7246904D01*
X139239523Y-7342142D01*
X139191904Y-7389761D01*
X139096666Y-7437380D01*
X138810952Y-7437380D01*
X138715714Y-7389761D01*
X138668095Y-7342142D01*
X139668095Y-6532619D02*
X139715714Y-6485000D01*
X139810952Y-6437380D01*
X140049047Y-6437380D01*
X140144285Y-6485000D01*
X140191904Y-6532619D01*
X140239523Y-6627857D01*
X140239523Y-6723095D01*
X140191904Y-6865952D01*
X139620476Y-7437380D01*
X140239523Y-7437380D01*
X134286666Y-4532380D02*
X134953333Y-4532380D01*
X134524761Y-5532380D01*
%TO.C,SW31*%
X125190476Y-83335761D02*
X125333333Y-83383380D01*
X125571428Y-83383380D01*
X125666666Y-83335761D01*
X125714285Y-83288142D01*
X125761904Y-83192904D01*
X125761904Y-83097666D01*
X125714285Y-83002428D01*
X125666666Y-82954809D01*
X125571428Y-82907190D01*
X125380952Y-82859571D01*
X125285714Y-82811952D01*
X125238095Y-82764333D01*
X125190476Y-82669095D01*
X125190476Y-82573857D01*
X125238095Y-82478619D01*
X125285714Y-82431000D01*
X125380952Y-82383380D01*
X125619047Y-82383380D01*
X125761904Y-82431000D01*
X126095238Y-82383380D02*
X126333333Y-83383380D01*
X126523809Y-82669095D01*
X126714285Y-83383380D01*
X126952380Y-82383380D01*
X127238095Y-82383380D02*
X127857142Y-82383380D01*
X127523809Y-82764333D01*
X127666666Y-82764333D01*
X127761904Y-82811952D01*
X127809523Y-82859571D01*
X127857142Y-82954809D01*
X127857142Y-83192904D01*
X127809523Y-83288142D01*
X127761904Y-83335761D01*
X127666666Y-83383380D01*
X127380952Y-83383380D01*
X127285714Y-83335761D01*
X127238095Y-83288142D01*
X128809523Y-83383380D02*
X128238095Y-83383380D01*
X128523809Y-83383380D02*
X128523809Y-82383380D01*
X128428571Y-82526238D01*
X128333333Y-82621476D01*
X128238095Y-82669095D01*
X122412380Y-80033761D02*
X122555238Y-80081380D01*
X122793333Y-80081380D01*
X122888571Y-80033761D01*
X122936190Y-79986142D01*
X122983809Y-79890904D01*
X122983809Y-79795666D01*
X122936190Y-79700428D01*
X122888571Y-79652809D01*
X122793333Y-79605190D01*
X122602857Y-79557571D01*
X122507619Y-79509952D01*
X122460000Y-79462333D01*
X122412380Y-79367095D01*
X122412380Y-79271857D01*
X122460000Y-79176619D01*
X122507619Y-79129000D01*
X122602857Y-79081380D01*
X122840952Y-79081380D01*
X122983809Y-79129000D01*
X123412380Y-79414714D02*
X123412380Y-80414714D01*
X123412380Y-79462333D02*
X123507619Y-79414714D01*
X123698095Y-79414714D01*
X123793333Y-79462333D01*
X123840952Y-79509952D01*
X123888571Y-79605190D01*
X123888571Y-79890904D01*
X123840952Y-79986142D01*
X123793333Y-80033761D01*
X123698095Y-80081380D01*
X123507619Y-80081380D01*
X123412380Y-80033761D01*
X124745714Y-80081380D02*
X124745714Y-79557571D01*
X124698095Y-79462333D01*
X124602857Y-79414714D01*
X124412380Y-79414714D01*
X124317142Y-79462333D01*
X124745714Y-80033761D02*
X124650476Y-80081380D01*
X124412380Y-80081380D01*
X124317142Y-80033761D01*
X124269523Y-79938523D01*
X124269523Y-79843285D01*
X124317142Y-79748047D01*
X124412380Y-79700428D01*
X124650476Y-79700428D01*
X124745714Y-79652809D01*
X125650476Y-80033761D02*
X125555238Y-80081380D01*
X125364761Y-80081380D01*
X125269523Y-80033761D01*
X125221904Y-79986142D01*
X125174285Y-79890904D01*
X125174285Y-79605190D01*
X125221904Y-79509952D01*
X125269523Y-79462333D01*
X125364761Y-79414714D01*
X125555238Y-79414714D01*
X125650476Y-79462333D01*
X126460000Y-80033761D02*
X126364761Y-80081380D01*
X126174285Y-80081380D01*
X126079047Y-80033761D01*
X126031428Y-79938523D01*
X126031428Y-79557571D01*
X126079047Y-79462333D01*
X126174285Y-79414714D01*
X126364761Y-79414714D01*
X126460000Y-79462333D01*
X126507619Y-79557571D01*
X126507619Y-79652809D01*
X126031428Y-79748047D01*
%TO.C,SW30*%
X122332976Y-64539761D02*
X122475833Y-64587380D01*
X122713928Y-64587380D01*
X122809166Y-64539761D01*
X122856785Y-64492142D01*
X122904404Y-64396904D01*
X122904404Y-64301666D01*
X122856785Y-64206428D01*
X122809166Y-64158809D01*
X122713928Y-64111190D01*
X122523452Y-64063571D01*
X122428214Y-64015952D01*
X122380595Y-63968333D01*
X122332976Y-63873095D01*
X122332976Y-63777857D01*
X122380595Y-63682619D01*
X122428214Y-63635000D01*
X122523452Y-63587380D01*
X122761547Y-63587380D01*
X122904404Y-63635000D01*
X123237738Y-63587380D02*
X123475833Y-64587380D01*
X123666309Y-63873095D01*
X123856785Y-64587380D01*
X124094880Y-63587380D01*
X124380595Y-63587380D02*
X124999642Y-63587380D01*
X124666309Y-63968333D01*
X124809166Y-63968333D01*
X124904404Y-64015952D01*
X124952023Y-64063571D01*
X124999642Y-64158809D01*
X124999642Y-64396904D01*
X124952023Y-64492142D01*
X124904404Y-64539761D01*
X124809166Y-64587380D01*
X124523452Y-64587380D01*
X124428214Y-64539761D01*
X124380595Y-64492142D01*
X125618690Y-63587380D02*
X125713928Y-63587380D01*
X125809166Y-63635000D01*
X125856785Y-63682619D01*
X125904404Y-63777857D01*
X125952023Y-63968333D01*
X125952023Y-64206428D01*
X125904404Y-64396904D01*
X125856785Y-64492142D01*
X125809166Y-64539761D01*
X125713928Y-64587380D01*
X125618690Y-64587380D01*
X125523452Y-64539761D01*
X125475833Y-64492142D01*
X125428214Y-64396904D01*
X125380595Y-64206428D01*
X125380595Y-63968333D01*
X125428214Y-63777857D01*
X125475833Y-63682619D01*
X125523452Y-63635000D01*
X125618690Y-63587380D01*
X120403928Y-62158571D02*
X120546785Y-62206190D01*
X120594404Y-62253809D01*
X120642023Y-62349047D01*
X120642023Y-62491904D01*
X120594404Y-62587142D01*
X120546785Y-62634761D01*
X120451547Y-62682380D01*
X120070595Y-62682380D01*
X120070595Y-61682380D01*
X120403928Y-61682380D01*
X120499166Y-61730000D01*
X120546785Y-61777619D01*
X120594404Y-61872857D01*
X120594404Y-61968095D01*
X120546785Y-62063333D01*
X120499166Y-62110952D01*
X120403928Y-62158571D01*
X120070595Y-62158571D01*
%TO.C,SW29*%
X131857976Y-45489761D02*
X132000833Y-45537380D01*
X132238928Y-45537380D01*
X132334166Y-45489761D01*
X132381785Y-45442142D01*
X132429404Y-45346904D01*
X132429404Y-45251666D01*
X132381785Y-45156428D01*
X132334166Y-45108809D01*
X132238928Y-45061190D01*
X132048452Y-45013571D01*
X131953214Y-44965952D01*
X131905595Y-44918333D01*
X131857976Y-44823095D01*
X131857976Y-44727857D01*
X131905595Y-44632619D01*
X131953214Y-44585000D01*
X132048452Y-44537380D01*
X132286547Y-44537380D01*
X132429404Y-44585000D01*
X132762738Y-44537380D02*
X133000833Y-45537380D01*
X133191309Y-44823095D01*
X133381785Y-45537380D01*
X133619880Y-44537380D01*
X133953214Y-44632619D02*
X134000833Y-44585000D01*
X134096071Y-44537380D01*
X134334166Y-44537380D01*
X134429404Y-44585000D01*
X134477023Y-44632619D01*
X134524642Y-44727857D01*
X134524642Y-44823095D01*
X134477023Y-44965952D01*
X133905595Y-45537380D01*
X134524642Y-45537380D01*
X135000833Y-45537380D02*
X135191309Y-45537380D01*
X135286547Y-45489761D01*
X135334166Y-45442142D01*
X135429404Y-45299285D01*
X135477023Y-45108809D01*
X135477023Y-44727857D01*
X135429404Y-44632619D01*
X135381785Y-44585000D01*
X135286547Y-44537380D01*
X135096071Y-44537380D01*
X135000833Y-44585000D01*
X134953214Y-44632619D01*
X134905595Y-44727857D01*
X134905595Y-44965952D01*
X134953214Y-45061190D01*
X135000833Y-45108809D01*
X135096071Y-45156428D01*
X135286547Y-45156428D01*
X135381785Y-45108809D01*
X135429404Y-45061190D01*
X135477023Y-44965952D01*
X129571785Y-43632380D02*
X129571785Y-42632380D01*
X129571785Y-43108571D02*
X130143214Y-43108571D01*
X130143214Y-43632380D02*
X130143214Y-42632380D01*
%TO.C,SW28*%
X127095476Y-26439761D02*
X127238333Y-26487380D01*
X127476428Y-26487380D01*
X127571666Y-26439761D01*
X127619285Y-26392142D01*
X127666904Y-26296904D01*
X127666904Y-26201666D01*
X127619285Y-26106428D01*
X127571666Y-26058809D01*
X127476428Y-26011190D01*
X127285952Y-25963571D01*
X127190714Y-25915952D01*
X127143095Y-25868333D01*
X127095476Y-25773095D01*
X127095476Y-25677857D01*
X127143095Y-25582619D01*
X127190714Y-25535000D01*
X127285952Y-25487380D01*
X127524047Y-25487380D01*
X127666904Y-25535000D01*
X128000238Y-25487380D02*
X128238333Y-26487380D01*
X128428809Y-25773095D01*
X128619285Y-26487380D01*
X128857380Y-25487380D01*
X129190714Y-25582619D02*
X129238333Y-25535000D01*
X129333571Y-25487380D01*
X129571666Y-25487380D01*
X129666904Y-25535000D01*
X129714523Y-25582619D01*
X129762142Y-25677857D01*
X129762142Y-25773095D01*
X129714523Y-25915952D01*
X129143095Y-26487380D01*
X129762142Y-26487380D01*
X130333571Y-25915952D02*
X130238333Y-25868333D01*
X130190714Y-25820714D01*
X130143095Y-25725476D01*
X130143095Y-25677857D01*
X130190714Y-25582619D01*
X130238333Y-25535000D01*
X130333571Y-25487380D01*
X130524047Y-25487380D01*
X130619285Y-25535000D01*
X130666904Y-25582619D01*
X130714523Y-25677857D01*
X130714523Y-25725476D01*
X130666904Y-25820714D01*
X130619285Y-25868333D01*
X130524047Y-25915952D01*
X130333571Y-25915952D01*
X130238333Y-25963571D01*
X130190714Y-26011190D01*
X130143095Y-26106428D01*
X130143095Y-26296904D01*
X130190714Y-26392142D01*
X130238333Y-26439761D01*
X130333571Y-26487380D01*
X130524047Y-26487380D01*
X130619285Y-26439761D01*
X130666904Y-26392142D01*
X130714523Y-26296904D01*
X130714523Y-26106428D01*
X130666904Y-26011190D01*
X130619285Y-25963571D01*
X130524047Y-25915952D01*
X124761666Y-23582380D02*
X125428333Y-23582380D01*
X124761666Y-24582380D01*
X125428333Y-24582380D01*
%TO.C,SW27*%
X117570476Y-7389761D02*
X117713333Y-7437380D01*
X117951428Y-7437380D01*
X118046666Y-7389761D01*
X118094285Y-7342142D01*
X118141904Y-7246904D01*
X118141904Y-7151666D01*
X118094285Y-7056428D01*
X118046666Y-7008809D01*
X117951428Y-6961190D01*
X117760952Y-6913571D01*
X117665714Y-6865952D01*
X117618095Y-6818333D01*
X117570476Y-6723095D01*
X117570476Y-6627857D01*
X117618095Y-6532619D01*
X117665714Y-6485000D01*
X117760952Y-6437380D01*
X117999047Y-6437380D01*
X118141904Y-6485000D01*
X118475238Y-6437380D02*
X118713333Y-7437380D01*
X118903809Y-6723095D01*
X119094285Y-7437380D01*
X119332380Y-6437380D01*
X119665714Y-6532619D02*
X119713333Y-6485000D01*
X119808571Y-6437380D01*
X120046666Y-6437380D01*
X120141904Y-6485000D01*
X120189523Y-6532619D01*
X120237142Y-6627857D01*
X120237142Y-6723095D01*
X120189523Y-6865952D01*
X119618095Y-7437380D01*
X120237142Y-7437380D01*
X120570476Y-6437380D02*
X121237142Y-6437380D01*
X120808571Y-7437380D01*
X115760476Y-4532380D02*
X115570000Y-4532380D01*
X115474761Y-4580000D01*
X115427142Y-4627619D01*
X115331904Y-4770476D01*
X115284285Y-4960952D01*
X115284285Y-5341904D01*
X115331904Y-5437142D01*
X115379523Y-5484761D01*
X115474761Y-5532380D01*
X115665238Y-5532380D01*
X115760476Y-5484761D01*
X115808095Y-5437142D01*
X115855714Y-5341904D01*
X115855714Y-5103809D01*
X115808095Y-5008571D01*
X115760476Y-4960952D01*
X115665238Y-4913333D01*
X115474761Y-4913333D01*
X115379523Y-4960952D01*
X115331904Y-5008571D01*
X115284285Y-5103809D01*
%TO.C,SW26*%
X103282976Y-64539761D02*
X103425833Y-64587380D01*
X103663928Y-64587380D01*
X103759166Y-64539761D01*
X103806785Y-64492142D01*
X103854404Y-64396904D01*
X103854404Y-64301666D01*
X103806785Y-64206428D01*
X103759166Y-64158809D01*
X103663928Y-64111190D01*
X103473452Y-64063571D01*
X103378214Y-64015952D01*
X103330595Y-63968333D01*
X103282976Y-63873095D01*
X103282976Y-63777857D01*
X103330595Y-63682619D01*
X103378214Y-63635000D01*
X103473452Y-63587380D01*
X103711547Y-63587380D01*
X103854404Y-63635000D01*
X104187738Y-63587380D02*
X104425833Y-64587380D01*
X104616309Y-63873095D01*
X104806785Y-64587380D01*
X105044880Y-63587380D01*
X105378214Y-63682619D02*
X105425833Y-63635000D01*
X105521071Y-63587380D01*
X105759166Y-63587380D01*
X105854404Y-63635000D01*
X105902023Y-63682619D01*
X105949642Y-63777857D01*
X105949642Y-63873095D01*
X105902023Y-64015952D01*
X105330595Y-64587380D01*
X105949642Y-64587380D01*
X106806785Y-63587380D02*
X106616309Y-63587380D01*
X106521071Y-63635000D01*
X106473452Y-63682619D01*
X106378214Y-63825476D01*
X106330595Y-64015952D01*
X106330595Y-64396904D01*
X106378214Y-64492142D01*
X106425833Y-64539761D01*
X106521071Y-64587380D01*
X106711547Y-64587380D01*
X106806785Y-64539761D01*
X106854404Y-64492142D01*
X106902023Y-64396904D01*
X106902023Y-64158809D01*
X106854404Y-64063571D01*
X106806785Y-64015952D01*
X106711547Y-63968333D01*
X106521071Y-63968333D01*
X106425833Y-64015952D01*
X106378214Y-64063571D01*
X106330595Y-64158809D01*
X100949166Y-61682380D02*
X101282500Y-62682380D01*
X101615833Y-61682380D01*
%TO.C,SW25*%
X112871476Y-45235761D02*
X113014333Y-45283380D01*
X113252428Y-45283380D01*
X113347666Y-45235761D01*
X113395285Y-45188142D01*
X113442904Y-45092904D01*
X113442904Y-44997666D01*
X113395285Y-44902428D01*
X113347666Y-44854809D01*
X113252428Y-44807190D01*
X113061952Y-44759571D01*
X112966714Y-44711952D01*
X112919095Y-44664333D01*
X112871476Y-44569095D01*
X112871476Y-44473857D01*
X112919095Y-44378619D01*
X112966714Y-44331000D01*
X113061952Y-44283380D01*
X113300047Y-44283380D01*
X113442904Y-44331000D01*
X113776238Y-44283380D02*
X114014333Y-45283380D01*
X114204809Y-44569095D01*
X114395285Y-45283380D01*
X114633380Y-44283380D01*
X114966714Y-44378619D02*
X115014333Y-44331000D01*
X115109571Y-44283380D01*
X115347666Y-44283380D01*
X115442904Y-44331000D01*
X115490523Y-44378619D01*
X115538142Y-44473857D01*
X115538142Y-44569095D01*
X115490523Y-44711952D01*
X114919095Y-45283380D01*
X115538142Y-45283380D01*
X116442904Y-44283380D02*
X115966714Y-44283380D01*
X115919095Y-44759571D01*
X115966714Y-44711952D01*
X116061952Y-44664333D01*
X116300047Y-44664333D01*
X116395285Y-44711952D01*
X116442904Y-44759571D01*
X116490523Y-44854809D01*
X116490523Y-45092904D01*
X116442904Y-45188142D01*
X116395285Y-45235761D01*
X116300047Y-45283380D01*
X116061952Y-45283380D01*
X115966714Y-45235761D01*
X115919095Y-45188142D01*
X111132904Y-42172000D02*
X111037666Y-42124380D01*
X110894809Y-42124380D01*
X110751952Y-42172000D01*
X110656714Y-42267238D01*
X110609095Y-42362476D01*
X110561476Y-42552952D01*
X110561476Y-42695809D01*
X110609095Y-42886285D01*
X110656714Y-42981523D01*
X110751952Y-43076761D01*
X110894809Y-43124380D01*
X110990047Y-43124380D01*
X111132904Y-43076761D01*
X111180523Y-43029142D01*
X111180523Y-42695809D01*
X110990047Y-42695809D01*
%TO.C,SW24*%
X108045476Y-26439761D02*
X108188333Y-26487380D01*
X108426428Y-26487380D01*
X108521666Y-26439761D01*
X108569285Y-26392142D01*
X108616904Y-26296904D01*
X108616904Y-26201666D01*
X108569285Y-26106428D01*
X108521666Y-26058809D01*
X108426428Y-26011190D01*
X108235952Y-25963571D01*
X108140714Y-25915952D01*
X108093095Y-25868333D01*
X108045476Y-25773095D01*
X108045476Y-25677857D01*
X108093095Y-25582619D01*
X108140714Y-25535000D01*
X108235952Y-25487380D01*
X108474047Y-25487380D01*
X108616904Y-25535000D01*
X108950238Y-25487380D02*
X109188333Y-26487380D01*
X109378809Y-25773095D01*
X109569285Y-26487380D01*
X109807380Y-25487380D01*
X110140714Y-25582619D02*
X110188333Y-25535000D01*
X110283571Y-25487380D01*
X110521666Y-25487380D01*
X110616904Y-25535000D01*
X110664523Y-25582619D01*
X110712142Y-25677857D01*
X110712142Y-25773095D01*
X110664523Y-25915952D01*
X110093095Y-26487380D01*
X110712142Y-26487380D01*
X111569285Y-25820714D02*
X111569285Y-26487380D01*
X111331190Y-25439761D02*
X111093095Y-26154047D01*
X111712142Y-26154047D01*
X105759285Y-23582380D02*
X106330714Y-23582380D01*
X106045000Y-24582380D02*
X106045000Y-23582380D01*
%TO.C,SW23*%
X98520476Y-7389761D02*
X98663333Y-7437380D01*
X98901428Y-7437380D01*
X98996666Y-7389761D01*
X99044285Y-7342142D01*
X99091904Y-7246904D01*
X99091904Y-7151666D01*
X99044285Y-7056428D01*
X98996666Y-7008809D01*
X98901428Y-6961190D01*
X98710952Y-6913571D01*
X98615714Y-6865952D01*
X98568095Y-6818333D01*
X98520476Y-6723095D01*
X98520476Y-6627857D01*
X98568095Y-6532619D01*
X98615714Y-6485000D01*
X98710952Y-6437380D01*
X98949047Y-6437380D01*
X99091904Y-6485000D01*
X99425238Y-6437380D02*
X99663333Y-7437380D01*
X99853809Y-6723095D01*
X100044285Y-7437380D01*
X100282380Y-6437380D01*
X100615714Y-6532619D02*
X100663333Y-6485000D01*
X100758571Y-6437380D01*
X100996666Y-6437380D01*
X101091904Y-6485000D01*
X101139523Y-6532619D01*
X101187142Y-6627857D01*
X101187142Y-6723095D01*
X101139523Y-6865952D01*
X100568095Y-7437380D01*
X101187142Y-7437380D01*
X101520476Y-6437380D02*
X102139523Y-6437380D01*
X101806190Y-6818333D01*
X101949047Y-6818333D01*
X102044285Y-6865952D01*
X102091904Y-6913571D01*
X102139523Y-7008809D01*
X102139523Y-7246904D01*
X102091904Y-7342142D01*
X102044285Y-7389761D01*
X101949047Y-7437380D01*
X101663333Y-7437380D01*
X101568095Y-7389761D01*
X101520476Y-7342142D01*
X96758095Y-4532380D02*
X96281904Y-4532380D01*
X96234285Y-5008571D01*
X96281904Y-4960952D01*
X96377142Y-4913333D01*
X96615238Y-4913333D01*
X96710476Y-4960952D01*
X96758095Y-5008571D01*
X96805714Y-5103809D01*
X96805714Y-5341904D01*
X96758095Y-5437142D01*
X96710476Y-5484761D01*
X96615238Y-5532380D01*
X96377142Y-5532380D01*
X96281904Y-5484761D01*
X96234285Y-5437142D01*
%TO.C,SW22*%
X84232976Y-64539761D02*
X84375833Y-64587380D01*
X84613928Y-64587380D01*
X84709166Y-64539761D01*
X84756785Y-64492142D01*
X84804404Y-64396904D01*
X84804404Y-64301666D01*
X84756785Y-64206428D01*
X84709166Y-64158809D01*
X84613928Y-64111190D01*
X84423452Y-64063571D01*
X84328214Y-64015952D01*
X84280595Y-63968333D01*
X84232976Y-63873095D01*
X84232976Y-63777857D01*
X84280595Y-63682619D01*
X84328214Y-63635000D01*
X84423452Y-63587380D01*
X84661547Y-63587380D01*
X84804404Y-63635000D01*
X85137738Y-63587380D02*
X85375833Y-64587380D01*
X85566309Y-63873095D01*
X85756785Y-64587380D01*
X85994880Y-63587380D01*
X86328214Y-63682619D02*
X86375833Y-63635000D01*
X86471071Y-63587380D01*
X86709166Y-63587380D01*
X86804404Y-63635000D01*
X86852023Y-63682619D01*
X86899642Y-63777857D01*
X86899642Y-63873095D01*
X86852023Y-64015952D01*
X86280595Y-64587380D01*
X86899642Y-64587380D01*
X87280595Y-63682619D02*
X87328214Y-63635000D01*
X87423452Y-63587380D01*
X87661547Y-63587380D01*
X87756785Y-63635000D01*
X87804404Y-63682619D01*
X87852023Y-63777857D01*
X87852023Y-63873095D01*
X87804404Y-64015952D01*
X87232976Y-64587380D01*
X87852023Y-64587380D01*
X82542023Y-62587142D02*
X82494404Y-62634761D01*
X82351547Y-62682380D01*
X82256309Y-62682380D01*
X82113452Y-62634761D01*
X82018214Y-62539523D01*
X81970595Y-62444285D01*
X81922976Y-62253809D01*
X81922976Y-62110952D01*
X81970595Y-61920476D01*
X82018214Y-61825238D01*
X82113452Y-61730000D01*
X82256309Y-61682380D01*
X82351547Y-61682380D01*
X82494404Y-61730000D01*
X82542023Y-61777619D01*
%TO.C,SW21*%
X93757976Y-45489761D02*
X93900833Y-45537380D01*
X94138928Y-45537380D01*
X94234166Y-45489761D01*
X94281785Y-45442142D01*
X94329404Y-45346904D01*
X94329404Y-45251666D01*
X94281785Y-45156428D01*
X94234166Y-45108809D01*
X94138928Y-45061190D01*
X93948452Y-45013571D01*
X93853214Y-44965952D01*
X93805595Y-44918333D01*
X93757976Y-44823095D01*
X93757976Y-44727857D01*
X93805595Y-44632619D01*
X93853214Y-44585000D01*
X93948452Y-44537380D01*
X94186547Y-44537380D01*
X94329404Y-44585000D01*
X94662738Y-44537380D02*
X94900833Y-45537380D01*
X95091309Y-44823095D01*
X95281785Y-45537380D01*
X95519880Y-44537380D01*
X95853214Y-44632619D02*
X95900833Y-44585000D01*
X95996071Y-44537380D01*
X96234166Y-44537380D01*
X96329404Y-44585000D01*
X96377023Y-44632619D01*
X96424642Y-44727857D01*
X96424642Y-44823095D01*
X96377023Y-44965952D01*
X95805595Y-45537380D01*
X96424642Y-45537380D01*
X97377023Y-45537380D02*
X96805595Y-45537380D01*
X97091309Y-45537380D02*
X97091309Y-44537380D01*
X96996071Y-44680238D01*
X96900833Y-44775476D01*
X96805595Y-44823095D01*
X91900357Y-43108571D02*
X91567023Y-43108571D01*
X91567023Y-43632380D02*
X91567023Y-42632380D01*
X92043214Y-42632380D01*
%TO.C,SW20*%
X88995476Y-26439761D02*
X89138333Y-26487380D01*
X89376428Y-26487380D01*
X89471666Y-26439761D01*
X89519285Y-26392142D01*
X89566904Y-26296904D01*
X89566904Y-26201666D01*
X89519285Y-26106428D01*
X89471666Y-26058809D01*
X89376428Y-26011190D01*
X89185952Y-25963571D01*
X89090714Y-25915952D01*
X89043095Y-25868333D01*
X88995476Y-25773095D01*
X88995476Y-25677857D01*
X89043095Y-25582619D01*
X89090714Y-25535000D01*
X89185952Y-25487380D01*
X89424047Y-25487380D01*
X89566904Y-25535000D01*
X89900238Y-25487380D02*
X90138333Y-26487380D01*
X90328809Y-25773095D01*
X90519285Y-26487380D01*
X90757380Y-25487380D01*
X91090714Y-25582619D02*
X91138333Y-25535000D01*
X91233571Y-25487380D01*
X91471666Y-25487380D01*
X91566904Y-25535000D01*
X91614523Y-25582619D01*
X91662142Y-25677857D01*
X91662142Y-25773095D01*
X91614523Y-25915952D01*
X91043095Y-26487380D01*
X91662142Y-26487380D01*
X92281190Y-25487380D02*
X92376428Y-25487380D01*
X92471666Y-25535000D01*
X92519285Y-25582619D01*
X92566904Y-25677857D01*
X92614523Y-25868333D01*
X92614523Y-26106428D01*
X92566904Y-26296904D01*
X92519285Y-26392142D01*
X92471666Y-26439761D01*
X92376428Y-26487380D01*
X92281190Y-26487380D01*
X92185952Y-26439761D01*
X92138333Y-26392142D01*
X92090714Y-26296904D01*
X92043095Y-26106428D01*
X92043095Y-25868333D01*
X92090714Y-25677857D01*
X92138333Y-25582619D01*
X92185952Y-25535000D01*
X92281190Y-25487380D01*
X87304523Y-24582380D02*
X86971190Y-24106190D01*
X86733095Y-24582380D02*
X86733095Y-23582380D01*
X87114047Y-23582380D01*
X87209285Y-23630000D01*
X87256904Y-23677619D01*
X87304523Y-23772857D01*
X87304523Y-23915714D01*
X87256904Y-24010952D01*
X87209285Y-24058571D01*
X87114047Y-24106190D01*
X86733095Y-24106190D01*
%TO.C,SW19*%
X79470476Y-7389761D02*
X79613333Y-7437380D01*
X79851428Y-7437380D01*
X79946666Y-7389761D01*
X79994285Y-7342142D01*
X80041904Y-7246904D01*
X80041904Y-7151666D01*
X79994285Y-7056428D01*
X79946666Y-7008809D01*
X79851428Y-6961190D01*
X79660952Y-6913571D01*
X79565714Y-6865952D01*
X79518095Y-6818333D01*
X79470476Y-6723095D01*
X79470476Y-6627857D01*
X79518095Y-6532619D01*
X79565714Y-6485000D01*
X79660952Y-6437380D01*
X79899047Y-6437380D01*
X80041904Y-6485000D01*
X80375238Y-6437380D02*
X80613333Y-7437380D01*
X80803809Y-6723095D01*
X80994285Y-7437380D01*
X81232380Y-6437380D01*
X82137142Y-7437380D02*
X81565714Y-7437380D01*
X81851428Y-7437380D02*
X81851428Y-6437380D01*
X81756190Y-6580238D01*
X81660952Y-6675476D01*
X81565714Y-6723095D01*
X82613333Y-7437380D02*
X82803809Y-7437380D01*
X82899047Y-7389761D01*
X82946666Y-7342142D01*
X83041904Y-7199285D01*
X83089523Y-7008809D01*
X83089523Y-6627857D01*
X83041904Y-6532619D01*
X82994285Y-6485000D01*
X82899047Y-6437380D01*
X82708571Y-6437380D01*
X82613333Y-6485000D01*
X82565714Y-6532619D01*
X82518095Y-6627857D01*
X82518095Y-6865952D01*
X82565714Y-6961190D01*
X82613333Y-7008809D01*
X82708571Y-7056428D01*
X82899047Y-7056428D01*
X82994285Y-7008809D01*
X83041904Y-6961190D01*
X83089523Y-6865952D01*
X77660476Y-4865714D02*
X77660476Y-5532380D01*
X77422380Y-4484761D02*
X77184285Y-5199047D01*
X77803333Y-5199047D01*
%TO.C,SW18*%
X65182976Y-64539761D02*
X65325833Y-64587380D01*
X65563928Y-64587380D01*
X65659166Y-64539761D01*
X65706785Y-64492142D01*
X65754404Y-64396904D01*
X65754404Y-64301666D01*
X65706785Y-64206428D01*
X65659166Y-64158809D01*
X65563928Y-64111190D01*
X65373452Y-64063571D01*
X65278214Y-64015952D01*
X65230595Y-63968333D01*
X65182976Y-63873095D01*
X65182976Y-63777857D01*
X65230595Y-63682619D01*
X65278214Y-63635000D01*
X65373452Y-63587380D01*
X65611547Y-63587380D01*
X65754404Y-63635000D01*
X66087738Y-63587380D02*
X66325833Y-64587380D01*
X66516309Y-63873095D01*
X66706785Y-64587380D01*
X66944880Y-63587380D01*
X67849642Y-64587380D02*
X67278214Y-64587380D01*
X67563928Y-64587380D02*
X67563928Y-63587380D01*
X67468690Y-63730238D01*
X67373452Y-63825476D01*
X67278214Y-63873095D01*
X68421071Y-64015952D02*
X68325833Y-63968333D01*
X68278214Y-63920714D01*
X68230595Y-63825476D01*
X68230595Y-63777857D01*
X68278214Y-63682619D01*
X68325833Y-63635000D01*
X68421071Y-63587380D01*
X68611547Y-63587380D01*
X68706785Y-63635000D01*
X68754404Y-63682619D01*
X68802023Y-63777857D01*
X68802023Y-63825476D01*
X68754404Y-63920714D01*
X68706785Y-63968333D01*
X68611547Y-64015952D01*
X68421071Y-64015952D01*
X68325833Y-64063571D01*
X68278214Y-64111190D01*
X68230595Y-64206428D01*
X68230595Y-64396904D01*
X68278214Y-64492142D01*
X68325833Y-64539761D01*
X68421071Y-64587380D01*
X68611547Y-64587380D01*
X68706785Y-64539761D01*
X68754404Y-64492142D01*
X68802023Y-64396904D01*
X68802023Y-64206428D01*
X68754404Y-64111190D01*
X68706785Y-64063571D01*
X68611547Y-64015952D01*
X62849166Y-61682380D02*
X63515833Y-62682380D01*
X63515833Y-61682380D02*
X62849166Y-62682380D01*
%TO.C,SW17*%
X74707976Y-45489761D02*
X74850833Y-45537380D01*
X75088928Y-45537380D01*
X75184166Y-45489761D01*
X75231785Y-45442142D01*
X75279404Y-45346904D01*
X75279404Y-45251666D01*
X75231785Y-45156428D01*
X75184166Y-45108809D01*
X75088928Y-45061190D01*
X74898452Y-45013571D01*
X74803214Y-44965952D01*
X74755595Y-44918333D01*
X74707976Y-44823095D01*
X74707976Y-44727857D01*
X74755595Y-44632619D01*
X74803214Y-44585000D01*
X74898452Y-44537380D01*
X75136547Y-44537380D01*
X75279404Y-44585000D01*
X75612738Y-44537380D02*
X75850833Y-45537380D01*
X76041309Y-44823095D01*
X76231785Y-45537380D01*
X76469880Y-44537380D01*
X77374642Y-45537380D02*
X76803214Y-45537380D01*
X77088928Y-45537380D02*
X77088928Y-44537380D01*
X76993690Y-44680238D01*
X76898452Y-44775476D01*
X76803214Y-44823095D01*
X77707976Y-44537380D02*
X78374642Y-44537380D01*
X77946071Y-45537380D01*
X72445595Y-43632380D02*
X72445595Y-42632380D01*
X72683690Y-42632380D01*
X72826547Y-42680000D01*
X72921785Y-42775238D01*
X72969404Y-42870476D01*
X73017023Y-43060952D01*
X73017023Y-43203809D01*
X72969404Y-43394285D01*
X72921785Y-43489523D01*
X72826547Y-43584761D01*
X72683690Y-43632380D01*
X72445595Y-43632380D01*
%TO.C,SW16*%
X69945476Y-26439761D02*
X70088333Y-26487380D01*
X70326428Y-26487380D01*
X70421666Y-26439761D01*
X70469285Y-26392142D01*
X70516904Y-26296904D01*
X70516904Y-26201666D01*
X70469285Y-26106428D01*
X70421666Y-26058809D01*
X70326428Y-26011190D01*
X70135952Y-25963571D01*
X70040714Y-25915952D01*
X69993095Y-25868333D01*
X69945476Y-25773095D01*
X69945476Y-25677857D01*
X69993095Y-25582619D01*
X70040714Y-25535000D01*
X70135952Y-25487380D01*
X70374047Y-25487380D01*
X70516904Y-25535000D01*
X70850238Y-25487380D02*
X71088333Y-26487380D01*
X71278809Y-25773095D01*
X71469285Y-26487380D01*
X71707380Y-25487380D01*
X72612142Y-26487380D02*
X72040714Y-26487380D01*
X72326428Y-26487380D02*
X72326428Y-25487380D01*
X72231190Y-25630238D01*
X72135952Y-25725476D01*
X72040714Y-25773095D01*
X73469285Y-25487380D02*
X73278809Y-25487380D01*
X73183571Y-25535000D01*
X73135952Y-25582619D01*
X73040714Y-25725476D01*
X72993095Y-25915952D01*
X72993095Y-26296904D01*
X73040714Y-26392142D01*
X73088333Y-26439761D01*
X73183571Y-26487380D01*
X73374047Y-26487380D01*
X73469285Y-26439761D01*
X73516904Y-26392142D01*
X73564523Y-26296904D01*
X73564523Y-26058809D01*
X73516904Y-25963571D01*
X73469285Y-25915952D01*
X73374047Y-25868333D01*
X73183571Y-25868333D01*
X73088333Y-25915952D01*
X73040714Y-25963571D01*
X72993095Y-26058809D01*
X67730714Y-24058571D02*
X68064047Y-24058571D01*
X68206904Y-24582380D02*
X67730714Y-24582380D01*
X67730714Y-23582380D01*
X68206904Y-23582380D01*
%TO.C,SW15*%
X60420476Y-7389761D02*
X60563333Y-7437380D01*
X60801428Y-7437380D01*
X60896666Y-7389761D01*
X60944285Y-7342142D01*
X60991904Y-7246904D01*
X60991904Y-7151666D01*
X60944285Y-7056428D01*
X60896666Y-7008809D01*
X60801428Y-6961190D01*
X60610952Y-6913571D01*
X60515714Y-6865952D01*
X60468095Y-6818333D01*
X60420476Y-6723095D01*
X60420476Y-6627857D01*
X60468095Y-6532619D01*
X60515714Y-6485000D01*
X60610952Y-6437380D01*
X60849047Y-6437380D01*
X60991904Y-6485000D01*
X61325238Y-6437380D02*
X61563333Y-7437380D01*
X61753809Y-6723095D01*
X61944285Y-7437380D01*
X62182380Y-6437380D01*
X63087142Y-7437380D02*
X62515714Y-7437380D01*
X62801428Y-7437380D02*
X62801428Y-6437380D01*
X62706190Y-6580238D01*
X62610952Y-6675476D01*
X62515714Y-6723095D01*
X63991904Y-6437380D02*
X63515714Y-6437380D01*
X63468095Y-6913571D01*
X63515714Y-6865952D01*
X63610952Y-6818333D01*
X63849047Y-6818333D01*
X63944285Y-6865952D01*
X63991904Y-6913571D01*
X64039523Y-7008809D01*
X64039523Y-7246904D01*
X63991904Y-7342142D01*
X63944285Y-7389761D01*
X63849047Y-7437380D01*
X63610952Y-7437380D01*
X63515714Y-7389761D01*
X63468095Y-7342142D01*
X58086666Y-4532380D02*
X58705714Y-4532380D01*
X58372380Y-4913333D01*
X58515238Y-4913333D01*
X58610476Y-4960952D01*
X58658095Y-5008571D01*
X58705714Y-5103809D01*
X58705714Y-5341904D01*
X58658095Y-5437142D01*
X58610476Y-5484761D01*
X58515238Y-5532380D01*
X58229523Y-5532380D01*
X58134285Y-5484761D01*
X58086666Y-5437142D01*
%TO.C,SW13*%
X46132976Y-64539761D02*
X46275833Y-64587380D01*
X46513928Y-64587380D01*
X46609166Y-64539761D01*
X46656785Y-64492142D01*
X46704404Y-64396904D01*
X46704404Y-64301666D01*
X46656785Y-64206428D01*
X46609166Y-64158809D01*
X46513928Y-64111190D01*
X46323452Y-64063571D01*
X46228214Y-64015952D01*
X46180595Y-63968333D01*
X46132976Y-63873095D01*
X46132976Y-63777857D01*
X46180595Y-63682619D01*
X46228214Y-63635000D01*
X46323452Y-63587380D01*
X46561547Y-63587380D01*
X46704404Y-63635000D01*
X47037738Y-63587380D02*
X47275833Y-64587380D01*
X47466309Y-63873095D01*
X47656785Y-64587380D01*
X47894880Y-63587380D01*
X48799642Y-64587380D02*
X48228214Y-64587380D01*
X48513928Y-64587380D02*
X48513928Y-63587380D01*
X48418690Y-63730238D01*
X48323452Y-63825476D01*
X48228214Y-63873095D01*
X49132976Y-63587380D02*
X49752023Y-63587380D01*
X49418690Y-63968333D01*
X49561547Y-63968333D01*
X49656785Y-64015952D01*
X49704404Y-64063571D01*
X49752023Y-64158809D01*
X49752023Y-64396904D01*
X49704404Y-64492142D01*
X49656785Y-64539761D01*
X49561547Y-64587380D01*
X49275833Y-64587380D01*
X49180595Y-64539761D01*
X49132976Y-64492142D01*
X44132500Y-62206190D02*
X44132500Y-62682380D01*
X43799166Y-61682380D02*
X44132500Y-62206190D01*
X44465833Y-61682380D01*
%TO.C,SW12*%
X55657976Y-45489761D02*
X55800833Y-45537380D01*
X56038928Y-45537380D01*
X56134166Y-45489761D01*
X56181785Y-45442142D01*
X56229404Y-45346904D01*
X56229404Y-45251666D01*
X56181785Y-45156428D01*
X56134166Y-45108809D01*
X56038928Y-45061190D01*
X55848452Y-45013571D01*
X55753214Y-44965952D01*
X55705595Y-44918333D01*
X55657976Y-44823095D01*
X55657976Y-44727857D01*
X55705595Y-44632619D01*
X55753214Y-44585000D01*
X55848452Y-44537380D01*
X56086547Y-44537380D01*
X56229404Y-44585000D01*
X56562738Y-44537380D02*
X56800833Y-45537380D01*
X56991309Y-44823095D01*
X57181785Y-45537380D01*
X57419880Y-44537380D01*
X58324642Y-45537380D02*
X57753214Y-45537380D01*
X58038928Y-45537380D02*
X58038928Y-44537380D01*
X57943690Y-44680238D01*
X57848452Y-44775476D01*
X57753214Y-44823095D01*
X58705595Y-44632619D02*
X58753214Y-44585000D01*
X58848452Y-44537380D01*
X59086547Y-44537380D01*
X59181785Y-44585000D01*
X59229404Y-44632619D01*
X59277023Y-44727857D01*
X59277023Y-44823095D01*
X59229404Y-44965952D01*
X58657976Y-45537380D01*
X59277023Y-45537380D01*
X53371785Y-43584761D02*
X53514642Y-43632380D01*
X53752738Y-43632380D01*
X53847976Y-43584761D01*
X53895595Y-43537142D01*
X53943214Y-43441904D01*
X53943214Y-43346666D01*
X53895595Y-43251428D01*
X53847976Y-43203809D01*
X53752738Y-43156190D01*
X53562261Y-43108571D01*
X53467023Y-43060952D01*
X53419404Y-43013333D01*
X53371785Y-42918095D01*
X53371785Y-42822857D01*
X53419404Y-42727619D01*
X53467023Y-42680000D01*
X53562261Y-42632380D01*
X53800357Y-42632380D01*
X53943214Y-42680000D01*
%TO.C,SW11*%
X50895476Y-26439761D02*
X51038333Y-26487380D01*
X51276428Y-26487380D01*
X51371666Y-26439761D01*
X51419285Y-26392142D01*
X51466904Y-26296904D01*
X51466904Y-26201666D01*
X51419285Y-26106428D01*
X51371666Y-26058809D01*
X51276428Y-26011190D01*
X51085952Y-25963571D01*
X50990714Y-25915952D01*
X50943095Y-25868333D01*
X50895476Y-25773095D01*
X50895476Y-25677857D01*
X50943095Y-25582619D01*
X50990714Y-25535000D01*
X51085952Y-25487380D01*
X51324047Y-25487380D01*
X51466904Y-25535000D01*
X51800238Y-25487380D02*
X52038333Y-26487380D01*
X52228809Y-25773095D01*
X52419285Y-26487380D01*
X52657380Y-25487380D01*
X53562142Y-26487380D02*
X52990714Y-26487380D01*
X53276428Y-26487380D02*
X53276428Y-25487380D01*
X53181190Y-25630238D01*
X53085952Y-25725476D01*
X52990714Y-25773095D01*
X54514523Y-26487380D02*
X53943095Y-26487380D01*
X54228809Y-26487380D02*
X54228809Y-25487380D01*
X54133571Y-25630238D01*
X54038333Y-25725476D01*
X53943095Y-25773095D01*
X48466428Y-23582380D02*
X48704523Y-24582380D01*
X48895000Y-23868095D01*
X49085476Y-24582380D01*
X49323571Y-23582380D01*
%TO.C,SW10*%
X41370476Y-7389761D02*
X41513333Y-7437380D01*
X41751428Y-7437380D01*
X41846666Y-7389761D01*
X41894285Y-7342142D01*
X41941904Y-7246904D01*
X41941904Y-7151666D01*
X41894285Y-7056428D01*
X41846666Y-7008809D01*
X41751428Y-6961190D01*
X41560952Y-6913571D01*
X41465714Y-6865952D01*
X41418095Y-6818333D01*
X41370476Y-6723095D01*
X41370476Y-6627857D01*
X41418095Y-6532619D01*
X41465714Y-6485000D01*
X41560952Y-6437380D01*
X41799047Y-6437380D01*
X41941904Y-6485000D01*
X42275238Y-6437380D02*
X42513333Y-7437380D01*
X42703809Y-6723095D01*
X42894285Y-7437380D01*
X43132380Y-6437380D01*
X44037142Y-7437380D02*
X43465714Y-7437380D01*
X43751428Y-7437380D02*
X43751428Y-6437380D01*
X43656190Y-6580238D01*
X43560952Y-6675476D01*
X43465714Y-6723095D01*
X44656190Y-6437380D02*
X44751428Y-6437380D01*
X44846666Y-6485000D01*
X44894285Y-6532619D01*
X44941904Y-6627857D01*
X44989523Y-6818333D01*
X44989523Y-7056428D01*
X44941904Y-7246904D01*
X44894285Y-7342142D01*
X44846666Y-7389761D01*
X44751428Y-7437380D01*
X44656190Y-7437380D01*
X44560952Y-7389761D01*
X44513333Y-7342142D01*
X44465714Y-7246904D01*
X44418095Y-7056428D01*
X44418095Y-6818333D01*
X44465714Y-6627857D01*
X44513333Y-6532619D01*
X44560952Y-6485000D01*
X44656190Y-6437380D01*
X39084285Y-4627619D02*
X39131904Y-4580000D01*
X39227142Y-4532380D01*
X39465238Y-4532380D01*
X39560476Y-4580000D01*
X39608095Y-4627619D01*
X39655714Y-4722857D01*
X39655714Y-4818095D01*
X39608095Y-4960952D01*
X39036666Y-5532380D01*
X39655714Y-5532380D01*
%TO.C,SW8*%
X37084166Y-45489761D02*
X37227023Y-45537380D01*
X37465119Y-45537380D01*
X37560357Y-45489761D01*
X37607976Y-45442142D01*
X37655595Y-45346904D01*
X37655595Y-45251666D01*
X37607976Y-45156428D01*
X37560357Y-45108809D01*
X37465119Y-45061190D01*
X37274642Y-45013571D01*
X37179404Y-44965952D01*
X37131785Y-44918333D01*
X37084166Y-44823095D01*
X37084166Y-44727857D01*
X37131785Y-44632619D01*
X37179404Y-44585000D01*
X37274642Y-44537380D01*
X37512738Y-44537380D01*
X37655595Y-44585000D01*
X37988928Y-44537380D02*
X38227023Y-45537380D01*
X38417500Y-44823095D01*
X38607976Y-45537380D01*
X38846071Y-44537380D01*
X39369880Y-44965952D02*
X39274642Y-44918333D01*
X39227023Y-44870714D01*
X39179404Y-44775476D01*
X39179404Y-44727857D01*
X39227023Y-44632619D01*
X39274642Y-44585000D01*
X39369880Y-44537380D01*
X39560357Y-44537380D01*
X39655595Y-44585000D01*
X39703214Y-44632619D01*
X39750833Y-44727857D01*
X39750833Y-44775476D01*
X39703214Y-44870714D01*
X39655595Y-44918333D01*
X39560357Y-44965952D01*
X39369880Y-44965952D01*
X39274642Y-45013571D01*
X39227023Y-45061190D01*
X39179404Y-45156428D01*
X39179404Y-45346904D01*
X39227023Y-45442142D01*
X39274642Y-45489761D01*
X39369880Y-45537380D01*
X39560357Y-45537380D01*
X39655595Y-45489761D01*
X39703214Y-45442142D01*
X39750833Y-45346904D01*
X39750833Y-45156428D01*
X39703214Y-45061190D01*
X39655595Y-45013571D01*
X39560357Y-44965952D01*
X34369404Y-43346666D02*
X34845595Y-43346666D01*
X34274166Y-43632380D02*
X34607500Y-42632380D01*
X34940833Y-43632380D01*
%TO.C,SW7*%
X32321666Y-26439761D02*
X32464523Y-26487380D01*
X32702619Y-26487380D01*
X32797857Y-26439761D01*
X32845476Y-26392142D01*
X32893095Y-26296904D01*
X32893095Y-26201666D01*
X32845476Y-26106428D01*
X32797857Y-26058809D01*
X32702619Y-26011190D01*
X32512142Y-25963571D01*
X32416904Y-25915952D01*
X32369285Y-25868333D01*
X32321666Y-25773095D01*
X32321666Y-25677857D01*
X32369285Y-25582619D01*
X32416904Y-25535000D01*
X32512142Y-25487380D01*
X32750238Y-25487380D01*
X32893095Y-25535000D01*
X33226428Y-25487380D02*
X33464523Y-26487380D01*
X33655000Y-25773095D01*
X33845476Y-26487380D01*
X34083571Y-25487380D01*
X34369285Y-25487380D02*
X35035952Y-25487380D01*
X34607380Y-26487380D01*
X30225952Y-24677619D02*
X30130714Y-24630000D01*
X30035476Y-24534761D01*
X29892619Y-24391904D01*
X29797380Y-24344285D01*
X29702142Y-24344285D01*
X29749761Y-24582380D02*
X29654523Y-24534761D01*
X29559285Y-24439523D01*
X29511666Y-24249047D01*
X29511666Y-23915714D01*
X29559285Y-23725238D01*
X29654523Y-23630000D01*
X29749761Y-23582380D01*
X29940238Y-23582380D01*
X30035476Y-23630000D01*
X30130714Y-23725238D01*
X30178333Y-23915714D01*
X30178333Y-24249047D01*
X30130714Y-24439523D01*
X30035476Y-24534761D01*
X29940238Y-24582380D01*
X29749761Y-24582380D01*
%TO.C,SW6*%
X23431666Y-7389761D02*
X23574523Y-7437380D01*
X23812619Y-7437380D01*
X23907857Y-7389761D01*
X23955476Y-7342142D01*
X24003095Y-7246904D01*
X24003095Y-7151666D01*
X23955476Y-7056428D01*
X23907857Y-7008809D01*
X23812619Y-6961190D01*
X23622142Y-6913571D01*
X23526904Y-6865952D01*
X23479285Y-6818333D01*
X23431666Y-6723095D01*
X23431666Y-6627857D01*
X23479285Y-6532619D01*
X23526904Y-6485000D01*
X23622142Y-6437380D01*
X23860238Y-6437380D01*
X24003095Y-6485000D01*
X24336428Y-6437380D02*
X24574523Y-7437380D01*
X24765000Y-6723095D01*
X24955476Y-7437380D01*
X25193571Y-6437380D01*
X26003095Y-6437380D02*
X25812619Y-6437380D01*
X25717380Y-6485000D01*
X25669761Y-6532619D01*
X25574523Y-6675476D01*
X25526904Y-6865952D01*
X25526904Y-7246904D01*
X25574523Y-7342142D01*
X25622142Y-7389761D01*
X25717380Y-7437380D01*
X25907857Y-7437380D01*
X26003095Y-7389761D01*
X26050714Y-7342142D01*
X26098333Y-7246904D01*
X26098333Y-7008809D01*
X26050714Y-6913571D01*
X26003095Y-6865952D01*
X25907857Y-6818333D01*
X25717380Y-6818333D01*
X25622142Y-6865952D01*
X25574523Y-6913571D01*
X25526904Y-7008809D01*
X21748714Y-5532380D02*
X21177285Y-5532380D01*
X21463000Y-5532380D02*
X21463000Y-4532380D01*
X21367761Y-4675238D01*
X21272523Y-4770476D01*
X21177285Y-4818095D01*
%TO.C,SW3*%
X10890416Y-45489761D02*
X11033273Y-45537380D01*
X11271369Y-45537380D01*
X11366607Y-45489761D01*
X11414226Y-45442142D01*
X11461845Y-45346904D01*
X11461845Y-45251666D01*
X11414226Y-45156428D01*
X11366607Y-45108809D01*
X11271369Y-45061190D01*
X11080892Y-45013571D01*
X10985654Y-44965952D01*
X10938035Y-44918333D01*
X10890416Y-44823095D01*
X10890416Y-44727857D01*
X10938035Y-44632619D01*
X10985654Y-44585000D01*
X11080892Y-44537380D01*
X11318988Y-44537380D01*
X11461845Y-44585000D01*
X11795178Y-44537380D02*
X12033273Y-45537380D01*
X12223750Y-44823095D01*
X12414226Y-45537380D01*
X12652321Y-44537380D01*
X12938035Y-44537380D02*
X13557083Y-44537380D01*
X13223750Y-44918333D01*
X13366607Y-44918333D01*
X13461845Y-44965952D01*
X13509464Y-45013571D01*
X13557083Y-45108809D01*
X13557083Y-45346904D01*
X13509464Y-45442142D01*
X13461845Y-45489761D01*
X13366607Y-45537380D01*
X13080892Y-45537380D01*
X12985654Y-45489761D01*
X12938035Y-45442142D01*
X7223273Y-43108571D02*
X7556607Y-43108571D01*
X7699464Y-43632380D02*
X7223273Y-43632380D01*
X7223273Y-42632380D01*
X7699464Y-42632380D01*
X8080416Y-43584761D02*
X8223273Y-43632380D01*
X8461369Y-43632380D01*
X8556607Y-43584761D01*
X8604226Y-43537142D01*
X8651845Y-43441904D01*
X8651845Y-43346666D01*
X8604226Y-43251428D01*
X8556607Y-43203809D01*
X8461369Y-43156190D01*
X8270892Y-43108571D01*
X8175654Y-43060952D01*
X8128035Y-43013333D01*
X8080416Y-42918095D01*
X8080416Y-42822857D01*
X8128035Y-42727619D01*
X8175654Y-42680000D01*
X8270892Y-42632380D01*
X8508988Y-42632380D01*
X8651845Y-42680000D01*
X9651845Y-43537142D02*
X9604226Y-43584761D01*
X9461369Y-43632380D01*
X9366130Y-43632380D01*
X9223273Y-43584761D01*
X9128035Y-43489523D01*
X9080416Y-43394285D01*
X9032797Y-43203809D01*
X9032797Y-43060952D01*
X9080416Y-42870476D01*
X9128035Y-42775238D01*
X9223273Y-42680000D01*
X9366130Y-42632380D01*
X9461369Y-42632380D01*
X9604226Y-42680000D01*
X9651845Y-42727619D01*
%TO.C,SW2*%
X9207666Y-26312761D02*
X9350523Y-26360380D01*
X9588619Y-26360380D01*
X9683857Y-26312761D01*
X9731476Y-26265142D01*
X9779095Y-26169904D01*
X9779095Y-26074666D01*
X9731476Y-25979428D01*
X9683857Y-25931809D01*
X9588619Y-25884190D01*
X9398142Y-25836571D01*
X9302904Y-25788952D01*
X9255285Y-25741333D01*
X9207666Y-25646095D01*
X9207666Y-25550857D01*
X9255285Y-25455619D01*
X9302904Y-25408000D01*
X9398142Y-25360380D01*
X9636238Y-25360380D01*
X9779095Y-25408000D01*
X10112428Y-25360380D02*
X10350523Y-26360380D01*
X10541000Y-25646095D01*
X10731476Y-26360380D01*
X10969571Y-25360380D01*
X11302904Y-25455619D02*
X11350523Y-25408000D01*
X11445761Y-25360380D01*
X11683857Y-25360380D01*
X11779095Y-25408000D01*
X11826714Y-25455619D01*
X11874333Y-25550857D01*
X11874333Y-25646095D01*
X11826714Y-25788952D01*
X11255285Y-26360380D01*
X11874333Y-26360380D01*
X5643714Y-23709380D02*
X6215142Y-23709380D01*
X5929428Y-24709380D02*
X5929428Y-23709380D01*
X6500857Y-24423666D02*
X6977047Y-24423666D01*
X6405619Y-24709380D02*
X6738952Y-23709380D01*
X7072285Y-24709380D01*
X7738952Y-24185571D02*
X7881809Y-24233190D01*
X7929428Y-24280809D01*
X7977047Y-24376047D01*
X7977047Y-24518904D01*
X7929428Y-24614142D01*
X7881809Y-24661761D01*
X7786571Y-24709380D01*
X7405619Y-24709380D01*
X7405619Y-23709380D01*
X7738952Y-23709380D01*
X7834190Y-23757000D01*
X7881809Y-23804619D01*
X7929428Y-23899857D01*
X7929428Y-23995095D01*
X7881809Y-24090333D01*
X7834190Y-24137952D01*
X7738952Y-24185571D01*
X7405619Y-24185571D01*
%TO.C,SW1*%
X4635666Y-7262761D02*
X4778523Y-7310380D01*
X5016619Y-7310380D01*
X5111857Y-7262761D01*
X5159476Y-7215142D01*
X5207095Y-7119904D01*
X5207095Y-7024666D01*
X5159476Y-6929428D01*
X5111857Y-6881809D01*
X5016619Y-6834190D01*
X4826142Y-6786571D01*
X4730904Y-6738952D01*
X4683285Y-6691333D01*
X4635666Y-6596095D01*
X4635666Y-6500857D01*
X4683285Y-6405619D01*
X4730904Y-6358000D01*
X4826142Y-6310380D01*
X5064238Y-6310380D01*
X5207095Y-6358000D01*
X5540428Y-6310380D02*
X5778523Y-7310380D01*
X5969000Y-6596095D01*
X6159476Y-7310380D01*
X6397571Y-6310380D01*
X7302333Y-7310380D02*
X6730904Y-7310380D01*
X7016619Y-7310380D02*
X7016619Y-6310380D01*
X6921380Y-6453238D01*
X6826142Y-6548476D01*
X6730904Y-6596095D01*
X2444761Y-5246761D02*
X2587619Y-5389619D01*
%TD*%
M02*
